<?xml version="1.0" encoding="utf-8" standalone="no"?>
<!DOCTYPE svg PUBLIC "-//W3C//DTD SVG 1.1//EN"
  "http://www.w3.org/Graphics/SVG/1.1/DTD/svg11.dtd">
<svg xmlns:xlink="http://www.w3.org/1999/xlink" width="720pt" height="432pt" viewBox="0 0 720 432" xmlns="http://www.w3.org/2000/svg" version="1.1">
 <metadata>
  <rdf:RDF xmlns:dc="http://purl.org/dc/elements/1.1/" xmlns:cc="http://creativecommons.org/ns#" xmlns:rdf="http://www.w3.org/1999/02/22-rdf-syntax-ns#">
   <cc:Work>
    <dc:type rdf:resource="http://purl.org/dc/dcmitype/StillImage"/>
    <dc:date>1980-01-01T00:00:00+00:00</dc:date>
    <dc:format>image/svg+xml</dc:format>
    <dc:creator>
     <cc:Agent>
      <dc:title>Matplotlib v3.10.0, https://matplotlib.org/</dc:title>
     </cc:Agent>
    </dc:creator>
   </cc:Work>
  </rdf:RDF>
 </metadata>
 <defs>
  <style type="text/css">*{stroke-linejoin: round; stroke-linecap: butt}</style>
 </defs>
 <g id="figure_1">
  <g id="patch_1">
   <path d="M 0 432 
L 720 432 
L 720 0 
L 0 0 
z
" style="fill: #ffffff"/>
  </g>
  <g id="axes_1">
   <g id="patch_2">
    <path d="M 91.9125 142.890417 
L 709.2 142.890417 
L 709.2 33.21375 
L 91.9125 33.21375 
z
" style="fill: #ffffff"/>
   </g>
   <g id="matplotlib.axis_1">
    <g id="xtick_1">
     <g id="line2d_1">
      <path d="M 119.971023 142.890417 
L 119.971023 33.21375 
" clip-path="url(#p5d0c9286f4)" style="fill: none; stroke: #b0b0b0; stroke-width: 0.8; stroke-linecap: square"/>
     </g>
     <g id="line2d_2">
      <defs>
       <path id="m19c0ea94b0" d="M 0 0 
L 0 3.5 
" style="stroke: #000000; stroke-width: 0.8"/>
      </defs>
      <g>
       <use xlink:href="#m19c0ea94b0" x="119.971023" y="142.890417" style="stroke: #000000; stroke-width: 0.8"/>
      </g>
     </g>
    </g>
    <g id="xtick_2">
     <g id="line2d_3">
      <path d="M 232.206236 142.890417 
L 232.206236 33.21375 
" clip-path="url(#p5d0c9286f4)" style="fill: none; stroke: #b0b0b0; stroke-width: 0.8; stroke-linecap: square"/>
     </g>
     <g id="line2d_4">
      <g>
       <use xlink:href="#m19c0ea94b0" x="232.206236" y="142.890417" style="stroke: #000000; stroke-width: 0.8"/>
      </g>
     </g>
    </g>
    <g id="xtick_3">
     <g id="line2d_5">
      <path d="M 344.441449 142.890417 
L 344.441449 33.21375 
" clip-path="url(#p5d0c9286f4)" style="fill: none; stroke: #b0b0b0; stroke-width: 0.8; stroke-linecap: square"/>
     </g>
     <g id="line2d_6">
      <g>
       <use xlink:href="#m19c0ea94b0" x="344.441449" y="142.890417" style="stroke: #000000; stroke-width: 0.8"/>
      </g>
     </g>
    </g>
    <g id="xtick_4">
     <g id="line2d_7">
      <path d="M 456.676663 142.890417 
L 456.676663 33.21375 
" clip-path="url(#p5d0c9286f4)" style="fill: none; stroke: #b0b0b0; stroke-width: 0.8; stroke-linecap: square"/>
     </g>
     <g id="line2d_8">
      <g>
       <use xlink:href="#m19c0ea94b0" x="456.676663" y="142.890417" style="stroke: #000000; stroke-width: 0.8"/>
      </g>
     </g>
    </g>
    <g id="xtick_5">
     <g id="line2d_9">
      <path d="M 568.911876 142.890417 
L 568.911876 33.21375 
" clip-path="url(#p5d0c9286f4)" style="fill: none; stroke: #b0b0b0; stroke-width: 0.8; stroke-linecap: square"/>
     </g>
     <g id="line2d_10">
      <g>
       <use xlink:href="#m19c0ea94b0" x="568.911876" y="142.890417" style="stroke: #000000; stroke-width: 0.8"/>
      </g>
     </g>
    </g>
    <g id="xtick_6">
     <g id="line2d_11">
      <path d="M 681.147089 142.890417 
L 681.147089 33.21375 
" clip-path="url(#p5d0c9286f4)" style="fill: none; stroke: #b0b0b0; stroke-width: 0.8; stroke-linecap: square"/>
     </g>
     <g id="line2d_12">
      <g>
       <use xlink:href="#m19c0ea94b0" x="681.147089" y="142.890417" style="stroke: #000000; stroke-width: 0.8"/>
      </g>
     </g>
    </g>
   </g>
   <g id="matplotlib.axis_2">
    <g id="ytick_1">
     <g id="line2d_13">
      <path d="M 91.9125 127.934508 
L 709.2 127.934508 
" clip-path="url(#p5d0c9286f4)" style="fill: none; stroke: #b0b0b0; stroke-width: 0.8; stroke-linecap: square"/>
     </g>
     <g id="line2d_14">
      <defs>
       <path id="m7c7d777de6" d="M 0 0 
L -3.5 0 
" style="stroke: #000000; stroke-width: 0.8"/>
      </defs>
      <g>
       <use xlink:href="#m7c7d777de6" x="91.9125" y="127.934508" style="stroke: #000000; stroke-width: 0.8"/>
      </g>
     </g>
     <g id="text_1">
      <!-- −0.52 -->
      <g transform="translate(54.267187 131.733726) scale(0.1 -0.1)">
       <defs>
        <path id="DejaVuSans-2212" d="M 678 2272 
L 4684 2272 
L 4684 1741 
L 678 1741 
L 678 2272 
z
" transform="scale(0.015625)"/>
        <path id="DejaVuSans-30" d="M 2034 4250 
Q 1547 4250 1301 3770 
Q 1056 3291 1056 2328 
Q 1056 1369 1301 889 
Q 1547 409 2034 409 
Q 2525 409 2770 889 
Q 3016 1369 3016 2328 
Q 3016 3291 2770 3770 
Q 2525 4250 2034 4250 
z
M 2034 4750 
Q 2819 4750 3233 4129 
Q 3647 3509 3647 2328 
Q 3647 1150 3233 529 
Q 2819 -91 2034 -91 
Q 1250 -91 836 529 
Q 422 1150 422 2328 
Q 422 3509 836 4129 
Q 1250 4750 2034 4750 
z
" transform="scale(0.015625)"/>
        <path id="DejaVuSans-2e" d="M 684 794 
L 1344 794 
L 1344 0 
L 684 0 
L 684 794 
z
" transform="scale(0.015625)"/>
        <path id="DejaVuSans-35" d="M 691 4666 
L 3169 4666 
L 3169 4134 
L 1269 4134 
L 1269 2991 
Q 1406 3038 1543 3061 
Q 1681 3084 1819 3084 
Q 2600 3084 3056 2656 
Q 3513 2228 3513 1497 
Q 3513 744 3044 326 
Q 2575 -91 1722 -91 
Q 1428 -91 1123 -41 
Q 819 9 494 109 
L 494 744 
Q 775 591 1075 516 
Q 1375 441 1709 441 
Q 2250 441 2565 725 
Q 2881 1009 2881 1497 
Q 2881 1984 2565 2268 
Q 2250 2553 1709 2553 
Q 1456 2553 1204 2497 
Q 953 2441 691 2322 
L 691 4666 
z
" transform="scale(0.015625)"/>
        <path id="DejaVuSans-32" d="M 1228 531 
L 3431 531 
L 3431 0 
L 469 0 
L 469 531 
Q 828 903 1448 1529 
Q 2069 2156 2228 2338 
Q 2531 2678 2651 2914 
Q 2772 3150 2772 3378 
Q 2772 3750 2511 3984 
Q 2250 4219 1831 4219 
Q 1534 4219 1204 4116 
Q 875 4013 500 3803 
L 500 4441 
Q 881 4594 1212 4672 
Q 1544 4750 1819 4750 
Q 2544 4750 2975 4387 
Q 3406 4025 3406 3419 
Q 3406 3131 3298 2873 
Q 3191 2616 2906 2266 
Q 2828 2175 2409 1742 
Q 1991 1309 1228 531 
z
" transform="scale(0.015625)"/>
       </defs>
       <use xlink:href="#DejaVuSans-2212"/>
       <use xlink:href="#DejaVuSans-30" transform="translate(83.789062 0)"/>
       <use xlink:href="#DejaVuSans-2e" transform="translate(147.412109 0)"/>
       <use xlink:href="#DejaVuSans-35" transform="translate(179.199219 0)"/>
       <use xlink:href="#DejaVuSans-32" transform="translate(242.822266 0)"/>
      </g>
     </g>
    </g>
    <g id="ytick_2">
     <g id="line2d_15">
      <path d="M 91.9125 88.052083 
L 709.2 88.052083 
" clip-path="url(#p5d0c9286f4)" style="fill: none; stroke: #b0b0b0; stroke-width: 0.8; stroke-linecap: square"/>
     </g>
     <g id="line2d_16">
      <g>
       <use xlink:href="#m7c7d777de6" x="91.9125" y="88.052083" style="stroke: #000000; stroke-width: 0.8"/>
      </g>
     </g>
     <g id="text_2">
      <!-- −0.50 -->
      <g transform="translate(54.267187 91.851302) scale(0.1 -0.1)">
       <use xlink:href="#DejaVuSans-2212"/>
       <use xlink:href="#DejaVuSans-30" transform="translate(83.789062 0)"/>
       <use xlink:href="#DejaVuSans-2e" transform="translate(147.412109 0)"/>
       <use xlink:href="#DejaVuSans-35" transform="translate(179.199219 0)"/>
       <use xlink:href="#DejaVuSans-30" transform="translate(242.822266 0)"/>
      </g>
     </g>
    </g>
    <g id="ytick_3">
     <g id="line2d_17">
      <path d="M 91.9125 48.169659 
L 709.2 48.169659 
" clip-path="url(#p5d0c9286f4)" style="fill: none; stroke: #b0b0b0; stroke-width: 0.8; stroke-linecap: square"/>
     </g>
     <g id="line2d_18">
      <g>
       <use xlink:href="#m7c7d777de6" x="91.9125" y="48.169659" style="stroke: #000000; stroke-width: 0.8"/>
      </g>
     </g>
     <g id="text_3">
      <!-- −0.48 -->
      <g transform="translate(54.267187 51.968878) scale(0.1 -0.1)">
       <defs>
        <path id="DejaVuSans-34" d="M 2419 4116 
L 825 1625 
L 2419 1625 
L 2419 4116 
z
M 2253 4666 
L 3047 4666 
L 3047 1625 
L 3713 1625 
L 3713 1100 
L 3047 1100 
L 3047 0 
L 2419 0 
L 2419 1100 
L 313 1100 
L 313 1709 
L 2253 4666 
z
" transform="scale(0.015625)"/>
        <path id="DejaVuSans-38" d="M 2034 2216 
Q 1584 2216 1326 1975 
Q 1069 1734 1069 1313 
Q 1069 891 1326 650 
Q 1584 409 2034 409 
Q 2484 409 2743 651 
Q 3003 894 3003 1313 
Q 3003 1734 2745 1975 
Q 2488 2216 2034 2216 
z
M 1403 2484 
Q 997 2584 770 2862 
Q 544 3141 544 3541 
Q 544 4100 942 4425 
Q 1341 4750 2034 4750 
Q 2731 4750 3128 4425 
Q 3525 4100 3525 3541 
Q 3525 3141 3298 2862 
Q 3072 2584 2669 2484 
Q 3125 2378 3379 2068 
Q 3634 1759 3634 1313 
Q 3634 634 3220 271 
Q 2806 -91 2034 -91 
Q 1263 -91 848 271 
Q 434 634 434 1313 
Q 434 1759 690 2068 
Q 947 2378 1403 2484 
z
M 1172 3481 
Q 1172 3119 1398 2916 
Q 1625 2713 2034 2713 
Q 2441 2713 2670 2916 
Q 2900 3119 2900 3481 
Q 2900 3844 2670 4047 
Q 2441 4250 2034 4250 
Q 1625 4250 1398 4047 
Q 1172 3844 1172 3481 
z
" transform="scale(0.015625)"/>
       </defs>
       <use xlink:href="#DejaVuSans-2212"/>
       <use xlink:href="#DejaVuSans-30" transform="translate(83.789062 0)"/>
       <use xlink:href="#DejaVuSans-2e" transform="translate(147.412109 0)"/>
       <use xlink:href="#DejaVuSans-34" transform="translate(179.199219 0)"/>
       <use xlink:href="#DejaVuSans-38" transform="translate(242.822266 0)"/>
      </g>
     </g>
    </g>
    <g id="text_4">
     <!-- I_app_gpe -->
     <g transform="translate(4.87125 85.694271) scale(0.1 -0.1)">
      <defs>
       <path id="DejaVuSans-49" d="M 628 4666 
L 1259 4666 
L 1259 0 
L 628 0 
L 628 4666 
z
" transform="scale(0.015625)"/>
       <path id="DejaVuSans-5f" d="M 3263 -1063 
L 3263 -1509 
L -63 -1509 
L -63 -1063 
L 3263 -1063 
z
" transform="scale(0.015625)"/>
       <path id="DejaVuSans-61" d="M 2194 1759 
Q 1497 1759 1228 1600 
Q 959 1441 959 1056 
Q 959 750 1161 570 
Q 1363 391 1709 391 
Q 2188 391 2477 730 
Q 2766 1069 2766 1631 
L 2766 1759 
L 2194 1759 
z
M 3341 1997 
L 3341 0 
L 2766 0 
L 2766 531 
Q 2569 213 2275 61 
Q 1981 -91 1556 -91 
Q 1019 -91 701 211 
Q 384 513 384 1019 
Q 384 1609 779 1909 
Q 1175 2209 1959 2209 
L 2766 2209 
L 2766 2266 
Q 2766 2663 2505 2880 
Q 2244 3097 1772 3097 
Q 1472 3097 1187 3025 
Q 903 2953 641 2809 
L 641 3341 
Q 956 3463 1253 3523 
Q 1550 3584 1831 3584 
Q 2591 3584 2966 3190 
Q 3341 2797 3341 1997 
z
" transform="scale(0.015625)"/>
       <path id="DejaVuSans-70" d="M 1159 525 
L 1159 -1331 
L 581 -1331 
L 581 3500 
L 1159 3500 
L 1159 2969 
Q 1341 3281 1617 3432 
Q 1894 3584 2278 3584 
Q 2916 3584 3314 3078 
Q 3713 2572 3713 1747 
Q 3713 922 3314 415 
Q 2916 -91 2278 -91 
Q 1894 -91 1617 61 
Q 1341 213 1159 525 
z
M 3116 1747 
Q 3116 2381 2855 2742 
Q 2594 3103 2138 3103 
Q 1681 3103 1420 2742 
Q 1159 2381 1159 1747 
Q 1159 1113 1420 752 
Q 1681 391 2138 391 
Q 2594 391 2855 752 
Q 3116 1113 3116 1747 
z
" transform="scale(0.015625)"/>
       <path id="DejaVuSans-67" d="M 2906 1791 
Q 2906 2416 2648 2759 
Q 2391 3103 1925 3103 
Q 1463 3103 1205 2759 
Q 947 2416 947 1791 
Q 947 1169 1205 825 
Q 1463 481 1925 481 
Q 2391 481 2648 825 
Q 2906 1169 2906 1791 
z
M 3481 434 
Q 3481 -459 3084 -895 
Q 2688 -1331 1869 -1331 
Q 1566 -1331 1297 -1286 
Q 1028 -1241 775 -1147 
L 775 -588 
Q 1028 -725 1275 -790 
Q 1522 -856 1778 -856 
Q 2344 -856 2625 -561 
Q 2906 -266 2906 331 
L 2906 616 
Q 2728 306 2450 153 
Q 2172 0 1784 0 
Q 1141 0 747 490 
Q 353 981 353 1791 
Q 353 2603 747 3093 
Q 1141 3584 1784 3584 
Q 2172 3584 2450 3431 
Q 2728 3278 2906 2969 
L 2906 3500 
L 3481 3500 
L 3481 434 
z
" transform="scale(0.015625)"/>
       <path id="DejaVuSans-65" d="M 3597 1894 
L 3597 1613 
L 953 1613 
Q 991 1019 1311 708 
Q 1631 397 2203 397 
Q 2534 397 2845 478 
Q 3156 559 3463 722 
L 3463 178 
Q 3153 47 2828 -22 
Q 2503 -91 2169 -91 
Q 1331 -91 842 396 
Q 353 884 353 1716 
Q 353 2575 817 3079 
Q 1281 3584 2069 3584 
Q 2775 3584 3186 3129 
Q 3597 2675 3597 1894 
z
M 3022 2063 
Q 3016 2534 2758 2815 
Q 2500 3097 2075 3097 
Q 1594 3097 1305 2825 
Q 1016 2553 972 2059 
L 3022 2063 
z
" transform="scale(0.015625)"/>
      </defs>
      <use xlink:href="#DejaVuSans-49"/>
      <use xlink:href="#DejaVuSans-5f" transform="translate(29.492188 0)"/>
      <use xlink:href="#DejaVuSans-61" transform="translate(79.492188 0)"/>
      <use xlink:href="#DejaVuSans-70" transform="translate(140.771484 0)"/>
      <use xlink:href="#DejaVuSans-70" transform="translate(204.248047 0)"/>
      <use xlink:href="#DejaVuSans-5f" transform="translate(267.724609 0)"/>
      <use xlink:href="#DejaVuSans-67" transform="translate(317.724609 0)"/>
      <use xlink:href="#DejaVuSans-70" transform="translate(381.201172 0)"/>
      <use xlink:href="#DejaVuSans-65" transform="translate(444.677734 0)"/>
     </g>
    </g>
   </g>
   <g id="line2d_19">
    <path d="M 119.971023 88.052083 
L 681.141477 88.052083 
L 681.141477 88.052083 
" clip-path="url(#p5d0c9286f4)" style="fill: none; stroke: #000000; stroke-linecap: square"/>
   </g>
   <g id="patch_3">
    <path d="M 91.9125 142.890417 
L 91.9125 33.21375 
" style="fill: none; stroke: #000000; stroke-width: 0.8; stroke-linejoin: miter; stroke-linecap: square"/>
   </g>
   <g id="patch_4">
    <path d="M 709.2 142.890417 
L 709.2 33.21375 
" style="fill: none; stroke: #000000; stroke-width: 0.8; stroke-linejoin: miter; stroke-linecap: square"/>
   </g>
   <g id="patch_5">
    <path d="M 91.9125 142.890417 
L 709.2 142.890417 
" style="fill: none; stroke: #000000; stroke-width: 0.8; stroke-linejoin: miter; stroke-linecap: square"/>
   </g>
   <g id="patch_6">
    <path d="M 91.9125 33.21375 
L 709.2 33.21375 
" style="fill: none; stroke: #000000; stroke-width: 0.8; stroke-linejoin: miter; stroke-linecap: square"/>
   </g>
  </g>
  <g id="axes_2">
   <g id="patch_7">
    <path d="M 91.9125 266.867083 
L 709.2 266.867083 
L 709.2 157.190417 
L 91.9125 157.190417 
z
" style="fill: #ffffff"/>
   </g>
   <g id="matplotlib.axis_3">
    <g id="xtick_7">
     <g id="line2d_20">
      <path d="M 119.971023 266.867083 
L 119.971023 157.190417 
" clip-path="url(#p39a9e80f7d)" style="fill: none; stroke: #b0b0b0; stroke-width: 0.8; stroke-linecap: square"/>
     </g>
     <g id="line2d_21">
      <g>
       <use xlink:href="#m19c0ea94b0" x="119.971023" y="266.867083" style="stroke: #000000; stroke-width: 0.8"/>
      </g>
     </g>
    </g>
    <g id="xtick_8">
     <g id="line2d_22">
      <path d="M 232.206236 266.867083 
L 232.206236 157.190417 
" clip-path="url(#p39a9e80f7d)" style="fill: none; stroke: #b0b0b0; stroke-width: 0.8; stroke-linecap: square"/>
     </g>
     <g id="line2d_23">
      <g>
       <use xlink:href="#m19c0ea94b0" x="232.206236" y="266.867083" style="stroke: #000000; stroke-width: 0.8"/>
      </g>
     </g>
    </g>
    <g id="xtick_9">
     <g id="line2d_24">
      <path d="M 344.441449 266.867083 
L 344.441449 157.190417 
" clip-path="url(#p39a9e80f7d)" style="fill: none; stroke: #b0b0b0; stroke-width: 0.8; stroke-linecap: square"/>
     </g>
     <g id="line2d_25">
      <g>
       <use xlink:href="#m19c0ea94b0" x="344.441449" y="266.867083" style="stroke: #000000; stroke-width: 0.8"/>
      </g>
     </g>
    </g>
    <g id="xtick_10">
     <g id="line2d_26">
      <path d="M 456.676663 266.867083 
L 456.676663 157.190417 
" clip-path="url(#p39a9e80f7d)" style="fill: none; stroke: #b0b0b0; stroke-width: 0.8; stroke-linecap: square"/>
     </g>
     <g id="line2d_27">
      <g>
       <use xlink:href="#m19c0ea94b0" x="456.676663" y="266.867083" style="stroke: #000000; stroke-width: 0.8"/>
      </g>
     </g>
    </g>
    <g id="xtick_11">
     <g id="line2d_28">
      <path d="M 568.911876 266.867083 
L 568.911876 157.190417 
" clip-path="url(#p39a9e80f7d)" style="fill: none; stroke: #b0b0b0; stroke-width: 0.8; stroke-linecap: square"/>
     </g>
     <g id="line2d_29">
      <g>
       <use xlink:href="#m19c0ea94b0" x="568.911876" y="266.867083" style="stroke: #000000; stroke-width: 0.8"/>
      </g>
     </g>
    </g>
    <g id="xtick_12">
     <g id="line2d_30">
      <path d="M 681.147089 266.867083 
L 681.147089 157.190417 
" clip-path="url(#p39a9e80f7d)" style="fill: none; stroke: #b0b0b0; stroke-width: 0.8; stroke-linecap: square"/>
     </g>
     <g id="line2d_31">
      <g>
       <use xlink:href="#m19c0ea94b0" x="681.147089" y="266.867083" style="stroke: #000000; stroke-width: 0.8"/>
      </g>
     </g>
    </g>
   </g>
   <g id="matplotlib.axis_4">
    <g id="ytick_4">
     <g id="line2d_32">
      <path d="M 91.9125 261.88178 
L 709.2 261.88178 
" clip-path="url(#p39a9e80f7d)" style="fill: none; stroke: #b0b0b0; stroke-width: 0.8; stroke-linecap: square"/>
     </g>
     <g id="line2d_33">
      <g>
       <use xlink:href="#m7c7d777de6" x="91.9125" y="261.88178" style="stroke: #000000; stroke-width: 0.8"/>
      </g>
     </g>
     <g id="text_5">
      <!-- 0.00 -->
      <g transform="translate(62.646875 265.680999) scale(0.1 -0.1)">
       <use xlink:href="#DejaVuSans-30"/>
       <use xlink:href="#DejaVuSans-2e" transform="translate(63.623047 0)"/>
       <use xlink:href="#DejaVuSans-30" transform="translate(95.410156 0)"/>
       <use xlink:href="#DejaVuSans-30" transform="translate(159.033203 0)"/>
      </g>
     </g>
    </g>
    <g id="ytick_5">
     <g id="line2d_34">
      <path d="M 91.9125 224.913847 
L 709.2 224.913847 
" clip-path="url(#p39a9e80f7d)" style="fill: none; stroke: #b0b0b0; stroke-width: 0.8; stroke-linecap: square"/>
     </g>
     <g id="line2d_35">
      <g>
       <use xlink:href="#m7c7d777de6" x="91.9125" y="224.913847" style="stroke: #000000; stroke-width: 0.8"/>
      </g>
     </g>
     <g id="text_6">
      <!-- 0.02 -->
      <g transform="translate(62.646875 228.713065) scale(0.1 -0.1)">
       <use xlink:href="#DejaVuSans-30"/>
       <use xlink:href="#DejaVuSans-2e" transform="translate(63.623047 0)"/>
       <use xlink:href="#DejaVuSans-30" transform="translate(95.410156 0)"/>
       <use xlink:href="#DejaVuSans-32" transform="translate(159.033203 0)"/>
      </g>
     </g>
    </g>
    <g id="ytick_6">
     <g id="line2d_36">
      <path d="M 91.9125 187.945913 
L 709.2 187.945913 
" clip-path="url(#p39a9e80f7d)" style="fill: none; stroke: #b0b0b0; stroke-width: 0.8; stroke-linecap: square"/>
     </g>
     <g id="line2d_37">
      <g>
       <use xlink:href="#m7c7d777de6" x="91.9125" y="187.945913" style="stroke: #000000; stroke-width: 0.8"/>
      </g>
     </g>
     <g id="text_7">
      <!-- 0.04 -->
      <g transform="translate(62.646875 191.745132) scale(0.1 -0.1)">
       <use xlink:href="#DejaVuSans-30"/>
       <use xlink:href="#DejaVuSans-2e" transform="translate(63.623047 0)"/>
       <use xlink:href="#DejaVuSans-30" transform="translate(95.410156 0)"/>
       <use xlink:href="#DejaVuSans-34" transform="translate(159.033203 0)"/>
      </g>
     </g>
    </g>
    <g id="text_8">
     <!-- Ca_gpe -->
     <g transform="translate(11.703281 209.670938) scale(0.1 -0.1)">
      <defs>
       <path id="DejaVuSans-43" d="M 4122 4306 
L 4122 3641 
Q 3803 3938 3442 4084 
Q 3081 4231 2675 4231 
Q 1875 4231 1450 3742 
Q 1025 3253 1025 2328 
Q 1025 1406 1450 917 
Q 1875 428 2675 428 
Q 3081 428 3442 575 
Q 3803 722 4122 1019 
L 4122 359 
Q 3791 134 3420 21 
Q 3050 -91 2638 -91 
Q 1578 -91 968 557 
Q 359 1206 359 2328 
Q 359 3453 968 4101 
Q 1578 4750 2638 4750 
Q 3056 4750 3426 4639 
Q 3797 4528 4122 4306 
z
" transform="scale(0.015625)"/>
      </defs>
      <use xlink:href="#DejaVuSans-43"/>
      <use xlink:href="#DejaVuSans-61" transform="translate(69.824219 0)"/>
      <use xlink:href="#DejaVuSans-5f" transform="translate(131.103516 0)"/>
      <use xlink:href="#DejaVuSans-67" transform="translate(181.103516 0)"/>
      <use xlink:href="#DejaVuSans-70" transform="translate(244.580078 0)"/>
      <use xlink:href="#DejaVuSans-65" transform="translate(308.056641 0)"/>
     </g>
    </g>
   </g>
   <g id="line2d_38">
    <path d="M 119.971023 261.88178 
L 130.453792 261.761834 
L 130.582862 261.295726 
L 131.166485 258.310513 
L 131.699603 255.493764 
L 144.483193 255.682235 
L 144.561758 255.337951 
L 145.532593 246.121406 
L 145.745839 244.63784 
L 158.944701 245.34424 
L 159.017653 245.084011 
L 159.640559 239.147017 
L 160.0895 232.782335 
L 160.134394 232.368029 
L 160.224182 232.377461 
L 173.883207 233.706837 
L 173.961772 233.491118 
L 174.197466 231.130828 
L 174.713748 225.659553 
L 175.084124 220.045654 
L 175.235642 220.068083 
L 189.377279 222.067206 
L 189.467067 221.902361 
L 189.556855 220.910652 
L 189.775714 218.914544 
L 190.258325 213.565348 
L 190.600642 208.29359 
L 190.740936 208.320262 
L 205.499867 211.026761 
L 205.617714 210.89805 
L 205.690667 210.289591 
L 206.066655 206.714187 
L 206.509984 201.324268 
L 206.762513 197.414835 
L 206.874748 197.440566 
L 222.301478 200.870061 
L 222.503502 200.78174 
L 222.576455 200.33822 
L 223.659524 187.568902 
L 223.754924 187.59408 
L 239.417348 191.625891 
L 240.236665 191.721779 
L 240.309618 191.47651 
L 240.8259 186.681753 
L 241.263618 181.065057 
L 241.409523 178.868103 
L 241.510535 178.896907 
L 256.465877 183.204151 
L 259.019228 183.810464 
L 259.097793 183.581123 
L 259.479393 180.212823 
L 259.922722 175.380484 
L 260.197698 171.445851 
L 260.321157 171.485375 
L 274.704099 176.002361 
L 279.165449 177.25301 
L 279.249626 177.054466 
L 279.451649 175.280477 
L 279.973543 170.503088 
L 280.349531 165.519189 
L 280.501048 165.571042 
L 294.474332 170.249885 
L 302.229786 172.666625 
L 302.37008 172.549393 
L 302.459868 172.014335 
L 303.48682 162.17572 
L 303.632726 162.227494 
L 317.392763 166.996687 
L 331.371659 171.606573 
L 345.754601 176.117439 
L 360.491085 180.505533 
L 375.586721 184.767869 
L 391.063957 188.906255 
L 406.950851 192.923291 
L 423.269851 196.819461 
L 440.049016 200.596067 
L 457.316403 204.253792 
L 475.105685 207.793881 
L 493.45053 211.216884 
L 512.395834 214.524674 
L 531.975267 217.716385 
L 552.239335 220.793311 
L 573.22732 223.754283 
L 582.610184 224.920601 
L 582.733642 224.68407 
L 583.098407 223.169678 
L 583.524901 220.652371 
L 583.710089 219.45969 
L 583.794265 219.472411 
L 598.048137 221.514732 
L 598.137925 221.329712 
L 598.368007 219.601539 
L 598.884289 215.300613 
L 599.254666 210.922429 
L 599.400571 210.94888 
L 614.02482 213.490635 
L 614.131443 213.337955 
L 614.221231 212.518499 
L 614.44009 210.668753 
L 614.922701 205.813452 
L 615.265019 201.050067 
L 615.405313 201.080426 
L 630.590737 204.2585 
L 630.747867 204.155911 
L 630.820819 203.675239 
L 631.314654 199.094221 
L 631.752372 193.45022 
L 631.898277 191.299845 
L 631.993677 191.323715 
L 647.729054 195.166165 
L 648.133101 195.144355 
L 648.206054 194.832874 
L 649.059042 185.886624 
L 649.300347 182.306572 
L 649.412582 182.338264 
L 664.654124 186.543645 
L 666.4555 186.919247 
L 666.534064 186.671279 
L 667.039123 182.106184 
L 667.471228 176.751556 
L 667.633969 174.398463 
L 667.734981 174.429811 
L 681.141477 178.510047 
L 681.141477 178.510047 
" clip-path="url(#p39a9e80f7d)" style="fill: none; stroke: #000000; stroke-linecap: square"/>
   </g>
   <g id="patch_8">
    <path d="M 91.9125 266.867083 
L 91.9125 157.190417 
" style="fill: none; stroke: #000000; stroke-width: 0.8; stroke-linejoin: miter; stroke-linecap: square"/>
   </g>
   <g id="patch_9">
    <path d="M 709.2 266.867083 
L 709.2 157.190417 
" style="fill: none; stroke: #000000; stroke-width: 0.8; stroke-linejoin: miter; stroke-linecap: square"/>
   </g>
   <g id="patch_10">
    <path d="M 91.9125 266.867083 
L 709.2 266.867083 
" style="fill: none; stroke: #000000; stroke-width: 0.8; stroke-linejoin: miter; stroke-linecap: square"/>
   </g>
   <g id="patch_11">
    <path d="M 91.9125 157.190417 
L 709.2 157.190417 
" style="fill: none; stroke: #000000; stroke-width: 0.8; stroke-linejoin: miter; stroke-linecap: square"/>
   </g>
  </g>
  <g id="axes_3">
   <g id="patch_12">
    <path d="M 91.9125 390.84375 
L 709.2 390.84375 
L 709.2 281.167083 
L 91.9125 281.167083 
z
" style="fill: #ffffff"/>
   </g>
   <g id="matplotlib.axis_5">
    <g id="xtick_13">
     <g id="line2d_39">
      <path d="M 119.971023 390.84375 
L 119.971023 281.167083 
" clip-path="url(#p2cfa92217d)" style="fill: none; stroke: #b0b0b0; stroke-width: 0.8; stroke-linecap: square"/>
     </g>
     <g id="line2d_40">
      <g>
       <use xlink:href="#m19c0ea94b0" x="119.971023" y="390.84375" style="stroke: #000000; stroke-width: 0.8"/>
      </g>
     </g>
     <g id="text_9">
      <!-- 0 -->
      <g transform="translate(116.789773 405.442187) scale(0.1 -0.1)">
       <use xlink:href="#DejaVuSans-30"/>
      </g>
     </g>
    </g>
    <g id="xtick_14">
     <g id="line2d_41">
      <path d="M 232.206236 390.84375 
L 232.206236 281.167083 
" clip-path="url(#p2cfa92217d)" style="fill: none; stroke: #b0b0b0; stroke-width: 0.8; stroke-linecap: square"/>
     </g>
     <g id="line2d_42">
      <g>
       <use xlink:href="#m19c0ea94b0" x="232.206236" y="390.84375" style="stroke: #000000; stroke-width: 0.8"/>
      </g>
     </g>
     <g id="text_10">
      <!-- 200 -->
      <g transform="translate(222.662486 405.442187) scale(0.1 -0.1)">
       <use xlink:href="#DejaVuSans-32"/>
       <use xlink:href="#DejaVuSans-30" transform="translate(63.623047 0)"/>
       <use xlink:href="#DejaVuSans-30" transform="translate(127.246094 0)"/>
      </g>
     </g>
    </g>
    <g id="xtick_15">
     <g id="line2d_43">
      <path d="M 344.441449 390.84375 
L 344.441449 281.167083 
" clip-path="url(#p2cfa92217d)" style="fill: none; stroke: #b0b0b0; stroke-width: 0.8; stroke-linecap: square"/>
     </g>
     <g id="line2d_44">
      <g>
       <use xlink:href="#m19c0ea94b0" x="344.441449" y="390.84375" style="stroke: #000000; stroke-width: 0.8"/>
      </g>
     </g>
     <g id="text_11">
      <!-- 400 -->
      <g transform="translate(334.897699 405.442187) scale(0.1 -0.1)">
       <use xlink:href="#DejaVuSans-34"/>
       <use xlink:href="#DejaVuSans-30" transform="translate(63.623047 0)"/>
       <use xlink:href="#DejaVuSans-30" transform="translate(127.246094 0)"/>
      </g>
     </g>
    </g>
    <g id="xtick_16">
     <g id="line2d_45">
      <path d="M 456.676663 390.84375 
L 456.676663 281.167083 
" clip-path="url(#p2cfa92217d)" style="fill: none; stroke: #b0b0b0; stroke-width: 0.8; stroke-linecap: square"/>
     </g>
     <g id="line2d_46">
      <g>
       <use xlink:href="#m19c0ea94b0" x="456.676663" y="390.84375" style="stroke: #000000; stroke-width: 0.8"/>
      </g>
     </g>
     <g id="text_12">
      <!-- 600 -->
      <g transform="translate(447.132913 405.442187) scale(0.1 -0.1)">
       <defs>
        <path id="DejaVuSans-36" d="M 2113 2584 
Q 1688 2584 1439 2293 
Q 1191 2003 1191 1497 
Q 1191 994 1439 701 
Q 1688 409 2113 409 
Q 2538 409 2786 701 
Q 3034 994 3034 1497 
Q 3034 2003 2786 2293 
Q 2538 2584 2113 2584 
z
M 3366 4563 
L 3366 3988 
Q 3128 4100 2886 4159 
Q 2644 4219 2406 4219 
Q 1781 4219 1451 3797 
Q 1122 3375 1075 2522 
Q 1259 2794 1537 2939 
Q 1816 3084 2150 3084 
Q 2853 3084 3261 2657 
Q 3669 2231 3669 1497 
Q 3669 778 3244 343 
Q 2819 -91 2113 -91 
Q 1303 -91 875 529 
Q 447 1150 447 2328 
Q 447 3434 972 4092 
Q 1497 4750 2381 4750 
Q 2619 4750 2861 4703 
Q 3103 4656 3366 4563 
z
" transform="scale(0.015625)"/>
       </defs>
       <use xlink:href="#DejaVuSans-36"/>
       <use xlink:href="#DejaVuSans-30" transform="translate(63.623047 0)"/>
       <use xlink:href="#DejaVuSans-30" transform="translate(127.246094 0)"/>
      </g>
     </g>
    </g>
    <g id="xtick_17">
     <g id="line2d_47">
      <path d="M 568.911876 390.84375 
L 568.911876 281.167083 
" clip-path="url(#p2cfa92217d)" style="fill: none; stroke: #b0b0b0; stroke-width: 0.8; stroke-linecap: square"/>
     </g>
     <g id="line2d_48">
      <g>
       <use xlink:href="#m19c0ea94b0" x="568.911876" y="390.84375" style="stroke: #000000; stroke-width: 0.8"/>
      </g>
     </g>
     <g id="text_13">
      <!-- 800 -->
      <g transform="translate(559.368126 405.442187) scale(0.1 -0.1)">
       <use xlink:href="#DejaVuSans-38"/>
       <use xlink:href="#DejaVuSans-30" transform="translate(63.623047 0)"/>
       <use xlink:href="#DejaVuSans-30" transform="translate(127.246094 0)"/>
      </g>
     </g>
    </g>
    <g id="xtick_18">
     <g id="line2d_49">
      <path d="M 681.147089 390.84375 
L 681.147089 281.167083 
" clip-path="url(#p2cfa92217d)" style="fill: none; stroke: #b0b0b0; stroke-width: 0.8; stroke-linecap: square"/>
     </g>
     <g id="line2d_50">
      <g>
       <use xlink:href="#m19c0ea94b0" x="681.147089" y="390.84375" style="stroke: #000000; stroke-width: 0.8"/>
      </g>
     </g>
     <g id="text_14">
      <!-- 1000 -->
      <g transform="translate(668.422089 405.442187) scale(0.1 -0.1)">
       <defs>
        <path id="DejaVuSans-31" d="M 794 531 
L 1825 531 
L 1825 4091 
L 703 3866 
L 703 4441 
L 1819 4666 
L 2450 4666 
L 2450 531 
L 3481 531 
L 3481 0 
L 794 0 
L 794 531 
z
" transform="scale(0.015625)"/>
       </defs>
       <use xlink:href="#DejaVuSans-31"/>
       <use xlink:href="#DejaVuSans-30" transform="translate(63.623047 0)"/>
       <use xlink:href="#DejaVuSans-30" transform="translate(127.246094 0)"/>
       <use xlink:href="#DejaVuSans-30" transform="translate(190.869141 0)"/>
      </g>
     </g>
    </g>
    <g id="text_15">
     <!-- Time (ms) -->
     <g transform="translate(375.357031 419.120313) scale(0.1 -0.1)">
      <defs>
       <path id="DejaVuSans-54" d="M -19 4666 
L 3928 4666 
L 3928 4134 
L 2272 4134 
L 2272 0 
L 1638 0 
L 1638 4134 
L -19 4134 
L -19 4666 
z
" transform="scale(0.015625)"/>
       <path id="DejaVuSans-69" d="M 603 3500 
L 1178 3500 
L 1178 0 
L 603 0 
L 603 3500 
z
M 603 4863 
L 1178 4863 
L 1178 4134 
L 603 4134 
L 603 4863 
z
" transform="scale(0.015625)"/>
       <path id="DejaVuSans-6d" d="M 3328 2828 
Q 3544 3216 3844 3400 
Q 4144 3584 4550 3584 
Q 5097 3584 5394 3201 
Q 5691 2819 5691 2113 
L 5691 0 
L 5113 0 
L 5113 2094 
Q 5113 2597 4934 2840 
Q 4756 3084 4391 3084 
Q 3944 3084 3684 2787 
Q 3425 2491 3425 1978 
L 3425 0 
L 2847 0 
L 2847 2094 
Q 2847 2600 2669 2842 
Q 2491 3084 2119 3084 
Q 1678 3084 1418 2786 
Q 1159 2488 1159 1978 
L 1159 0 
L 581 0 
L 581 3500 
L 1159 3500 
L 1159 2956 
Q 1356 3278 1631 3431 
Q 1906 3584 2284 3584 
Q 2666 3584 2933 3390 
Q 3200 3197 3328 2828 
z
" transform="scale(0.015625)"/>
       <path id="DejaVuSans-20" transform="scale(0.015625)"/>
       <path id="DejaVuSans-28" d="M 1984 4856 
Q 1566 4138 1362 3434 
Q 1159 2731 1159 2009 
Q 1159 1288 1364 580 
Q 1569 -128 1984 -844 
L 1484 -844 
Q 1016 -109 783 600 
Q 550 1309 550 2009 
Q 550 2706 781 3412 
Q 1013 4119 1484 4856 
L 1984 4856 
z
" transform="scale(0.015625)"/>
       <path id="DejaVuSans-73" d="M 2834 3397 
L 2834 2853 
Q 2591 2978 2328 3040 
Q 2066 3103 1784 3103 
Q 1356 3103 1142 2972 
Q 928 2841 928 2578 
Q 928 2378 1081 2264 
Q 1234 2150 1697 2047 
L 1894 2003 
Q 2506 1872 2764 1633 
Q 3022 1394 3022 966 
Q 3022 478 2636 193 
Q 2250 -91 1575 -91 
Q 1294 -91 989 -36 
Q 684 19 347 128 
L 347 722 
Q 666 556 975 473 
Q 1284 391 1588 391 
Q 1994 391 2212 530 
Q 2431 669 2431 922 
Q 2431 1156 2273 1281 
Q 2116 1406 1581 1522 
L 1381 1569 
Q 847 1681 609 1914 
Q 372 2147 372 2553 
Q 372 3047 722 3315 
Q 1072 3584 1716 3584 
Q 2034 3584 2315 3537 
Q 2597 3491 2834 3397 
z
" transform="scale(0.015625)"/>
       <path id="DejaVuSans-29" d="M 513 4856 
L 1013 4856 
Q 1481 4119 1714 3412 
Q 1947 2706 1947 2009 
Q 1947 1309 1714 600 
Q 1481 -109 1013 -844 
L 513 -844 
Q 928 -128 1133 580 
Q 1338 1288 1338 2009 
Q 1338 2731 1133 3434 
Q 928 4138 513 4856 
z
" transform="scale(0.015625)"/>
      </defs>
      <use xlink:href="#DejaVuSans-54"/>
      <use xlink:href="#DejaVuSans-69" transform="translate(57.958984 0)"/>
      <use xlink:href="#DejaVuSans-6d" transform="translate(85.742188 0)"/>
      <use xlink:href="#DejaVuSans-65" transform="translate(183.154297 0)"/>
      <use xlink:href="#DejaVuSans-20" transform="translate(244.677734 0)"/>
      <use xlink:href="#DejaVuSans-28" transform="translate(276.464844 0)"/>
      <use xlink:href="#DejaVuSans-6d" transform="translate(315.478516 0)"/>
      <use xlink:href="#DejaVuSans-73" transform="translate(412.890625 0)"/>
      <use xlink:href="#DejaVuSans-29" transform="translate(464.990234 0)"/>
     </g>
    </g>
   </g>
   <g id="matplotlib.axis_6">
    <g id="ytick_7">
     <g id="line2d_51">
      <path d="M 91.9125 363.767709 
L 709.2 363.767709 
" clip-path="url(#p2cfa92217d)" style="fill: none; stroke: #b0b0b0; stroke-width: 0.8; stroke-linecap: square"/>
     </g>
     <g id="line2d_52">
      <g>
       <use xlink:href="#m7c7d777de6" x="91.9125" y="363.767709" style="stroke: #000000; stroke-width: 0.8"/>
      </g>
     </g>
     <g id="text_16">
      <!-- −50 -->
      <g transform="translate(63.807812 367.566927) scale(0.1 -0.1)">
       <use xlink:href="#DejaVuSans-2212"/>
       <use xlink:href="#DejaVuSans-35" transform="translate(83.789062 0)"/>
       <use xlink:href="#DejaVuSans-30" transform="translate(147.412109 0)"/>
      </g>
     </g>
    </g>
    <g id="ytick_8">
     <g id="line2d_53">
      <path d="M 91.9125 326.722821 
L 709.2 326.722821 
" clip-path="url(#p2cfa92217d)" style="fill: none; stroke: #b0b0b0; stroke-width: 0.8; stroke-linecap: square"/>
     </g>
     <g id="line2d_54">
      <g>
       <use xlink:href="#m7c7d777de6" x="91.9125" y="326.722821" style="stroke: #000000; stroke-width: 0.8"/>
      </g>
     </g>
     <g id="text_17">
      <!-- 0 -->
      <g transform="translate(78.55 330.52204) scale(0.1 -0.1)">
       <use xlink:href="#DejaVuSans-30"/>
      </g>
     </g>
    </g>
    <g id="ytick_9">
     <g id="line2d_55">
      <path d="M 91.9125 289.677934 
L 709.2 289.677934 
" clip-path="url(#p2cfa92217d)" style="fill: none; stroke: #b0b0b0; stroke-width: 0.8; stroke-linecap: square"/>
     </g>
     <g id="line2d_56">
      <g>
       <use xlink:href="#m7c7d777de6" x="91.9125" y="289.677934" style="stroke: #000000; stroke-width: 0.8"/>
      </g>
     </g>
     <g id="text_18">
      <!-- 50 -->
      <g transform="translate(72.1875 293.477153) scale(0.1 -0.1)">
       <use xlink:href="#DejaVuSans-35"/>
       <use xlink:href="#DejaVuSans-30" transform="translate(63.623047 0)"/>
      </g>
     </g>
    </g>
    <g id="text_19">
     <!-- v_gpe -->
     <g transform="translate(15.299375 333.647604) scale(0.1 -0.1)">
      <defs>
       <path id="DejaVuSans-76" d="M 191 3500 
L 800 3500 
L 1894 563 
L 2988 3500 
L 3597 3500 
L 2284 0 
L 1503 0 
L 191 3500 
z
" transform="scale(0.015625)"/>
      </defs>
      <use xlink:href="#DejaVuSans-76"/>
      <use xlink:href="#DejaVuSans-5f" transform="translate(59.179688 0)"/>
      <use xlink:href="#DejaVuSans-67" transform="translate(109.179688 0)"/>
      <use xlink:href="#DejaVuSans-70" transform="translate(172.65625 0)"/>
      <use xlink:href="#DejaVuSans-65" transform="translate(236.132812 0)"/>
     </g>
    </g>
   </g>
   <g id="line2d_57">
    <path d="M 119.971023 371.176686 
L 120.341399 372.057726 
L 121.01481 374.408373 
L 121.727504 376.53386 
L 122.283068 377.535401 
L 122.810574 378.055457 
L 123.349303 378.282114 
L 123.949761 378.289342 
L 124.696125 378.06321 
L 125.683795 377.514464 
L 126.935218 376.554433 
L 128.141746 375.356837 
L 129.000346 374.204948 
L 129.583969 373.052997 
L 129.982404 371.76503 
L 130.251768 370.106349 
L 130.414509 367.600318 
L 130.504297 362.050468 
L 130.537968 338.541805 
L 130.571639 286.360589 
L 130.655815 287.200608 
L 130.812944 291.331055 
L 131.048638 304.723728 
L 131.491967 344.364887 
L 131.761332 385.805913 
L 131.929685 385.852239 
L 132.962249 385.643592 
L 133.966754 385.234725 
L 134.931977 384.593986 
L 136.037494 383.575231 
L 137.698575 381.699243 
L 142.311442 376.053523 
L 143.231771 374.55135 
L 143.80417 373.192023 
L 144.180158 371.71118 
L 144.415852 369.821811 
L 144.533699 366.790639 
L 144.595429 358.204258 
L 144.645934 286.179694 
L 144.836734 289.043408 
L 145.033146 297.534188 
L 145.442804 328.057726 
L 145.611157 349.596046 
L 145.801957 385.606002 
L 145.953475 385.857374 
L 146.525874 385.77734 
L 147.631391 385.4504 
L 148.596614 384.929866 
L 149.617954 384.114055 
L 150.953553 382.734598 
L 155.774056 377.181685 
L 157.199443 375.314439 
L 157.957031 373.963604 
L 158.445254 372.63487 
L 158.765124 371.095443 
L 158.944701 369.106127 
L 159.034489 364.971162 
L 159.079383 350.734673 
L 159.118665 286.152386 
L 159.219677 287.106515 
L 159.376806 291.197266 
L 159.618112 304.785721 
L 160.072664 345.088829 
L 160.330805 385.799471 
L 160.493546 385.856284 
L 161.498052 385.661747 
L 162.519392 385.261519 
L 163.495838 384.631744 
L 164.623802 383.620101 
L 166.430789 381.648082 
L 172.513938 374.588235 
L 173.136843 373.338749 
L 173.546502 372.011608 
L 173.804643 370.409123 
L 173.939325 368.085353 
L 174.012278 361.405176 
L 174.040337 332.969965 
L 174.074007 286.155761 
L 174.158184 286.899565 
L 174.309701 290.466532 
L 174.534172 302.229696 
L 175.011171 342.085283 
L 175.3591 385.854898 
L 175.757535 385.813524 
L 176.91917 385.509478 
L 177.901228 385.01958 
L 178.922568 384.249939 
L 180.252556 382.941703 
L 187.88455 374.647325 
L 188.557962 373.450569 
L 188.995679 372.219151 
L 189.281879 370.7313 
L 189.439008 368.643465 
L 189.517573 363.681496 
L 189.551243 350.944352 
L 189.590526 286.169105 
L 189.691537 287.144999 
L 189.848667 291.302193 
L 190.089972 305.00079 
L 190.538913 344.407384 
L 190.819501 385.825349 
L 191.004689 385.852221 
L 192.132653 385.613771 
L 193.14277 385.183166 
L 194.141663 384.505977 
L 195.359415 383.389826 
L 204.035197 374.471243 
L 204.708609 373.341983 
L 205.151938 372.156791 
L 205.438138 370.736021 
L 205.595267 368.795034 
L 205.673832 364.622319 
L 205.713114 353.203209 
L 205.752396 286.19629 
L 205.870243 287.433107 
L 206.032984 292.234898 
L 206.291125 307.939312 
L 206.712007 347.768799 
L 206.925254 385.696929 
L 207.076772 385.858191 
L 207.783854 385.747038 
L 208.872535 385.397413 
L 209.854593 384.843578 
L 210.948887 383.955926 
L 212.626803 382.262511 
L 215.752554 379.125053 
L 221.111785 374.020597 
L 221.717855 372.965789 
L 222.11629 371.826405 
L 222.374431 370.398284 
L 222.514725 368.264024 
L 222.587678 362.94788 
L 222.621349 343.496192 
L 222.655019 286.22388 
L 222.744808 287.053294 
L 222.896325 290.839566 
L 223.126407 303.356229 
L 223.592183 343.296973 
L 223.90083 385.842334 
L 224.136524 385.842709 
L 225.331829 385.568056 
L 226.336334 385.109307 
L 227.363287 384.384711 
L 228.698886 383.14283 
L 233.193906 378.770607 
L 236.314045 376.241438 
L 238.193985 374.58601 
L 239.058196 373.53845 
L 239.596925 372.539007 
L 239.956077 371.386273 
L 240.180548 369.862947 
L 240.292783 367.468068 
L 240.360124 359.960315 
L 240.382571 335.600154 
L 240.416242 286.255701 
L 240.500418 287.068892 
L 240.651936 290.8681 
L 240.882018 303.423081 
L 241.347794 343.664296 
L 241.645217 385.835626 
L 241.852853 385.84737 
L 243.025711 385.587748 
L 244.035827 385.141107 
L 245.06278 384.433177 
L 246.392767 383.218391 
L 250.747493 379.05674 
L 253.182997 377.169758 
L 257.055112 374.203752 
L 257.891265 373.247742 
L 258.413158 372.314809 
L 258.755476 371.237669 
L 258.968723 369.8187 
L 259.08657 367.29918 
L 259.153911 359.488929 
L 259.176358 329.988761 
L 259.210028 286.300066 
L 259.294205 287.16598 
L 259.451334 291.316572 
L 259.69264 305.084926 
L 260.141581 345.403034 
L 260.39411 385.787012 
L 260.556851 385.855698 
L 261.533297 385.670359 
L 262.577085 385.271864 
L 263.587202 384.638759 
L 264.810565 383.586781 
L 270.158573 378.65849 
L 272.582854 376.936321 
L 277.538039 373.509419 
L 278.250732 372.670864 
L 278.694061 371.807973 
L 278.991485 370.718193 
L 279.171061 369.145344 
L 279.266461 366.015818 
L 279.322579 355.608177 
L 279.367473 286.363894 
L 279.507767 288.325158 
L 279.687343 295.089734 
L 280.012825 318.041086 
L 280.304637 348.967696 
L 280.50666 385.650567 
L 280.658178 385.856498 
L 281.281083 385.764778 
L 282.392212 385.426389 
L 283.391105 384.884132 
L 284.507845 384.008855 
L 286.365338 382.213632 
L 288.840125 379.911417 
L 290.894029 378.319808 
L 293.295863 376.750187 
L 296.466507 374.959451 
L 300.967139 372.432277 
L 301.584433 371.787481 
L 301.954809 371.07346 
L 302.196115 370.105239 
L 302.347633 368.485421 
L 302.437421 364.543858 
L 302.482315 353.425449 
L 302.527209 286.518946 
L 302.645056 288.252686 
L 302.824632 294.947442 
L 303.144503 317.520346 
L 303.441926 349.421782 
L 303.638337 385.616092 
L 303.789855 385.854842 
L 304.362255 385.774209 
L 305.484607 385.441715 
L 306.4835 384.909003 
L 307.594629 384.049002 
L 309.412839 382.305735 
L 311.910073 379.993012 
L 313.924695 378.445317 
L 316.214293 376.97404 
L 318.868656 375.535551 
L 321.236819 374.487402 
L 322.735159 374.045231 
L 323.745276 373.965837 
L 324.558981 374.120061 
L 325.361463 374.506499 
L 326.438921 375.306062 
L 328.128061 376.535285 
L 329.155013 376.990649 
L 330.215636 377.215867 
L 331.455835 377.243655 
L 333.088857 377.043087 
L 335.990138 376.421045 
L 339.508712 375.730573 
L 341.624345 375.544026 
L 343.599685 375.596021 
L 346.349448 375.924278 
L 349.469587 376.230808 
L 352.039773 376.242791 
L 355.866994 376.003986 
L 360.614543 375.762623 
L 364.503494 375.816082 
L 371.170265 375.925072 
L 400.18868 375.609313 
L 433.831185 375.41555 
L 460.846201 375.282771 
L 487.990287 375.125851 
L 501.570748 375.09498 
L 530.662115 374.928464 
L 538.277274 374.985037 
L 548.238149 374.804439 
L 555.213568 375.066261 
L 558.210248 374.845368 
L 563.973526 374.361071 
L 565.774902 374.490279 
L 567.840029 374.881948 
L 570.58418 375.377099 
L 572.267709 375.435471 
L 574.018578 375.268301 
L 576.016365 374.847285 
L 578.227398 374.153288 
L 579.989491 373.385443 
L 581.00522 372.720056 
L 581.616902 372.064814 
L 582.02656 371.299749 
L 582.318372 370.260995 
L 582.520395 368.643897 
L 582.643854 365.709404 
L 582.711195 357.7338 
L 582.767313 286.635563 
L 582.958113 290.717726 
L 583.182583 302.868916 
L 583.637136 342.10432 
L 583.973841 385.84561 
L 584.282488 385.824728 
L 585.455346 385.531404 
L 586.437404 385.056193 
L 587.453133 384.30639 
L 588.755061 383.04155 
L 596.398279 374.802106 
L 597.110973 373.603795 
L 597.576749 372.385942 
L 597.885396 370.943284 
L 598.070584 368.93615 
L 598.165984 364.801053 
L 598.210878 352.484215 
L 598.250161 286.237415 
L 598.362396 287.395117 
L 598.525137 292.075422 
L 598.777666 307.21737 
L 599.198548 345.743864 
L 599.445466 385.78117 
L 599.602595 385.856551 
L 600.528535 385.685841 
L 601.566711 385.300042 
L 602.548769 384.691099 
L 603.682345 383.708488 
L 605.584732 381.706769 
L 608.609471 378.594661 
L 612.156103 375.008129 
L 612.969809 373.820856 
L 613.491702 372.665852 
L 613.83402 371.361568 
L 614.047267 369.622379 
L 614.15389 366.570697 
L 614.210008 358.030611 
L 614.260514 286.212188 
L 614.445702 289.042783 
L 614.642113 297.556425 
L 615.057384 328.577222 
L 615.220125 349.586513 
L 615.410925 385.601879 
L 615.562442 385.857314 
L 616.12923 385.778811 
L 617.24597 385.451478 
L 618.228028 384.928342 
L 619.294263 384.093642 
L 620.809438 382.587332 
L 624.530036 378.821734 
L 629.081174 374.452686 
L 629.788255 373.355317 
L 630.24842 372.223687 
L 630.551455 370.857043 
L 630.725419 368.943315 
L 630.809596 365.06818 
L 630.85449 352.691825 
L 630.893772 286.223438 
L 631.006008 287.396105 
L 631.168749 292.128506 
L 631.42689 307.759211 
L 631.847772 347.283542 
L 632.06663 385.712976 
L 632.218148 385.857931 
L 632.953288 385.739694 
L 634.036358 385.385459 
L 635.024028 384.822387 
L 636.135157 383.916 
L 637.914085 382.125358 
L 640.753636 379.322233 
L 643.430446 377.040634 
L 645.96135 374.819462 
L 646.876067 373.719064 
L 647.437243 372.702158 
L 647.813231 371.546103 
L 648.048925 370.067806 
L 648.172383 367.749722 
L 648.245336 360.226174 
L 648.267783 338.77217 
L 648.301454 286.245216 
L 648.38563 287.035789 
L 648.537148 290.783684 
L 648.76723 303.255319 
L 649.233006 343.14129 
L 649.547265 385.844559 
L 649.799794 385.839539 
L 650.995099 385.560419 
L 651.999604 385.09699 
L 653.032168 384.364752 
L 654.395826 383.096827 
L 658.537305 379.095397 
L 661.045762 377.101648 
L 664.362313 374.461064 
L 665.254583 373.445877 
L 665.798924 372.494771 
L 666.158076 371.416043 
L 666.388158 369.99206 
L 666.511617 367.663339 
L 666.58457 360.118305 
L 666.607017 338.235982 
L 666.640688 286.281811 
L 666.724864 287.102525 
L 666.876382 290.94544 
L 667.112076 303.974257 
L 667.57224 344.282638 
L 667.852828 385.822504 
L 668.032404 385.852124 
L 669.149145 385.618497 
L 670.170485 385.189279 
L 671.191826 384.508355 
L 672.482531 383.355005 
L 677.089786 379.015146 
L 679.441114 377.253687 
L 681.141477 376.091777 
L 681.141477 376.091777 
" clip-path="url(#p2cfa92217d)" style="fill: none; stroke: #000000; stroke-linecap: square"/>
   </g>
   <g id="patch_13">
    <path d="M 91.9125 390.84375 
L 91.9125 281.167083 
" style="fill: none; stroke: #000000; stroke-width: 0.8; stroke-linejoin: miter; stroke-linecap: square"/>
   </g>
   <g id="patch_14">
    <path d="M 709.2 390.84375 
L 709.2 281.167083 
" style="fill: none; stroke: #000000; stroke-width: 0.8; stroke-linejoin: miter; stroke-linecap: square"/>
   </g>
   <g id="patch_15">
    <path d="M 91.9125 390.84375 
L 709.2 390.84375 
" style="fill: none; stroke: #000000; stroke-width: 0.8; stroke-linejoin: miter; stroke-linecap: square"/>
   </g>
   <g id="patch_16">
    <path d="M 91.9125 281.167083 
L 709.2 281.167083 
" style="fill: none; stroke: #000000; stroke-width: 0.8; stroke-linejoin: miter; stroke-linecap: square"/>
   </g>
  </g>
  <g id="text_20">
   <!-- GPe neuron with small hyperpolarising input current -->
   <g transform="translate(203.249063 17.758125) scale(0.12 -0.12)">
    <defs>
     <path id="DejaVuSans-47" d="M 3809 666 
L 3809 1919 
L 2778 1919 
L 2778 2438 
L 4434 2438 
L 4434 434 
Q 4069 175 3628 42 
Q 3188 -91 2688 -91 
Q 1594 -91 976 548 
Q 359 1188 359 2328 
Q 359 3472 976 4111 
Q 1594 4750 2688 4750 
Q 3144 4750 3555 4637 
Q 3966 4525 4313 4306 
L 4313 3634 
Q 3963 3931 3569 4081 
Q 3175 4231 2741 4231 
Q 1884 4231 1454 3753 
Q 1025 3275 1025 2328 
Q 1025 1384 1454 906 
Q 1884 428 2741 428 
Q 3075 428 3337 486 
Q 3600 544 3809 666 
z
" transform="scale(0.015625)"/>
     <path id="DejaVuSans-50" d="M 1259 4147 
L 1259 2394 
L 2053 2394 
Q 2494 2394 2734 2622 
Q 2975 2850 2975 3272 
Q 2975 3691 2734 3919 
Q 2494 4147 2053 4147 
L 1259 4147 
z
M 628 4666 
L 2053 4666 
Q 2838 4666 3239 4311 
Q 3641 3956 3641 3272 
Q 3641 2581 3239 2228 
Q 2838 1875 2053 1875 
L 1259 1875 
L 1259 0 
L 628 0 
L 628 4666 
z
" transform="scale(0.015625)"/>
     <path id="DejaVuSans-6e" d="M 3513 2113 
L 3513 0 
L 2938 0 
L 2938 2094 
Q 2938 2591 2744 2837 
Q 2550 3084 2163 3084 
Q 1697 3084 1428 2787 
Q 1159 2491 1159 1978 
L 1159 0 
L 581 0 
L 581 3500 
L 1159 3500 
L 1159 2956 
Q 1366 3272 1645 3428 
Q 1925 3584 2291 3584 
Q 2894 3584 3203 3211 
Q 3513 2838 3513 2113 
z
" transform="scale(0.015625)"/>
     <path id="DejaVuSans-75" d="M 544 1381 
L 544 3500 
L 1119 3500 
L 1119 1403 
Q 1119 906 1312 657 
Q 1506 409 1894 409 
Q 2359 409 2629 706 
Q 2900 1003 2900 1516 
L 2900 3500 
L 3475 3500 
L 3475 0 
L 2900 0 
L 2900 538 
Q 2691 219 2414 64 
Q 2138 -91 1772 -91 
Q 1169 -91 856 284 
Q 544 659 544 1381 
z
M 1991 3584 
L 1991 3584 
z
" transform="scale(0.015625)"/>
     <path id="DejaVuSans-72" d="M 2631 2963 
Q 2534 3019 2420 3045 
Q 2306 3072 2169 3072 
Q 1681 3072 1420 2755 
Q 1159 2438 1159 1844 
L 1159 0 
L 581 0 
L 581 3500 
L 1159 3500 
L 1159 2956 
Q 1341 3275 1631 3429 
Q 1922 3584 2338 3584 
Q 2397 3584 2469 3576 
Q 2541 3569 2628 3553 
L 2631 2963 
z
" transform="scale(0.015625)"/>
     <path id="DejaVuSans-6f" d="M 1959 3097 
Q 1497 3097 1228 2736 
Q 959 2375 959 1747 
Q 959 1119 1226 758 
Q 1494 397 1959 397 
Q 2419 397 2687 759 
Q 2956 1122 2956 1747 
Q 2956 2369 2687 2733 
Q 2419 3097 1959 3097 
z
M 1959 3584 
Q 2709 3584 3137 3096 
Q 3566 2609 3566 1747 
Q 3566 888 3137 398 
Q 2709 -91 1959 -91 
Q 1206 -91 779 398 
Q 353 888 353 1747 
Q 353 2609 779 3096 
Q 1206 3584 1959 3584 
z
" transform="scale(0.015625)"/>
     <path id="DejaVuSans-77" d="M 269 3500 
L 844 3500 
L 1563 769 
L 2278 3500 
L 2956 3500 
L 3675 769 
L 4391 3500 
L 4966 3500 
L 4050 0 
L 3372 0 
L 2619 2869 
L 1863 0 
L 1184 0 
L 269 3500 
z
" transform="scale(0.015625)"/>
     <path id="DejaVuSans-74" d="M 1172 4494 
L 1172 3500 
L 2356 3500 
L 2356 3053 
L 1172 3053 
L 1172 1153 
Q 1172 725 1289 603 
Q 1406 481 1766 481 
L 2356 481 
L 2356 0 
L 1766 0 
Q 1100 0 847 248 
Q 594 497 594 1153 
L 594 3053 
L 172 3053 
L 172 3500 
L 594 3500 
L 594 4494 
L 1172 4494 
z
" transform="scale(0.015625)"/>
     <path id="DejaVuSans-68" d="M 3513 2113 
L 3513 0 
L 2938 0 
L 2938 2094 
Q 2938 2591 2744 2837 
Q 2550 3084 2163 3084 
Q 1697 3084 1428 2787 
Q 1159 2491 1159 1978 
L 1159 0 
L 581 0 
L 581 4863 
L 1159 4863 
L 1159 2956 
Q 1366 3272 1645 3428 
Q 1925 3584 2291 3584 
Q 2894 3584 3203 3211 
Q 3513 2838 3513 2113 
z
" transform="scale(0.015625)"/>
     <path id="DejaVuSans-6c" d="M 603 4863 
L 1178 4863 
L 1178 0 
L 603 0 
L 603 4863 
z
" transform="scale(0.015625)"/>
     <path id="DejaVuSans-79" d="M 2059 -325 
Q 1816 -950 1584 -1140 
Q 1353 -1331 966 -1331 
L 506 -1331 
L 506 -850 
L 844 -850 
Q 1081 -850 1212 -737 
Q 1344 -625 1503 -206 
L 1606 56 
L 191 3500 
L 800 3500 
L 1894 763 
L 2988 3500 
L 3597 3500 
L 2059 -325 
z
" transform="scale(0.015625)"/>
     <path id="DejaVuSans-63" d="M 3122 3366 
L 3122 2828 
Q 2878 2963 2633 3030 
Q 2388 3097 2138 3097 
Q 1578 3097 1268 2742 
Q 959 2388 959 1747 
Q 959 1106 1268 751 
Q 1578 397 2138 397 
Q 2388 397 2633 464 
Q 2878 531 3122 666 
L 3122 134 
Q 2881 22 2623 -34 
Q 2366 -91 2075 -91 
Q 1284 -91 818 406 
Q 353 903 353 1747 
Q 353 2603 823 3093 
Q 1294 3584 2113 3584 
Q 2378 3584 2631 3529 
Q 2884 3475 3122 3366 
z
" transform="scale(0.015625)"/>
    </defs>
    <use xlink:href="#DejaVuSans-47"/>
    <use xlink:href="#DejaVuSans-50" transform="translate(77.490234 0)"/>
    <use xlink:href="#DejaVuSans-65" transform="translate(134.167969 0)"/>
    <use xlink:href="#DejaVuSans-20" transform="translate(195.691406 0)"/>
    <use xlink:href="#DejaVuSans-6e" transform="translate(227.478516 0)"/>
    <use xlink:href="#DejaVuSans-65" transform="translate(290.857422 0)"/>
    <use xlink:href="#DejaVuSans-75" transform="translate(352.380859 0)"/>
    <use xlink:href="#DejaVuSans-72" transform="translate(415.759766 0)"/>
    <use xlink:href="#DejaVuSans-6f" transform="translate(454.623047 0)"/>
    <use xlink:href="#DejaVuSans-6e" transform="translate(515.804688 0)"/>
    <use xlink:href="#DejaVuSans-20" transform="translate(579.183594 0)"/>
    <use xlink:href="#DejaVuSans-77" transform="translate(610.970703 0)"/>
    <use xlink:href="#DejaVuSans-69" transform="translate(692.757812 0)"/>
    <use xlink:href="#DejaVuSans-74" transform="translate(720.541016 0)"/>
    <use xlink:href="#DejaVuSans-68" transform="translate(759.75 0)"/>
    <use xlink:href="#DejaVuSans-20" transform="translate(823.128906 0)"/>
    <use xlink:href="#DejaVuSans-73" transform="translate(854.916016 0)"/>
    <use xlink:href="#DejaVuSans-6d" transform="translate(907.015625 0)"/>
    <use xlink:href="#DejaVuSans-61" transform="translate(1004.427734 0)"/>
    <use xlink:href="#DejaVuSans-6c" transform="translate(1065.707031 0)"/>
    <use xlink:href="#DejaVuSans-6c" transform="translate(1093.490234 0)"/>
    <use xlink:href="#DejaVuSans-20" transform="translate(1121.273438 0)"/>
    <use xlink:href="#DejaVuSans-68" transform="translate(1153.060547 0)"/>
    <use xlink:href="#DejaVuSans-79" transform="translate(1216.439453 0)"/>
    <use xlink:href="#DejaVuSans-70" transform="translate(1275.619141 0)"/>
    <use xlink:href="#DejaVuSans-65" transform="translate(1339.095703 0)"/>
    <use xlink:href="#DejaVuSans-72" transform="translate(1400.619141 0)"/>
    <use xlink:href="#DejaVuSans-70" transform="translate(1441.732422 0)"/>
    <use xlink:href="#DejaVuSans-6f" transform="translate(1505.208984 0)"/>
    <use xlink:href="#DejaVuSans-6c" transform="translate(1566.390625 0)"/>
    <use xlink:href="#DejaVuSans-61" transform="translate(1594.173828 0)"/>
    <use xlink:href="#DejaVuSans-72" transform="translate(1655.453125 0)"/>
    <use xlink:href="#DejaVuSans-69" transform="translate(1696.566406 0)"/>
    <use xlink:href="#DejaVuSans-73" transform="translate(1724.349609 0)"/>
    <use xlink:href="#DejaVuSans-69" transform="translate(1776.449219 0)"/>
    <use xlink:href="#DejaVuSans-6e" transform="translate(1804.232422 0)"/>
    <use xlink:href="#DejaVuSans-67" transform="translate(1867.611328 0)"/>
    <use xlink:href="#DejaVuSans-20" transform="translate(1931.087891 0)"/>
    <use xlink:href="#DejaVuSans-69" transform="translate(1962.875 0)"/>
    <use xlink:href="#DejaVuSans-6e" transform="translate(1990.658203 0)"/>
    <use xlink:href="#DejaVuSans-70" transform="translate(2054.037109 0)"/>
    <use xlink:href="#DejaVuSans-75" transform="translate(2117.513672 0)"/>
    <use xlink:href="#DejaVuSans-74" transform="translate(2180.892578 0)"/>
    <use xlink:href="#DejaVuSans-20" transform="translate(2220.101562 0)"/>
    <use xlink:href="#DejaVuSans-63" transform="translate(2251.888672 0)"/>
    <use xlink:href="#DejaVuSans-75" transform="translate(2306.869141 0)"/>
    <use xlink:href="#DejaVuSans-72" transform="translate(2370.248047 0)"/>
    <use xlink:href="#DejaVuSans-72" transform="translate(2409.611328 0)"/>
    <use xlink:href="#DejaVuSans-65" transform="translate(2448.474609 0)"/>
    <use xlink:href="#DejaVuSans-6e" transform="translate(2509.998047 0)"/>
    <use xlink:href="#DejaVuSans-74" transform="translate(2573.376953 0)"/>
   </g>
  </g>
 </g>
 <defs>
  <clipPath id="p5d0c9286f4">
   <rect x="91.9125" y="33.21375" width="617.2875" height="109.676667"/>
  </clipPath>
  <clipPath id="p39a9e80f7d">
   <rect x="91.9125" y="157.190417" width="617.2875" height="109.676667"/>
  </clipPath>
  <clipPath id="p2cfa92217d">
   <rect x="91.9125" y="281.167083" width="617.2875" height="109.676667"/>
  </clipPath>
 </defs>
</svg>
