<?xml version="1.0" encoding="utf-8" standalone="no"?>
<!DOCTYPE svg PUBLIC "-//W3C//DTD SVG 1.1//EN"
  "http://www.w3.org/Graphics/SVG/1.1/DTD/svg11.dtd">
<svg xmlns:xlink="http://www.w3.org/1999/xlink" width="720pt" height="432pt" viewBox="0 0 720 432" xmlns="http://www.w3.org/2000/svg" version="1.1">
 <metadata>
  <rdf:RDF xmlns:dc="http://purl.org/dc/elements/1.1/" xmlns:cc="http://creativecommons.org/ns#" xmlns:rdf="http://www.w3.org/1999/02/22-rdf-syntax-ns#">
   <cc:Work>
    <dc:type rdf:resource="http://purl.org/dc/dcmitype/StillImage"/>
    <dc:date>1980-01-01T00:00:00+00:00</dc:date>
    <dc:format>image/svg+xml</dc:format>
    <dc:creator>
     <cc:Agent>
      <dc:title>Matplotlib v3.10.0, https://matplotlib.org/</dc:title>
     </cc:Agent>
    </dc:creator>
   </cc:Work>
  </rdf:RDF>
 </metadata>
 <defs>
  <style type="text/css">*{stroke-linejoin: round; stroke-linecap: butt}</style>
 </defs>
 <g id="figure_1">
  <g id="patch_1">
   <path d="M 0 432 
L 720 432 
L 720 0 
L 0 0 
z
" style="fill: #ffffff"/>
  </g>
  <g id="axes_1">
   <g id="patch_2">
    <path d="M 91.9125 127.947917 
L 709.2 127.947917 
L 709.2 10.8 
L 91.9125 10.8 
z
" style="fill: #ffffff"/>
   </g>
   <g id="matplotlib.axis_1">
    <g id="xtick_1">
     <g id="line2d_1">
      <path d="M 119.971023 127.947917 
L 119.971023 10.8 
" clip-path="url(#p1446ce49bb)" style="fill: none; stroke: #b0b0b0; stroke-width: 0.8; stroke-linecap: square"/>
     </g>
     <g id="line2d_2">
      <defs>
       <path id="md975bd22da" d="M 0 0 
L 0 3.5 
" style="stroke: #000000; stroke-width: 0.8"/>
      </defs>
      <g>
       <use xlink:href="#md975bd22da" x="119.971023" y="127.947917" style="stroke: #000000; stroke-width: 0.8"/>
      </g>
     </g>
    </g>
    <g id="xtick_2">
     <g id="line2d_3">
      <path d="M 232.206236 127.947917 
L 232.206236 10.8 
" clip-path="url(#p1446ce49bb)" style="fill: none; stroke: #b0b0b0; stroke-width: 0.8; stroke-linecap: square"/>
     </g>
     <g id="line2d_4">
      <g>
       <use xlink:href="#md975bd22da" x="232.206236" y="127.947917" style="stroke: #000000; stroke-width: 0.8"/>
      </g>
     </g>
    </g>
    <g id="xtick_3">
     <g id="line2d_5">
      <path d="M 344.441449 127.947917 
L 344.441449 10.8 
" clip-path="url(#p1446ce49bb)" style="fill: none; stroke: #b0b0b0; stroke-width: 0.8; stroke-linecap: square"/>
     </g>
     <g id="line2d_6">
      <g>
       <use xlink:href="#md975bd22da" x="344.441449" y="127.947917" style="stroke: #000000; stroke-width: 0.8"/>
      </g>
     </g>
    </g>
    <g id="xtick_4">
     <g id="line2d_7">
      <path d="M 456.676663 127.947917 
L 456.676663 10.8 
" clip-path="url(#p1446ce49bb)" style="fill: none; stroke: #b0b0b0; stroke-width: 0.8; stroke-linecap: square"/>
     </g>
     <g id="line2d_8">
      <g>
       <use xlink:href="#md975bd22da" x="456.676663" y="127.947917" style="stroke: #000000; stroke-width: 0.8"/>
      </g>
     </g>
    </g>
    <g id="xtick_5">
     <g id="line2d_9">
      <path d="M 568.911876 127.947917 
L 568.911876 10.8 
" clip-path="url(#p1446ce49bb)" style="fill: none; stroke: #b0b0b0; stroke-width: 0.8; stroke-linecap: square"/>
     </g>
     <g id="line2d_10">
      <g>
       <use xlink:href="#md975bd22da" x="568.911876" y="127.947917" style="stroke: #000000; stroke-width: 0.8"/>
      </g>
     </g>
    </g>
    <g id="xtick_6">
     <g id="line2d_11">
      <path d="M 681.147089 127.947917 
L 681.147089 10.8 
" clip-path="url(#p1446ce49bb)" style="fill: none; stroke: #b0b0b0; stroke-width: 0.8; stroke-linecap: square"/>
     </g>
     <g id="line2d_12">
      <g>
       <use xlink:href="#md975bd22da" x="681.147089" y="127.947917" style="stroke: #000000; stroke-width: 0.8"/>
      </g>
     </g>
    </g>
   </g>
   <g id="matplotlib.axis_2">
    <g id="ytick_1">
     <g id="line2d_13">
      <path d="M 91.9125 122.623011 
L 709.2 122.623011 
" clip-path="url(#p1446ce49bb)" style="fill: none; stroke: #b0b0b0; stroke-width: 0.8; stroke-linecap: square"/>
     </g>
     <g id="line2d_14">
      <defs>
       <path id="mde5a15df51" d="M 0 0 
L -3.5 0 
" style="stroke: #000000; stroke-width: 0.8"/>
      </defs>
      <g>
       <use xlink:href="#mde5a15df51" x="91.9125" y="122.623011" style="stroke: #000000; stroke-width: 0.8"/>
      </g>
     </g>
     <g id="text_1">
      <!-- 0 -->
      <g transform="translate(78.55 126.42223) scale(0.1 -0.1)">
       <defs>
        <path id="DejaVuSans-30" d="M 2034 4250 
Q 1547 4250 1301 3770 
Q 1056 3291 1056 2328 
Q 1056 1369 1301 889 
Q 1547 409 2034 409 
Q 2525 409 2770 889 
Q 3016 1369 3016 2328 
Q 3016 3291 2770 3770 
Q 2525 4250 2034 4250 
z
M 2034 4750 
Q 2819 4750 3233 4129 
Q 3647 3509 3647 2328 
Q 3647 1150 3233 529 
Q 2819 -91 2034 -91 
Q 1250 -91 836 529 
Q 422 1150 422 2328 
Q 422 3509 836 4129 
Q 1250 4750 2034 4750 
z
" transform="scale(0.015625)"/>
       </defs>
       <use xlink:href="#DejaVuSans-30"/>
      </g>
     </g>
    </g>
    <g id="ytick_2">
     <g id="line2d_15">
      <path d="M 91.9125 91.300039 
L 709.2 91.300039 
" clip-path="url(#p1446ce49bb)" style="fill: none; stroke: #b0b0b0; stroke-width: 0.8; stroke-linecap: square"/>
     </g>
     <g id="line2d_16">
      <g>
       <use xlink:href="#mde5a15df51" x="91.9125" y="91.300039" style="stroke: #000000; stroke-width: 0.8"/>
      </g>
     </g>
     <g id="text_2">
      <!-- 50 -->
      <g transform="translate(72.1875 95.099258) scale(0.1 -0.1)">
       <defs>
        <path id="DejaVuSans-35" d="M 691 4666 
L 3169 4666 
L 3169 4134 
L 1269 4134 
L 1269 2991 
Q 1406 3038 1543 3061 
Q 1681 3084 1819 3084 
Q 2600 3084 3056 2656 
Q 3513 2228 3513 1497 
Q 3513 744 3044 326 
Q 2575 -91 1722 -91 
Q 1428 -91 1123 -41 
Q 819 9 494 109 
L 494 744 
Q 775 591 1075 516 
Q 1375 441 1709 441 
Q 2250 441 2565 725 
Q 2881 1009 2881 1497 
Q 2881 1984 2565 2268 
Q 2250 2553 1709 2553 
Q 1456 2553 1204 2497 
Q 953 2441 691 2322 
L 691 4666 
z
" transform="scale(0.015625)"/>
       </defs>
       <use xlink:href="#DejaVuSans-35"/>
       <use xlink:href="#DejaVuSans-30" transform="translate(63.623047 0)"/>
      </g>
     </g>
    </g>
    <g id="ytick_3">
     <g id="line2d_17">
      <path d="M 91.9125 59.977067 
L 709.2 59.977067 
" clip-path="url(#p1446ce49bb)" style="fill: none; stroke: #b0b0b0; stroke-width: 0.8; stroke-linecap: square"/>
     </g>
     <g id="line2d_18">
      <g>
       <use xlink:href="#mde5a15df51" x="91.9125" y="59.977067" style="stroke: #000000; stroke-width: 0.8"/>
      </g>
     </g>
     <g id="text_3">
      <!-- 100 -->
      <g transform="translate(65.825 63.776285) scale(0.1 -0.1)">
       <defs>
        <path id="DejaVuSans-31" d="M 794 531 
L 1825 531 
L 1825 4091 
L 703 3866 
L 703 4441 
L 1819 4666 
L 2450 4666 
L 2450 531 
L 3481 531 
L 3481 0 
L 794 0 
L 794 531 
z
" transform="scale(0.015625)"/>
       </defs>
       <use xlink:href="#DejaVuSans-31"/>
       <use xlink:href="#DejaVuSans-30" transform="translate(63.623047 0)"/>
       <use xlink:href="#DejaVuSans-30" transform="translate(127.246094 0)"/>
      </g>
     </g>
    </g>
    <g id="ytick_4">
     <g id="line2d_19">
      <path d="M 91.9125 28.654094 
L 709.2 28.654094 
" clip-path="url(#p1446ce49bb)" style="fill: none; stroke: #b0b0b0; stroke-width: 0.8; stroke-linecap: square"/>
     </g>
     <g id="line2d_20">
      <g>
       <use xlink:href="#mde5a15df51" x="91.9125" y="28.654094" style="stroke: #000000; stroke-width: 0.8"/>
      </g>
     </g>
     <g id="text_4">
      <!-- 150 -->
      <g transform="translate(65.825 32.453313) scale(0.1 -0.1)">
       <use xlink:href="#DejaVuSans-31"/>
       <use xlink:href="#DejaVuSans-35" transform="translate(63.623047 0)"/>
       <use xlink:href="#DejaVuSans-30" transform="translate(127.246094 0)"/>
      </g>
     </g>
    </g>
    <g id="text_5">
     <!-- I_app_gpe -->
     <g transform="translate(4.87125 67.016146) scale(0.1 -0.1)">
      <defs>
       <path id="DejaVuSans-49" d="M 628 4666 
L 1259 4666 
L 1259 0 
L 628 0 
L 628 4666 
z
" transform="scale(0.015625)"/>
       <path id="DejaVuSans-5f" d="M 3263 -1063 
L 3263 -1509 
L -63 -1509 
L -63 -1063 
L 3263 -1063 
z
" transform="scale(0.015625)"/>
       <path id="DejaVuSans-61" d="M 2194 1759 
Q 1497 1759 1228 1600 
Q 959 1441 959 1056 
Q 959 750 1161 570 
Q 1363 391 1709 391 
Q 2188 391 2477 730 
Q 2766 1069 2766 1631 
L 2766 1759 
L 2194 1759 
z
M 3341 1997 
L 3341 0 
L 2766 0 
L 2766 531 
Q 2569 213 2275 61 
Q 1981 -91 1556 -91 
Q 1019 -91 701 211 
Q 384 513 384 1019 
Q 384 1609 779 1909 
Q 1175 2209 1959 2209 
L 2766 2209 
L 2766 2266 
Q 2766 2663 2505 2880 
Q 2244 3097 1772 3097 
Q 1472 3097 1187 3025 
Q 903 2953 641 2809 
L 641 3341 
Q 956 3463 1253 3523 
Q 1550 3584 1831 3584 
Q 2591 3584 2966 3190 
Q 3341 2797 3341 1997 
z
" transform="scale(0.015625)"/>
       <path id="DejaVuSans-70" d="M 1159 525 
L 1159 -1331 
L 581 -1331 
L 581 3500 
L 1159 3500 
L 1159 2969 
Q 1341 3281 1617 3432 
Q 1894 3584 2278 3584 
Q 2916 3584 3314 3078 
Q 3713 2572 3713 1747 
Q 3713 922 3314 415 
Q 2916 -91 2278 -91 
Q 1894 -91 1617 61 
Q 1341 213 1159 525 
z
M 3116 1747 
Q 3116 2381 2855 2742 
Q 2594 3103 2138 3103 
Q 1681 3103 1420 2742 
Q 1159 2381 1159 1747 
Q 1159 1113 1420 752 
Q 1681 391 2138 391 
Q 2594 391 2855 752 
Q 3116 1113 3116 1747 
z
" transform="scale(0.015625)"/>
       <path id="DejaVuSans-67" d="M 2906 1791 
Q 2906 2416 2648 2759 
Q 2391 3103 1925 3103 
Q 1463 3103 1205 2759 
Q 947 2416 947 1791 
Q 947 1169 1205 825 
Q 1463 481 1925 481 
Q 2391 481 2648 825 
Q 2906 1169 2906 1791 
z
M 3481 434 
Q 3481 -459 3084 -895 
Q 2688 -1331 1869 -1331 
Q 1566 -1331 1297 -1286 
Q 1028 -1241 775 -1147 
L 775 -588 
Q 1028 -725 1275 -790 
Q 1522 -856 1778 -856 
Q 2344 -856 2625 -561 
Q 2906 -266 2906 331 
L 2906 616 
Q 2728 306 2450 153 
Q 2172 0 1784 0 
Q 1141 0 747 490 
Q 353 981 353 1791 
Q 353 2603 747 3093 
Q 1141 3584 1784 3584 
Q 2172 3584 2450 3431 
Q 2728 3278 2906 2969 
L 2906 3500 
L 3481 3500 
L 3481 434 
z
" transform="scale(0.015625)"/>
       <path id="DejaVuSans-65" d="M 3597 1894 
L 3597 1613 
L 953 1613 
Q 991 1019 1311 708 
Q 1631 397 2203 397 
Q 2534 397 2845 478 
Q 3156 559 3463 722 
L 3463 178 
Q 3153 47 2828 -22 
Q 2503 -91 2169 -91 
Q 1331 -91 842 396 
Q 353 884 353 1716 
Q 353 2575 817 3079 
Q 1281 3584 2069 3584 
Q 2775 3584 3186 3129 
Q 3597 2675 3597 1894 
z
M 3022 2063 
Q 3016 2534 2758 2815 
Q 2500 3097 2075 3097 
Q 1594 3097 1305 2825 
Q 1016 2553 972 2059 
L 3022 2063 
z
" transform="scale(0.015625)"/>
      </defs>
      <use xlink:href="#DejaVuSans-49"/>
      <use xlink:href="#DejaVuSans-5f" transform="translate(29.492188 0)"/>
      <use xlink:href="#DejaVuSans-61" transform="translate(79.492188 0)"/>
      <use xlink:href="#DejaVuSans-70" transform="translate(140.771484 0)"/>
      <use xlink:href="#DejaVuSans-70" transform="translate(204.248047 0)"/>
      <use xlink:href="#DejaVuSans-5f" transform="translate(267.724609 0)"/>
      <use xlink:href="#DejaVuSans-67" transform="translate(317.724609 0)"/>
      <use xlink:href="#DejaVuSans-70" transform="translate(381.201172 0)"/>
      <use xlink:href="#DejaVuSans-65" transform="translate(444.677734 0)"/>
     </g>
    </g>
   </g>
   <g id="line2d_21">
    <path d="M 119.971023 122.623011 
L 204.147433 122.623011 
L 204.259668 16.124905 
L 232.200624 16.124905 
L 232.312859 122.623011 
L 681.141477 122.623011 
L 681.141477 122.623011 
" clip-path="url(#p1446ce49bb)" style="fill: none; stroke: #000000; stroke-linecap: square"/>
   </g>
   <g id="patch_3">
    <path d="M 91.9125 127.947917 
L 91.9125 10.8 
" style="fill: none; stroke: #000000; stroke-width: 0.8; stroke-linejoin: miter; stroke-linecap: square"/>
   </g>
   <g id="patch_4">
    <path d="M 709.2 127.947917 
L 709.2 10.8 
" style="fill: none; stroke: #000000; stroke-width: 0.8; stroke-linejoin: miter; stroke-linecap: square"/>
   </g>
   <g id="patch_5">
    <path d="M 91.9125 127.947917 
L 709.2 127.947917 
" style="fill: none; stroke: #000000; stroke-width: 0.8; stroke-linejoin: miter; stroke-linecap: square"/>
   </g>
   <g id="patch_6">
    <path d="M 91.9125 10.8 
L 709.2 10.8 
" style="fill: none; stroke: #000000; stroke-width: 0.8; stroke-linejoin: miter; stroke-linecap: square"/>
   </g>
  </g>
  <g id="axes_2">
   <g id="patch_7">
    <path d="M 91.9125 259.395833 
L 709.2 259.395833 
L 709.2 142.247917 
L 91.9125 142.247917 
z
" style="fill: #ffffff"/>
   </g>
   <g id="matplotlib.axis_3">
    <g id="xtick_7">
     <g id="line2d_22">
      <path d="M 119.971023 259.395833 
L 119.971023 142.247917 
" clip-path="url(#paef901cc2f)" style="fill: none; stroke: #b0b0b0; stroke-width: 0.8; stroke-linecap: square"/>
     </g>
     <g id="line2d_23">
      <g>
       <use xlink:href="#md975bd22da" x="119.971023" y="259.395833" style="stroke: #000000; stroke-width: 0.8"/>
      </g>
     </g>
    </g>
    <g id="xtick_8">
     <g id="line2d_24">
      <path d="M 232.206236 259.395833 
L 232.206236 142.247917 
" clip-path="url(#paef901cc2f)" style="fill: none; stroke: #b0b0b0; stroke-width: 0.8; stroke-linecap: square"/>
     </g>
     <g id="line2d_25">
      <g>
       <use xlink:href="#md975bd22da" x="232.206236" y="259.395833" style="stroke: #000000; stroke-width: 0.8"/>
      </g>
     </g>
    </g>
    <g id="xtick_9">
     <g id="line2d_26">
      <path d="M 344.441449 259.395833 
L 344.441449 142.247917 
" clip-path="url(#paef901cc2f)" style="fill: none; stroke: #b0b0b0; stroke-width: 0.8; stroke-linecap: square"/>
     </g>
     <g id="line2d_27">
      <g>
       <use xlink:href="#md975bd22da" x="344.441449" y="259.395833" style="stroke: #000000; stroke-width: 0.8"/>
      </g>
     </g>
    </g>
    <g id="xtick_10">
     <g id="line2d_28">
      <path d="M 456.676663 259.395833 
L 456.676663 142.247917 
" clip-path="url(#paef901cc2f)" style="fill: none; stroke: #b0b0b0; stroke-width: 0.8; stroke-linecap: square"/>
     </g>
     <g id="line2d_29">
      <g>
       <use xlink:href="#md975bd22da" x="456.676663" y="259.395833" style="stroke: #000000; stroke-width: 0.8"/>
      </g>
     </g>
    </g>
    <g id="xtick_11">
     <g id="line2d_30">
      <path d="M 568.911876 259.395833 
L 568.911876 142.247917 
" clip-path="url(#paef901cc2f)" style="fill: none; stroke: #b0b0b0; stroke-width: 0.8; stroke-linecap: square"/>
     </g>
     <g id="line2d_31">
      <g>
       <use xlink:href="#md975bd22da" x="568.911876" y="259.395833" style="stroke: #000000; stroke-width: 0.8"/>
      </g>
     </g>
    </g>
    <g id="xtick_12">
     <g id="line2d_32">
      <path d="M 681.147089 259.395833 
L 681.147089 142.247917 
" clip-path="url(#paef901cc2f)" style="fill: none; stroke: #b0b0b0; stroke-width: 0.8; stroke-linecap: square"/>
     </g>
     <g id="line2d_33">
      <g>
       <use xlink:href="#md975bd22da" x="681.147089" y="259.395833" style="stroke: #000000; stroke-width: 0.8"/>
      </g>
     </g>
    </g>
   </g>
   <g id="matplotlib.axis_4">
    <g id="ytick_5">
     <g id="line2d_34">
      <path d="M 91.9125 257.482661 
L 709.2 257.482661 
" clip-path="url(#paef901cc2f)" style="fill: none; stroke: #b0b0b0; stroke-width: 0.8; stroke-linecap: square"/>
     </g>
     <g id="line2d_35">
      <g>
       <use xlink:href="#mde5a15df51" x="91.9125" y="257.482661" style="stroke: #000000; stroke-width: 0.8"/>
      </g>
     </g>
     <g id="text_6">
      <!-- 0.025 -->
      <g transform="translate(56.284375 261.28188) scale(0.1 -0.1)">
       <defs>
        <path id="DejaVuSans-2e" d="M 684 794 
L 1344 794 
L 1344 0 
L 684 0 
L 684 794 
z
" transform="scale(0.015625)"/>
        <path id="DejaVuSans-32" d="M 1228 531 
L 3431 531 
L 3431 0 
L 469 0 
L 469 531 
Q 828 903 1448 1529 
Q 2069 2156 2228 2338 
Q 2531 2678 2651 2914 
Q 2772 3150 2772 3378 
Q 2772 3750 2511 3984 
Q 2250 4219 1831 4219 
Q 1534 4219 1204 4116 
Q 875 4013 500 3803 
L 500 4441 
Q 881 4594 1212 4672 
Q 1544 4750 1819 4750 
Q 2544 4750 2975 4387 
Q 3406 4025 3406 3419 
Q 3406 3131 3298 2873 
Q 3191 2616 2906 2266 
Q 2828 2175 2409 1742 
Q 1991 1309 1228 531 
z
" transform="scale(0.015625)"/>
       </defs>
       <use xlink:href="#DejaVuSans-30"/>
       <use xlink:href="#DejaVuSans-2e" transform="translate(63.623047 0)"/>
       <use xlink:href="#DejaVuSans-30" transform="translate(95.410156 0)"/>
       <use xlink:href="#DejaVuSans-32" transform="translate(159.033203 0)"/>
       <use xlink:href="#DejaVuSans-35" transform="translate(222.65625 0)"/>
      </g>
     </g>
    </g>
    <g id="ytick_6">
     <g id="line2d_36">
      <path d="M 91.9125 230.233012 
L 709.2 230.233012 
" clip-path="url(#paef901cc2f)" style="fill: none; stroke: #b0b0b0; stroke-width: 0.8; stroke-linecap: square"/>
     </g>
     <g id="line2d_37">
      <g>
       <use xlink:href="#mde5a15df51" x="91.9125" y="230.233012" style="stroke: #000000; stroke-width: 0.8"/>
      </g>
     </g>
     <g id="text_7">
      <!-- 0.050 -->
      <g transform="translate(56.284375 234.032231) scale(0.1 -0.1)">
       <use xlink:href="#DejaVuSans-30"/>
       <use xlink:href="#DejaVuSans-2e" transform="translate(63.623047 0)"/>
       <use xlink:href="#DejaVuSans-30" transform="translate(95.410156 0)"/>
       <use xlink:href="#DejaVuSans-35" transform="translate(159.033203 0)"/>
       <use xlink:href="#DejaVuSans-30" transform="translate(222.65625 0)"/>
      </g>
     </g>
    </g>
    <g id="ytick_7">
     <g id="line2d_38">
      <path d="M 91.9125 202.983363 
L 709.2 202.983363 
" clip-path="url(#paef901cc2f)" style="fill: none; stroke: #b0b0b0; stroke-width: 0.8; stroke-linecap: square"/>
     </g>
     <g id="line2d_39">
      <g>
       <use xlink:href="#mde5a15df51" x="91.9125" y="202.983363" style="stroke: #000000; stroke-width: 0.8"/>
      </g>
     </g>
     <g id="text_8">
      <!-- 0.075 -->
      <g transform="translate(56.284375 206.782582) scale(0.1 -0.1)">
       <defs>
        <path id="DejaVuSans-37" d="M 525 4666 
L 3525 4666 
L 3525 4397 
L 1831 0 
L 1172 0 
L 2766 4134 
L 525 4134 
L 525 4666 
z
" transform="scale(0.015625)"/>
       </defs>
       <use xlink:href="#DejaVuSans-30"/>
       <use xlink:href="#DejaVuSans-2e" transform="translate(63.623047 0)"/>
       <use xlink:href="#DejaVuSans-30" transform="translate(95.410156 0)"/>
       <use xlink:href="#DejaVuSans-37" transform="translate(159.033203 0)"/>
       <use xlink:href="#DejaVuSans-35" transform="translate(222.65625 0)"/>
      </g>
     </g>
    </g>
    <g id="ytick_8">
     <g id="line2d_40">
      <path d="M 91.9125 175.733714 
L 709.2 175.733714 
" clip-path="url(#paef901cc2f)" style="fill: none; stroke: #b0b0b0; stroke-width: 0.8; stroke-linecap: square"/>
     </g>
     <g id="line2d_41">
      <g>
       <use xlink:href="#mde5a15df51" x="91.9125" y="175.733714" style="stroke: #000000; stroke-width: 0.8"/>
      </g>
     </g>
     <g id="text_9">
      <!-- 0.100 -->
      <g transform="translate(56.284375 179.532933) scale(0.1 -0.1)">
       <use xlink:href="#DejaVuSans-30"/>
       <use xlink:href="#DejaVuSans-2e" transform="translate(63.623047 0)"/>
       <use xlink:href="#DejaVuSans-31" transform="translate(95.410156 0)"/>
       <use xlink:href="#DejaVuSans-30" transform="translate(159.033203 0)"/>
       <use xlink:href="#DejaVuSans-30" transform="translate(222.65625 0)"/>
      </g>
     </g>
    </g>
    <g id="ytick_9">
     <g id="line2d_42">
      <path d="M 91.9125 148.484065 
L 709.2 148.484065 
" clip-path="url(#paef901cc2f)" style="fill: none; stroke: #b0b0b0; stroke-width: 0.8; stroke-linecap: square"/>
     </g>
     <g id="line2d_43">
      <g>
       <use xlink:href="#mde5a15df51" x="91.9125" y="148.484065" style="stroke: #000000; stroke-width: 0.8"/>
      </g>
     </g>
     <g id="text_10">
      <!-- 0.125 -->
      <g transform="translate(56.284375 152.283284) scale(0.1 -0.1)">
       <use xlink:href="#DejaVuSans-30"/>
       <use xlink:href="#DejaVuSans-2e" transform="translate(63.623047 0)"/>
       <use xlink:href="#DejaVuSans-31" transform="translate(95.410156 0)"/>
       <use xlink:href="#DejaVuSans-32" transform="translate(159.033203 0)"/>
       <use xlink:href="#DejaVuSans-35" transform="translate(222.65625 0)"/>
      </g>
     </g>
    </g>
    <g id="text_11">
     <!-- Ca_gpe -->
     <g transform="translate(11.703281 198.464063) scale(0.1 -0.1)">
      <defs>
       <path id="DejaVuSans-43" d="M 4122 4306 
L 4122 3641 
Q 3803 3938 3442 4084 
Q 3081 4231 2675 4231 
Q 1875 4231 1450 3742 
Q 1025 3253 1025 2328 
Q 1025 1406 1450 917 
Q 1875 428 2675 428 
Q 3081 428 3442 575 
Q 3803 722 4122 1019 
L 4122 359 
Q 3791 134 3420 21 
Q 3050 -91 2638 -91 
Q 1578 -91 968 557 
Q 359 1206 359 2328 
Q 359 3453 968 4101 
Q 1578 4750 2638 4750 
Q 3056 4750 3426 4639 
Q 3797 4528 4122 4306 
z
" transform="scale(0.015625)"/>
      </defs>
      <use xlink:href="#DejaVuSans-43"/>
      <use xlink:href="#DejaVuSans-61" transform="translate(69.824219 0)"/>
      <use xlink:href="#DejaVuSans-5f" transform="translate(131.103516 0)"/>
      <use xlink:href="#DejaVuSans-67" transform="translate(181.103516 0)"/>
      <use xlink:href="#DejaVuSans-70" transform="translate(244.580078 0)"/>
      <use xlink:href="#DejaVuSans-65" transform="translate(308.056641 0)"/>
     </g>
    </g>
   </g>
   <g id="line2d_44">
    <path d="M 119.971023 230.233012 
L 131.396567 232.330983 
L 131.53125 232.064391 
L 132.109261 230.401687 
L 132.636767 228.82371 
L 145.818792 231.338822 
L 145.908581 231.166019 
L 146.722286 227.19153 
L 146.997262 225.259924 
L 147.115109 225.284825 
L 160.560888 228.020034 
L 160.650676 227.871823 
L 161.234299 224.861872 
L 161.672016 221.557536 
L 161.756193 220.935843 
L 161.845981 220.956216 
L 175.639689 223.978332 
L 175.746312 223.838054 
L 176.150359 221.713139 
L 176.593688 218.780076 
L 176.857441 216.535291 
L 176.975288 216.563904 
L 191.111313 219.883956 
L 191.234771 219.774576 
L 191.369454 218.965165 
L 191.958689 215.667504 
L 192.351512 212.37007 
L 192.514253 212.411769 
L 204.192327 215.337134 
L 205.06215 209.808269 
L 205.410079 206.545245 
L 205.533538 206.579293 
L 206.420196 206.714902 
L 206.521207 206.346527 
L 207.043101 202.433829 
L 207.323689 199.985926 
L 207.430313 200.017783 
L 208.305747 200.170211 
L 208.412371 199.805618 
L 208.911817 196.363881 
L 209.209241 193.919879 
L 209.321476 193.955108 
L 210.191299 194.125799 
L 210.303534 193.769449 
L 210.780534 190.753788 
L 211.100404 188.299505 
L 211.218251 188.33863 
L 212.088074 188.526352 
L 212.205921 188.176509 
L 212.660474 185.537204 
L 213.002791 183.086923 
L 213.12625 183.130341 
L 214.001684 183.32923 
L 214.125143 182.975976 
L 214.568472 180.59102 
L 214.922013 178.249832 
L 215.03986 178.294232 
L 215.920907 178.515863 
L 216.049977 178.183227 
L 216.459636 176.169397 
L 216.846847 173.755618 
L 216.981529 173.808299 
L 217.856964 174.040845 
L 217.991646 173.718824 
L 218.373246 171.992795 
L 218.782904 169.577323 
L 218.92881 169.635875 
L 219.804245 169.882133 
L 219.950151 169.556687 
L 220.303692 168.075271 
L 220.735797 165.689257 
L 220.887315 165.752915 
L 221.768361 166.00677 
L 221.92549 165.672169 
L 222.250973 164.395949 
L 222.694302 162.065213 
L 222.851431 162.132644 
L 223.738089 162.401366 
L 223.906442 162.071845 
L 224.198254 161.006691 
L 224.669641 158.684601 
L 224.837994 158.759864 
L 225.719041 159.036289 
L 225.898617 158.713124 
L 226.156758 157.830074 
L 226.588864 155.664189 
L 226.644981 155.522469 
L 226.717934 155.554659 
L 227.711216 155.889872 
L 227.907627 155.561811 
L 228.126486 154.845886 
L 228.55298 152.838053 
L 228.637156 152.563185 
L 228.704497 152.594381 
L 229.709002 152.94675 
L 229.916638 152.632927 
L 230.101826 152.055108 
L 230.522708 150.194595 
L 230.629331 149.785082 
L 230.702284 149.81838 
L 231.712401 150.187558 
L 231.93126 149.891454 
L 232.082777 149.437429 
L 232.458765 147.844382 
L 232.531718 147.572822 
L 232.610283 147.610224 
L 244.613839 153.352658 
L 256.82503 158.94772 
L 269.260692 164.400809 
L 281.932047 169.714149 
L 294.85032 174.889576 
L 308.032346 179.930685 
L 321.489348 184.838379 
L 335.23255 189.61332 
L 349.284399 194.259588 
L 363.66173 198.778657 
L 378.381378 203.171555 
L 393.460179 207.43893 
L 408.920579 211.582564 
L 424.790638 215.605041 
L 441.092803 219.506823 
L 457.84952 223.287964 
L 475.094461 226.9505 
L 492.861295 230.49565 
L 511.183694 233.923932 
L 530.100939 237.236244 
L 549.652313 240.432766 
L 569.888322 243.514756 
L 590.859472 246.482555 
L 612.62188 249.336484 
L 635.242887 252.077402 
L 653.150015 254.049864 
L 653.279086 253.871907 
L 653.857097 252.387618 
L 654.373379 251.026686 
L 666.332041 252.352899 
L 666.421829 252.050519 
L 667.678863 246.443559 
L 679.789043 247.984275 
L 679.867608 247.706993 
L 680.950677 240.786546 
L 681.034854 240.799715 
L 681.141477 240.816406 
L 681.141477 240.816406 
" clip-path="url(#paef901cc2f)" style="fill: none; stroke: #000000; stroke-linecap: square"/>
   </g>
   <g id="patch_8">
    <path d="M 91.9125 259.395833 
L 91.9125 142.247917 
" style="fill: none; stroke: #000000; stroke-width: 0.8; stroke-linejoin: miter; stroke-linecap: square"/>
   </g>
   <g id="patch_9">
    <path d="M 709.2 259.395833 
L 709.2 142.247917 
" style="fill: none; stroke: #000000; stroke-width: 0.8; stroke-linejoin: miter; stroke-linecap: square"/>
   </g>
   <g id="patch_10">
    <path d="M 91.9125 259.395833 
L 709.2 259.395833 
" style="fill: none; stroke: #000000; stroke-width: 0.8; stroke-linejoin: miter; stroke-linecap: square"/>
   </g>
   <g id="patch_11">
    <path d="M 91.9125 142.247917 
L 709.2 142.247917 
" style="fill: none; stroke: #000000; stroke-width: 0.8; stroke-linejoin: miter; stroke-linecap: square"/>
   </g>
  </g>
  <g id="axes_3">
   <g id="patch_12">
    <path d="M 91.9125 390.84375 
L 709.2 390.84375 
L 709.2 273.695833 
L 91.9125 273.695833 
z
" style="fill: #ffffff"/>
   </g>
   <g id="matplotlib.axis_5">
    <g id="xtick_13">
     <g id="line2d_45">
      <path d="M 119.971023 390.84375 
L 119.971023 273.695833 
" clip-path="url(#p1253760a72)" style="fill: none; stroke: #b0b0b0; stroke-width: 0.8; stroke-linecap: square"/>
     </g>
     <g id="line2d_46">
      <g>
       <use xlink:href="#md975bd22da" x="119.971023" y="390.84375" style="stroke: #000000; stroke-width: 0.8"/>
      </g>
     </g>
     <g id="text_12">
      <!-- 0 -->
      <g transform="translate(116.789773 405.442187) scale(0.1 -0.1)">
       <use xlink:href="#DejaVuSans-30"/>
      </g>
     </g>
    </g>
    <g id="xtick_14">
     <g id="line2d_47">
      <path d="M 232.206236 390.84375 
L 232.206236 273.695833 
" clip-path="url(#p1253760a72)" style="fill: none; stroke: #b0b0b0; stroke-width: 0.8; stroke-linecap: square"/>
     </g>
     <g id="line2d_48">
      <g>
       <use xlink:href="#md975bd22da" x="232.206236" y="390.84375" style="stroke: #000000; stroke-width: 0.8"/>
      </g>
     </g>
     <g id="text_13">
      <!-- 200 -->
      <g transform="translate(222.662486 405.442187) scale(0.1 -0.1)">
       <use xlink:href="#DejaVuSans-32"/>
       <use xlink:href="#DejaVuSans-30" transform="translate(63.623047 0)"/>
       <use xlink:href="#DejaVuSans-30" transform="translate(127.246094 0)"/>
      </g>
     </g>
    </g>
    <g id="xtick_15">
     <g id="line2d_49">
      <path d="M 344.441449 390.84375 
L 344.441449 273.695833 
" clip-path="url(#p1253760a72)" style="fill: none; stroke: #b0b0b0; stroke-width: 0.8; stroke-linecap: square"/>
     </g>
     <g id="line2d_50">
      <g>
       <use xlink:href="#md975bd22da" x="344.441449" y="390.84375" style="stroke: #000000; stroke-width: 0.8"/>
      </g>
     </g>
     <g id="text_14">
      <!-- 400 -->
      <g transform="translate(334.897699 405.442187) scale(0.1 -0.1)">
       <defs>
        <path id="DejaVuSans-34" d="M 2419 4116 
L 825 1625 
L 2419 1625 
L 2419 4116 
z
M 2253 4666 
L 3047 4666 
L 3047 1625 
L 3713 1625 
L 3713 1100 
L 3047 1100 
L 3047 0 
L 2419 0 
L 2419 1100 
L 313 1100 
L 313 1709 
L 2253 4666 
z
" transform="scale(0.015625)"/>
       </defs>
       <use xlink:href="#DejaVuSans-34"/>
       <use xlink:href="#DejaVuSans-30" transform="translate(63.623047 0)"/>
       <use xlink:href="#DejaVuSans-30" transform="translate(127.246094 0)"/>
      </g>
     </g>
    </g>
    <g id="xtick_16">
     <g id="line2d_51">
      <path d="M 456.676663 390.84375 
L 456.676663 273.695833 
" clip-path="url(#p1253760a72)" style="fill: none; stroke: #b0b0b0; stroke-width: 0.8; stroke-linecap: square"/>
     </g>
     <g id="line2d_52">
      <g>
       <use xlink:href="#md975bd22da" x="456.676663" y="390.84375" style="stroke: #000000; stroke-width: 0.8"/>
      </g>
     </g>
     <g id="text_15">
      <!-- 600 -->
      <g transform="translate(447.132913 405.442187) scale(0.1 -0.1)">
       <defs>
        <path id="DejaVuSans-36" d="M 2113 2584 
Q 1688 2584 1439 2293 
Q 1191 2003 1191 1497 
Q 1191 994 1439 701 
Q 1688 409 2113 409 
Q 2538 409 2786 701 
Q 3034 994 3034 1497 
Q 3034 2003 2786 2293 
Q 2538 2584 2113 2584 
z
M 3366 4563 
L 3366 3988 
Q 3128 4100 2886 4159 
Q 2644 4219 2406 4219 
Q 1781 4219 1451 3797 
Q 1122 3375 1075 2522 
Q 1259 2794 1537 2939 
Q 1816 3084 2150 3084 
Q 2853 3084 3261 2657 
Q 3669 2231 3669 1497 
Q 3669 778 3244 343 
Q 2819 -91 2113 -91 
Q 1303 -91 875 529 
Q 447 1150 447 2328 
Q 447 3434 972 4092 
Q 1497 4750 2381 4750 
Q 2619 4750 2861 4703 
Q 3103 4656 3366 4563 
z
" transform="scale(0.015625)"/>
       </defs>
       <use xlink:href="#DejaVuSans-36"/>
       <use xlink:href="#DejaVuSans-30" transform="translate(63.623047 0)"/>
       <use xlink:href="#DejaVuSans-30" transform="translate(127.246094 0)"/>
      </g>
     </g>
    </g>
    <g id="xtick_17">
     <g id="line2d_53">
      <path d="M 568.911876 390.84375 
L 568.911876 273.695833 
" clip-path="url(#p1253760a72)" style="fill: none; stroke: #b0b0b0; stroke-width: 0.8; stroke-linecap: square"/>
     </g>
     <g id="line2d_54">
      <g>
       <use xlink:href="#md975bd22da" x="568.911876" y="390.84375" style="stroke: #000000; stroke-width: 0.8"/>
      </g>
     </g>
     <g id="text_16">
      <!-- 800 -->
      <g transform="translate(559.368126 405.442187) scale(0.1 -0.1)">
       <defs>
        <path id="DejaVuSans-38" d="M 2034 2216 
Q 1584 2216 1326 1975 
Q 1069 1734 1069 1313 
Q 1069 891 1326 650 
Q 1584 409 2034 409 
Q 2484 409 2743 651 
Q 3003 894 3003 1313 
Q 3003 1734 2745 1975 
Q 2488 2216 2034 2216 
z
M 1403 2484 
Q 997 2584 770 2862 
Q 544 3141 544 3541 
Q 544 4100 942 4425 
Q 1341 4750 2034 4750 
Q 2731 4750 3128 4425 
Q 3525 4100 3525 3541 
Q 3525 3141 3298 2862 
Q 3072 2584 2669 2484 
Q 3125 2378 3379 2068 
Q 3634 1759 3634 1313 
Q 3634 634 3220 271 
Q 2806 -91 2034 -91 
Q 1263 -91 848 271 
Q 434 634 434 1313 
Q 434 1759 690 2068 
Q 947 2378 1403 2484 
z
M 1172 3481 
Q 1172 3119 1398 2916 
Q 1625 2713 2034 2713 
Q 2441 2713 2670 2916 
Q 2900 3119 2900 3481 
Q 2900 3844 2670 4047 
Q 2441 4250 2034 4250 
Q 1625 4250 1398 4047 
Q 1172 3844 1172 3481 
z
" transform="scale(0.015625)"/>
       </defs>
       <use xlink:href="#DejaVuSans-38"/>
       <use xlink:href="#DejaVuSans-30" transform="translate(63.623047 0)"/>
       <use xlink:href="#DejaVuSans-30" transform="translate(127.246094 0)"/>
      </g>
     </g>
    </g>
    <g id="xtick_18">
     <g id="line2d_55">
      <path d="M 681.147089 390.84375 
L 681.147089 273.695833 
" clip-path="url(#p1253760a72)" style="fill: none; stroke: #b0b0b0; stroke-width: 0.8; stroke-linecap: square"/>
     </g>
     <g id="line2d_56">
      <g>
       <use xlink:href="#md975bd22da" x="681.147089" y="390.84375" style="stroke: #000000; stroke-width: 0.8"/>
      </g>
     </g>
     <g id="text_17">
      <!-- 1000 -->
      <g transform="translate(668.422089 405.442187) scale(0.1 -0.1)">
       <use xlink:href="#DejaVuSans-31"/>
       <use xlink:href="#DejaVuSans-30" transform="translate(63.623047 0)"/>
       <use xlink:href="#DejaVuSans-30" transform="translate(127.246094 0)"/>
       <use xlink:href="#DejaVuSans-30" transform="translate(190.869141 0)"/>
      </g>
     </g>
    </g>
    <g id="text_18">
     <!-- Time (ms) -->
     <g transform="translate(375.357031 419.120313) scale(0.1 -0.1)">
      <defs>
       <path id="DejaVuSans-54" d="M -19 4666 
L 3928 4666 
L 3928 4134 
L 2272 4134 
L 2272 0 
L 1638 0 
L 1638 4134 
L -19 4134 
L -19 4666 
z
" transform="scale(0.015625)"/>
       <path id="DejaVuSans-69" d="M 603 3500 
L 1178 3500 
L 1178 0 
L 603 0 
L 603 3500 
z
M 603 4863 
L 1178 4863 
L 1178 4134 
L 603 4134 
L 603 4863 
z
" transform="scale(0.015625)"/>
       <path id="DejaVuSans-6d" d="M 3328 2828 
Q 3544 3216 3844 3400 
Q 4144 3584 4550 3584 
Q 5097 3584 5394 3201 
Q 5691 2819 5691 2113 
L 5691 0 
L 5113 0 
L 5113 2094 
Q 5113 2597 4934 2840 
Q 4756 3084 4391 3084 
Q 3944 3084 3684 2787 
Q 3425 2491 3425 1978 
L 3425 0 
L 2847 0 
L 2847 2094 
Q 2847 2600 2669 2842 
Q 2491 3084 2119 3084 
Q 1678 3084 1418 2786 
Q 1159 2488 1159 1978 
L 1159 0 
L 581 0 
L 581 3500 
L 1159 3500 
L 1159 2956 
Q 1356 3278 1631 3431 
Q 1906 3584 2284 3584 
Q 2666 3584 2933 3390 
Q 3200 3197 3328 2828 
z
" transform="scale(0.015625)"/>
       <path id="DejaVuSans-20" transform="scale(0.015625)"/>
       <path id="DejaVuSans-28" d="M 1984 4856 
Q 1566 4138 1362 3434 
Q 1159 2731 1159 2009 
Q 1159 1288 1364 580 
Q 1569 -128 1984 -844 
L 1484 -844 
Q 1016 -109 783 600 
Q 550 1309 550 2009 
Q 550 2706 781 3412 
Q 1013 4119 1484 4856 
L 1984 4856 
z
" transform="scale(0.015625)"/>
       <path id="DejaVuSans-73" d="M 2834 3397 
L 2834 2853 
Q 2591 2978 2328 3040 
Q 2066 3103 1784 3103 
Q 1356 3103 1142 2972 
Q 928 2841 928 2578 
Q 928 2378 1081 2264 
Q 1234 2150 1697 2047 
L 1894 2003 
Q 2506 1872 2764 1633 
Q 3022 1394 3022 966 
Q 3022 478 2636 193 
Q 2250 -91 1575 -91 
Q 1294 -91 989 -36 
Q 684 19 347 128 
L 347 722 
Q 666 556 975 473 
Q 1284 391 1588 391 
Q 1994 391 2212 530 
Q 2431 669 2431 922 
Q 2431 1156 2273 1281 
Q 2116 1406 1581 1522 
L 1381 1569 
Q 847 1681 609 1914 
Q 372 2147 372 2553 
Q 372 3047 722 3315 
Q 1072 3584 1716 3584 
Q 2034 3584 2315 3537 
Q 2597 3491 2834 3397 
z
" transform="scale(0.015625)"/>
       <path id="DejaVuSans-29" d="M 513 4856 
L 1013 4856 
Q 1481 4119 1714 3412 
Q 1947 2706 1947 2009 
Q 1947 1309 1714 600 
Q 1481 -109 1013 -844 
L 513 -844 
Q 928 -128 1133 580 
Q 1338 1288 1338 2009 
Q 1338 2731 1133 3434 
Q 928 4138 513 4856 
z
" transform="scale(0.015625)"/>
      </defs>
      <use xlink:href="#DejaVuSans-54"/>
      <use xlink:href="#DejaVuSans-69" transform="translate(57.958984 0)"/>
      <use xlink:href="#DejaVuSans-6d" transform="translate(85.742188 0)"/>
      <use xlink:href="#DejaVuSans-65" transform="translate(183.154297 0)"/>
      <use xlink:href="#DejaVuSans-20" transform="translate(244.677734 0)"/>
      <use xlink:href="#DejaVuSans-28" transform="translate(276.464844 0)"/>
      <use xlink:href="#DejaVuSans-6d" transform="translate(315.478516 0)"/>
      <use xlink:href="#DejaVuSans-73" transform="translate(412.890625 0)"/>
      <use xlink:href="#DejaVuSans-29" transform="translate(464.990234 0)"/>
     </g>
    </g>
   </g>
   <g id="matplotlib.axis_6">
    <g id="ytick_10">
     <g id="line2d_57">
      <path d="M 91.9125 362.33283 
L 709.2 362.33283 
" clip-path="url(#p1253760a72)" style="fill: none; stroke: #b0b0b0; stroke-width: 0.8; stroke-linecap: square"/>
     </g>
     <g id="line2d_58">
      <g>
       <use xlink:href="#mde5a15df51" x="91.9125" y="362.33283" style="stroke: #000000; stroke-width: 0.8"/>
      </g>
     </g>
     <g id="text_19">
      <!-- −50 -->
      <g transform="translate(63.807812 366.132049) scale(0.1 -0.1)">
       <defs>
        <path id="DejaVuSans-2212" d="M 678 2272 
L 4684 2272 
L 4684 1741 
L 678 1741 
L 678 2272 
z
" transform="scale(0.015625)"/>
       </defs>
       <use xlink:href="#DejaVuSans-2212"/>
       <use xlink:href="#DejaVuSans-35" transform="translate(83.789062 0)"/>
       <use xlink:href="#DejaVuSans-30" transform="translate(147.412109 0)"/>
      </g>
     </g>
    </g>
    <g id="ytick_11">
     <g id="line2d_59">
      <path d="M 91.9125 323.393992 
L 709.2 323.393992 
" clip-path="url(#p1253760a72)" style="fill: none; stroke: #b0b0b0; stroke-width: 0.8; stroke-linecap: square"/>
     </g>
     <g id="line2d_60">
      <g>
       <use xlink:href="#mde5a15df51" x="91.9125" y="323.393992" style="stroke: #000000; stroke-width: 0.8"/>
      </g>
     </g>
     <g id="text_20">
      <!-- 0 -->
      <g transform="translate(78.55 327.19321) scale(0.1 -0.1)">
       <use xlink:href="#DejaVuSans-30"/>
      </g>
     </g>
    </g>
    <g id="ytick_12">
     <g id="line2d_61">
      <path d="M 91.9125 284.455153 
L 709.2 284.455153 
" clip-path="url(#p1253760a72)" style="fill: none; stroke: #b0b0b0; stroke-width: 0.8; stroke-linecap: square"/>
     </g>
     <g id="line2d_62">
      <g>
       <use xlink:href="#mde5a15df51" x="91.9125" y="284.455153" style="stroke: #000000; stroke-width: 0.8"/>
      </g>
     </g>
     <g id="text_21">
      <!-- 50 -->
      <g transform="translate(72.1875 288.254372) scale(0.1 -0.1)">
       <use xlink:href="#DejaVuSans-35"/>
       <use xlink:href="#DejaVuSans-30" transform="translate(63.623047 0)"/>
      </g>
     </g>
    </g>
    <g id="text_22">
     <!-- v_gpe -->
     <g transform="translate(15.299375 329.911979) scale(0.1 -0.1)">
      <defs>
       <path id="DejaVuSans-76" d="M 191 3500 
L 800 3500 
L 1894 563 
L 2988 3500 
L 3597 3500 
L 2284 0 
L 1503 0 
L 191 3500 
z
" transform="scale(0.015625)"/>
      </defs>
      <use xlink:href="#DejaVuSans-76"/>
      <use xlink:href="#DejaVuSans-5f" transform="translate(59.179688 0)"/>
      <use xlink:href="#DejaVuSans-67" transform="translate(109.179688 0)"/>
      <use xlink:href="#DejaVuSans-70" transform="translate(172.65625 0)"/>
      <use xlink:href="#DejaVuSans-65" transform="translate(236.132812 0)"/>
     </g>
    </g>
   </g>
   <g id="line2d_63">
    <path d="M 119.971023 370.120597 
L 120.352622 371.395808 
L 121.665774 376.233122 
L 122.182056 377.147119 
L 122.675891 377.602334 
L 123.192173 377.782737 
L 123.78702 377.747134 
L 124.561443 377.462923 
L 125.689407 376.789486 
L 127.372935 375.505979 
L 128.938616 374.05516 
L 129.887004 372.891138 
L 130.487462 371.810511 
L 130.891509 370.624697 
L 131.166485 369.111439 
L 131.34045 366.815595 
L 131.441462 361.805852 
L 131.480744 346.321328 
L 131.520026 281.064049 
L 131.609814 282.107001 
L 131.766944 286.748371 
L 132.013861 302.118333 
L 132.440355 343.933838 
L 132.670437 385.393084 
L 132.821955 385.514825 
L 133.529036 385.363378 
L 134.494259 384.969758 
L 135.392141 384.357046 
L 136.391034 383.388423 
L 137.833257 381.636878 
L 141.452843 377.165641 
L 144.023029 374.029848 
L 144.797452 372.710419 
L 145.285675 371.444623 
L 145.611157 369.961674 
L 145.801957 368.024702 
L 145.902969 364.295432 
L 145.953475 354.226193 
L 145.998369 280.888229 
L 146.144274 282.851773 
L 146.323851 289.633232 
L 146.632498 311.886375 
L 146.952368 346.555053 
L 147.154391 385.313782 
L 147.305909 385.518272 
L 147.900756 385.403566 
L 148.894037 385.032434 
L 149.791919 384.454621 
L 150.768365 383.546875 
L 152.1208 381.948683 
L 156.04342 377.17615 
L 158.81563 373.903302 
L 159.584441 372.615262 
L 160.067053 371.374111 
L 160.381311 369.946529 
L 160.566499 368.034748 
L 160.661899 364.168683 
L 160.712405 350.897731 
L 160.751687 280.862343 
L 160.863923 282.099403 
L 161.026664 287.072245 
L 161.284805 303.481464 
L 161.705687 345.168745 
L 161.924545 385.375165 
L 162.076063 385.518505 
L 162.76631 385.375246 
L 163.742756 384.987088 
L 164.646249 384.381639 
L 165.650755 383.4227 
L 167.121036 381.667039 
L 170.314128 377.823921 
L 174.231137 373.325135 
L 174.876489 372.128527 
L 175.297371 370.868997 
L 175.566736 369.318777 
L 175.70703 367.162265 
L 175.785594 361.382194 
L 175.819265 340.202802 
L 175.852935 280.859665 
L 175.942724 281.744217 
L 176.094241 285.737192 
L 176.324323 298.897079 
L 176.790099 340.971783 
L 177.093135 385.502122 
L 177.306381 385.501933 
L 178.367004 385.207616 
L 179.287333 384.723065 
L 180.218885 383.969987 
L 181.374908 382.724284 
L 186.829539 376.448559 
L 189.326773 373.753607 
L 190.129255 372.543721 
L 190.628701 371.391576 
L 190.959795 370.046736 
L 191.156207 368.245454 
L 191.251607 365.032705 
L 191.307724 354.205279 
L 191.352618 280.87027 
L 191.498524 282.860612 
L 191.6781 289.701914 
L 191.992359 312.471844 
L 192.306618 346.329662 
L 192.508641 385.308714 
L 192.660159 385.518766 
L 193.249393 385.406148 
L 194.248287 385.036036 
L 195.157392 384.455439 
L 196.150674 383.541339 
L 197.581673 381.881247 
L 200.684976 378.24619 
L 203.137316 375.803699 
L 204.153044 374.808474 
L 204.225997 333.825221 
L 204.259668 279.020739 
L 204.343844 279.340081 
L 204.461691 281.054867 
L 204.641268 287.737397 
L 204.961138 310.254194 
L 205.353961 349.557463 
L 205.522314 376.396313 
L 205.527926 376.392639 
L 205.595267 376.05381 
L 206.016149 372.198188 
L 206.437031 366.721059 
L 206.582937 360.657912 
L 206.65589 349.691582 
L 206.717619 298.236062 
L 206.835466 306.45284 
L 207.267572 350.540129 
L 207.435924 376.071323 
L 207.475207 375.949945 
L 207.705289 374.037574 
L 208.260853 367.817824 
L 208.417983 363.515697 
L 208.541441 353.667539 
L 208.580724 313.781145 
L 208.620006 298.575042 
L 208.698571 303.961206 
L 209.153123 349.227966 
L 209.327088 375.964245 
L 209.3327 375.960258 
L 209.400041 375.617426 
L 209.809699 371.786643 
L 210.213746 366.421797 
L 210.382099 359.83097 
L 210.44944 348.944676 
L 210.511169 298.619511 
L 210.623404 306.478116 
L 211.049898 350.85461 
L 211.218251 375.924696 
L 211.257533 375.803362 
L 211.482004 373.930892 
L 212.04318 367.615337 
L 212.217145 363.019677 
L 212.334991 354.610246 
L 212.368662 331.947268 
L 212.419168 298.552005 
L 212.492121 303.531914 
L 212.946673 348.65002 
L 213.120638 375.906528 
L 213.131861 375.89574 
L 213.216038 375.400174 
L 213.704261 370.649663 
L 214.040967 365.719734 
L 214.214931 358.71906 
L 214.271049 347.065057 
L 214.332778 298.453066 
L 214.428178 305.178717 
L 214.865896 350.12683 
L 215.034248 375.895097 
L 215.03986 375.894287 
L 215.095978 375.646157 
L 215.438295 372.545968 
L 215.920907 366.568727 
L 216.111706 360.537817 
L 216.190271 351.134828 
L 216.257612 298.370162 
L 216.392294 308.181314 
L 216.796341 351.291354 
L 216.964694 375.887153 
L 217.009588 375.724266 
L 217.278953 373.393532 
L 217.823293 367.063775 
L 218.025317 361.624645 
L 218.120717 353.702648 
L 218.159999 314.368946 
L 218.199281 298.270898 
L 218.277846 303.602913 
L 218.732399 349.962665 
L 218.900751 375.879759 
L 218.906363 375.878918 
L 218.962481 375.630766 
L 219.304798 372.530414 
L 219.798633 366.44414 
L 220.000657 360.477791 
L 220.079221 351.396373 
L 220.146562 298.20361 
L 220.286856 308.418186 
L 220.685291 350.762753 
L 220.853644 375.874071 
L 220.898538 375.716572 
L 221.162291 373.443505 
L 221.717855 367.03466 
L 221.931102 361.728159 
L 222.032114 353.761475 
L 222.071396 314.545167 
L 222.110679 298.103678 
L 222.189243 303.413032 
L 222.643796 349.615468 
L 222.812149 375.867765 
L 222.81776 375.867613 
L 222.868266 375.659581 
L 223.176913 372.91734 
L 223.71003 366.534806 
L 223.923277 360.845047 
L 224.007454 352.684235 
L 224.080407 298.030198 
L 224.243148 310.301013 
L 224.619136 351.128637 
L 224.787488 375.863437 
L 224.832382 375.699007 
L 225.101747 373.367303 
L 225.662923 366.876289 
L 225.887393 361.458777 
L 225.982793 353.936095 
L 226.016464 325.501806 
L 226.061358 297.958517 
L 226.139923 303.203064 
L 226.594475 349.084115 
L 226.76844 375.858917 
L 226.774052 375.853534 
L 226.847005 375.462105 
L 227.284722 371.305672 
L 227.722439 365.480385 
L 227.924463 359.180904 
L 227.986192 349.000359 
L 228.047921 297.914782 
L 228.160157 305.746676 
L 228.58665 350.193419 
L 228.755003 375.855331 
L 228.794286 375.734513 
L 229.018756 373.861196 
L 229.613603 367.206252 
L 229.86052 361.830807 
L 229.961532 355.241832 
L 230.000814 327.761108 
L 230.045708 297.84195 
L 230.124273 302.977542 
L 230.578825 348.425202 
L 230.75279 375.851945 
L 230.764013 375.838869 
L 230.853802 375.293114 
L 231.364472 370.277602 
L 231.751683 364.719542 
L 231.936871 358.36538 
L 231.987377 348.680727 
L 232.049107 297.7934 
L 232.15573 305.210239 
L 232.469989 340.481629 
L 232.778636 385.48506 
L 232.975047 385.495327 
L 234.001999 385.211959 
L 234.950387 384.726113 
L 235.954892 383.947824 
L 237.41395 382.493747 
L 239.770889 380.178385 
L 241.314124 378.992875 
L 242.885417 378.065088 
L 244.557721 377.336159 
L 246.325426 376.808374 
L 248.205366 376.48076 
L 250.343446 376.340915 
L 253.502868 376.386469 
L 259.759981 376.479632 
L 273.054242 376.244122 
L 381.675481 374.788993 
L 460.958436 373.98333 
L 547.620856 373.330473 
L 626.752293 372.937869 
L 632.218148 372.946312 
L 635.052087 372.703463 
L 638.262014 372.189787 
L 641.034224 371.797566 
L 642.044341 371.880209 
L 642.829987 372.166088 
L 643.638081 372.710314 
L 646.236326 374.674255 
L 647.044419 374.879874 
L 647.886184 374.861732 
L 648.817736 374.613883 
L 649.8503 374.103881 
L 650.849193 373.365654 
L 651.646063 372.507299 
L 652.212851 371.573707 
L 652.616898 370.466009 
L 652.897486 369.013177 
L 653.082674 366.763994 
L 653.189297 362.320611 
L 653.234191 348.734799 
L 653.279086 281.164524 
L 653.374486 282.492093 
L 653.542838 288.238198 
L 653.817815 307.113479 
L 654.188191 346.776793 
L 654.384602 385.262122 
L 654.53612 385.513456 
L 655.052402 385.418941 
L 656.051295 385.057369 
L 656.937954 384.494767 
L 657.875118 383.622548 
L 659.070423 382.178147 
L 662.353303 377.678964 
L 664.519442 374.548574 
L 665.305089 373.011738 
L 665.793312 371.568263 
L 666.113182 369.902775 
L 666.29837 367.673128 
L 666.388158 363.579582 
L 666.433053 352.213768 
L 666.477947 280.849611 
L 666.595794 282.231916 
L 666.764146 287.624437 
L 667.033511 305.31412 
L 667.431946 345.855064 
L 667.639581 385.335864 
L 667.791099 385.518472 
L 668.414004 385.395081 
L 669.396062 385.019329 
L 670.28272 384.436572 
L 671.23672 383.528511 
L 672.493754 381.993386 
L 677.606068 375.069653 
L 678.560067 373.44554 
L 679.126855 372.04818 
L 679.497231 370.530813 
L 679.721702 368.628176 
L 679.828325 365.716928 
L 679.890055 356.794718 
L 679.94056 280.807593 
L 680.136972 284.043122 
L 680.338995 293.583016 
L 680.782325 328.841512 
L 680.905783 347.874189 
L 681.096583 385.267549 
L 681.141477 385.447994 
L 681.141477 385.447994 
" clip-path="url(#p1253760a72)" style="fill: none; stroke: #000000; stroke-linecap: square"/>
   </g>
   <g id="patch_13">
    <path d="M 91.9125 390.84375 
L 91.9125 273.695833 
" style="fill: none; stroke: #000000; stroke-width: 0.8; stroke-linejoin: miter; stroke-linecap: square"/>
   </g>
   <g id="patch_14">
    <path d="M 709.2 390.84375 
L 709.2 273.695833 
" style="fill: none; stroke: #000000; stroke-width: 0.8; stroke-linejoin: miter; stroke-linecap: square"/>
   </g>
   <g id="patch_15">
    <path d="M 91.9125 390.84375 
L 709.2 390.84375 
" style="fill: none; stroke: #000000; stroke-width: 0.8; stroke-linejoin: miter; stroke-linecap: square"/>
   </g>
   <g id="patch_16">
    <path d="M 91.9125 273.695833 
L 709.2 273.695833 
" style="fill: none; stroke: #000000; stroke-width: 0.8; stroke-linejoin: miter; stroke-linecap: square"/>
   </g>
  </g>
 </g>
 <defs>
  <clipPath id="p1446ce49bb">
   <rect x="91.9125" y="10.8" width="617.2875" height="117.147917"/>
  </clipPath>
  <clipPath id="paef901cc2f">
   <rect x="91.9125" y="142.247917" width="617.2875" height="117.147917"/>
  </clipPath>
  <clipPath id="p1253760a72">
   <rect x="91.9125" y="273.695833" width="617.2875" height="117.147917"/>
  </clipPath>
 </defs>
</svg>
