<?xml version="1.0" encoding="utf-8" standalone="no"?>
<!DOCTYPE svg PUBLIC "-//W3C//DTD SVG 1.1//EN"
  "http://www.w3.org/Graphics/SVG/1.1/DTD/svg11.dtd">
<svg xmlns:xlink="http://www.w3.org/1999/xlink" width="720pt" height="576pt" viewBox="0 0 720 576" xmlns="http://www.w3.org/2000/svg" version="1.1">
 <metadata>
  <rdf:RDF xmlns:dc="http://purl.org/dc/elements/1.1/" xmlns:cc="http://creativecommons.org/ns#" xmlns:rdf="http://www.w3.org/1999/02/22-rdf-syntax-ns#">
   <cc:Work>
    <dc:type rdf:resource="http://purl.org/dc/dcmitype/StillImage"/>
    <dc:date>1980-01-01T00:00:00+00:00</dc:date>
    <dc:format>image/svg+xml</dc:format>
    <dc:creator>
     <cc:Agent>
      <dc:title>Matplotlib v3.10.0, https://matplotlib.org/</dc:title>
     </cc:Agent>
    </dc:creator>
   </cc:Work>
  </rdf:RDF>
 </metadata>
 <defs>
  <style type="text/css">*{stroke-linejoin: round; stroke-linecap: butt}</style>
 </defs>
 <g id="figure_1">
  <g id="patch_1">
   <path d="M 0 576 
L 720 576 
L 720 0 
L 0 0 
z
" style="fill: #ffffff"/>
  </g>
  <g id="axes_1">
   <g id="patch_2">
    <path d="M 54.104687 147.549478 
L 709.2 147.549478 
L 709.2 33.21375 
L 54.104687 33.21375 
z
" style="fill: #ffffff"/>
   </g>
   <g id="matplotlib.axis_1">
    <g id="xtick_1">
     <g id="line2d_1">
      <path d="M 83.881747 147.549478 
L 83.881747 33.21375 
" clip-path="url(#pf725be8432)" style="fill: none; stroke: #b0b0b0; stroke-width: 0.8; stroke-linecap: square"/>
     </g>
     <g id="line2d_2">
      <defs>
       <path id="ma8c7a1fed1" d="M 0 0 
L 0 3.5 
" style="stroke: #000000; stroke-width: 0.8"/>
      </defs>
      <g>
       <use xlink:href="#ma8c7a1fed1" x="83.881747" y="147.549478" style="stroke: #000000; stroke-width: 0.8"/>
      </g>
     </g>
    </g>
    <g id="xtick_2">
     <g id="line2d_3">
      <path d="M 202.990224 147.549478 
L 202.990224 33.21375 
" clip-path="url(#pf725be8432)" style="fill: none; stroke: #b0b0b0; stroke-width: 0.8; stroke-linecap: square"/>
     </g>
     <g id="line2d_4">
      <g>
       <use xlink:href="#ma8c7a1fed1" x="202.990224" y="147.549478" style="stroke: #000000; stroke-width: 0.8"/>
      </g>
     </g>
    </g>
    <g id="xtick_3">
     <g id="line2d_5">
      <path d="M 322.098701 147.549478 
L 322.098701 33.21375 
" clip-path="url(#pf725be8432)" style="fill: none; stroke: #b0b0b0; stroke-width: 0.8; stroke-linecap: square"/>
     </g>
     <g id="line2d_6">
      <g>
       <use xlink:href="#ma8c7a1fed1" x="322.098701" y="147.549478" style="stroke: #000000; stroke-width: 0.8"/>
      </g>
     </g>
    </g>
    <g id="xtick_4">
     <g id="line2d_7">
      <path d="M 441.207178 147.549478 
L 441.207178 33.21375 
" clip-path="url(#pf725be8432)" style="fill: none; stroke: #b0b0b0; stroke-width: 0.8; stroke-linecap: square"/>
     </g>
     <g id="line2d_8">
      <g>
       <use xlink:href="#ma8c7a1fed1" x="441.207178" y="147.549478" style="stroke: #000000; stroke-width: 0.8"/>
      </g>
     </g>
    </g>
    <g id="xtick_5">
     <g id="line2d_9">
      <path d="M 560.315655 147.549478 
L 560.315655 33.21375 
" clip-path="url(#pf725be8432)" style="fill: none; stroke: #b0b0b0; stroke-width: 0.8; stroke-linecap: square"/>
     </g>
     <g id="line2d_10">
      <g>
       <use xlink:href="#ma8c7a1fed1" x="560.315655" y="147.549478" style="stroke: #000000; stroke-width: 0.8"/>
      </g>
     </g>
    </g>
    <g id="xtick_6">
     <g id="line2d_11">
      <path d="M 679.424131 147.549478 
L 679.424131 33.21375 
" clip-path="url(#pf725be8432)" style="fill: none; stroke: #b0b0b0; stroke-width: 0.8; stroke-linecap: square"/>
     </g>
     <g id="line2d_12">
      <g>
       <use xlink:href="#ma8c7a1fed1" x="679.424131" y="147.549478" style="stroke: #000000; stroke-width: 0.8"/>
      </g>
     </g>
    </g>
   </g>
   <g id="matplotlib.axis_2">
    <g id="ytick_1">
     <g id="line2d_13">
      <path d="M 54.104687 38.410829 
L 709.2 38.410829 
" clip-path="url(#pf725be8432)" style="fill: none; stroke: #b0b0b0; stroke-width: 0.8; stroke-linecap: square"/>
     </g>
     <g id="line2d_14">
      <defs>
       <path id="m7b4394dbd2" d="M 0 0 
L -3.5 0 
" style="stroke: #000000; stroke-width: 0.8"/>
      </defs>
      <g>
       <use xlink:href="#m7b4394dbd2" x="54.104687" y="38.410829" style="stroke: #000000; stroke-width: 0.8"/>
      </g>
     </g>
     <g id="text_1">
      <!-- 0 -->
      <g transform="translate(40.742188 42.210047) scale(0.1 -0.1)">
       <defs>
        <path id="DejaVuSans-30" d="M 2034 4250 
Q 1547 4250 1301 3770 
Q 1056 3291 1056 2328 
Q 1056 1369 1301 889 
Q 1547 409 2034 409 
Q 2525 409 2770 889 
Q 3016 1369 3016 2328 
Q 3016 3291 2770 3770 
Q 2525 4250 2034 4250 
z
M 2034 4750 
Q 2819 4750 3233 4129 
Q 3647 3509 3647 2328 
Q 3647 1150 3233 529 
Q 2819 -91 2034 -91 
Q 1250 -91 836 529 
Q 422 1150 422 2328 
Q 422 3509 836 4129 
Q 1250 4750 2034 4750 
z
" transform="scale(0.015625)"/>
       </defs>
       <use xlink:href="#DejaVuSans-30"/>
      </g>
     </g>
    </g>
    <g id="ytick_2">
     <g id="line2d_15">
      <path d="M 54.104687 90.381614 
L 709.2 90.381614 
" clip-path="url(#pf725be8432)" style="fill: none; stroke: #b0b0b0; stroke-width: 0.8; stroke-linecap: square"/>
     </g>
     <g id="line2d_16">
      <g>
       <use xlink:href="#m7b4394dbd2" x="54.104687" y="90.381614" style="stroke: #000000; stroke-width: 0.8"/>
      </g>
     </g>
     <g id="text_2">
      <!-- −20 -->
      <g transform="translate(26 94.180833) scale(0.1 -0.1)">
       <defs>
        <path id="DejaVuSans-2212" d="M 678 2272 
L 4684 2272 
L 4684 1741 
L 678 1741 
L 678 2272 
z
" transform="scale(0.015625)"/>
        <path id="DejaVuSans-32" d="M 1228 531 
L 3431 531 
L 3431 0 
L 469 0 
L 469 531 
Q 828 903 1448 1529 
Q 2069 2156 2228 2338 
Q 2531 2678 2651 2914 
Q 2772 3150 2772 3378 
Q 2772 3750 2511 3984 
Q 2250 4219 1831 4219 
Q 1534 4219 1204 4116 
Q 875 4013 500 3803 
L 500 4441 
Q 881 4594 1212 4672 
Q 1544 4750 1819 4750 
Q 2544 4750 2975 4387 
Q 3406 4025 3406 3419 
Q 3406 3131 3298 2873 
Q 3191 2616 2906 2266 
Q 2828 2175 2409 1742 
Q 1991 1309 1228 531 
z
" transform="scale(0.015625)"/>
       </defs>
       <use xlink:href="#DejaVuSans-2212"/>
       <use xlink:href="#DejaVuSans-32" transform="translate(83.789062 0)"/>
       <use xlink:href="#DejaVuSans-30" transform="translate(147.412109 0)"/>
      </g>
     </g>
    </g>
    <g id="ytick_3">
     <g id="line2d_17">
      <path d="M 54.104687 116.367007 
L 709.2 116.367007 
" clip-path="url(#pf725be8432)" style="fill: none; stroke: #b0b0b0; stroke-width: 0.8; stroke-linecap: square"/>
     </g>
     <g id="line2d_18">
      <g>
       <use xlink:href="#m7b4394dbd2" x="54.104687" y="116.367007" style="stroke: #000000; stroke-width: 0.8"/>
      </g>
     </g>
     <g id="text_3">
      <!-- −30 -->
      <g transform="translate(26 120.166226) scale(0.1 -0.1)">
       <defs>
        <path id="DejaVuSans-33" d="M 2597 2516 
Q 3050 2419 3304 2112 
Q 3559 1806 3559 1356 
Q 3559 666 3084 287 
Q 2609 -91 1734 -91 
Q 1441 -91 1130 -33 
Q 819 25 488 141 
L 488 750 
Q 750 597 1062 519 
Q 1375 441 1716 441 
Q 2309 441 2620 675 
Q 2931 909 2931 1356 
Q 2931 1769 2642 2001 
Q 2353 2234 1838 2234 
L 1294 2234 
L 1294 2753 
L 1863 2753 
Q 2328 2753 2575 2939 
Q 2822 3125 2822 3475 
Q 2822 3834 2567 4026 
Q 2313 4219 1838 4219 
Q 1578 4219 1281 4162 
Q 984 4106 628 3988 
L 628 4550 
Q 988 4650 1302 4700 
Q 1616 4750 1894 4750 
Q 2613 4750 3031 4423 
Q 3450 4097 3450 3541 
Q 3450 3153 3228 2886 
Q 3006 2619 2597 2516 
z
" transform="scale(0.015625)"/>
       </defs>
       <use xlink:href="#DejaVuSans-2212"/>
       <use xlink:href="#DejaVuSans-33" transform="translate(83.789062 0)"/>
       <use xlink:href="#DejaVuSans-30" transform="translate(147.412109 0)"/>
      </g>
     </g>
    </g>
    <g id="ytick_4">
     <g id="line2d_19">
      <path d="M 54.104687 142.3524 
L 709.2 142.3524 
" clip-path="url(#pf725be8432)" style="fill: none; stroke: #b0b0b0; stroke-width: 0.8; stroke-linecap: square"/>
     </g>
     <g id="line2d_20">
      <g>
       <use xlink:href="#m7b4394dbd2" x="54.104687" y="142.3524" style="stroke: #000000; stroke-width: 0.8"/>
      </g>
     </g>
     <g id="text_4">
      <!-- −40 -->
      <g transform="translate(26 146.151618) scale(0.1 -0.1)">
       <defs>
        <path id="DejaVuSans-34" d="M 2419 4116 
L 825 1625 
L 2419 1625 
L 2419 4116 
z
M 2253 4666 
L 3047 4666 
L 3047 1625 
L 3713 1625 
L 3713 1100 
L 3047 1100 
L 3047 0 
L 2419 0 
L 2419 1100 
L 313 1100 
L 313 1709 
L 2253 4666 
z
" transform="scale(0.015625)"/>
       </defs>
       <use xlink:href="#DejaVuSans-2212"/>
       <use xlink:href="#DejaVuSans-34" transform="translate(83.789062 0)"/>
       <use xlink:href="#DejaVuSans-30" transform="translate(147.412109 0)"/>
      </g>
     </g>
    </g>
    <g id="text_5">
     <!-- $pA/\mu m^2$ -->
     <g transform="translate(19.9 109.331614) rotate(-90) scale(0.1 -0.1)">
      <defs>
       <path id="DejaVuSans-Oblique-70" d="M 3175 2156 
Q 3175 2616 2975 2859 
Q 2775 3103 2400 3103 
Q 2144 3103 1911 2972 
Q 1678 2841 1497 2591 
Q 1319 2344 1212 1994 
Q 1106 1644 1106 1300 
Q 1106 863 1306 627 
Q 1506 391 1875 391 
Q 2147 391 2380 519 
Q 2613 647 2778 891 
Q 2956 1147 3065 1494 
Q 3175 1841 3175 2156 
z
M 1394 2969 
Q 1625 3272 1939 3428 
Q 2253 3584 2638 3584 
Q 3175 3584 3472 3232 
Q 3769 2881 3769 2247 
Q 3769 1728 3584 1258 
Q 3400 788 3053 416 
Q 2822 169 2531 39 
Q 2241 -91 1919 -91 
Q 1547 -91 1294 64 
Q 1041 219 916 525 
L 556 -1331 
L -19 -1331 
L 922 3500 
L 1497 3500 
L 1394 2969 
z
" transform="scale(0.015625)"/>
       <path id="DejaVuSans-Oblique-41" d="M 2356 4666 
L 3072 4666 
L 3938 0 
L 3278 0 
L 3084 1197 
L 984 1197 
L 325 0 
L -341 0 
L 2356 4666 
z
M 2584 4044 
L 1275 1722 
L 2988 1722 
L 2584 4044 
z
" transform="scale(0.015625)"/>
       <path id="DejaVuSans-2f" d="M 1625 4666 
L 2156 4666 
L 531 -594 
L 0 -594 
L 1625 4666 
z
" transform="scale(0.015625)"/>
       <path id="DejaVuSans-Oblique-3bc" d="M -84 -1331 
L 856 3500 
L 1434 3500 
L 1009 1322 
Q 997 1256 987 1175 
Q 978 1094 978 1013 
Q 978 722 1161 565 
Q 1344 409 1684 409 
Q 2147 409 2431 671 
Q 2716 934 2816 1459 
L 3213 3500 
L 3788 3500 
L 3266 809 
Q 3253 750 3248 706 
Q 3244 663 3244 628 
Q 3244 531 3283 486 
Q 3322 441 3406 441 
Q 3438 441 3492 456 
Q 3547 472 3647 513 
L 3559 50 
Q 3422 -19 3297 -55 
Q 3172 -91 3053 -91 
Q 2847 -91 2730 40 
Q 2613 172 2613 403 
Q 2438 153 2195 31 
Q 1953 -91 1625 -91 
Q 1334 -91 1117 43 
Q 900 178 831 397 
L 494 -1331 
L -84 -1331 
z
" transform="scale(0.015625)"/>
       <path id="DejaVuSans-Oblique-6d" d="M 5747 2113 
L 5338 0 
L 4763 0 
L 5166 2094 
Q 5191 2228 5203 2325 
Q 5216 2422 5216 2491 
Q 5216 2772 5059 2928 
Q 4903 3084 4622 3084 
Q 4203 3084 3875 2770 
Q 3547 2456 3450 1953 
L 3066 0 
L 2491 0 
L 2900 2094 
Q 2925 2209 2937 2307 
Q 2950 2406 2950 2484 
Q 2950 2769 2794 2926 
Q 2638 3084 2363 3084 
Q 1938 3084 1609 2770 
Q 1281 2456 1184 1953 
L 800 0 
L 225 0 
L 909 3500 
L 1484 3500 
L 1375 2956 
Q 1609 3263 1923 3423 
Q 2238 3584 2597 3584 
Q 2978 3584 3223 3384 
Q 3469 3184 3519 2828 
Q 3781 3197 4126 3390 
Q 4472 3584 4856 3584 
Q 5306 3584 5551 3325 
Q 5797 3066 5797 2591 
Q 5797 2488 5784 2364 
Q 5772 2241 5747 2113 
z
" transform="scale(0.015625)"/>
      </defs>
      <use xlink:href="#DejaVuSans-Oblique-70" transform="translate(0 0.765625)"/>
      <use xlink:href="#DejaVuSans-Oblique-41" transform="translate(63.476562 0.765625)"/>
      <use xlink:href="#DejaVuSans-2f" transform="translate(131.884766 0.765625)"/>
      <use xlink:href="#DejaVuSans-Oblique-3bc" transform="translate(165.576172 0.765625)"/>
      <use xlink:href="#DejaVuSans-Oblique-6d" transform="translate(229.199219 0.765625)"/>
      <use xlink:href="#DejaVuSans-32" transform="translate(331.261224 39.046875) scale(0.7)"/>
     </g>
    </g>
   </g>
   <g id="line2d_21">
    <path d="M 83.881747 38.410829 
L 202.989033 38.410829 
L 203.100995 90.381614 
L 238.722767 90.381614 
L 238.834729 38.410829 
L 679.42294 38.410829 
L 679.42294 38.410829 
" clip-path="url(#pf725be8432)" style="fill: none; stroke: #000000; stroke-opacity: 0.6; stroke-width: 1.5; stroke-linecap: square"/>
   </g>
   <g id="line2d_22">
    <path d="M 83.881747 38.410829 
L 202.989033 38.410829 
L 203.100995 116.367007 
L 238.722767 116.367007 
L 238.834729 38.410829 
L 679.42294 38.410829 
L 679.42294 38.410829 
" clip-path="url(#pf725be8432)" style="fill: none; stroke: #000000; stroke-opacity: 0.8; stroke-width: 1.5; stroke-linecap: square"/>
   </g>
   <g id="line2d_23">
    <path d="M 83.881747 38.410829 
L 202.989033 38.410829 
L 203.100995 142.3524 
L 238.722767 142.3524 
L 238.834729 38.410829 
L 679.42294 38.410829 
L 679.42294 38.410829 
" clip-path="url(#pf725be8432)" style="fill: none; stroke: #000000; stroke-width: 1.5; stroke-linecap: square"/>
   </g>
   <g id="patch_3">
    <path d="M 54.104687 147.549478 
L 54.104687 33.21375 
" style="fill: none; stroke: #000000; stroke-width: 0.8; stroke-linejoin: miter; stroke-linecap: square"/>
   </g>
   <g id="patch_4">
    <path d="M 709.2 147.549478 
L 709.2 33.21375 
" style="fill: none; stroke: #000000; stroke-width: 0.8; stroke-linejoin: miter; stroke-linecap: square"/>
   </g>
   <g id="patch_5">
    <path d="M 54.104688 147.549478 
L 709.2 147.549478 
" style="fill: none; stroke: #000000; stroke-width: 0.8; stroke-linejoin: miter; stroke-linecap: square"/>
   </g>
   <g id="patch_6">
    <path d="M 54.104688 33.21375 
L 709.2 33.21375 
" style="fill: none; stroke: #000000; stroke-width: 0.8; stroke-linejoin: miter; stroke-linecap: square"/>
   </g>
  </g>
  <g id="axes_2">
   <g id="patch_7">
    <path d="M 54.104687 276.647569 
L 709.2 276.647569 
L 709.2 162.311841 
L 54.104687 162.311841 
z
" style="fill: #ffffff"/>
   </g>
   <g id="matplotlib.axis_3">
    <g id="xtick_7">
     <g id="line2d_24">
      <path d="M 83.881747 276.647569 
L 83.881747 162.311841 
" clip-path="url(#pef520c33b5)" style="fill: none; stroke: #b0b0b0; stroke-width: 0.8; stroke-linecap: square"/>
     </g>
     <g id="line2d_25">
      <g>
       <use xlink:href="#ma8c7a1fed1" x="83.881747" y="276.647569" style="stroke: #000000; stroke-width: 0.8"/>
      </g>
     </g>
    </g>
    <g id="xtick_8">
     <g id="line2d_26">
      <path d="M 202.990224 276.647569 
L 202.990224 162.311841 
" clip-path="url(#pef520c33b5)" style="fill: none; stroke: #b0b0b0; stroke-width: 0.8; stroke-linecap: square"/>
     </g>
     <g id="line2d_27">
      <g>
       <use xlink:href="#ma8c7a1fed1" x="202.990224" y="276.647569" style="stroke: #000000; stroke-width: 0.8"/>
      </g>
     </g>
    </g>
    <g id="xtick_9">
     <g id="line2d_28">
      <path d="M 322.098701 276.647569 
L 322.098701 162.311841 
" clip-path="url(#pef520c33b5)" style="fill: none; stroke: #b0b0b0; stroke-width: 0.8; stroke-linecap: square"/>
     </g>
     <g id="line2d_29">
      <g>
       <use xlink:href="#ma8c7a1fed1" x="322.098701" y="276.647569" style="stroke: #000000; stroke-width: 0.8"/>
      </g>
     </g>
    </g>
    <g id="xtick_10">
     <g id="line2d_30">
      <path d="M 441.207178 276.647569 
L 441.207178 162.311841 
" clip-path="url(#pef520c33b5)" style="fill: none; stroke: #b0b0b0; stroke-width: 0.8; stroke-linecap: square"/>
     </g>
     <g id="line2d_31">
      <g>
       <use xlink:href="#ma8c7a1fed1" x="441.207178" y="276.647569" style="stroke: #000000; stroke-width: 0.8"/>
      </g>
     </g>
    </g>
    <g id="xtick_11">
     <g id="line2d_32">
      <path d="M 560.315655 276.647569 
L 560.315655 162.311841 
" clip-path="url(#pef520c33b5)" style="fill: none; stroke: #b0b0b0; stroke-width: 0.8; stroke-linecap: square"/>
     </g>
     <g id="line2d_33">
      <g>
       <use xlink:href="#ma8c7a1fed1" x="560.315655" y="276.647569" style="stroke: #000000; stroke-width: 0.8"/>
      </g>
     </g>
    </g>
    <g id="xtick_12">
     <g id="line2d_34">
      <path d="M 679.424131 276.647569 
L 679.424131 162.311841 
" clip-path="url(#pef520c33b5)" style="fill: none; stroke: #b0b0b0; stroke-width: 0.8; stroke-linecap: square"/>
     </g>
     <g id="line2d_35">
      <g>
       <use xlink:href="#ma8c7a1fed1" x="679.424131" y="276.647569" style="stroke: #000000; stroke-width: 0.8"/>
      </g>
     </g>
    </g>
   </g>
   <g id="matplotlib.axis_4">
    <g id="ytick_5">
     <g id="line2d_36">
      <path d="M 54.104687 252.48404 
L 709.2 252.48404 
" clip-path="url(#pef520c33b5)" style="fill: none; stroke: #b0b0b0; stroke-width: 0.8; stroke-linecap: square"/>
     </g>
     <g id="line2d_37">
      <g>
       <use xlink:href="#m7b4394dbd2" x="54.104687" y="252.48404" style="stroke: #000000; stroke-width: 0.8"/>
      </g>
     </g>
     <g id="text_6">
      <!-- −50 -->
      <g transform="translate(26 256.283258) scale(0.1 -0.1)">
       <defs>
        <path id="DejaVuSans-35" d="M 691 4666 
L 3169 4666 
L 3169 4134 
L 1269 4134 
L 1269 2991 
Q 1406 3038 1543 3061 
Q 1681 3084 1819 3084 
Q 2600 3084 3056 2656 
Q 3513 2228 3513 1497 
Q 3513 744 3044 326 
Q 2575 -91 1722 -91 
Q 1428 -91 1123 -41 
Q 819 9 494 109 
L 494 744 
Q 775 591 1075 516 
Q 1375 441 1709 441 
Q 2250 441 2565 725 
Q 2881 1009 2881 1497 
Q 2881 1984 2565 2268 
Q 2250 2553 1709 2553 
Q 1456 2553 1204 2497 
Q 953 2441 691 2322 
L 691 4666 
z
" transform="scale(0.015625)"/>
       </defs>
       <use xlink:href="#DejaVuSans-2212"/>
       <use xlink:href="#DejaVuSans-35" transform="translate(83.789062 0)"/>
       <use xlink:href="#DejaVuSans-30" transform="translate(147.412109 0)"/>
      </g>
     </g>
    </g>
    <g id="ytick_6">
     <g id="line2d_38">
      <path d="M 54.104687 209.376431 
L 709.2 209.376431 
" clip-path="url(#pef520c33b5)" style="fill: none; stroke: #b0b0b0; stroke-width: 0.8; stroke-linecap: square"/>
     </g>
     <g id="line2d_39">
      <g>
       <use xlink:href="#m7b4394dbd2" x="54.104687" y="209.376431" style="stroke: #000000; stroke-width: 0.8"/>
      </g>
     </g>
     <g id="text_7">
      <!-- 0 -->
      <g transform="translate(40.742188 213.17565) scale(0.1 -0.1)">
       <use xlink:href="#DejaVuSans-30"/>
      </g>
     </g>
    </g>
    <g id="ytick_7">
     <g id="line2d_40">
      <path d="M 54.104687 166.268823 
L 709.2 166.268823 
" clip-path="url(#pef520c33b5)" style="fill: none; stroke: #b0b0b0; stroke-width: 0.8; stroke-linecap: square"/>
     </g>
     <g id="line2d_41">
      <g>
       <use xlink:href="#m7b4394dbd2" x="54.104687" y="166.268823" style="stroke: #000000; stroke-width: 0.8"/>
      </g>
     </g>
     <g id="text_8">
      <!-- 50 -->
      <g transform="translate(34.379687 170.068042) scale(0.1 -0.1)">
       <use xlink:href="#DejaVuSans-35"/>
       <use xlink:href="#DejaVuSans-30" transform="translate(63.623047 0)"/>
      </g>
     </g>
    </g>
    <g id="text_9">
     <!-- mV -->
     <g transform="translate(19.920312 227.77033) rotate(-90) scale(0.1 -0.1)">
      <defs>
       <path id="DejaVuSans-6d" d="M 3328 2828 
Q 3544 3216 3844 3400 
Q 4144 3584 4550 3584 
Q 5097 3584 5394 3201 
Q 5691 2819 5691 2113 
L 5691 0 
L 5113 0 
L 5113 2094 
Q 5113 2597 4934 2840 
Q 4756 3084 4391 3084 
Q 3944 3084 3684 2787 
Q 3425 2491 3425 1978 
L 3425 0 
L 2847 0 
L 2847 2094 
Q 2847 2600 2669 2842 
Q 2491 3084 2119 3084 
Q 1678 3084 1418 2786 
Q 1159 2488 1159 1978 
L 1159 0 
L 581 0 
L 581 3500 
L 1159 3500 
L 1159 2956 
Q 1356 3278 1631 3431 
Q 1906 3584 2284 3584 
Q 2666 3584 2933 3390 
Q 3200 3197 3328 2828 
z
" transform="scale(0.015625)"/>
       <path id="DejaVuSans-56" d="M 1831 0 
L 50 4666 
L 709 4666 
L 2188 738 
L 3669 4666 
L 4325 4666 
L 2547 0 
L 1831 0 
z
" transform="scale(0.015625)"/>
      </defs>
      <use xlink:href="#DejaVuSans-6d"/>
      <use xlink:href="#DejaVuSans-56" transform="translate(97.412109 0)"/>
     </g>
    </g>
   </g>
   <g id="line2d_42">
    <path d="M 83.881747 261.105561 
L 84.080658 245.229248 
L 84.111627 167.508919 
L 84.279569 188.886932 
L 84.396296 248.367753 
L 84.52136 271.45049 
L 84.529697 271.447361 
L 84.640468 271.217873 
L 88.04578 263.396584 
L 88.879539 262.297311 
L 89.713298 261.557249 
L 90.632816 261.039402 
L 91.771493 260.663411 
L 93.41519 260.374825 
L 96.562036 260.088967 
L 114.5629 258.667531 
L 119.740545 258.007705 
L 122.658703 257.431652 
L 124.233317 256.914917 
L 125.064694 256.426666 
L 125.518497 255.91223 
L 125.791256 255.253071 
L 125.967536 254.173284 
L 126.078307 251.837028 
L 126.135479 244.557072 
L 126.15811 190.323952 
L 126.178358 170.301623 
L 126.271263 179.286225 
L 126.411811 223.410597 
L 126.584518 270.26655 
L 126.600002 270.256932 
L 126.754843 269.899747 
L 128.963115 264.614118 
L 129.850473 263.129013 
L 130.672321 262.169595 
L 131.520374 261.515364 
L 132.489917 261.052337 
L 133.742938 260.713277 
L 135.67845 260.44427 
L 140.074744 260.115079 
L 154.802508 259.04378 
L 161.617895 258.329648 
L 165.540137 257.714521 
L 167.704338 257.170481 
L 168.853735 256.672468 
L 169.464761 256.181278 
L 169.813749 255.615962 
L 170.032908 254.801892 
L 170.174648 253.284194 
L 170.258023 249.412014 
L 170.293756 233.173665 
L 170.323533 170.303949 
L 170.428349 181.457209 
L 170.568897 231.268242 
L 170.730884 270.264845 
L 170.799967 270.147697 
L 173.678819 263.601549 
L 174.512578 262.481413 
L 175.341573 261.730189 
L 176.252753 261.205393 
L 177.372373 260.826635 
L 178.974382 260.538715 
L 181.96996 260.265061 
L 202.990224 258.648937 
L 202.991415 258.82124 
L 203.166505 268.057261 
L 203.332065 268.512194 
L 203.661996 268.535342 
L 221.224541 268.353263 
L 233.546313 267.970771 
L 238.723958 267.790554 
L 238.909767 228.063095 
L 238.937162 169.314343 
L 239.03364 177.340493 
L 239.17657 217.941742 
L 239.368335 270.39339 
L 239.398112 270.359789 
L 239.71375 269.528665 
L 241.258587 264.942908 
L 242.841538 260.446652 
L 243.65624 258.771445 
L 244.335158 257.850153 
L 244.968816 257.346952 
L 245.617957 257.110929 
L 246.375487 257.080079 
L 247.47724 257.282225 
L 252.061725 258.310422 
L 254.754768 258.587918 
L 258.112436 258.700719 
L 262.353889 258.612393 
L 267.18612 258.289392 
L 271.287025 257.806362 
L 273.865723 257.29876 
L 275.272394 256.816203 
L 276.010867 256.346087 
L 276.418218 255.830166 
L 276.667155 255.135785 
L 276.829142 253.937922 
L 276.929193 251.209528 
L 276.978028 242.169563 
L 277.016142 170.266481 
L 277.162646 191.236104 
L 277.290092 254.931676 
L 277.422302 270.312153 
L 277.424684 270.311848 
L 277.500914 270.173575 
L 280.229689 263.896135 
L 281.072977 262.692543 
L 281.896017 261.893438 
L 282.783375 261.340877 
L 283.850587 260.946469 
L 285.328723 260.654446 
L 287.922906 260.4021 
L 301.070099 259.55945 
L 310.572574 258.776346 
L 316.202831 258.107999 
L 319.38541 257.526403 
L 321.101763 257.007696 
L 322.001032 256.523313 
L 322.485803 256.021657 
L 322.772855 255.395209 
L 322.957473 254.398826 
L 323.074199 252.341768 
L 323.137327 246.32485 
L 323.161148 211.326817 
L 323.18497 170.203955 
L 323.276684 178.911078 
L 323.417232 222.295546 
L 323.59113 270.324899 
L 323.608996 270.311985 
L 323.790041 269.886873 
L 325.96258 264.704959 
L 326.85232 263.212926 
L 327.67536 262.249266 
L 328.523412 261.592852 
L 329.490573 261.129384 
L 330.737639 260.791 
L 332.657667 260.524513 
L 336.96463 260.207105 
L 352.714344 259.095893 
L 359.785814 258.376505 
L 363.852177 257.758755 
L 366.090226 257.214459 
L 367.274164 256.718282 
L 367.900675 256.230701 
L 368.255618 255.67403 
L 368.47716 254.881602 
L 368.621281 253.412219 
L 368.705848 249.793436 
L 368.743963 234.327621 
L 368.77374 170.233037 
L 368.880937 181.711173 
L 369.020294 231.530378 
L 369.181091 270.307467 
L 369.250174 270.191002 
L 372.142127 263.638029 
L 372.975887 262.523696 
L 373.806073 261.775736 
L 374.718444 261.253827 
L 375.841637 260.877156 
L 377.450792 260.591494 
L 380.469001 260.32057 
L 402.24084 258.67909 
L 407.457791 258.019616 
L 410.391433 257.44476 
L 411.96962 256.929846 
L 412.799806 256.444102 
L 413.252418 255.93184 
L 413.523986 255.275709 
L 413.699075 254.206001 
L 413.809846 251.886816 
L 413.867018 244.746298 
L 413.889649 191.766187 
L 413.909897 170.254104 
L 414.002802 179.160287 
L 414.14335 223.061068 
L 414.316057 270.294157 
L 414.332732 270.283269 
L 414.497102 269.901319 
L 416.692271 264.655936 
L 417.58082 263.168148 
L 418.40386 262.2067 
L 419.251912 261.552057 
L 420.220264 261.089252 
L 421.470903 260.750628 
L 423.40046 260.482727 
L 427.761022 260.158512 
L 442.95569 259.068096 
L 449.888995 258.351213 
L 453.876746 257.734699 
L 456.073107 257.190741 
L 457.237988 256.693592 
L 457.856161 256.203861 
L 458.207531 255.642991 
L 458.427881 254.838578 
L 458.570811 253.340834 
L 458.655378 249.503899 
L 458.691111 234.255643 
L 458.722079 170.27213 
L 458.828086 181.77024 
L 458.967443 231.651386 
L 459.128239 270.28464 
L 459.196131 270.171309 
L 462.114289 263.568396 
L 462.946857 262.467718 
L 463.778234 261.728234 
L 464.694178 261.211928 
L 465.8269 260.838408 
L 467.459877 260.553843 
L 470.565035 260.278653 
L 491.181521 258.722932 
L 496.580709 258.056252 
L 499.631077 257.475472 
L 501.279538 256.956009 
L 502.147839 256.468579 
L 502.619508 255.960273 
L 502.900604 255.3206 
L 503.081649 254.296828 
L 503.195993 252.161819 
L 503.25793 245.596047 
L 503.28056 205.735244 
L 503.303191 170.282047 
L 503.396096 179.182901 
L 503.536644 223.090749 
L 503.710542 270.277841 
L 503.726026 270.267218 
L 503.888014 269.891125 
L 506.083183 264.639325 
L 506.971732 263.149984 
L 507.794772 262.187618 
L 508.642824 261.532353 
L 509.611176 261.06904 
L 510.861815 260.729883 
L 512.791372 260.461211 
L 517.155507 260.134882 
L 532.116723 259.052512 
L 538.973798 258.337455 
L 542.91867 257.721959 
L 545.093591 257.178154 
L 546.247752 256.680878 
L 546.861161 256.190628 
L 547.21134 255.626681 
L 547.4305 254.818861 
L 547.572239 253.323293 
L 547.655615 249.593346 
L 547.692538 233.811662 
L 547.722315 170.29096 
L 547.828322 181.607853 
L 547.96887 231.886328 
L 548.128475 270.272959 
L 548.195176 270.164917 
L 551.166932 263.472981 
L 551.995927 262.400928 
L 552.829687 261.67771 
L 553.75516 261.171135 
L 554.90813 260.804094 
L 556.58875 260.522844 
L 559.873762 260.241056 
L 579.028787 258.809483 
L 584.793638 258.129921 
L 588.069121 257.539639 
L 589.849792 257.013522 
L 590.789558 256.523752 
L 591.29696 256.021209 
L 591.595923 255.40423 
L 591.786496 254.450909 
L 591.909178 252.49651 
L 591.975879 246.995881 
L 592.002083 214.862142 
L 592.027095 170.29719 
L 592.118809 179.133042 
L 592.259357 222.896934 
L 592.433255 270.269564 
L 592.449931 270.258047 
L 592.619065 269.862679 
L 594.797559 264.645509 
L 595.686108 263.151258 
L 596.509147 262.185055 
L 597.3572 261.526913 
L 598.324361 261.061921 
L 599.571426 260.721742 
L 601.491455 260.452442 
L 605.811519 260.127255 
L 620.765589 259.040796 
L 627.567874 258.327065 
L 631.480587 257.712321 
L 633.637642 257.168839 
L 634.782274 256.671652 
L 635.39211 256.179934 
L 635.739906 255.614294 
L 635.957875 254.80218 
L 636.099614 253.280325 
L 636.18299 249.378209 
L 636.218723 232.538269 
L 636.2485 170.300183 
L 636.350933 181.048859 
L 636.491481 229.729299 
L 636.65466 270.267096 
L 636.657042 270.266907 
L 636.730889 270.134934 
L 639.487059 263.794366 
L 640.327965 262.608472 
L 641.153387 261.817691 
L 642.047891 261.268315 
L 643.129396 260.873524 
L 644.639692 260.57669 
L 647.325588 260.310082 
L 671.266392 258.38525 
L 675.380399 257.763059 
L 677.657753 257.214305 
L 678.870277 256.713991 
L 679.42294 256.316089 
L 679.42294 256.316089 
" clip-path="url(#pef520c33b5)" style="fill: none; stroke: #000000; stroke-opacity: 0.6; stroke-linecap: square"/>
   </g>
   <g id="patch_8">
    <path d="M 54.104687 276.647569 
L 54.104687 162.311841 
" style="fill: none; stroke: #000000; stroke-width: 0.8; stroke-linejoin: miter; stroke-linecap: square"/>
   </g>
   <g id="patch_9">
    <path d="M 709.2 276.647569 
L 709.2 162.311841 
" style="fill: none; stroke: #000000; stroke-width: 0.8; stroke-linejoin: miter; stroke-linecap: square"/>
   </g>
   <g id="patch_10">
    <path d="M 54.104688 276.647569 
L 709.2 276.647569 
" style="fill: none; stroke: #000000; stroke-width: 0.8; stroke-linejoin: miter; stroke-linecap: square"/>
   </g>
   <g id="patch_11">
    <path d="M 54.104688 162.311841 
L 709.2 162.311841 
" style="fill: none; stroke: #000000; stroke-width: 0.8; stroke-linejoin: miter; stroke-linecap: square"/>
   </g>
  </g>
  <g id="axes_3">
   <g id="patch_12">
    <path d="M 54.104687 405.745659 
L 709.2 405.745659 
L 709.2 291.409931 
L 54.104687 291.409931 
z
" style="fill: #ffffff"/>
   </g>
   <g id="matplotlib.axis_5">
    <g id="xtick_13">
     <g id="line2d_43">
      <path d="M 83.881747 405.745659 
L 83.881747 291.409931 
" clip-path="url(#p976db6a878)" style="fill: none; stroke: #b0b0b0; stroke-width: 0.8; stroke-linecap: square"/>
     </g>
     <g id="line2d_44">
      <g>
       <use xlink:href="#ma8c7a1fed1" x="83.881747" y="405.745659" style="stroke: #000000; stroke-width: 0.8"/>
      </g>
     </g>
    </g>
    <g id="xtick_14">
     <g id="line2d_45">
      <path d="M 202.990224 405.745659 
L 202.990224 291.409931 
" clip-path="url(#p976db6a878)" style="fill: none; stroke: #b0b0b0; stroke-width: 0.8; stroke-linecap: square"/>
     </g>
     <g id="line2d_46">
      <g>
       <use xlink:href="#ma8c7a1fed1" x="202.990224" y="405.745659" style="stroke: #000000; stroke-width: 0.8"/>
      </g>
     </g>
    </g>
    <g id="xtick_15">
     <g id="line2d_47">
      <path d="M 322.098701 405.745659 
L 322.098701 291.409931 
" clip-path="url(#p976db6a878)" style="fill: none; stroke: #b0b0b0; stroke-width: 0.8; stroke-linecap: square"/>
     </g>
     <g id="line2d_48">
      <g>
       <use xlink:href="#ma8c7a1fed1" x="322.098701" y="405.745659" style="stroke: #000000; stroke-width: 0.8"/>
      </g>
     </g>
    </g>
    <g id="xtick_16">
     <g id="line2d_49">
      <path d="M 441.207178 405.745659 
L 441.207178 291.409931 
" clip-path="url(#p976db6a878)" style="fill: none; stroke: #b0b0b0; stroke-width: 0.8; stroke-linecap: square"/>
     </g>
     <g id="line2d_50">
      <g>
       <use xlink:href="#ma8c7a1fed1" x="441.207178" y="405.745659" style="stroke: #000000; stroke-width: 0.8"/>
      </g>
     </g>
    </g>
    <g id="xtick_17">
     <g id="line2d_51">
      <path d="M 560.315655 405.745659 
L 560.315655 291.409931 
" clip-path="url(#p976db6a878)" style="fill: none; stroke: #b0b0b0; stroke-width: 0.8; stroke-linecap: square"/>
     </g>
     <g id="line2d_52">
      <g>
       <use xlink:href="#ma8c7a1fed1" x="560.315655" y="405.745659" style="stroke: #000000; stroke-width: 0.8"/>
      </g>
     </g>
    </g>
    <g id="xtick_18">
     <g id="line2d_53">
      <path d="M 679.424131 405.745659 
L 679.424131 291.409931 
" clip-path="url(#p976db6a878)" style="fill: none; stroke: #b0b0b0; stroke-width: 0.8; stroke-linecap: square"/>
     </g>
     <g id="line2d_54">
      <g>
       <use xlink:href="#ma8c7a1fed1" x="679.424131" y="405.745659" style="stroke: #000000; stroke-width: 0.8"/>
      </g>
     </g>
    </g>
   </g>
   <g id="matplotlib.axis_6">
    <g id="ytick_8">
     <g id="line2d_55">
      <path d="M 54.104687 380.715241 
L 709.2 380.715241 
" clip-path="url(#p976db6a878)" style="fill: none; stroke: #b0b0b0; stroke-width: 0.8; stroke-linecap: square"/>
     </g>
     <g id="line2d_56">
      <g>
       <use xlink:href="#m7b4394dbd2" x="54.104687" y="380.715241" style="stroke: #000000; stroke-width: 0.8"/>
      </g>
     </g>
     <g id="text_10">
      <!-- −50 -->
      <g transform="translate(26 384.514459) scale(0.1 -0.1)">
       <use xlink:href="#DejaVuSans-2212"/>
       <use xlink:href="#DejaVuSans-35" transform="translate(83.789062 0)"/>
       <use xlink:href="#DejaVuSans-30" transform="translate(147.412109 0)"/>
      </g>
     </g>
    </g>
    <g id="ytick_9">
     <g id="line2d_57">
      <path d="M 54.104687 338.047403 
L 709.2 338.047403 
" clip-path="url(#p976db6a878)" style="fill: none; stroke: #b0b0b0; stroke-width: 0.8; stroke-linecap: square"/>
     </g>
     <g id="line2d_58">
      <g>
       <use xlink:href="#m7b4394dbd2" x="54.104687" y="338.047403" style="stroke: #000000; stroke-width: 0.8"/>
      </g>
     </g>
     <g id="text_11">
      <!-- 0 -->
      <g transform="translate(40.742188 341.846621) scale(0.1 -0.1)">
       <use xlink:href="#DejaVuSans-30"/>
      </g>
     </g>
    </g>
    <g id="ytick_10">
     <g id="line2d_59">
      <path d="M 54.104687 295.379564 
L 709.2 295.379564 
" clip-path="url(#p976db6a878)" style="fill: none; stroke: #b0b0b0; stroke-width: 0.8; stroke-linecap: square"/>
     </g>
     <g id="line2d_60">
      <g>
       <use xlink:href="#m7b4394dbd2" x="54.104687" y="295.379564" style="stroke: #000000; stroke-width: 0.8"/>
      </g>
     </g>
     <g id="text_12">
      <!-- 50 -->
      <g transform="translate(34.379687 299.178783) scale(0.1 -0.1)">
       <use xlink:href="#DejaVuSans-35"/>
       <use xlink:href="#DejaVuSans-30" transform="translate(63.623047 0)"/>
      </g>
     </g>
    </g>
    <g id="text_13">
     <!-- mV -->
     <g transform="translate(19.920312 356.86842) rotate(-90) scale(0.1 -0.1)">
      <use xlink:href="#DejaVuSans-6d"/>
      <use xlink:href="#DejaVuSans-56" transform="translate(97.412109 0)"/>
     </g>
    </g>
   </g>
   <g id="line2d_61">
    <path d="M 83.881747 389.248808 
L 84.080658 373.53446 
L 84.111627 296.60701 
L 84.279569 317.766931 
L 84.396296 376.640947 
L 84.52136 399.488202 
L 84.529697 399.485105 
L 84.640468 399.257957 
L 88.04578 391.516459 
L 88.88073 390.427122 
L 89.71568 389.694212 
L 90.638771 389.180753 
L 91.784595 388.807999 
L 93.444967 388.521818 
L 96.65494 388.235913 
L 114.360415 386.856749 
L 119.645258 386.197457 
L 122.618206 385.622566 
L 124.217833 385.107649 
L 125.058739 384.622451 
L 125.516115 384.112301 
L 125.790065 383.460372 
L 125.966345 382.399551 
L 126.077116 380.12636 
L 126.135479 372.869142 
L 126.15811 319.189291 
L 126.178358 299.371223 
L 126.271263 308.264167 
L 126.411811 351.938397 
L 126.584518 398.31634 
L 126.600002 398.30682 
L 126.754843 397.953278 
L 128.963115 392.721572 
L 129.850473 391.251617 
L 130.674703 390.299743 
L 131.526329 389.650829 
L 132.500636 389.192264 
L 133.764377 388.856354 
L 135.727285 388.589445 
L 140.262936 388.256303 
L 154.76082 387.211706 
L 161.622659 386.500609 
L 165.559194 385.888603 
L 167.722204 385.347993 
L 168.866836 384.853212 
L 169.47429 384.363958 
L 169.819704 383.800976 
L 170.036482 382.988154 
L 170.17703 381.459515 
L 170.259215 377.535822 
L 170.293756 361.601864 
L 170.323533 299.373525 
L 170.428349 310.413004 
L 170.568897 359.71588 
L 170.730884 398.314651 
L 170.801158 398.195902 
L 173.654997 391.757097 
L 174.491139 390.634215 
L 175.321325 389.881711 
L 176.232505 389.356628 
L 177.352124 388.977789 
L 178.95056 388.690793 
L 181.935419 388.419336 
L 202.990224 386.817246 
L 203.16174 399.939776 
L 203.323728 400.519921 
L 203.608397 400.54858 
L 219.041282 400.44238 
L 238.723958 400.125759 
L 238.85736 349.458292 
L 238.882372 297.608979 
L 238.976468 304.582486 
L 239.120589 342.186032 
L 239.338558 398.712146 
L 239.380246 398.652741 
L 239.828094 397.371179 
L 240.632076 394.54564 
L 241.165682 391.876776 
L 241.48251 389.134177 
L 241.675466 385.320703 
L 241.807677 377.383686 
L 241.871995 357.69075 
L 241.92083 323.185437 
L 242.000632 340.924292 
L 242.296021 396.617651 
L 242.328181 396.593256 
L 242.357958 396.525558 
L 242.774837 395.101424 
L 243.413259 392.297969 
L 243.801553 389.585829 
L 244.038578 386.253864 
L 244.200566 380.357877 
L 244.295853 367.988687 
L 244.367318 325.426975 
L 244.463796 347.098886 
L 244.736554 396.014276 
L 244.767522 396.060126 
L 244.83065 395.939704 
L 245.295173 394.294335 
L 245.916919 391.43553 
L 246.296875 388.630299 
L 246.537474 385.067495 
L 246.705417 378.808808 
L 246.789984 366.459854 
L 246.857876 324.508472 
L 246.950781 345.031426 
L 247.231877 395.945748 
L 247.258081 395.970108 
L 247.316444 395.862128 
L 247.775011 394.300877 
L 248.492044 391.240727 
L 248.938701 388.361695 
L 249.226944 384.967383 
L 249.423473 379.752377 
L 249.524715 370.540952 
L 249.579505 330.656781 
L 249.605709 322.80587 
L 249.679556 337.826477 
L 249.996384 395.927769 
L 250.060703 395.824309 
L 250.541901 394.259021 
L 251.423304 390.808555 
L 251.996216 387.680589 
L 252.370216 384.369397 
L 252.607242 380.179963 
L 252.72516 373.677905 
L 252.775185 353.164762 
L 252.822829 320.157649 
L 252.90144 336.208533 
L 253.214695 395.904305 
L 253.224224 395.900838 
L 253.31832 395.692794 
L 254.304538 392.531472 
L 255.692152 387.421575 
L 256.635491 383.209185 
L 256.928498 380.866672 
L 257.078574 377.664867 
L 257.153613 370.278654 
L 257.196492 329.491009 
L 257.226269 315.218525 
L 257.306072 330.148652 
L 257.624091 395.971148 
L 257.663397 395.925686 
L 257.971888 395.079839 
L 259.98363 389.663832 
L 260.781657 388.159285 
L 261.446282 387.34973 
L 262.075175 386.919539 
L 262.75052 386.727713 
L 263.60691 386.729449 
L 265.094575 386.993387 
L 268.727383 387.655433 
L 271.755121 387.945667 
L 275.635675 388.082177 
L 280.980072 388.033614 
L 288.512493 387.730002 
L 297.33724 387.155064 
L 304.010888 386.516042 
L 307.912881 385.939804 
L 309.985369 385.43104 
L 311.034714 384.965845 
L 311.575467 384.49788 
L 311.883958 383.93238 
L 312.079296 383.064578 
L 312.205551 381.318257 
L 312.277016 376.397 
L 312.304411 352.001983 
L 312.329424 298.863853 
L 312.42471 307.724153 
L 312.564067 350.226758 
L 312.734392 398.624995 
L 312.757023 398.606021 
L 312.996431 398.046158 
L 315.145148 393.071792 
L 316.040844 391.608829 
L 316.868648 390.665619 
L 317.722655 390.024177 
L 318.699345 389.572938 
L 319.964277 389.246424 
L 321.925994 388.994142 
L 326.40209 388.699932 
L 345.560689 387.515667 
L 354.074563 386.76802 
L 358.940144 386.137273 
L 361.590307 385.590698 
L 362.96601 385.101642 
L 363.672324 384.632872 
L 364.058235 384.116275 
L 364.29407 383.408042 
L 364.44772 382.14963 
L 364.541816 379.149216 
L 364.585886 368.285351 
L 364.619236 299.012321 
L 364.749064 314.996863 
L 364.881275 372.009947 
L 365.020632 398.528904 
L 365.076613 398.456103 
L 365.08495 398.437748 
L 366.273653 395.495559 
L 367.480222 392.860892 
L 368.366389 391.435257 
L 369.193002 390.510962 
L 370.050583 389.880882 
L 371.037992 389.435994 
L 372.329128 389.11177 
L 374.361118 388.856408 
L 379.204069 388.534014 
L 396.047199 387.439601 
L 404.103696 386.700126 
L 408.714385 386.073217 
L 411.234721 385.527123 
L 412.55206 385.035497 
L 413.234552 384.561385 
L 413.612126 384.033313 
L 413.844387 383.301486 
L 413.995655 381.983664 
L 414.087369 378.778769 
L 414.129057 366.877611 
L 414.161216 299.12423 
L 414.282707 313.298065 
L 414.41849 368.031768 
L 414.562611 398.461337 
L 414.603108 398.421413 
L 414.62693 398.371425 
L 415.773945 395.515536 
L 416.994807 392.823694 
L 417.882165 391.381317 
L 418.707586 390.447719 
L 419.562785 389.811081 
L 420.54543 389.361317 
L 421.825846 389.033172 
L 423.830442 388.774164 
L 428.545947 388.449882 
L 444.692292 387.366844 
L 452.346202 386.63692 
L 456.729394 386.015139 
L 459.12943 385.470998 
L 460.388407 384.978643 
L 461.045886 384.499795 
L 461.41274 383.960884 
L 461.640237 383.202164 
L 461.787931 381.81671 
L 461.876072 378.414229 
L 461.915378 365.438262 
L 461.947537 299.201916 
L 462.061881 312.114142 
L 462.198856 364.038581 
L 462.350123 398.416553 
L 462.414442 398.321267 
L 463.669845 395.190641 
L 464.834726 392.660639 
L 465.712556 391.259854 
L 466.536786 390.347542 
L 467.395559 389.723972 
L 468.390114 389.281802 
L 469.696734 388.958145 
L 471.773986 388.698906 
L 476.907561 388.348888 
L 491.673439 387.33427 
L 499.15107 386.607891 
L 503.438975 385.98747 
L 505.791367 385.443224 
L 507.028904 384.949717 
L 507.678045 384.468458 
L 508.041326 383.92638 
L 508.267632 383.160451 
L 508.414136 381.766768 
L 508.502276 378.290311 
L 508.541582 364.150656 
L 508.57255 299.253168 
L 508.683321 311.384049 
L 508.821487 361.971983 
L 508.977519 398.385553 
L 509.043029 398.282895 
L 512.069575 391.596518 
L 512.899761 390.558327 
L 513.738285 389.857844 
L 514.675668 389.366531 
L 515.854842 389.010407 
L 517.600973 388.736819 
L 521.13373 388.454066 
L 540.113666 387.10645 
L 546.483587 386.414039 
L 550.100912 385.817006 
L 552.063819 385.288651 
L 553.092917 384.801628 
L 553.639624 384.311195 
L 553.955262 383.726325 
L 554.155364 382.846115 
L 554.284001 381.125011 
L 554.357849 376.351219 
L 554.386435 354.636738 
L 554.41383 299.291649 
L 554.509116 308.594003 
L 554.649664 353.227192 
L 554.819989 398.363766 
L 554.8319 398.357452 
L 554.96292 398.068783 
L 557.24742 392.690519 
L 558.130014 391.254282 
L 558.954245 390.321495 
L 559.809444 389.684721 
L 560.79328 389.234141 
L 562.077269 388.90416 
L 564.093775 388.640973 
L 568.900994 388.300351 
L 583.509648 387.271635 
L 590.665686 386.55317 
L 594.771355 385.936947 
L 597.026078 385.394303 
L 598.215972 384.899717 
L 598.842482 384.415173 
L 599.197426 383.861073 
L 599.418968 383.069564 
L 599.561898 381.612174 
L 599.646465 377.972522 
L 599.683388 363.612652 
L 599.714357 299.31624 
L 599.823936 311.295777 
L 599.963293 362.387487 
L 600.118134 398.347988 
L 600.182453 398.250999 
L 601.465251 395.037431 
L 602.612266 392.550062 
L 603.486522 391.159109 
L 604.309562 390.251751 
L 605.169525 389.630328 
L 606.166463 389.189423 
L 607.48142 388.865209 
L 609.581303 388.603121 
L 614.88163 388.23497 
L 628.542181 387.261074 
L 635.64462 386.543658 
L 639.720512 385.927988 
L 641.960942 385.385376 
L 643.14488 384.890383 
L 643.7702 384.403958 
L 644.123952 383.848351 
L 644.344303 383.05768 
L 644.487233 381.59582 
L 644.5718 377.933769 
L 644.608724 363.225036 
L 644.639692 299.335008 
L 644.748081 311.127165 
L 644.887437 361.671567 
L 645.04347 398.337175 
L 645.107788 398.239814 
L 646.398924 395.003411 
L 647.541174 392.528701 
L 648.415431 391.139674 
L 649.23847 390.234074 
L 650.098433 389.614019 
L 651.096562 389.173657 
L 652.413902 388.849697 
L 654.520931 388.587209 
L 659.872475 388.214706 
L 673.335306 387.248784 
L 679.42294 386.647498 
L 679.42294 386.647498 
" clip-path="url(#p976db6a878)" style="fill: none; stroke: #000000; stroke-opacity: 0.8; stroke-linecap: square"/>
   </g>
   <g id="patch_13">
    <path d="M 54.104687 405.745659 
L 54.104687 291.409931 
" style="fill: none; stroke: #000000; stroke-width: 0.8; stroke-linejoin: miter; stroke-linecap: square"/>
   </g>
   <g id="patch_14">
    <path d="M 709.2 405.745659 
L 709.2 291.409931 
" style="fill: none; stroke: #000000; stroke-width: 0.8; stroke-linejoin: miter; stroke-linecap: square"/>
   </g>
   <g id="patch_15">
    <path d="M 54.104688 405.745659 
L 709.2 405.745659 
" style="fill: none; stroke: #000000; stroke-width: 0.8; stroke-linejoin: miter; stroke-linecap: square"/>
   </g>
   <g id="patch_16">
    <path d="M 54.104688 291.409931 
L 709.2 291.409931 
" style="fill: none; stroke: #000000; stroke-width: 0.8; stroke-linejoin: miter; stroke-linecap: square"/>
   </g>
  </g>
  <g id="axes_4">
   <g id="patch_17">
    <path d="M 54.104687 534.84375 
L 709.2 534.84375 
L 709.2 420.508022 
L 54.104687 420.508022 
z
" style="fill: #ffffff"/>
   </g>
   <g id="matplotlib.axis_7">
    <g id="xtick_19">
     <g id="line2d_62">
      <path d="M 83.881747 534.84375 
L 83.881747 420.508022 
" clip-path="url(#p0bf89da41b)" style="fill: none; stroke: #b0b0b0; stroke-width: 0.8; stroke-linecap: square"/>
     </g>
     <g id="line2d_63">
      <g>
       <use xlink:href="#ma8c7a1fed1" x="83.881747" y="534.84375" style="stroke: #000000; stroke-width: 0.8"/>
      </g>
     </g>
     <g id="text_14">
      <!-- 0 -->
      <g transform="translate(80.700497 549.442187) scale(0.1 -0.1)">
       <use xlink:href="#DejaVuSans-30"/>
      </g>
     </g>
    </g>
    <g id="xtick_20">
     <g id="line2d_64">
      <path d="M 202.990224 534.84375 
L 202.990224 420.508022 
" clip-path="url(#p0bf89da41b)" style="fill: none; stroke: #b0b0b0; stroke-width: 0.8; stroke-linecap: square"/>
     </g>
     <g id="line2d_65">
      <g>
       <use xlink:href="#ma8c7a1fed1" x="202.990224" y="534.84375" style="stroke: #000000; stroke-width: 0.8"/>
      </g>
     </g>
     <g id="text_15">
      <!-- 1000 -->
      <g transform="translate(190.265224 549.442187) scale(0.1 -0.1)">
       <defs>
        <path id="DejaVuSans-31" d="M 794 531 
L 1825 531 
L 1825 4091 
L 703 3866 
L 703 4441 
L 1819 4666 
L 2450 4666 
L 2450 531 
L 3481 531 
L 3481 0 
L 794 0 
L 794 531 
z
" transform="scale(0.015625)"/>
       </defs>
       <use xlink:href="#DejaVuSans-31"/>
       <use xlink:href="#DejaVuSans-30" transform="translate(63.623047 0)"/>
       <use xlink:href="#DejaVuSans-30" transform="translate(127.246094 0)"/>
       <use xlink:href="#DejaVuSans-30" transform="translate(190.869141 0)"/>
      </g>
     </g>
    </g>
    <g id="xtick_21">
     <g id="line2d_66">
      <path d="M 322.098701 534.84375 
L 322.098701 420.508022 
" clip-path="url(#p0bf89da41b)" style="fill: none; stroke: #b0b0b0; stroke-width: 0.8; stroke-linecap: square"/>
     </g>
     <g id="line2d_67">
      <g>
       <use xlink:href="#ma8c7a1fed1" x="322.098701" y="534.84375" style="stroke: #000000; stroke-width: 0.8"/>
      </g>
     </g>
     <g id="text_16">
      <!-- 2000 -->
      <g transform="translate(309.373701 549.442187) scale(0.1 -0.1)">
       <use xlink:href="#DejaVuSans-32"/>
       <use xlink:href="#DejaVuSans-30" transform="translate(63.623047 0)"/>
       <use xlink:href="#DejaVuSans-30" transform="translate(127.246094 0)"/>
       <use xlink:href="#DejaVuSans-30" transform="translate(190.869141 0)"/>
      </g>
     </g>
    </g>
    <g id="xtick_22">
     <g id="line2d_68">
      <path d="M 441.207178 534.84375 
L 441.207178 420.508022 
" clip-path="url(#p0bf89da41b)" style="fill: none; stroke: #b0b0b0; stroke-width: 0.8; stroke-linecap: square"/>
     </g>
     <g id="line2d_69">
      <g>
       <use xlink:href="#ma8c7a1fed1" x="441.207178" y="534.84375" style="stroke: #000000; stroke-width: 0.8"/>
      </g>
     </g>
     <g id="text_17">
      <!-- 3000 -->
      <g transform="translate(428.482178 549.442187) scale(0.1 -0.1)">
       <use xlink:href="#DejaVuSans-33"/>
       <use xlink:href="#DejaVuSans-30" transform="translate(63.623047 0)"/>
       <use xlink:href="#DejaVuSans-30" transform="translate(127.246094 0)"/>
       <use xlink:href="#DejaVuSans-30" transform="translate(190.869141 0)"/>
      </g>
     </g>
    </g>
    <g id="xtick_23">
     <g id="line2d_70">
      <path d="M 560.315655 534.84375 
L 560.315655 420.508022 
" clip-path="url(#p0bf89da41b)" style="fill: none; stroke: #b0b0b0; stroke-width: 0.8; stroke-linecap: square"/>
     </g>
     <g id="line2d_71">
      <g>
       <use xlink:href="#ma8c7a1fed1" x="560.315655" y="534.84375" style="stroke: #000000; stroke-width: 0.8"/>
      </g>
     </g>
     <g id="text_18">
      <!-- 4000 -->
      <g transform="translate(547.590655 549.442187) scale(0.1 -0.1)">
       <use xlink:href="#DejaVuSans-34"/>
       <use xlink:href="#DejaVuSans-30" transform="translate(63.623047 0)"/>
       <use xlink:href="#DejaVuSans-30" transform="translate(127.246094 0)"/>
       <use xlink:href="#DejaVuSans-30" transform="translate(190.869141 0)"/>
      </g>
     </g>
    </g>
    <g id="xtick_24">
     <g id="line2d_72">
      <path d="M 679.424131 534.84375 
L 679.424131 420.508022 
" clip-path="url(#p0bf89da41b)" style="fill: none; stroke: #b0b0b0; stroke-width: 0.8; stroke-linecap: square"/>
     </g>
     <g id="line2d_73">
      <g>
       <use xlink:href="#ma8c7a1fed1" x="679.424131" y="534.84375" style="stroke: #000000; stroke-width: 0.8"/>
      </g>
     </g>
     <g id="text_19">
      <!-- 5000 -->
      <g transform="translate(666.699131 549.442187) scale(0.1 -0.1)">
       <use xlink:href="#DejaVuSans-35"/>
       <use xlink:href="#DejaVuSans-30" transform="translate(63.623047 0)"/>
       <use xlink:href="#DejaVuSans-30" transform="translate(127.246094 0)"/>
       <use xlink:href="#DejaVuSans-30" transform="translate(190.869141 0)"/>
      </g>
     </g>
    </g>
    <g id="text_20">
     <!-- Time (ms) -->
     <g transform="translate(356.453125 563.120312) scale(0.1 -0.1)">
      <defs>
       <path id="DejaVuSans-54" d="M -19 4666 
L 3928 4666 
L 3928 4134 
L 2272 4134 
L 2272 0 
L 1638 0 
L 1638 4134 
L -19 4134 
L -19 4666 
z
" transform="scale(0.015625)"/>
       <path id="DejaVuSans-69" d="M 603 3500 
L 1178 3500 
L 1178 0 
L 603 0 
L 603 3500 
z
M 603 4863 
L 1178 4863 
L 1178 4134 
L 603 4134 
L 603 4863 
z
" transform="scale(0.015625)"/>
       <path id="DejaVuSans-65" d="M 3597 1894 
L 3597 1613 
L 953 1613 
Q 991 1019 1311 708 
Q 1631 397 2203 397 
Q 2534 397 2845 478 
Q 3156 559 3463 722 
L 3463 178 
Q 3153 47 2828 -22 
Q 2503 -91 2169 -91 
Q 1331 -91 842 396 
Q 353 884 353 1716 
Q 353 2575 817 3079 
Q 1281 3584 2069 3584 
Q 2775 3584 3186 3129 
Q 3597 2675 3597 1894 
z
M 3022 2063 
Q 3016 2534 2758 2815 
Q 2500 3097 2075 3097 
Q 1594 3097 1305 2825 
Q 1016 2553 972 2059 
L 3022 2063 
z
" transform="scale(0.015625)"/>
       <path id="DejaVuSans-20" transform="scale(0.015625)"/>
       <path id="DejaVuSans-28" d="M 1984 4856 
Q 1566 4138 1362 3434 
Q 1159 2731 1159 2009 
Q 1159 1288 1364 580 
Q 1569 -128 1984 -844 
L 1484 -844 
Q 1016 -109 783 600 
Q 550 1309 550 2009 
Q 550 2706 781 3412 
Q 1013 4119 1484 4856 
L 1984 4856 
z
" transform="scale(0.015625)"/>
       <path id="DejaVuSans-73" d="M 2834 3397 
L 2834 2853 
Q 2591 2978 2328 3040 
Q 2066 3103 1784 3103 
Q 1356 3103 1142 2972 
Q 928 2841 928 2578 
Q 928 2378 1081 2264 
Q 1234 2150 1697 2047 
L 1894 2003 
Q 2506 1872 2764 1633 
Q 3022 1394 3022 966 
Q 3022 478 2636 193 
Q 2250 -91 1575 -91 
Q 1294 -91 989 -36 
Q 684 19 347 128 
L 347 722 
Q 666 556 975 473 
Q 1284 391 1588 391 
Q 1994 391 2212 530 
Q 2431 669 2431 922 
Q 2431 1156 2273 1281 
Q 2116 1406 1581 1522 
L 1381 1569 
Q 847 1681 609 1914 
Q 372 2147 372 2553 
Q 372 3047 722 3315 
Q 1072 3584 1716 3584 
Q 2034 3584 2315 3537 
Q 2597 3491 2834 3397 
z
" transform="scale(0.015625)"/>
       <path id="DejaVuSans-29" d="M 513 4856 
L 1013 4856 
Q 1481 4119 1714 3412 
Q 1947 2706 1947 2009 
Q 1947 1309 1714 600 
Q 1481 -109 1013 -844 
L 513 -844 
Q 928 -128 1133 580 
Q 1338 1288 1338 2009 
Q 1338 2731 1133 3434 
Q 928 4138 513 4856 
z
" transform="scale(0.015625)"/>
      </defs>
      <use xlink:href="#DejaVuSans-54"/>
      <use xlink:href="#DejaVuSans-69" transform="translate(57.958984 0)"/>
      <use xlink:href="#DejaVuSans-6d" transform="translate(85.742188 0)"/>
      <use xlink:href="#DejaVuSans-65" transform="translate(183.154297 0)"/>
      <use xlink:href="#DejaVuSans-20" transform="translate(244.677734 0)"/>
      <use xlink:href="#DejaVuSans-28" transform="translate(276.464844 0)"/>
      <use xlink:href="#DejaVuSans-6d" transform="translate(315.478516 0)"/>
      <use xlink:href="#DejaVuSans-73" transform="translate(412.890625 0)"/>
      <use xlink:href="#DejaVuSans-29" transform="translate(464.990234 0)"/>
     </g>
    </g>
   </g>
   <g id="matplotlib.axis_8">
    <g id="ytick_11">
     <g id="line2d_74">
      <path d="M 54.104687 506.824622 
L 709.2 506.824622 
" clip-path="url(#p0bf89da41b)" style="fill: none; stroke: #b0b0b0; stroke-width: 0.8; stroke-linecap: square"/>
     </g>
     <g id="line2d_75">
      <g>
       <use xlink:href="#m7b4394dbd2" x="54.104687" y="506.824622" style="stroke: #000000; stroke-width: 0.8"/>
      </g>
     </g>
     <g id="text_21">
      <!-- −50 -->
      <g transform="translate(26 510.623841) scale(0.1 -0.1)">
       <use xlink:href="#DejaVuSans-2212"/>
       <use xlink:href="#DejaVuSans-35" transform="translate(83.789062 0)"/>
       <use xlink:href="#DejaVuSans-30" transform="translate(147.412109 0)"/>
      </g>
     </g>
    </g>
    <g id="ytick_12">
     <g id="line2d_76">
      <path d="M 54.104687 465.672947 
L 709.2 465.672947 
" clip-path="url(#p0bf89da41b)" style="fill: none; stroke: #b0b0b0; stroke-width: 0.8; stroke-linecap: square"/>
     </g>
     <g id="line2d_77">
      <g>
       <use xlink:href="#m7b4394dbd2" x="54.104687" y="465.672947" style="stroke: #000000; stroke-width: 0.8"/>
      </g>
     </g>
     <g id="text_22">
      <!-- 0 -->
      <g transform="translate(40.742188 469.472166) scale(0.1 -0.1)">
       <use xlink:href="#DejaVuSans-30"/>
      </g>
     </g>
    </g>
    <g id="ytick_13">
     <g id="line2d_78">
      <path d="M 54.104687 424.521271 
L 709.2 424.521271 
" clip-path="url(#p0bf89da41b)" style="fill: none; stroke: #b0b0b0; stroke-width: 0.8; stroke-linecap: square"/>
     </g>
     <g id="line2d_79">
      <g>
       <use xlink:href="#m7b4394dbd2" x="54.104687" y="424.521271" style="stroke: #000000; stroke-width: 0.8"/>
      </g>
     </g>
     <g id="text_23">
      <!-- 50 -->
      <g transform="translate(34.379687 428.32049) scale(0.1 -0.1)">
       <use xlink:href="#DejaVuSans-35"/>
       <use xlink:href="#DejaVuSans-30" transform="translate(63.623047 0)"/>
      </g>
     </g>
    </g>
    <g id="text_24">
     <!-- mV -->
     <g transform="translate(19.920312 485.966511) rotate(-90) scale(0.1 -0.1)">
      <use xlink:href="#DejaVuSans-6d"/>
      <use xlink:href="#DejaVuSans-56" transform="translate(97.412109 0)"/>
     </g>
    </g>
   </g>
   <g id="line2d_80">
    <path d="M 83.881747 515.054957 
L 84.080658 499.899004 
L 84.111627 425.7051 
L 84.279569 446.113123 
L 84.396296 502.895105 
L 84.52136 524.930503 
L 84.529697 524.927517 
L 84.64285 524.703025 
L 88.041015 517.24916 
L 88.88073 516.1914 
L 89.724018 515.478891 
L 90.661402 514.979969 
L 91.83462 514.61831 
L 93.559311 514.340371 
L 97.01703 514.053306 
L 113.704128 512.812359 
L 119.35106 512.155464 
L 122.500289 511.585652 
L 124.178527 511.077207 
L 125.048019 510.601261 
L 125.513733 510.10466 
L 125.788874 509.476381 
L 125.965154 508.460824 
L 126.077116 506.256667 
L 126.135479 499.257328 
L 126.15811 447.484941 
L 126.178358 428.37109 
L 126.271263 436.948032 
L 126.411811 479.070337 
L 126.584518 523.800283 
L 126.600002 523.791101 
L 126.757226 523.444367 
L 128.964306 518.402105 
L 129.855237 516.980239 
L 130.684232 516.059918 
L 131.545386 515.431649 
L 132.538751 514.987345 
L 133.840607 514.662446 
L 135.904757 514.402587 
L 140.996644 514.052286 
L 154.775113 513.089037 
L 161.732239 512.39093 
L 165.677111 511.791459 
L 167.815109 511.262675 
L 168.929964 510.778568 
L 169.514787 510.297603 
L 169.845908 509.737196 
L 170.053157 508.914805 
L 170.186558 507.343015 
L 170.263979 503.153615 
L 170.296138 482.812174 
L 170.323533 428.37331 
L 170.420011 437.513265 
L 170.560559 481.027675 
L 170.730884 523.798654 
L 170.740413 523.794345 
L 170.85833 523.549538 
L 173.179754 518.271459 
L 174.062348 516.897262 
L 174.891343 516.003313 
L 175.758453 515.391697 
L 176.767302 514.958092 
L 178.10489 514.639901 
L 180.266709 514.381716 
L 185.981534 513.998384 
L 198.978651 513.081079 
L 202.990224 512.709799 
L 203.159358 528.926538 
L 203.321346 529.614208 
L 203.584575 529.646574 
L 222.790817 529.596678 
L 238.723958 529.543765 
L 238.872844 463.377536 
L 238.895474 426.606307 
L 238.988379 433.068337 
L 239.130118 467.983066 
L 239.355233 524.19156 
L 239.401685 524.122682 
L 239.907896 522.698458 
L 240.669 520.026773 
L 241.159727 517.508818 
L 241.447969 514.829521 
L 241.621867 510.895417 
L 241.742167 502.110008 
L 241.799339 478.322214 
L 241.842218 451.954517 
L 241.918448 468.237168 
L 242.21741 522.188689 
L 242.242423 522.180398 
L 242.281728 522.099731 
L 242.692653 520.722548 
L 243.291768 518.100703 
L 243.651476 515.520593 
L 243.869444 512.206679 
L 244.017139 505.976309 
L 244.104088 491.817431 
L 244.169598 454.339086 
L 244.255356 472.423892 
L 244.541216 521.614481 
L 244.572184 521.661134 
L 244.636503 521.540979 
L 245.089115 519.952827 
L 245.656072 517.303773 
L 245.996722 514.626765 
L 246.208735 511.036282 
L 246.358812 504.056428 
L 246.432659 489.015371 
L 246.492213 453.749825 
L 246.574398 470.53908 
L 246.868596 521.554703 
L 246.895991 521.581426 
L 246.955545 521.471802 
L 247.404584 519.946842 
L 248.033477 517.184174 
L 248.417006 514.486066 
L 248.658796 511.08807 
L 248.82793 505.134217 
L 248.913688 493.592916 
L 248.982771 452.617712 
L 249.078058 472.986934 
L 249.356772 521.510603 
L 249.384167 521.536291 
L 249.443721 521.428959 
L 249.916582 519.879521 
L 250.634806 516.927981 
L 251.081463 514.152794 
L 251.368514 510.89342 
L 251.565043 505.864595 
L 251.666285 496.892371 
L 251.722266 457.326942 
L 251.746088 450.943732 
L 251.819935 465.214251 
L 252.139146 521.49818 
L 252.205847 521.390002 
L 252.723969 519.763498 
L 253.606562 516.424049 
L 254.177092 513.406261 
L 254.54871 510.209624 
L 254.782163 506.17302 
L 254.896507 499.954693 
L 254.946533 479.500908 
L 254.992985 448.343489 
L 255.071597 463.646984 
L 255.386043 521.476115 
L 255.395572 521.472757 
L 255.490858 521.269808 
L 256.506854 518.14828 
L 258.008812 512.887068 
L 258.959297 508.901537 
L 259.228482 506.748797 
L 259.370222 503.600444 
L 259.441687 495.77511 
L 259.51077 443.36152 
L 259.634642 470.028695 
L 259.909783 521.551963 
L 259.912165 521.551637 
L 259.989586 521.417643 
L 261.119925 518.348333 
L 262.334832 515.423799 
L 263.114992 514.085047 
L 263.779617 513.358468 
L 264.423994 512.972293 
L 265.137454 512.807553 
L 266.083175 512.834197 
L 267.978191 513.16416 
L 271.220324 513.672163 
L 274.452928 513.934092 
L 278.669368 514.039703 
L 284.597397 513.950734 
L 293.03385 513.589396 
L 302.336222 512.976117 
L 308.819297 512.345816 
L 312.462825 511.789627 
L 314.342357 511.300556 
L 315.273785 510.849972 
L 315.752601 510.384748 
L 316.028933 509.79847 
L 316.206405 508.841906 
L 316.319558 506.771237 
L 316.379112 500.415286 
L 316.400551 460.734924 
L 316.421991 427.837521 
L 316.514895 435.952944 
L 316.654252 475.888414 
L 316.82696 524.124379 
L 316.854355 524.098776 
L 317.165228 523.386979 
L 319.206747 518.834379 
L 320.111971 517.395158 
L 320.946922 516.469558 
L 321.809267 515.840975 
L 322.799059 515.399539 
L 324.089004 515.081178 
L 326.115039 514.835623 
L 330.909155 514.53975 
L 349.966511 513.414612 
L 358.803169 512.675594 
L 363.792623 512.055257 
L 366.470182 511.519954 
L 367.836356 511.042461 
L 368.527185 510.584417 
L 368.902377 510.074251 
L 369.131065 509.362934 
L 369.27876 508.079738 
L 369.368091 504.95329 
L 369.408588 493.391201 
L 369.440747 427.999005 
L 369.561047 441.381688 
L 369.69683 493.388473 
L 369.842143 524.021756 
L 369.907652 523.930175 
L 371.220228 520.808712 
L 372.37558 518.427737 
L 373.256983 517.096867 
L 374.08836 516.22989 
L 374.962616 515.636176 
L 375.985758 515.216197 
L 377.354314 514.909876 
L 379.598318 514.663908 
L 385.739551 514.293214 
L 401.174819 513.321459 
L 409.420699 512.59393 
L 414.081413 511.979512 
L 416.59222 511.445686 
L 417.883356 510.965495 
L 418.543217 510.500542 
L 418.905307 509.977884 
L 419.128039 509.239916 
L 419.272161 507.887863 
L 419.35911 504.46104 
L 419.397225 490.513303 
L 419.427002 428.114886 
L 419.537773 439.574308 
L 419.675938 487.671435 
L 419.833162 523.952357 
L 419.903436 523.84054 
L 422.8073 517.605656 
L 423.649397 516.537828 
L 424.490303 515.822012 
L 425.421731 515.322776 
L 426.581848 514.963856 
L 428.274379 514.693532 
L 431.590359 514.431758 
L 454.042307 512.923368 
L 460.189496 512.25702 
L 463.601954 511.684052 
L 465.405256 511.1774 
L 466.327155 510.708126 
L 466.813118 510.224574 
L 467.096596 509.62125 
L 467.277641 508.659 
L 467.393176 506.614212 
L 467.455113 500.265802 
L 467.477743 459.038291 
L 467.499183 428.194771 
L 467.592088 436.516982 
L 467.732636 477.898322 
L 467.906534 523.90483 
L 467.9244 523.891643 
L 468.116165 523.460898 
L 470.286321 518.539749 
L 471.182017 517.113088 
L 472.013394 516.191629 
L 472.874548 515.564382 
L 473.866722 515.121554 
L 475.166196 514.798834 
L 477.220817 514.543685 
L 482.215035 514.212144 
L 497.563354 513.19746 
L 505.094583 512.486217 
L 509.357475 511.880279 
L 511.661033 511.349596 
L 512.8545 510.86771 
L 513.472673 510.395104 
L 513.818087 509.853168 
L 514.032483 509.07287 
L 514.17184 507.593764 
L 514.252833 503.815974 
L 514.287375 487.746906 
L 514.315961 428.249941 
L 514.419585 438.4744 
L 514.560133 484.81327 
L 514.723312 523.872224 
L 514.725694 523.871874 
L 514.805497 523.731114 
L 517.475909 517.845147 
L 518.329916 516.659535 
L 519.162485 515.872924 
L 520.061754 515.328607 
L 521.148023 514.939423 
L 522.664274 514.650019 
L 525.365654 514.395499 
L 551.440882 512.436 
L 555.525112 511.834742 
L 557.72981 511.306698 
L 558.873251 510.82528 
L 559.468793 510.349387 
L 559.804679 509.795988 
L 560.01431 508.985363 
L 560.148903 507.444223 
L 560.227514 503.334843 
L 560.259674 484.998384 
L 560.28826 428.288608 
L 560.38712 437.88483 
L 560.527668 482.536366 
L 560.69442 523.849569 
L 560.701566 523.847179 
L 560.802808 523.647337 
L 563.229048 518.186226 
L 564.103304 516.866993 
L 564.932299 516.004457 
L 565.806555 515.412523 
L 566.83327 514.992063 
L 568.212547 514.6828 
L 570.492283 514.428576 
L 577.046822 514.00792 
L 589.896245 513.113592 
L 596.982008 512.413566 
L 600.991199 511.813951 
L 603.156592 511.286477 
L 604.280976 510.804765 
L 604.86818 510.327328 
L 605.200493 509.770123 
L 605.408933 508.946957 
L 605.542334 507.373932 
L 605.619755 503.148178 
L 605.650723 485.004238 
L 605.679309 428.314889 
L 605.778169 437.920073 
L 605.918717 482.606452 
L 606.085469 523.83369 
L 606.092615 523.831398 
L 606.192667 523.634457 
L 608.62248 518.161079 
L 609.495545 516.844441 
L 610.32454 515.982581 
L 611.198796 515.39121 
L 612.226702 514.970714 
L 613.60836 514.661244 
L 615.895243 514.40616 
L 622.524821 513.978309 
L 635.125307 513.091922 
L 642.099108 512.394697 
L 646.043981 511.796849 
L 648.176023 511.270077 
L 649.283731 510.788471 
L 649.86379 510.309799 
L 650.192529 509.750399 
L 650.398587 508.9261 
L 650.531988 507.327062 
L 650.608218 503.086772 
L 650.639186 484.174889 
L 650.666581 428.333925 
L 650.765441 437.79096 
L 650.905989 482.09909 
L 651.073932 523.822492 
L 651.081078 523.820072 
L 651.18232 523.6198 
L 653.600223 518.164719 
L 654.474479 516.841172 
L 655.303474 515.975639 
L 656.17773 515.381533 
L 657.203254 514.959758 
L 658.580148 514.649217 
L 660.853929 514.393429 
L 667.38822 513.968831 
L 679.42294 513.124878 
L 679.42294 513.124878 
" clip-path="url(#p0bf89da41b)" style="fill: none; stroke: #000000; stroke-linecap: square"/>
   </g>
   <g id="patch_18">
    <path d="M 54.104687 534.84375 
L 54.104687 420.508022 
" style="fill: none; stroke: #000000; stroke-width: 0.8; stroke-linejoin: miter; stroke-linecap: square"/>
   </g>
   <g id="patch_19">
    <path d="M 709.2 534.84375 
L 709.2 420.508022 
" style="fill: none; stroke: #000000; stroke-width: 0.8; stroke-linejoin: miter; stroke-linecap: square"/>
   </g>
   <g id="patch_20">
    <path d="M 54.104688 534.84375 
L 709.2 534.84375 
" style="fill: none; stroke: #000000; stroke-width: 0.8; stroke-linejoin: miter; stroke-linecap: square"/>
   </g>
   <g id="patch_21">
    <path d="M 54.104688 420.508022 
L 709.2 420.508022 
" style="fill: none; stroke: #000000; stroke-width: 0.8; stroke-linejoin: miter; stroke-linecap: square"/>
   </g>
  </g>
  <g id="text_25">
   <!-- STN neuron, hyperpolarising rebound bursts -->
   <g transform="translate(227.11875 20.638125) scale(0.12 -0.12)">
    <defs>
     <path id="DejaVuSans-53" d="M 3425 4513 
L 3425 3897 
Q 3066 4069 2747 4153 
Q 2428 4238 2131 4238 
Q 1616 4238 1336 4038 
Q 1056 3838 1056 3469 
Q 1056 3159 1242 3001 
Q 1428 2844 1947 2747 
L 2328 2669 
Q 3034 2534 3370 2195 
Q 3706 1856 3706 1288 
Q 3706 609 3251 259 
Q 2797 -91 1919 -91 
Q 1588 -91 1214 -16 
Q 841 59 441 206 
L 441 856 
Q 825 641 1194 531 
Q 1563 422 1919 422 
Q 2459 422 2753 634 
Q 3047 847 3047 1241 
Q 3047 1584 2836 1778 
Q 2625 1972 2144 2069 
L 1759 2144 
Q 1053 2284 737 2584 
Q 422 2884 422 3419 
Q 422 4038 858 4394 
Q 1294 4750 2059 4750 
Q 2388 4750 2728 4690 
Q 3069 4631 3425 4513 
z
" transform="scale(0.015625)"/>
     <path id="DejaVuSans-4e" d="M 628 4666 
L 1478 4666 
L 3547 763 
L 3547 4666 
L 4159 4666 
L 4159 0 
L 3309 0 
L 1241 3903 
L 1241 0 
L 628 0 
L 628 4666 
z
" transform="scale(0.015625)"/>
     <path id="DejaVuSans-6e" d="M 3513 2113 
L 3513 0 
L 2938 0 
L 2938 2094 
Q 2938 2591 2744 2837 
Q 2550 3084 2163 3084 
Q 1697 3084 1428 2787 
Q 1159 2491 1159 1978 
L 1159 0 
L 581 0 
L 581 3500 
L 1159 3500 
L 1159 2956 
Q 1366 3272 1645 3428 
Q 1925 3584 2291 3584 
Q 2894 3584 3203 3211 
Q 3513 2838 3513 2113 
z
" transform="scale(0.015625)"/>
     <path id="DejaVuSans-75" d="M 544 1381 
L 544 3500 
L 1119 3500 
L 1119 1403 
Q 1119 906 1312 657 
Q 1506 409 1894 409 
Q 2359 409 2629 706 
Q 2900 1003 2900 1516 
L 2900 3500 
L 3475 3500 
L 3475 0 
L 2900 0 
L 2900 538 
Q 2691 219 2414 64 
Q 2138 -91 1772 -91 
Q 1169 -91 856 284 
Q 544 659 544 1381 
z
M 1991 3584 
L 1991 3584 
z
" transform="scale(0.015625)"/>
     <path id="DejaVuSans-72" d="M 2631 2963 
Q 2534 3019 2420 3045 
Q 2306 3072 2169 3072 
Q 1681 3072 1420 2755 
Q 1159 2438 1159 1844 
L 1159 0 
L 581 0 
L 581 3500 
L 1159 3500 
L 1159 2956 
Q 1341 3275 1631 3429 
Q 1922 3584 2338 3584 
Q 2397 3584 2469 3576 
Q 2541 3569 2628 3553 
L 2631 2963 
z
" transform="scale(0.015625)"/>
     <path id="DejaVuSans-6f" d="M 1959 3097 
Q 1497 3097 1228 2736 
Q 959 2375 959 1747 
Q 959 1119 1226 758 
Q 1494 397 1959 397 
Q 2419 397 2687 759 
Q 2956 1122 2956 1747 
Q 2956 2369 2687 2733 
Q 2419 3097 1959 3097 
z
M 1959 3584 
Q 2709 3584 3137 3096 
Q 3566 2609 3566 1747 
Q 3566 888 3137 398 
Q 2709 -91 1959 -91 
Q 1206 -91 779 398 
Q 353 888 353 1747 
Q 353 2609 779 3096 
Q 1206 3584 1959 3584 
z
" transform="scale(0.015625)"/>
     <path id="DejaVuSans-2c" d="M 750 794 
L 1409 794 
L 1409 256 
L 897 -744 
L 494 -744 
L 750 256 
L 750 794 
z
" transform="scale(0.015625)"/>
     <path id="DejaVuSans-68" d="M 3513 2113 
L 3513 0 
L 2938 0 
L 2938 2094 
Q 2938 2591 2744 2837 
Q 2550 3084 2163 3084 
Q 1697 3084 1428 2787 
Q 1159 2491 1159 1978 
L 1159 0 
L 581 0 
L 581 4863 
L 1159 4863 
L 1159 2956 
Q 1366 3272 1645 3428 
Q 1925 3584 2291 3584 
Q 2894 3584 3203 3211 
Q 3513 2838 3513 2113 
z
" transform="scale(0.015625)"/>
     <path id="DejaVuSans-79" d="M 2059 -325 
Q 1816 -950 1584 -1140 
Q 1353 -1331 966 -1331 
L 506 -1331 
L 506 -850 
L 844 -850 
Q 1081 -850 1212 -737 
Q 1344 -625 1503 -206 
L 1606 56 
L 191 3500 
L 800 3500 
L 1894 763 
L 2988 3500 
L 3597 3500 
L 2059 -325 
z
" transform="scale(0.015625)"/>
     <path id="DejaVuSans-70" d="M 1159 525 
L 1159 -1331 
L 581 -1331 
L 581 3500 
L 1159 3500 
L 1159 2969 
Q 1341 3281 1617 3432 
Q 1894 3584 2278 3584 
Q 2916 3584 3314 3078 
Q 3713 2572 3713 1747 
Q 3713 922 3314 415 
Q 2916 -91 2278 -91 
Q 1894 -91 1617 61 
Q 1341 213 1159 525 
z
M 3116 1747 
Q 3116 2381 2855 2742 
Q 2594 3103 2138 3103 
Q 1681 3103 1420 2742 
Q 1159 2381 1159 1747 
Q 1159 1113 1420 752 
Q 1681 391 2138 391 
Q 2594 391 2855 752 
Q 3116 1113 3116 1747 
z
" transform="scale(0.015625)"/>
     <path id="DejaVuSans-6c" d="M 603 4863 
L 1178 4863 
L 1178 0 
L 603 0 
L 603 4863 
z
" transform="scale(0.015625)"/>
     <path id="DejaVuSans-61" d="M 2194 1759 
Q 1497 1759 1228 1600 
Q 959 1441 959 1056 
Q 959 750 1161 570 
Q 1363 391 1709 391 
Q 2188 391 2477 730 
Q 2766 1069 2766 1631 
L 2766 1759 
L 2194 1759 
z
M 3341 1997 
L 3341 0 
L 2766 0 
L 2766 531 
Q 2569 213 2275 61 
Q 1981 -91 1556 -91 
Q 1019 -91 701 211 
Q 384 513 384 1019 
Q 384 1609 779 1909 
Q 1175 2209 1959 2209 
L 2766 2209 
L 2766 2266 
Q 2766 2663 2505 2880 
Q 2244 3097 1772 3097 
Q 1472 3097 1187 3025 
Q 903 2953 641 2809 
L 641 3341 
Q 956 3463 1253 3523 
Q 1550 3584 1831 3584 
Q 2591 3584 2966 3190 
Q 3341 2797 3341 1997 
z
" transform="scale(0.015625)"/>
     <path id="DejaVuSans-67" d="M 2906 1791 
Q 2906 2416 2648 2759 
Q 2391 3103 1925 3103 
Q 1463 3103 1205 2759 
Q 947 2416 947 1791 
Q 947 1169 1205 825 
Q 1463 481 1925 481 
Q 2391 481 2648 825 
Q 2906 1169 2906 1791 
z
M 3481 434 
Q 3481 -459 3084 -895 
Q 2688 -1331 1869 -1331 
Q 1566 -1331 1297 -1286 
Q 1028 -1241 775 -1147 
L 775 -588 
Q 1028 -725 1275 -790 
Q 1522 -856 1778 -856 
Q 2344 -856 2625 -561 
Q 2906 -266 2906 331 
L 2906 616 
Q 2728 306 2450 153 
Q 2172 0 1784 0 
Q 1141 0 747 490 
Q 353 981 353 1791 
Q 353 2603 747 3093 
Q 1141 3584 1784 3584 
Q 2172 3584 2450 3431 
Q 2728 3278 2906 2969 
L 2906 3500 
L 3481 3500 
L 3481 434 
z
" transform="scale(0.015625)"/>
     <path id="DejaVuSans-62" d="M 3116 1747 
Q 3116 2381 2855 2742 
Q 2594 3103 2138 3103 
Q 1681 3103 1420 2742 
Q 1159 2381 1159 1747 
Q 1159 1113 1420 752 
Q 1681 391 2138 391 
Q 2594 391 2855 752 
Q 3116 1113 3116 1747 
z
M 1159 2969 
Q 1341 3281 1617 3432 
Q 1894 3584 2278 3584 
Q 2916 3584 3314 3078 
Q 3713 2572 3713 1747 
Q 3713 922 3314 415 
Q 2916 -91 2278 -91 
Q 1894 -91 1617 61 
Q 1341 213 1159 525 
L 1159 0 
L 581 0 
L 581 4863 
L 1159 4863 
L 1159 2969 
z
" transform="scale(0.015625)"/>
     <path id="DejaVuSans-64" d="M 2906 2969 
L 2906 4863 
L 3481 4863 
L 3481 0 
L 2906 0 
L 2906 525 
Q 2725 213 2448 61 
Q 2172 -91 1784 -91 
Q 1150 -91 751 415 
Q 353 922 353 1747 
Q 353 2572 751 3078 
Q 1150 3584 1784 3584 
Q 2172 3584 2448 3432 
Q 2725 3281 2906 2969 
z
M 947 1747 
Q 947 1113 1208 752 
Q 1469 391 1925 391 
Q 2381 391 2643 752 
Q 2906 1113 2906 1747 
Q 2906 2381 2643 2742 
Q 2381 3103 1925 3103 
Q 1469 3103 1208 2742 
Q 947 2381 947 1747 
z
" transform="scale(0.015625)"/>
     <path id="DejaVuSans-74" d="M 1172 4494 
L 1172 3500 
L 2356 3500 
L 2356 3053 
L 1172 3053 
L 1172 1153 
Q 1172 725 1289 603 
Q 1406 481 1766 481 
L 2356 481 
L 2356 0 
L 1766 0 
Q 1100 0 847 248 
Q 594 497 594 1153 
L 594 3053 
L 172 3053 
L 172 3500 
L 594 3500 
L 594 4494 
L 1172 4494 
z
" transform="scale(0.015625)"/>
    </defs>
    <use xlink:href="#DejaVuSans-53"/>
    <use xlink:href="#DejaVuSans-54" transform="translate(63.476562 0)"/>
    <use xlink:href="#DejaVuSans-4e" transform="translate(124.560547 0)"/>
    <use xlink:href="#DejaVuSans-20" transform="translate(199.365234 0)"/>
    <use xlink:href="#DejaVuSans-6e" transform="translate(231.152344 0)"/>
    <use xlink:href="#DejaVuSans-65" transform="translate(294.53125 0)"/>
    <use xlink:href="#DejaVuSans-75" transform="translate(356.054688 0)"/>
    <use xlink:href="#DejaVuSans-72" transform="translate(419.433594 0)"/>
    <use xlink:href="#DejaVuSans-6f" transform="translate(458.296875 0)"/>
    <use xlink:href="#DejaVuSans-6e" transform="translate(519.478516 0)"/>
    <use xlink:href="#DejaVuSans-2c" transform="translate(582.857422 0)"/>
    <use xlink:href="#DejaVuSans-20" transform="translate(614.644531 0)"/>
    <use xlink:href="#DejaVuSans-68" transform="translate(646.431641 0)"/>
    <use xlink:href="#DejaVuSans-79" transform="translate(709.810547 0)"/>
    <use xlink:href="#DejaVuSans-70" transform="translate(768.990234 0)"/>
    <use xlink:href="#DejaVuSans-65" transform="translate(832.466797 0)"/>
    <use xlink:href="#DejaVuSans-72" transform="translate(893.990234 0)"/>
    <use xlink:href="#DejaVuSans-70" transform="translate(935.103516 0)"/>
    <use xlink:href="#DejaVuSans-6f" transform="translate(998.580078 0)"/>
    <use xlink:href="#DejaVuSans-6c" transform="translate(1059.761719 0)"/>
    <use xlink:href="#DejaVuSans-61" transform="translate(1087.544922 0)"/>
    <use xlink:href="#DejaVuSans-72" transform="translate(1148.824219 0)"/>
    <use xlink:href="#DejaVuSans-69" transform="translate(1189.9375 0)"/>
    <use xlink:href="#DejaVuSans-73" transform="translate(1217.720703 0)"/>
    <use xlink:href="#DejaVuSans-69" transform="translate(1269.820312 0)"/>
    <use xlink:href="#DejaVuSans-6e" transform="translate(1297.603516 0)"/>
    <use xlink:href="#DejaVuSans-67" transform="translate(1360.982422 0)"/>
    <use xlink:href="#DejaVuSans-20" transform="translate(1424.458984 0)"/>
    <use xlink:href="#DejaVuSans-72" transform="translate(1456.246094 0)"/>
    <use xlink:href="#DejaVuSans-65" transform="translate(1495.109375 0)"/>
    <use xlink:href="#DejaVuSans-62" transform="translate(1556.632812 0)"/>
    <use xlink:href="#DejaVuSans-6f" transform="translate(1620.109375 0)"/>
    <use xlink:href="#DejaVuSans-75" transform="translate(1681.291016 0)"/>
    <use xlink:href="#DejaVuSans-6e" transform="translate(1744.669922 0)"/>
    <use xlink:href="#DejaVuSans-64" transform="translate(1808.048828 0)"/>
    <use xlink:href="#DejaVuSans-20" transform="translate(1871.525391 0)"/>
    <use xlink:href="#DejaVuSans-62" transform="translate(1903.3125 0)"/>
    <use xlink:href="#DejaVuSans-75" transform="translate(1966.789062 0)"/>
    <use xlink:href="#DejaVuSans-72" transform="translate(2030.167969 0)"/>
    <use xlink:href="#DejaVuSans-73" transform="translate(2071.28125 0)"/>
    <use xlink:href="#DejaVuSans-74" transform="translate(2123.380859 0)"/>
    <use xlink:href="#DejaVuSans-73" transform="translate(2162.589844 0)"/>
   </g>
  </g>
 </g>
 <defs>
  <clipPath id="pf725be8432">
   <rect x="54.104687" y="33.21375" width="655.095313" height="114.335728"/>
  </clipPath>
  <clipPath id="pef520c33b5">
   <rect x="54.104687" y="162.311841" width="655.095313" height="114.335728"/>
  </clipPath>
  <clipPath id="p976db6a878">
   <rect x="54.104687" y="291.409931" width="655.095313" height="114.335728"/>
  </clipPath>
  <clipPath id="p0bf89da41b">
   <rect x="54.104687" y="420.508022" width="655.095313" height="114.335728"/>
  </clipPath>
 </defs>
</svg>
