<?xml version="1.0" encoding="utf-8" standalone="no"?>
<!DOCTYPE svg PUBLIC "-//W3C//DTD SVG 1.1//EN"
  "http://www.w3.org/Graphics/SVG/1.1/DTD/svg11.dtd">
<svg xmlns:xlink="http://www.w3.org/1999/xlink" width="720pt" height="576pt" viewBox="0 0 720 576" xmlns="http://www.w3.org/2000/svg" version="1.1">
 <metadata>
  <rdf:RDF xmlns:dc="http://purl.org/dc/elements/1.1/" xmlns:cc="http://creativecommons.org/ns#" xmlns:rdf="http://www.w3.org/1999/02/22-rdf-syntax-ns#">
   <cc:Work>
    <dc:type rdf:resource="http://purl.org/dc/dcmitype/StillImage"/>
    <dc:date>1980-01-01T00:00:00+00:00</dc:date>
    <dc:format>image/svg+xml</dc:format>
    <dc:creator>
     <cc:Agent>
      <dc:title>Matplotlib v3.10.0, https://matplotlib.org/</dc:title>
     </cc:Agent>
    </dc:creator>
   </cc:Work>
  </rdf:RDF>
 </metadata>
 <defs>
  <style type="text/css">*{stroke-linejoin: round; stroke-linecap: butt}</style>
 </defs>
 <g id="figure_1">
  <g id="patch_1">
   <path d="M 0 576 
L 720 576 
L 720 0 
L 0 0 
z
" style="fill: #ffffff"/>
  </g>
  <g id="axes_1">
   <g id="patch_2">
    <path d="M 54.104687 147.549478 
L 709.2 147.549478 
L 709.2 33.21375 
L 54.104687 33.21375 
z
" style="fill: #ffffff"/>
   </g>
   <g id="matplotlib.axis_1">
    <g id="xtick_1">
     <g id="line2d_1">
      <path d="M 83.881747 147.549478 
L 83.881747 33.21375 
" clip-path="url(#p84c5576cd5)" style="fill: none; stroke: #b0b0b0; stroke-width: 0.8; stroke-linecap: square"/>
     </g>
     <g id="line2d_2">
      <defs>
       <path id="m17408e40cc" d="M 0 0 
L 0 3.5 
" style="stroke: #000000; stroke-width: 0.8"/>
      </defs>
      <g>
       <use xlink:href="#m17408e40cc" x="83.881747" y="147.549478" style="stroke: #000000; stroke-width: 0.8"/>
      </g>
     </g>
    </g>
    <g id="xtick_2">
     <g id="line2d_3">
      <path d="M 202.990224 147.549478 
L 202.990224 33.21375 
" clip-path="url(#p84c5576cd5)" style="fill: none; stroke: #b0b0b0; stroke-width: 0.8; stroke-linecap: square"/>
     </g>
     <g id="line2d_4">
      <g>
       <use xlink:href="#m17408e40cc" x="202.990224" y="147.549478" style="stroke: #000000; stroke-width: 0.8"/>
      </g>
     </g>
    </g>
    <g id="xtick_3">
     <g id="line2d_5">
      <path d="M 322.098701 147.549478 
L 322.098701 33.21375 
" clip-path="url(#p84c5576cd5)" style="fill: none; stroke: #b0b0b0; stroke-width: 0.8; stroke-linecap: square"/>
     </g>
     <g id="line2d_6">
      <g>
       <use xlink:href="#m17408e40cc" x="322.098701" y="147.549478" style="stroke: #000000; stroke-width: 0.8"/>
      </g>
     </g>
    </g>
    <g id="xtick_4">
     <g id="line2d_7">
      <path d="M 441.207178 147.549478 
L 441.207178 33.21375 
" clip-path="url(#p84c5576cd5)" style="fill: none; stroke: #b0b0b0; stroke-width: 0.8; stroke-linecap: square"/>
     </g>
     <g id="line2d_8">
      <g>
       <use xlink:href="#m17408e40cc" x="441.207178" y="147.549478" style="stroke: #000000; stroke-width: 0.8"/>
      </g>
     </g>
    </g>
    <g id="xtick_5">
     <g id="line2d_9">
      <path d="M 560.315655 147.549478 
L 560.315655 33.21375 
" clip-path="url(#p84c5576cd5)" style="fill: none; stroke: #b0b0b0; stroke-width: 0.8; stroke-linecap: square"/>
     </g>
     <g id="line2d_10">
      <g>
       <use xlink:href="#m17408e40cc" x="560.315655" y="147.549478" style="stroke: #000000; stroke-width: 0.8"/>
      </g>
     </g>
    </g>
    <g id="xtick_6">
     <g id="line2d_11">
      <path d="M 679.424131 147.549478 
L 679.424131 33.21375 
" clip-path="url(#p84c5576cd5)" style="fill: none; stroke: #b0b0b0; stroke-width: 0.8; stroke-linecap: square"/>
     </g>
     <g id="line2d_12">
      <g>
       <use xlink:href="#m17408e40cc" x="679.424131" y="147.549478" style="stroke: #000000; stroke-width: 0.8"/>
      </g>
     </g>
    </g>
   </g>
   <g id="matplotlib.axis_2">
    <g id="ytick_1">
     <g id="line2d_13">
      <path d="M 54.104687 38.410829 
L 709.2 38.410829 
" clip-path="url(#p84c5576cd5)" style="fill: none; stroke: #b0b0b0; stroke-width: 0.8; stroke-linecap: square"/>
     </g>
     <g id="line2d_14">
      <defs>
       <path id="m17df62aa79" d="M 0 0 
L -3.5 0 
" style="stroke: #000000; stroke-width: 0.8"/>
      </defs>
      <g>
       <use xlink:href="#m17df62aa79" x="54.104687" y="38.410829" style="stroke: #000000; stroke-width: 0.8"/>
      </g>
     </g>
     <g id="text_1">
      <!-- 0 -->
      <g transform="translate(40.742188 42.210047) scale(0.1 -0.1)">
       <defs>
        <path id="DejaVuSans-30" d="M 2034 4250 
Q 1547 4250 1301 3770 
Q 1056 3291 1056 2328 
Q 1056 1369 1301 889 
Q 1547 409 2034 409 
Q 2525 409 2770 889 
Q 3016 1369 3016 2328 
Q 3016 3291 2770 3770 
Q 2525 4250 2034 4250 
z
M 2034 4750 
Q 2819 4750 3233 4129 
Q 3647 3509 3647 2328 
Q 3647 1150 3233 529 
Q 2819 -91 2034 -91 
Q 1250 -91 836 529 
Q 422 1150 422 2328 
Q 422 3509 836 4129 
Q 1250 4750 2034 4750 
z
" transform="scale(0.015625)"/>
       </defs>
       <use xlink:href="#DejaVuSans-30"/>
      </g>
     </g>
    </g>
    <g id="ytick_2">
     <g id="line2d_15">
      <path d="M 54.104687 142.3524 
L 709.2 142.3524 
" clip-path="url(#p84c5576cd5)" style="fill: none; stroke: #b0b0b0; stroke-width: 0.8; stroke-linecap: square"/>
     </g>
     <g id="line2d_16">
      <g>
       <use xlink:href="#m17df62aa79" x="54.104687" y="142.3524" style="stroke: #000000; stroke-width: 0.8"/>
      </g>
     </g>
     <g id="text_2">
      <!-- −25 -->
      <g transform="translate(26 146.151618) scale(0.1 -0.1)">
       <defs>
        <path id="DejaVuSans-2212" d="M 678 2272 
L 4684 2272 
L 4684 1741 
L 678 1741 
L 678 2272 
z
" transform="scale(0.015625)"/>
        <path id="DejaVuSans-32" d="M 1228 531 
L 3431 531 
L 3431 0 
L 469 0 
L 469 531 
Q 828 903 1448 1529 
Q 2069 2156 2228 2338 
Q 2531 2678 2651 2914 
Q 2772 3150 2772 3378 
Q 2772 3750 2511 3984 
Q 2250 4219 1831 4219 
Q 1534 4219 1204 4116 
Q 875 4013 500 3803 
L 500 4441 
Q 881 4594 1212 4672 
Q 1544 4750 1819 4750 
Q 2544 4750 2975 4387 
Q 3406 4025 3406 3419 
Q 3406 3131 3298 2873 
Q 3191 2616 2906 2266 
Q 2828 2175 2409 1742 
Q 1991 1309 1228 531 
z
" transform="scale(0.015625)"/>
        <path id="DejaVuSans-35" d="M 691 4666 
L 3169 4666 
L 3169 4134 
L 1269 4134 
L 1269 2991 
Q 1406 3038 1543 3061 
Q 1681 3084 1819 3084 
Q 2600 3084 3056 2656 
Q 3513 2228 3513 1497 
Q 3513 744 3044 326 
Q 2575 -91 1722 -91 
Q 1428 -91 1123 -41 
Q 819 9 494 109 
L 494 744 
Q 775 591 1075 516 
Q 1375 441 1709 441 
Q 2250 441 2565 725 
Q 2881 1009 2881 1497 
Q 2881 1984 2565 2268 
Q 2250 2553 1709 2553 
Q 1456 2553 1204 2497 
Q 953 2441 691 2322 
L 691 4666 
z
" transform="scale(0.015625)"/>
       </defs>
       <use xlink:href="#DejaVuSans-2212"/>
       <use xlink:href="#DejaVuSans-32" transform="translate(83.789062 0)"/>
       <use xlink:href="#DejaVuSans-35" transform="translate(147.412109 0)"/>
      </g>
     </g>
    </g>
    <g id="text_3">
     <!-- $pA/\mu m^2$ -->
     <g transform="translate(19.9 109.331614) rotate(-90) scale(0.1 -0.1)">
      <defs>
       <path id="DejaVuSans-Oblique-70" d="M 3175 2156 
Q 3175 2616 2975 2859 
Q 2775 3103 2400 3103 
Q 2144 3103 1911 2972 
Q 1678 2841 1497 2591 
Q 1319 2344 1212 1994 
Q 1106 1644 1106 1300 
Q 1106 863 1306 627 
Q 1506 391 1875 391 
Q 2147 391 2380 519 
Q 2613 647 2778 891 
Q 2956 1147 3065 1494 
Q 3175 1841 3175 2156 
z
M 1394 2969 
Q 1625 3272 1939 3428 
Q 2253 3584 2638 3584 
Q 3175 3584 3472 3232 
Q 3769 2881 3769 2247 
Q 3769 1728 3584 1258 
Q 3400 788 3053 416 
Q 2822 169 2531 39 
Q 2241 -91 1919 -91 
Q 1547 -91 1294 64 
Q 1041 219 916 525 
L 556 -1331 
L -19 -1331 
L 922 3500 
L 1497 3500 
L 1394 2969 
z
" transform="scale(0.015625)"/>
       <path id="DejaVuSans-Oblique-41" d="M 2356 4666 
L 3072 4666 
L 3938 0 
L 3278 0 
L 3084 1197 
L 984 1197 
L 325 0 
L -341 0 
L 2356 4666 
z
M 2584 4044 
L 1275 1722 
L 2988 1722 
L 2584 4044 
z
" transform="scale(0.015625)"/>
       <path id="DejaVuSans-2f" d="M 1625 4666 
L 2156 4666 
L 531 -594 
L 0 -594 
L 1625 4666 
z
" transform="scale(0.015625)"/>
       <path id="DejaVuSans-Oblique-3bc" d="M -84 -1331 
L 856 3500 
L 1434 3500 
L 1009 1322 
Q 997 1256 987 1175 
Q 978 1094 978 1013 
Q 978 722 1161 565 
Q 1344 409 1684 409 
Q 2147 409 2431 671 
Q 2716 934 2816 1459 
L 3213 3500 
L 3788 3500 
L 3266 809 
Q 3253 750 3248 706 
Q 3244 663 3244 628 
Q 3244 531 3283 486 
Q 3322 441 3406 441 
Q 3438 441 3492 456 
Q 3547 472 3647 513 
L 3559 50 
Q 3422 -19 3297 -55 
Q 3172 -91 3053 -91 
Q 2847 -91 2730 40 
Q 2613 172 2613 403 
Q 2438 153 2195 31 
Q 1953 -91 1625 -91 
Q 1334 -91 1117 43 
Q 900 178 831 397 
L 494 -1331 
L -84 -1331 
z
" transform="scale(0.015625)"/>
       <path id="DejaVuSans-Oblique-6d" d="M 5747 2113 
L 5338 0 
L 4763 0 
L 5166 2094 
Q 5191 2228 5203 2325 
Q 5216 2422 5216 2491 
Q 5216 2772 5059 2928 
Q 4903 3084 4622 3084 
Q 4203 3084 3875 2770 
Q 3547 2456 3450 1953 
L 3066 0 
L 2491 0 
L 2900 2094 
Q 2925 2209 2937 2307 
Q 2950 2406 2950 2484 
Q 2950 2769 2794 2926 
Q 2638 3084 2363 3084 
Q 1938 3084 1609 2770 
Q 1281 2456 1184 1953 
L 800 0 
L 225 0 
L 909 3500 
L 1484 3500 
L 1375 2956 
Q 1609 3263 1923 3423 
Q 2238 3584 2597 3584 
Q 2978 3584 3223 3384 
Q 3469 3184 3519 2828 
Q 3781 3197 4126 3390 
Q 4472 3584 4856 3584 
Q 5306 3584 5551 3325 
Q 5797 3066 5797 2591 
Q 5797 2488 5784 2364 
Q 5772 2241 5747 2113 
z
" transform="scale(0.015625)"/>
      </defs>
      <use xlink:href="#DejaVuSans-Oblique-70" transform="translate(0 0.765625)"/>
      <use xlink:href="#DejaVuSans-Oblique-41" transform="translate(63.476562 0.765625)"/>
      <use xlink:href="#DejaVuSans-2f" transform="translate(131.884766 0.765625)"/>
      <use xlink:href="#DejaVuSans-Oblique-3bc" transform="translate(165.576172 0.765625)"/>
      <use xlink:href="#DejaVuSans-Oblique-6d" transform="translate(229.199219 0.765625)"/>
      <use xlink:href="#DejaVuSans-32" transform="translate(331.261224 39.046875) scale(0.7)"/>
     </g>
    </g>
   </g>
   <g id="line2d_17">
    <path d="M 83.881747 38.410829 
L 202.989033 38.410829 
L 203.100995 142.3524 
L 238.722767 142.3524 
L 238.834729 38.410829 
L 679.42294 38.410829 
L 679.42294 38.410829 
" clip-path="url(#p84c5576cd5)" style="fill: none; stroke: #000000; stroke-opacity: 0.6; stroke-width: 1.5; stroke-linecap: square"/>
   </g>
   <g id="line2d_18">
    <path d="M 83.881747 38.410829 
L 202.989033 38.410829 
L 203.100995 142.3524 
L 256.589039 142.3524 
L 256.701001 38.410829 
L 679.42294 38.410829 
L 679.42294 38.410829 
" clip-path="url(#p84c5576cd5)" style="fill: none; stroke: #000000; stroke-opacity: 0.8; stroke-width: 1.5; stroke-linecap: square"/>
   </g>
   <g id="line2d_19">
    <path d="M 83.881747 38.410829 
L 202.989033 38.410829 
L 203.100995 142.3524 
L 274.45531 142.3524 
L 274.567272 38.410829 
L 679.42294 38.410829 
L 679.42294 38.410829 
" clip-path="url(#p84c5576cd5)" style="fill: none; stroke: #000000; stroke-width: 1.5; stroke-linecap: square"/>
   </g>
   <g id="patch_3">
    <path d="M 54.104687 147.549478 
L 54.104687 33.21375 
" style="fill: none; stroke: #000000; stroke-width: 0.8; stroke-linejoin: miter; stroke-linecap: square"/>
   </g>
   <g id="patch_4">
    <path d="M 709.2 147.549478 
L 709.2 33.21375 
" style="fill: none; stroke: #000000; stroke-width: 0.8; stroke-linejoin: miter; stroke-linecap: square"/>
   </g>
   <g id="patch_5">
    <path d="M 54.104688 147.549478 
L 709.2 147.549478 
" style="fill: none; stroke: #000000; stroke-width: 0.8; stroke-linejoin: miter; stroke-linecap: square"/>
   </g>
   <g id="patch_6">
    <path d="M 54.104688 33.21375 
L 709.2 33.21375 
" style="fill: none; stroke: #000000; stroke-width: 0.8; stroke-linejoin: miter; stroke-linecap: square"/>
   </g>
  </g>
  <g id="axes_2">
   <g id="patch_7">
    <path d="M 54.104687 276.647569 
L 709.2 276.647569 
L 709.2 162.311841 
L 54.104687 162.311841 
z
" style="fill: #ffffff"/>
   </g>
   <g id="matplotlib.axis_3">
    <g id="xtick_7">
     <g id="line2d_20">
      <path d="M 83.881747 276.647569 
L 83.881747 162.311841 
" clip-path="url(#p7027077a87)" style="fill: none; stroke: #b0b0b0; stroke-width: 0.8; stroke-linecap: square"/>
     </g>
     <g id="line2d_21">
      <g>
       <use xlink:href="#m17408e40cc" x="83.881747" y="276.647569" style="stroke: #000000; stroke-width: 0.8"/>
      </g>
     </g>
    </g>
    <g id="xtick_8">
     <g id="line2d_22">
      <path d="M 202.990224 276.647569 
L 202.990224 162.311841 
" clip-path="url(#p7027077a87)" style="fill: none; stroke: #b0b0b0; stroke-width: 0.8; stroke-linecap: square"/>
     </g>
     <g id="line2d_23">
      <g>
       <use xlink:href="#m17408e40cc" x="202.990224" y="276.647569" style="stroke: #000000; stroke-width: 0.8"/>
      </g>
     </g>
    </g>
    <g id="xtick_9">
     <g id="line2d_24">
      <path d="M 322.098701 276.647569 
L 322.098701 162.311841 
" clip-path="url(#p7027077a87)" style="fill: none; stroke: #b0b0b0; stroke-width: 0.8; stroke-linecap: square"/>
     </g>
     <g id="line2d_25">
      <g>
       <use xlink:href="#m17408e40cc" x="322.098701" y="276.647569" style="stroke: #000000; stroke-width: 0.8"/>
      </g>
     </g>
    </g>
    <g id="xtick_10">
     <g id="line2d_26">
      <path d="M 441.207178 276.647569 
L 441.207178 162.311841 
" clip-path="url(#p7027077a87)" style="fill: none; stroke: #b0b0b0; stroke-width: 0.8; stroke-linecap: square"/>
     </g>
     <g id="line2d_27">
      <g>
       <use xlink:href="#m17408e40cc" x="441.207178" y="276.647569" style="stroke: #000000; stroke-width: 0.8"/>
      </g>
     </g>
    </g>
    <g id="xtick_11">
     <g id="line2d_28">
      <path d="M 560.315655 276.647569 
L 560.315655 162.311841 
" clip-path="url(#p7027077a87)" style="fill: none; stroke: #b0b0b0; stroke-width: 0.8; stroke-linecap: square"/>
     </g>
     <g id="line2d_29">
      <g>
       <use xlink:href="#m17408e40cc" x="560.315655" y="276.647569" style="stroke: #000000; stroke-width: 0.8"/>
      </g>
     </g>
    </g>
    <g id="xtick_12">
     <g id="line2d_30">
      <path d="M 679.424131 276.647569 
L 679.424131 162.311841 
" clip-path="url(#p7027077a87)" style="fill: none; stroke: #b0b0b0; stroke-width: 0.8; stroke-linecap: square"/>
     </g>
     <g id="line2d_31">
      <g>
       <use xlink:href="#m17408e40cc" x="679.424131" y="276.647569" style="stroke: #000000; stroke-width: 0.8"/>
      </g>
     </g>
    </g>
   </g>
   <g id="matplotlib.axis_4">
    <g id="ytick_3">
     <g id="line2d_32">
      <path d="M 54.104687 252.48404 
L 709.2 252.48404 
" clip-path="url(#p7027077a87)" style="fill: none; stroke: #b0b0b0; stroke-width: 0.8; stroke-linecap: square"/>
     </g>
     <g id="line2d_33">
      <g>
       <use xlink:href="#m17df62aa79" x="54.104687" y="252.48404" style="stroke: #000000; stroke-width: 0.8"/>
      </g>
     </g>
     <g id="text_4">
      <!-- −50 -->
      <g transform="translate(26 256.283258) scale(0.1 -0.1)">
       <use xlink:href="#DejaVuSans-2212"/>
       <use xlink:href="#DejaVuSans-35" transform="translate(83.789062 0)"/>
       <use xlink:href="#DejaVuSans-30" transform="translate(147.412109 0)"/>
      </g>
     </g>
    </g>
    <g id="ytick_4">
     <g id="line2d_34">
      <path d="M 54.104687 209.376431 
L 709.2 209.376431 
" clip-path="url(#p7027077a87)" style="fill: none; stroke: #b0b0b0; stroke-width: 0.8; stroke-linecap: square"/>
     </g>
     <g id="line2d_35">
      <g>
       <use xlink:href="#m17df62aa79" x="54.104687" y="209.376431" style="stroke: #000000; stroke-width: 0.8"/>
      </g>
     </g>
     <g id="text_5">
      <!-- 0 -->
      <g transform="translate(40.742188 213.17565) scale(0.1 -0.1)">
       <use xlink:href="#DejaVuSans-30"/>
      </g>
     </g>
    </g>
    <g id="ytick_5">
     <g id="line2d_36">
      <path d="M 54.104687 166.268823 
L 709.2 166.268823 
" clip-path="url(#p7027077a87)" style="fill: none; stroke: #b0b0b0; stroke-width: 0.8; stroke-linecap: square"/>
     </g>
     <g id="line2d_37">
      <g>
       <use xlink:href="#m17df62aa79" x="54.104687" y="166.268823" style="stroke: #000000; stroke-width: 0.8"/>
      </g>
     </g>
     <g id="text_6">
      <!-- 50 -->
      <g transform="translate(34.379687 170.068042) scale(0.1 -0.1)">
       <use xlink:href="#DejaVuSans-35"/>
       <use xlink:href="#DejaVuSans-30" transform="translate(63.623047 0)"/>
      </g>
     </g>
    </g>
    <g id="text_7">
     <!-- mV -->
     <g transform="translate(19.920312 227.77033) rotate(-90) scale(0.1 -0.1)">
      <defs>
       <path id="DejaVuSans-6d" d="M 3328 2828 
Q 3544 3216 3844 3400 
Q 4144 3584 4550 3584 
Q 5097 3584 5394 3201 
Q 5691 2819 5691 2113 
L 5691 0 
L 5113 0 
L 5113 2094 
Q 5113 2597 4934 2840 
Q 4756 3084 4391 3084 
Q 3944 3084 3684 2787 
Q 3425 2491 3425 1978 
L 3425 0 
L 2847 0 
L 2847 2094 
Q 2847 2600 2669 2842 
Q 2491 3084 2119 3084 
Q 1678 3084 1418 2786 
Q 1159 2488 1159 1978 
L 1159 0 
L 581 0 
L 581 3500 
L 1159 3500 
L 1159 2956 
Q 1356 3278 1631 3431 
Q 1906 3584 2284 3584 
Q 2666 3584 2933 3390 
Q 3200 3197 3328 2828 
z
" transform="scale(0.015625)"/>
       <path id="DejaVuSans-56" d="M 1831 0 
L 50 4666 
L 709 4666 
L 2188 738 
L 3669 4666 
L 4325 4666 
L 2547 0 
L 1831 0 
z
" transform="scale(0.015625)"/>
      </defs>
      <use xlink:href="#DejaVuSans-6d"/>
      <use xlink:href="#DejaVuSans-56" transform="translate(97.412109 0)"/>
     </g>
    </g>
   </g>
   <g id="line2d_38">
    <path d="M 83.881747 261.105561 
L 84.080658 245.229248 
L 84.111627 167.508919 
L 84.279569 188.886932 
L 84.396296 248.367753 
L 84.52136 271.45049 
L 84.529697 271.447361 
L 84.640468 271.217873 
L 88.04578 263.396584 
L 88.879539 262.297311 
L 89.713298 261.557249 
L 90.632816 261.039402 
L 91.771493 260.663411 
L 93.41519 260.374825 
L 96.562036 260.088967 
L 114.5629 258.667531 
L 119.740545 258.007705 
L 122.658703 257.431652 
L 124.233317 256.914917 
L 125.064694 256.426666 
L 125.518497 255.91223 
L 125.791256 255.253071 
L 125.967536 254.173284 
L 126.078307 251.837028 
L 126.135479 244.557072 
L 126.15811 190.323952 
L 126.178358 170.301623 
L 126.271263 179.286225 
L 126.411811 223.410597 
L 126.584518 270.26655 
L 126.600002 270.256932 
L 126.754843 269.899747 
L 128.963115 264.614118 
L 129.850473 263.129013 
L 130.672321 262.169595 
L 131.520374 261.515364 
L 132.489917 261.052337 
L 133.742938 260.713277 
L 135.67845 260.44427 
L 140.074744 260.115079 
L 154.802508 259.04378 
L 161.617895 258.329648 
L 165.540137 257.714521 
L 167.704338 257.170481 
L 168.853735 256.672468 
L 169.464761 256.181278 
L 169.813749 255.615962 
L 170.032908 254.801892 
L 170.174648 253.284194 
L 170.258023 249.412014 
L 170.293756 233.173665 
L 170.323533 170.303949 
L 170.428349 181.457209 
L 170.568897 231.268242 
L 170.730884 270.264845 
L 170.799967 270.147697 
L 173.678819 263.601549 
L 174.512578 262.481413 
L 175.341573 261.730189 
L 176.252753 261.205393 
L 177.372373 260.826635 
L 178.974382 260.538715 
L 181.96996 260.265061 
L 202.990224 258.648937 
L 202.991415 258.864348 
L 203.164122 270.008282 
L 203.327301 270.52463 
L 203.632219 270.550584 
L 218.440976 270.414194 
L 229.932561 270.040364 
L 238.723958 269.780742 
L 238.856169 227.076652 
L 238.882372 168.723351 
L 238.97885 176.241502 
L 239.124163 215.786042 
L 239.331411 270.602468 
L 239.367144 270.556561 
L 239.742336 269.505778 
L 240.64756 266.468728 
L 241.299083 263.52643 
L 241.699288 260.682759 
L 241.948225 257.207025 
L 242.114976 251.334629 
L 242.200735 239.317625 
L 242.266244 192.091319 
L 242.366295 216.390823 
L 242.635481 268.44963 
L 242.668831 268.42384 
L 242.697417 268.359838 
L 243.144074 266.892083 
L 243.944483 263.670566 
L 244.456649 260.699041 
L 244.784197 257.435988 
L 245.005739 252.79357 
L 245.128421 245.172303 
L 245.179638 221.799405 
L 245.223708 193.090266 
L 245.301128 209.199357 
L 245.613192 267.900489 
L 245.614384 267.900425 
L 245.682275 267.777371 
L 246.240894 265.925974 
L 247.148501 262.313297 
L 247.749999 259.020098 
L 248.143057 255.605784 
L 248.376509 251.558727 
L 248.488471 245.255865 
L 248.537306 224.447389 
L 248.583758 190.434839 
L 248.663561 206.729294 
L 248.975625 267.829348 
L 248.988727 267.822238 
L 249.100689 267.550699 
L 250.327506 263.558091 
L 252.963377 254.119591 
L 253.207549 252.207682 
L 253.343333 249.144647 
L 253.413607 241.248257 
L 253.460059 190.882879 
L 253.48269 184.570288 
L 253.56011 198.801303 
L 253.880512 267.953231 
L 253.935302 267.874162 
L 254.464143 266.385348 
L 256.054242 262.1756 
L 256.879663 260.5943 
L 257.572875 259.716849 
L 258.233927 259.224477 
L 258.945004 258.972161 
L 259.837127 258.904156 
L 261.291441 259.04818 
L 266.328539 259.651278 
L 270.079265 259.811015 
L 275.084203 259.788208 
L 282.022272 259.521702 
L 290.313413 258.981878 
L 296.891774 258.348172 
L 300.844984 257.764254 
L 302.987746 257.244428 
L 304.09069 256.769287 
L 304.663602 256.296505 
L 304.988768 255.739998 
L 305.194826 254.907668 
L 305.328227 253.295531 
L 305.405648 248.98055 
L 305.436616 230.963009 
L 305.464011 169.92102 
L 305.565253 179.999779 
L 305.705801 226.67312 
L 305.870171 270.498434 
L 305.8797 270.494192 
L 305.995235 270.248233 
L 308.396462 264.64171 
L 309.2731 263.251035 
L 310.097331 262.345073 
L 310.957294 261.726091 
L 311.953041 261.288609 
L 313.263234 260.969835 
L 315.348823 260.717503 
L 320.509794 260.383479 
L 336.834802 259.331202 
L 345.15572 258.581683 
L 349.947454 257.946269 
L 352.582133 257.393373 
L 353.964983 256.897157 
L 354.680825 256.422487 
L 355.075074 255.900363 
L 355.315673 255.191712 
L 355.472896 253.939511 
L 355.569374 250.973494 
L 355.614635 240.506701 
L 355.649177 170.024423 
L 355.782578 187.195928 
L 355.912406 245.355368 
L 356.050572 270.430057 
L 356.10298 270.364135 
L 356.114891 270.337801 
L 357.291683 267.382739 
L 358.498251 264.708894 
L 359.383227 263.263454 
L 360.207458 262.32691 
L 361.061466 261.688188 
L 362.041729 261.237145 
L 363.31738 260.908046 
L 365.311256 260.648325 
L 369.966016 260.326175 
L 386.398221 259.22288 
L 394.121215 258.486887 
L 398.558005 257.860191 
L 400.996156 257.31203 
L 402.278954 256.816848 
L 402.949535 256.337291 
L 403.323536 255.801191 
L 403.554606 255.057007 
L 403.704683 253.726363 
L 403.796396 250.475462 
L 403.838084 238.357004 
L 403.870243 170.110223 
L 403.991734 184.479867 
L 404.127518 239.881005 
L 404.271639 270.378474 
L 404.307372 270.347508 
L 404.335958 270.288184 
L 405.462724 267.445383 
L 406.689541 264.699172 
L 407.575708 263.235451 
L 408.398748 262.288045 
L 409.250373 261.641485 
L 410.224681 261.185097 
L 411.488422 260.851658 
L 413.450138 260.588653 
L 417.951248 260.26766 
L 434.014217 259.161974 
L 441.416809 258.433744 
L 445.670172 257.811356 
L 448.009463 257.265028 
L 449.243427 256.769386 
L 449.892568 256.285779 
L 450.25704 255.740179 
L 450.483346 254.974115 
L 450.63104 253.572457 
L 450.719181 250.136763 
L 450.758486 237.140912 
L 450.790646 170.169135 
L 450.906181 183.470161 
L 451.043156 236.671133 
L 451.192041 270.343492 
L 451.239685 270.287788 
L 451.25636 270.251272 
L 452.40933 267.335503 
L 453.618281 264.634814 
L 454.502066 263.179032 
L 455.325105 262.235114 
L 456.176731 261.591376 
L 457.153421 261.136076 
L 458.421926 260.803046 
L 460.397936 260.538929 
L 464.982421 260.209932 
L 480.361707 259.133361 
L 487.616605 258.408295 
L 491.788975 257.787218 
L 494.086577 257.240974 
L 495.301484 256.74419 
L 495.942287 256.258455 
L 496.303186 255.709132 
L 496.528301 254.933023 
L 496.674804 253.51056 
L 496.761753 250.030069 
L 496.801059 236.006883 
L 496.832027 170.210327 
L 496.943989 182.68721 
L 497.082155 234.437518 
L 497.235805 270.319687 
L 497.300124 270.222577 
L 498.560291 267.03647 
L 499.718026 264.4922 
L 500.593473 263.078831 
L 501.415322 262.158078 
L 502.271712 261.527966 
L 503.260312 261.081456 
L 504.556212 260.753679 
L 506.606069 260.490358 
L 511.601479 260.137869 
L 525.895687 259.12323 
L 533.096985 258.39887 
L 537.243152 257.777694 
L 539.530034 257.230735 
L 540.741367 256.732978 
L 541.382171 256.245447 
L 541.74307 255.694617 
L 541.968185 254.917324 
L 542.114688 253.494888 
L 542.201637 250.024734 
L 542.240943 236.252324 
L 542.271911 170.240736 
L 542.385064 182.9408 
L 542.52323 235.343323 
L 542.675689 270.302335 
L 542.740008 270.206079 
L 543.97278 267.083262 
L 545.141235 264.501385 
L 546.019064 263.075538 
L 546.840913 262.148657 
L 547.696111 261.514669 
L 548.68233 261.065332 
L 549.972274 260.735611 
L 552.005456 260.47107 
L 556.911534 260.12089 
L 571.131895 259.103379 
L 578.234334 258.381482 
L 582.324519 257.761594 
L 584.580433 257.215396 
L 585.777474 256.717259 
L 586.411131 256.22905 
L 586.769647 255.67466 
L 586.993571 254.889033 
L 587.138884 253.44925 
L 587.225833 249.833363 
L 587.263947 235.32604 
L 587.294916 170.259715 
L 587.404495 182.351741 
L 587.543852 233.935603 
L 587.698693 270.290364 
L 587.763012 270.192759 
L 589.029135 266.985008 
L 590.180914 264.452727 
L 591.056361 263.039303 
L 591.87821 262.119062 
L 592.7346 261.489451 
L 593.724391 261.042781 
L 595.022674 260.714568 
L 597.079677 260.449914 
L 602.126303 260.090762 
L 615.973855 259.092589 
L 623.023885 258.371776 
L 627.083102 257.75263 
L 629.323533 257.206597 
L 630.513426 256.708175 
L 631.144701 256.218484 
L 631.502027 255.661606 
L 631.72476 254.873618 
L 631.870072 253.416618 
L 631.95583 249.814563 
L 631.993945 235.199238 
L 632.024913 170.274298 
L 632.134493 182.387496 
L 632.27385 234.031185 
L 632.428691 270.281766 
L 632.493009 270.184149 
L 633.755559 266.983119 
L 634.908529 264.445768 
L 635.783977 263.031015 
L 636.605825 262.109859 
L 637.462215 261.47959 
L 638.452006 261.032411 
L 639.750289 260.703748 
L 641.806101 260.438688 
L 646.850345 260.078465 
L 660.595463 259.083304 
L 667.599042 258.363721 
L 671.633246 257.745083 
L 673.860574 257.199089 
L 675.043322 256.70069 
L 675.671023 256.211085 
L 676.027158 255.653357 
L 676.249891 254.860415 
L 676.394012 253.408078 
L 676.47977 249.796451 
L 676.517885 235.032556 
L 676.548853 170.284694 
L 676.657242 182.1782 
L 676.796598 233.182452 
L 676.953822 270.275972 
L 677.019331 270.172402 
L 679.42294 264.455563 
L 679.42294 264.455563 
" clip-path="url(#p7027077a87)" style="fill: none; stroke: #000000; stroke-opacity: 0.6; stroke-linecap: square"/>
   </g>
   <g id="patch_8">
    <path d="M 54.104687 276.647569 
L 54.104687 162.311841 
" style="fill: none; stroke: #000000; stroke-width: 0.8; stroke-linejoin: miter; stroke-linecap: square"/>
   </g>
   <g id="patch_9">
    <path d="M 709.2 276.647569 
L 709.2 162.311841 
" style="fill: none; stroke: #000000; stroke-width: 0.8; stroke-linejoin: miter; stroke-linecap: square"/>
   </g>
   <g id="patch_10">
    <path d="M 54.104688 276.647569 
L 709.2 276.647569 
" style="fill: none; stroke: #000000; stroke-width: 0.8; stroke-linejoin: miter; stroke-linecap: square"/>
   </g>
   <g id="patch_11">
    <path d="M 54.104688 162.311841 
L 709.2 162.311841 
" style="fill: none; stroke: #000000; stroke-width: 0.8; stroke-linejoin: miter; stroke-linecap: square"/>
   </g>
  </g>
  <g id="axes_3">
   <g id="patch_12">
    <path d="M 54.104687 405.745659 
L 709.2 405.745659 
L 709.2 291.409931 
L 54.104687 291.409931 
z
" style="fill: #ffffff"/>
   </g>
   <g id="matplotlib.axis_5">
    <g id="xtick_13">
     <g id="line2d_39">
      <path d="M 83.881747 405.745659 
L 83.881747 291.409931 
" clip-path="url(#pc075ced795)" style="fill: none; stroke: #b0b0b0; stroke-width: 0.8; stroke-linecap: square"/>
     </g>
     <g id="line2d_40">
      <g>
       <use xlink:href="#m17408e40cc" x="83.881747" y="405.745659" style="stroke: #000000; stroke-width: 0.8"/>
      </g>
     </g>
    </g>
    <g id="xtick_14">
     <g id="line2d_41">
      <path d="M 202.990224 405.745659 
L 202.990224 291.409931 
" clip-path="url(#pc075ced795)" style="fill: none; stroke: #b0b0b0; stroke-width: 0.8; stroke-linecap: square"/>
     </g>
     <g id="line2d_42">
      <g>
       <use xlink:href="#m17408e40cc" x="202.990224" y="405.745659" style="stroke: #000000; stroke-width: 0.8"/>
      </g>
     </g>
    </g>
    <g id="xtick_15">
     <g id="line2d_43">
      <path d="M 322.098701 405.745659 
L 322.098701 291.409931 
" clip-path="url(#pc075ced795)" style="fill: none; stroke: #b0b0b0; stroke-width: 0.8; stroke-linecap: square"/>
     </g>
     <g id="line2d_44">
      <g>
       <use xlink:href="#m17408e40cc" x="322.098701" y="405.745659" style="stroke: #000000; stroke-width: 0.8"/>
      </g>
     </g>
    </g>
    <g id="xtick_16">
     <g id="line2d_45">
      <path d="M 441.207178 405.745659 
L 441.207178 291.409931 
" clip-path="url(#pc075ced795)" style="fill: none; stroke: #b0b0b0; stroke-width: 0.8; stroke-linecap: square"/>
     </g>
     <g id="line2d_46">
      <g>
       <use xlink:href="#m17408e40cc" x="441.207178" y="405.745659" style="stroke: #000000; stroke-width: 0.8"/>
      </g>
     </g>
    </g>
    <g id="xtick_17">
     <g id="line2d_47">
      <path d="M 560.315655 405.745659 
L 560.315655 291.409931 
" clip-path="url(#pc075ced795)" style="fill: none; stroke: #b0b0b0; stroke-width: 0.8; stroke-linecap: square"/>
     </g>
     <g id="line2d_48">
      <g>
       <use xlink:href="#m17408e40cc" x="560.315655" y="405.745659" style="stroke: #000000; stroke-width: 0.8"/>
      </g>
     </g>
    </g>
    <g id="xtick_18">
     <g id="line2d_49">
      <path d="M 679.424131 405.745659 
L 679.424131 291.409931 
" clip-path="url(#pc075ced795)" style="fill: none; stroke: #b0b0b0; stroke-width: 0.8; stroke-linecap: square"/>
     </g>
     <g id="line2d_50">
      <g>
       <use xlink:href="#m17408e40cc" x="679.424131" y="405.745659" style="stroke: #000000; stroke-width: 0.8"/>
      </g>
     </g>
    </g>
   </g>
   <g id="matplotlib.axis_6">
    <g id="ytick_6">
     <g id="line2d_51">
      <path d="M 54.104687 381.58213 
L 709.2 381.58213 
" clip-path="url(#pc075ced795)" style="fill: none; stroke: #b0b0b0; stroke-width: 0.8; stroke-linecap: square"/>
     </g>
     <g id="line2d_52">
      <g>
       <use xlink:href="#m17df62aa79" x="54.104687" y="381.58213" style="stroke: #000000; stroke-width: 0.8"/>
      </g>
     </g>
     <g id="text_8">
      <!-- −50 -->
      <g transform="translate(26 385.381349) scale(0.1 -0.1)">
       <use xlink:href="#DejaVuSans-2212"/>
       <use xlink:href="#DejaVuSans-35" transform="translate(83.789062 0)"/>
       <use xlink:href="#DejaVuSans-30" transform="translate(147.412109 0)"/>
      </g>
     </g>
    </g>
    <g id="ytick_7">
     <g id="line2d_53">
      <path d="M 54.104687 338.474522 
L 709.2 338.474522 
" clip-path="url(#pc075ced795)" style="fill: none; stroke: #b0b0b0; stroke-width: 0.8; stroke-linecap: square"/>
     </g>
     <g id="line2d_54">
      <g>
       <use xlink:href="#m17df62aa79" x="54.104687" y="338.474522" style="stroke: #000000; stroke-width: 0.8"/>
      </g>
     </g>
     <g id="text_9">
      <!-- 0 -->
      <g transform="translate(40.742188 342.273741) scale(0.1 -0.1)">
       <use xlink:href="#DejaVuSans-30"/>
      </g>
     </g>
    </g>
    <g id="ytick_8">
     <g id="line2d_55">
      <path d="M 54.104687 295.366913 
L 709.2 295.366913 
" clip-path="url(#pc075ced795)" style="fill: none; stroke: #b0b0b0; stroke-width: 0.8; stroke-linecap: square"/>
     </g>
     <g id="line2d_56">
      <g>
       <use xlink:href="#m17df62aa79" x="54.104687" y="295.366913" style="stroke: #000000; stroke-width: 0.8"/>
      </g>
     </g>
     <g id="text_10">
      <!-- 50 -->
      <g transform="translate(34.379687 299.166132) scale(0.1 -0.1)">
       <use xlink:href="#DejaVuSans-35"/>
       <use xlink:href="#DejaVuSans-30" transform="translate(63.623047 0)"/>
      </g>
     </g>
    </g>
    <g id="text_11">
     <!-- mV -->
     <g transform="translate(19.920312 356.86842) rotate(-90) scale(0.1 -0.1)">
      <use xlink:href="#DejaVuSans-6d"/>
      <use xlink:href="#DejaVuSans-56" transform="translate(97.412109 0)"/>
     </g>
    </g>
   </g>
   <g id="line2d_57">
    <path d="M 83.881747 390.203652 
L 84.080658 374.327338 
L 84.111627 296.60701 
L 84.279569 317.985023 
L 84.396296 377.465844 
L 84.52136 400.548581 
L 84.529697 400.545452 
L 84.640468 400.315963 
L 88.04578 392.494675 
L 88.879539 391.395401 
L 89.713298 390.65534 
L 90.632816 390.137492 
L 91.771493 389.761502 
L 93.41519 389.472916 
L 96.562036 389.187058 
L 114.5629 387.765622 
L 119.740545 387.105796 
L 122.658703 386.529742 
L 124.233317 386.013008 
L 125.064694 385.524757 
L 125.518497 385.010321 
L 125.791256 384.351162 
L 125.967536 383.271375 
L 126.078307 380.935119 
L 126.135479 373.655163 
L 126.15811 319.422043 
L 126.178358 299.399714 
L 126.271263 308.384316 
L 126.411811 352.508688 
L 126.584518 399.364641 
L 126.600002 399.355023 
L 126.754843 398.997837 
L 128.963115 393.712209 
L 129.850473 392.227103 
L 130.672321 391.267686 
L 131.520374 390.613455 
L 132.489917 390.150427 
L 133.742938 389.811367 
L 135.67845 389.542361 
L 140.074744 389.21317 
L 154.802508 388.14187 
L 161.617895 387.427739 
L 165.540137 386.812612 
L 167.704338 386.268572 
L 168.853735 385.770558 
L 169.464761 385.279369 
L 169.813749 384.714052 
L 170.032908 383.899983 
L 170.174648 382.382285 
L 170.258023 378.510105 
L 170.293756 362.271755 
L 170.323533 299.402039 
L 170.428349 310.5553 
L 170.568897 360.366333 
L 170.730884 399.362935 
L 170.799967 399.245788 
L 173.678819 392.699639 
L 174.512578 391.579503 
L 175.341573 390.82828 
L 176.252753 390.303484 
L 177.372373 389.924726 
L 178.974382 389.636805 
L 181.96996 389.363152 
L 202.990224 387.747028 
L 202.991415 387.962439 
L 203.164122 399.106373 
L 203.327301 399.622721 
L 203.632219 399.648674 
L 218.440976 399.512284 
L 229.932561 399.138455 
L 243.389437 398.782179 
L 256.59023 398.618638 
L 256.702192 359.158897 
L 256.728396 297.044996 
L 256.827256 304.523878 
L 256.973759 344.03667 
L 257.181008 400.067764 
L 257.223887 400.005057 
L 257.708658 398.625719 
L 258.50073 395.84075 
L 259.025998 393.199238 
L 259.334489 390.48412 
L 259.519107 386.669414 
L 259.64298 378.558967 
L 259.707299 357.073115 
L 259.753751 323.508387 
L 259.833554 341.511211 
L 260.128943 397.805251 
L 260.15872 397.784568 
L 260.189688 397.714666 
L 260.597039 396.304475 
L 261.205683 393.566528 
L 261.571346 390.889508 
L 261.790506 387.519834 
L 261.9382 381.239671 
L 262.028723 366.770551 
L 262.095423 326.687465 
L 262.184755 346.475593 
L 262.465851 397.087696 
L 262.499201 397.148652 
L 262.564711 397.020308 
L 263.019705 395.345207 
L 263.577133 392.601961 
L 263.911828 389.812756 
L 264.119077 386.046424 
L 264.26558 378.648517 
L 264.339427 362.016048 
L 264.39779 326.205519 
L 264.478784 343.505327 
L 264.774173 397.023064 
L 264.801568 397.054627 
L 264.862313 396.93891 
L 265.306588 395.35503 
L 265.92357 392.498366 
L 266.297571 389.703231 
L 266.533405 386.130469 
L 266.698966 379.701356 
L 266.783533 366.69068 
L 266.850234 325.11791 
L 266.941947 345.373061 
L 267.225426 396.979059 
L 267.251629 397.00655 
L 267.312375 396.893545 
L 267.778089 395.289194 
L 268.476065 392.256388 
L 268.907237 389.389251 
L 269.183569 385.959953 
L 269.374143 380.480715 
L 269.471811 370.640001 
L 269.550423 323.513399 
L 269.660003 349.387486 
L 269.92085 396.93202 
L 269.948245 396.96351 
L 270.010182 396.851288 
L 270.515202 395.181502 
L 271.353725 391.81298 
L 271.889714 388.74768 
L 272.238701 385.407813 
L 272.465007 380.956788 
L 272.578161 373.938157 
L 272.626995 351.057723 
L 272.672256 321.053517 
L 272.749677 336.930605 
L 273.065314 396.934399 
L 273.072461 396.932444 
L 273.157028 396.754985 
L 273.999125 394.04026 
L 275.172343 389.631286 
L 276.006102 385.663062 
L 276.401543 382.761109 
L 276.589734 379.59448 
L 276.682639 373.617981 
L 276.726709 349.884976 
L 276.769588 316.656474 
L 276.849391 332.043413 
L 277.16741 396.96931 
L 277.198378 396.938033 
L 277.429449 396.311358 
L 279.774695 389.848496 
L 280.529842 388.457512 
L 281.161117 387.72863 
L 281.75666 387.365772 
L 282.397463 387.237029 
L 283.225267 387.313286 
L 284.818939 387.734544 
L 287.553669 388.405468 
L 290.118075 388.786976 
L 293.312564 389.026593 
L 297.583794 389.111156 
L 303.610683 388.993358 
L 312.042372 388.595395 
L 320.927865 387.96287 
L 326.997633 387.32761 
L 330.422001 386.766823 
L 332.203864 386.27209 
L 333.098369 385.814049 
L 333.566465 385.337025 
L 333.841606 384.727705 
L 334.019077 383.728527 
L 334.13223 381.560729 
L 334.191785 374.872196 
L 334.213224 332.111592 
L 334.233472 298.788785 
L 334.327568 307.2945 
L 334.466925 349.091207 
L 334.639632 399.736277 
L 334.667027 399.708762 
L 334.982665 398.953102 
L 337.022993 394.198105 
L 337.924644 392.697863 
L 338.752448 391.73463 
L 339.602883 391.080415 
L 340.570043 390.620999 
L 341.812345 390.289497 
L 343.715698 390.035432 
L 347.90117 389.75453 
L 369.034587 388.459992 
L 377.578238 387.708656 
L 382.459304 387.075939 
L 385.115423 386.528707 
L 386.493508 386.039388 
L 387.199821 385.570959 
L 387.585733 385.054718 
L 387.822758 384.342318 
L 387.976408 383.08152 
L 388.070504 380.092356 
L 388.114574 369.623265 
L 388.147925 298.975586 
L 388.281326 315.793113 
L 388.411154 373.203089 
L 388.550511 399.617373 
L 388.61483 399.522852 
L 389.865469 396.408007 
L 391.045834 393.83425 
L 391.927237 392.420152 
L 392.752658 391.500682 
L 393.610239 390.873573 
L 394.600031 390.430216 
L 395.895931 390.107193 
L 397.939832 389.852556 
L 402.841146 389.528663 
L 420.028499 388.419727 
L 428.298201 387.670279 
L 433.044674 387.036395 
L 435.648385 386.48531 
L 437.013368 385.990371 
L 437.719682 385.516046 
L 438.109166 384.992362 
L 438.347383 384.27744 
L 438.502224 383.018372 
L 438.597511 380.027961 
L 438.642772 368.927111 
L 438.676123 299.108467 
L 438.805951 315.310598 
L 438.938161 372.964457 
L 439.077518 399.536088 
L 439.120397 399.490717 
L 439.141837 399.444848 
L 440.300762 396.535701 
L 441.51686 393.834633 
L 442.403027 392.383141 
L 443.227257 391.44333 
L 444.080074 390.802766 
L 445.059146 390.34999 
L 446.331224 390.019939 
L 448.314381 389.760057 
L 452.910777 389.441133 
L 469.60383 388.323353 
L 477.339925 387.587064 
L 481.782671 386.96031 
L 484.222013 386.412425 
L 485.504811 385.917509 
L 486.175392 385.437752 
L 486.549393 384.900437 
L 486.780463 384.152083 
L 486.93054 382.804812 
L 487.021062 379.548809 
L 487.06275 367.021082 
L 487.09491 299.19863 
L 487.214018 313.119246 
L 487.349802 367.17325 
L 487.496305 399.481965 
L 487.539184 399.436481 
L 487.560624 399.390467 
L 488.71002 396.492657 
L 489.924927 393.78278 
L 490.809903 392.326822 
L 491.632942 391.383772 
L 492.484568 390.740493 
L 493.461258 390.285643 
L 494.729763 389.953348 
L 496.70339 389.690957 
L 501.265245 389.367666 
L 517.260322 388.269287 
L 524.709367 387.539787 
L 528.990125 386.916623 
L 531.3449 386.369825 
L 532.587201 385.873859 
L 533.239916 385.390629 
L 533.605579 384.847204 
L 533.833076 384.083609 
L 533.98077 382.700182 
L 534.070102 379.267938 
L 534.109407 366.639592 
L 534.141567 299.260786 
L 534.259484 313.010316 
L 534.396459 367.55866 
L 534.542962 399.444906 
L 534.58465 399.401912 
L 534.607281 399.35349 
L 535.745958 396.474013 
L 536.963247 393.749535 
L 537.848223 392.288764 
L 538.671262 391.342572 
L 539.522888 390.697088 
L 540.498386 390.240957 
L 541.764509 389.907372 
L 543.733372 389.643224 
L 548.279743 389.31645 
L 563.790049 388.232468 
L 571.049711 387.507449 
L 575.224463 386.886484 
L 577.523256 386.340329 
L 578.738163 385.843822 
L 579.378966 385.358309 
L 579.739865 384.809128 
L 579.96498 384.032996 
L 580.111483 382.609809 
L 580.198433 379.123335 
L 580.237738 364.982524 
L 580.268707 299.304129 
L 580.380669 311.797 
L 580.518834 363.594416 
L 580.672484 399.420227 
L 580.736803 399.322845 
L 582.006499 396.113954 
L 583.16066 393.582102 
L 584.036108 392.172006 
L 584.857956 391.253857 
L 585.714346 390.625705 
L 586.704138 390.180211 
L 588.003611 389.852954 
L 590.061806 389.58992 
L 595.103667 389.235359 
L 609.356188 388.224497 
L 616.57297 387.499771 
L 620.728665 386.878308 
L 623.020312 386.331295 
L 624.234028 385.833641 
L 624.876022 385.346353 
L 625.238112 384.794674 
L 625.463227 384.018279 
L 625.60973 382.598808 
L 625.69668 379.146134 
L 625.735985 365.667805 
L 625.768145 299.335475 
L 625.881298 312.239688 
L 626.019464 365.246461 
L 626.16954 399.401467 
L 626.218375 399.343194 
L 626.233859 399.309078 
L 627.379682 396.402106 
L 628.588634 393.693142 
L 629.472418 392.233208 
L 630.294267 391.287855 
L 631.145893 390.641966 
L 632.121391 390.185403 
L 633.388705 389.850811 
L 635.361141 389.584784 
L 639.93848 389.251324 
L 654.788925 388.191215 
L 661.842529 387.470917 
L 665.901746 386.852248 
L 668.138603 386.307072 
L 669.324924 385.809663 
L 669.953816 385.32087 
L 670.309951 384.764198 
L 670.532684 383.971426 
L 670.676805 382.515515 
L 670.762563 378.870833 
L 670.800678 363.407129 
L 670.830455 299.357654 
L 670.937652 310.845706 
L 671.077009 360.697328 
L 671.237806 399.390105 
L 671.306889 399.273897 
L 674.198843 392.715803 
L 675.032602 391.601647 
L 675.862788 390.853956 
L 676.775159 390.332222 
L 677.898352 389.95553 
L 679.42294 389.680431 
L 679.42294 389.680431 
" clip-path="url(#pc075ced795)" style="fill: none; stroke: #000000; stroke-opacity: 0.8; stroke-linecap: square"/>
   </g>
   <g id="patch_13">
    <path d="M 54.104687 405.745659 
L 54.104687 291.409931 
" style="fill: none; stroke: #000000; stroke-width: 0.8; stroke-linejoin: miter; stroke-linecap: square"/>
   </g>
   <g id="patch_14">
    <path d="M 709.2 405.745659 
L 709.2 291.409931 
" style="fill: none; stroke: #000000; stroke-width: 0.8; stroke-linejoin: miter; stroke-linecap: square"/>
   </g>
   <g id="patch_15">
    <path d="M 54.104688 405.745659 
L 709.2 405.745659 
" style="fill: none; stroke: #000000; stroke-width: 0.8; stroke-linejoin: miter; stroke-linecap: square"/>
   </g>
   <g id="patch_16">
    <path d="M 54.104688 291.409931 
L 709.2 291.409931 
" style="fill: none; stroke: #000000; stroke-width: 0.8; stroke-linejoin: miter; stroke-linecap: square"/>
   </g>
  </g>
  <g id="axes_4">
   <g id="patch_17">
    <path d="M 54.104687 534.84375 
L 709.2 534.84375 
L 709.2 420.508022 
L 54.104687 420.508022 
z
" style="fill: #ffffff"/>
   </g>
   <g id="matplotlib.axis_7">
    <g id="xtick_19">
     <g id="line2d_58">
      <path d="M 83.881747 534.84375 
L 83.881747 420.508022 
" clip-path="url(#p92f18f53f8)" style="fill: none; stroke: #b0b0b0; stroke-width: 0.8; stroke-linecap: square"/>
     </g>
     <g id="line2d_59">
      <g>
       <use xlink:href="#m17408e40cc" x="83.881747" y="534.84375" style="stroke: #000000; stroke-width: 0.8"/>
      </g>
     </g>
     <g id="text_12">
      <!-- 0 -->
      <g transform="translate(80.700497 549.442187) scale(0.1 -0.1)">
       <use xlink:href="#DejaVuSans-30"/>
      </g>
     </g>
    </g>
    <g id="xtick_20">
     <g id="line2d_60">
      <path d="M 202.990224 534.84375 
L 202.990224 420.508022 
" clip-path="url(#p92f18f53f8)" style="fill: none; stroke: #b0b0b0; stroke-width: 0.8; stroke-linecap: square"/>
     </g>
     <g id="line2d_61">
      <g>
       <use xlink:href="#m17408e40cc" x="202.990224" y="534.84375" style="stroke: #000000; stroke-width: 0.8"/>
      </g>
     </g>
     <g id="text_13">
      <!-- 1000 -->
      <g transform="translate(190.265224 549.442187) scale(0.1 -0.1)">
       <defs>
        <path id="DejaVuSans-31" d="M 794 531 
L 1825 531 
L 1825 4091 
L 703 3866 
L 703 4441 
L 1819 4666 
L 2450 4666 
L 2450 531 
L 3481 531 
L 3481 0 
L 794 0 
L 794 531 
z
" transform="scale(0.015625)"/>
       </defs>
       <use xlink:href="#DejaVuSans-31"/>
       <use xlink:href="#DejaVuSans-30" transform="translate(63.623047 0)"/>
       <use xlink:href="#DejaVuSans-30" transform="translate(127.246094 0)"/>
       <use xlink:href="#DejaVuSans-30" transform="translate(190.869141 0)"/>
      </g>
     </g>
    </g>
    <g id="xtick_21">
     <g id="line2d_62">
      <path d="M 322.098701 534.84375 
L 322.098701 420.508022 
" clip-path="url(#p92f18f53f8)" style="fill: none; stroke: #b0b0b0; stroke-width: 0.8; stroke-linecap: square"/>
     </g>
     <g id="line2d_63">
      <g>
       <use xlink:href="#m17408e40cc" x="322.098701" y="534.84375" style="stroke: #000000; stroke-width: 0.8"/>
      </g>
     </g>
     <g id="text_14">
      <!-- 2000 -->
      <g transform="translate(309.373701 549.442187) scale(0.1 -0.1)">
       <use xlink:href="#DejaVuSans-32"/>
       <use xlink:href="#DejaVuSans-30" transform="translate(63.623047 0)"/>
       <use xlink:href="#DejaVuSans-30" transform="translate(127.246094 0)"/>
       <use xlink:href="#DejaVuSans-30" transform="translate(190.869141 0)"/>
      </g>
     </g>
    </g>
    <g id="xtick_22">
     <g id="line2d_64">
      <path d="M 441.207178 534.84375 
L 441.207178 420.508022 
" clip-path="url(#p92f18f53f8)" style="fill: none; stroke: #b0b0b0; stroke-width: 0.8; stroke-linecap: square"/>
     </g>
     <g id="line2d_65">
      <g>
       <use xlink:href="#m17408e40cc" x="441.207178" y="534.84375" style="stroke: #000000; stroke-width: 0.8"/>
      </g>
     </g>
     <g id="text_15">
      <!-- 3000 -->
      <g transform="translate(428.482178 549.442187) scale(0.1 -0.1)">
       <defs>
        <path id="DejaVuSans-33" d="M 2597 2516 
Q 3050 2419 3304 2112 
Q 3559 1806 3559 1356 
Q 3559 666 3084 287 
Q 2609 -91 1734 -91 
Q 1441 -91 1130 -33 
Q 819 25 488 141 
L 488 750 
Q 750 597 1062 519 
Q 1375 441 1716 441 
Q 2309 441 2620 675 
Q 2931 909 2931 1356 
Q 2931 1769 2642 2001 
Q 2353 2234 1838 2234 
L 1294 2234 
L 1294 2753 
L 1863 2753 
Q 2328 2753 2575 2939 
Q 2822 3125 2822 3475 
Q 2822 3834 2567 4026 
Q 2313 4219 1838 4219 
Q 1578 4219 1281 4162 
Q 984 4106 628 3988 
L 628 4550 
Q 988 4650 1302 4700 
Q 1616 4750 1894 4750 
Q 2613 4750 3031 4423 
Q 3450 4097 3450 3541 
Q 3450 3153 3228 2886 
Q 3006 2619 2597 2516 
z
" transform="scale(0.015625)"/>
       </defs>
       <use xlink:href="#DejaVuSans-33"/>
       <use xlink:href="#DejaVuSans-30" transform="translate(63.623047 0)"/>
       <use xlink:href="#DejaVuSans-30" transform="translate(127.246094 0)"/>
       <use xlink:href="#DejaVuSans-30" transform="translate(190.869141 0)"/>
      </g>
     </g>
    </g>
    <g id="xtick_23">
     <g id="line2d_66">
      <path d="M 560.315655 534.84375 
L 560.315655 420.508022 
" clip-path="url(#p92f18f53f8)" style="fill: none; stroke: #b0b0b0; stroke-width: 0.8; stroke-linecap: square"/>
     </g>
     <g id="line2d_67">
      <g>
       <use xlink:href="#m17408e40cc" x="560.315655" y="534.84375" style="stroke: #000000; stroke-width: 0.8"/>
      </g>
     </g>
     <g id="text_16">
      <!-- 4000 -->
      <g transform="translate(547.590655 549.442187) scale(0.1 -0.1)">
       <defs>
        <path id="DejaVuSans-34" d="M 2419 4116 
L 825 1625 
L 2419 1625 
L 2419 4116 
z
M 2253 4666 
L 3047 4666 
L 3047 1625 
L 3713 1625 
L 3713 1100 
L 3047 1100 
L 3047 0 
L 2419 0 
L 2419 1100 
L 313 1100 
L 313 1709 
L 2253 4666 
z
" transform="scale(0.015625)"/>
       </defs>
       <use xlink:href="#DejaVuSans-34"/>
       <use xlink:href="#DejaVuSans-30" transform="translate(63.623047 0)"/>
       <use xlink:href="#DejaVuSans-30" transform="translate(127.246094 0)"/>
       <use xlink:href="#DejaVuSans-30" transform="translate(190.869141 0)"/>
      </g>
     </g>
    </g>
    <g id="xtick_24">
     <g id="line2d_68">
      <path d="M 679.424131 534.84375 
L 679.424131 420.508022 
" clip-path="url(#p92f18f53f8)" style="fill: none; stroke: #b0b0b0; stroke-width: 0.8; stroke-linecap: square"/>
     </g>
     <g id="line2d_69">
      <g>
       <use xlink:href="#m17408e40cc" x="679.424131" y="534.84375" style="stroke: #000000; stroke-width: 0.8"/>
      </g>
     </g>
     <g id="text_17">
      <!-- 5000 -->
      <g transform="translate(666.699131 549.442187) scale(0.1 -0.1)">
       <use xlink:href="#DejaVuSans-35"/>
       <use xlink:href="#DejaVuSans-30" transform="translate(63.623047 0)"/>
       <use xlink:href="#DejaVuSans-30" transform="translate(127.246094 0)"/>
       <use xlink:href="#DejaVuSans-30" transform="translate(190.869141 0)"/>
      </g>
     </g>
    </g>
    <g id="text_18">
     <!-- Time (ms) -->
     <g transform="translate(356.453125 563.120312) scale(0.1 -0.1)">
      <defs>
       <path id="DejaVuSans-54" d="M -19 4666 
L 3928 4666 
L 3928 4134 
L 2272 4134 
L 2272 0 
L 1638 0 
L 1638 4134 
L -19 4134 
L -19 4666 
z
" transform="scale(0.015625)"/>
       <path id="DejaVuSans-69" d="M 603 3500 
L 1178 3500 
L 1178 0 
L 603 0 
L 603 3500 
z
M 603 4863 
L 1178 4863 
L 1178 4134 
L 603 4134 
L 603 4863 
z
" transform="scale(0.015625)"/>
       <path id="DejaVuSans-65" d="M 3597 1894 
L 3597 1613 
L 953 1613 
Q 991 1019 1311 708 
Q 1631 397 2203 397 
Q 2534 397 2845 478 
Q 3156 559 3463 722 
L 3463 178 
Q 3153 47 2828 -22 
Q 2503 -91 2169 -91 
Q 1331 -91 842 396 
Q 353 884 353 1716 
Q 353 2575 817 3079 
Q 1281 3584 2069 3584 
Q 2775 3584 3186 3129 
Q 3597 2675 3597 1894 
z
M 3022 2063 
Q 3016 2534 2758 2815 
Q 2500 3097 2075 3097 
Q 1594 3097 1305 2825 
Q 1016 2553 972 2059 
L 3022 2063 
z
" transform="scale(0.015625)"/>
       <path id="DejaVuSans-20" transform="scale(0.015625)"/>
       <path id="DejaVuSans-28" d="M 1984 4856 
Q 1566 4138 1362 3434 
Q 1159 2731 1159 2009 
Q 1159 1288 1364 580 
Q 1569 -128 1984 -844 
L 1484 -844 
Q 1016 -109 783 600 
Q 550 1309 550 2009 
Q 550 2706 781 3412 
Q 1013 4119 1484 4856 
L 1984 4856 
z
" transform="scale(0.015625)"/>
       <path id="DejaVuSans-73" d="M 2834 3397 
L 2834 2853 
Q 2591 2978 2328 3040 
Q 2066 3103 1784 3103 
Q 1356 3103 1142 2972 
Q 928 2841 928 2578 
Q 928 2378 1081 2264 
Q 1234 2150 1697 2047 
L 1894 2003 
Q 2506 1872 2764 1633 
Q 3022 1394 3022 966 
Q 3022 478 2636 193 
Q 2250 -91 1575 -91 
Q 1294 -91 989 -36 
Q 684 19 347 128 
L 347 722 
Q 666 556 975 473 
Q 1284 391 1588 391 
Q 1994 391 2212 530 
Q 2431 669 2431 922 
Q 2431 1156 2273 1281 
Q 2116 1406 1581 1522 
L 1381 1569 
Q 847 1681 609 1914 
Q 372 2147 372 2553 
Q 372 3047 722 3315 
Q 1072 3584 1716 3584 
Q 2034 3584 2315 3537 
Q 2597 3491 2834 3397 
z
" transform="scale(0.015625)"/>
       <path id="DejaVuSans-29" d="M 513 4856 
L 1013 4856 
Q 1481 4119 1714 3412 
Q 1947 2706 1947 2009 
Q 1947 1309 1714 600 
Q 1481 -109 1013 -844 
L 513 -844 
Q 928 -128 1133 580 
Q 1338 1288 1338 2009 
Q 1338 2731 1133 3434 
Q 928 4138 513 4856 
z
" transform="scale(0.015625)"/>
      </defs>
      <use xlink:href="#DejaVuSans-54"/>
      <use xlink:href="#DejaVuSans-69" transform="translate(57.958984 0)"/>
      <use xlink:href="#DejaVuSans-6d" transform="translate(85.742188 0)"/>
      <use xlink:href="#DejaVuSans-65" transform="translate(183.154297 0)"/>
      <use xlink:href="#DejaVuSans-20" transform="translate(244.677734 0)"/>
      <use xlink:href="#DejaVuSans-28" transform="translate(276.464844 0)"/>
      <use xlink:href="#DejaVuSans-6d" transform="translate(315.478516 0)"/>
      <use xlink:href="#DejaVuSans-73" transform="translate(412.890625 0)"/>
      <use xlink:href="#DejaVuSans-29" transform="translate(464.990234 0)"/>
     </g>
    </g>
   </g>
   <g id="matplotlib.axis_8">
    <g id="ytick_9">
     <g id="line2d_70">
      <path d="M 54.104687 510.680221 
L 709.2 510.680221 
" clip-path="url(#p92f18f53f8)" style="fill: none; stroke: #b0b0b0; stroke-width: 0.8; stroke-linecap: square"/>
     </g>
     <g id="line2d_71">
      <g>
       <use xlink:href="#m17df62aa79" x="54.104687" y="510.680221" style="stroke: #000000; stroke-width: 0.8"/>
      </g>
     </g>
     <g id="text_19">
      <!-- −50 -->
      <g transform="translate(26 514.479439) scale(0.1 -0.1)">
       <use xlink:href="#DejaVuSans-2212"/>
       <use xlink:href="#DejaVuSans-35" transform="translate(83.789062 0)"/>
       <use xlink:href="#DejaVuSans-30" transform="translate(147.412109 0)"/>
      </g>
     </g>
    </g>
    <g id="ytick_10">
     <g id="line2d_72">
      <path d="M 54.104687 467.572612 
L 709.2 467.572612 
" clip-path="url(#p92f18f53f8)" style="fill: none; stroke: #b0b0b0; stroke-width: 0.8; stroke-linecap: square"/>
     </g>
     <g id="line2d_73">
      <g>
       <use xlink:href="#m17df62aa79" x="54.104687" y="467.572612" style="stroke: #000000; stroke-width: 0.8"/>
      </g>
     </g>
     <g id="text_20">
      <!-- 0 -->
      <g transform="translate(40.742188 471.371831) scale(0.1 -0.1)">
       <use xlink:href="#DejaVuSans-30"/>
      </g>
     </g>
    </g>
    <g id="ytick_11">
     <g id="line2d_74">
      <path d="M 54.104687 424.465004 
L 709.2 424.465004 
" clip-path="url(#p92f18f53f8)" style="fill: none; stroke: #b0b0b0; stroke-width: 0.8; stroke-linecap: square"/>
     </g>
     <g id="line2d_75">
      <g>
       <use xlink:href="#m17df62aa79" x="54.104687" y="424.465004" style="stroke: #000000; stroke-width: 0.8"/>
      </g>
     </g>
     <g id="text_21">
      <!-- 50 -->
      <g transform="translate(34.379687 428.264223) scale(0.1 -0.1)">
       <use xlink:href="#DejaVuSans-35"/>
       <use xlink:href="#DejaVuSans-30" transform="translate(63.623047 0)"/>
      </g>
     </g>
    </g>
    <g id="text_22">
     <!-- mV -->
     <g transform="translate(19.920312 485.966511) rotate(-90) scale(0.1 -0.1)">
      <use xlink:href="#DejaVuSans-6d"/>
      <use xlink:href="#DejaVuSans-56" transform="translate(97.412109 0)"/>
     </g>
    </g>
   </g>
   <g id="line2d_76">
    <path d="M 83.881747 519.301742 
L 84.080658 503.425429 
L 84.111627 425.7051 
L 84.279569 447.083114 
L 84.396296 506.563934 
L 84.52136 529.646671 
L 84.529697 529.643543 
L 84.640468 529.414054 
L 88.04578 521.592765 
L 88.879539 520.493492 
L 89.713298 519.75343 
L 90.632816 519.235583 
L 91.771493 518.859593 
L 93.41519 518.571006 
L 96.562036 518.285148 
L 114.5629 516.863713 
L 119.740545 516.203887 
L 122.658703 515.627833 
L 124.233317 515.111098 
L 125.064694 514.622848 
L 125.518497 514.108411 
L 125.791256 513.449252 
L 125.967536 512.369465 
L 126.078307 510.033209 
L 126.135479 502.753254 
L 126.15811 448.520134 
L 126.178358 428.497804 
L 126.271263 437.482406 
L 126.411811 481.606779 
L 126.584518 528.462732 
L 126.600002 528.453113 
L 126.754843 528.095928 
L 128.963115 522.810299 
L 129.850473 521.325194 
L 130.672321 520.365776 
L 131.520374 519.711546 
L 132.489917 519.248518 
L 133.742938 518.909458 
L 135.67845 518.640451 
L 140.074744 518.31126 
L 154.802508 517.239961 
L 161.617895 516.525829 
L 165.540137 515.910703 
L 167.704338 515.366662 
L 168.853735 514.868649 
L 169.464761 514.37746 
L 169.813749 513.812143 
L 170.032908 512.998074 
L 170.174648 511.480375 
L 170.258023 507.608195 
L 170.293756 491.369846 
L 170.323533 428.50013 
L 170.428349 439.653391 
L 170.568897 489.464423 
L 170.730884 528.461026 
L 170.799967 528.343878 
L 173.678819 521.79773 
L 174.512578 520.677594 
L 175.341573 519.926371 
L 176.252753 519.401574 
L 177.372373 519.022816 
L 178.974382 518.734896 
L 181.96996 518.461242 
L 202.990224 516.845118 
L 202.991415 517.060529 
L 203.164122 528.204464 
L 203.327301 528.720811 
L 203.632219 528.746765 
L 218.440976 528.610375 
L 229.932561 528.236545 
L 243.389437 527.880269 
L 260.133707 527.690445 
L 274.456501 527.622899 
L 274.562508 489.086508 
L 274.587521 425.730958 
L 274.687572 433.018756 
L 274.832884 471.582711 
L 275.040133 529.382198 
L 275.091349 529.299267 
L 275.690465 527.582534 
L 276.44204 524.860789 
L 276.92562 522.290992 
L 277.206716 519.552918 
L 277.372277 515.484595 
L 277.48543 505.837508 
L 277.541411 477.815015 
L 277.580717 452.766525 
L 277.658137 470.472832 
L 277.954717 527.035511 
L 277.978539 527.026736 
L 278.016654 526.945554 
L 278.421622 525.532659 
L 278.999299 522.876201 
L 279.34114 520.242812 
L 279.542433 516.812467 
L 279.677026 509.936311 
L 279.760402 492.521229 
L 279.819956 456.66813 
L 279.902141 474.203407 
L 280.193957 526.238255 
L 280.229689 526.316441 
L 280.29639 526.184565 
L 280.734709 524.5255 
L 281.239729 521.895465 
L 281.5375 519.125661 
L 281.718545 515.114215 
L 281.847182 506.300413 
L 281.911501 484.233725 
L 281.960335 456.508931 
L 282.035374 472.025816 
L 282.337909 526.179803 
L 282.370068 526.233806 
L 282.434387 526.107897 
L 282.871515 524.486298 
L 283.406312 521.806943 
L 283.724332 519.047257 
L 283.91967 515.200307 
L 284.057836 507.241244 
L 284.126918 488.891971 
L 284.181708 455.914043 
L 284.26032 472.386332 
L 284.559282 526.148976 
L 284.589059 526.191161 
L 284.652187 526.06993 
L 285.098844 524.456631 
L 285.677711 521.692781 
L 286.024316 518.931312 
L 286.239903 515.257034 
L 286.391171 508.230907 
L 286.468591 493.051353 
L 286.530528 455.069457 
L 286.613903 473.01969 
L 286.90691 526.11211 
L 286.934305 526.145679 
L 286.996242 526.030401 
L 287.452427 524.435621 
L 288.094422 521.549643 
L 288.483907 518.768126 
L 288.72927 515.300399 
L 288.900786 509.279061 
L 288.991309 497.353324 
L 289.062774 453.855042 
L 289.159252 475.668482 
L 289.436774 526.068298 
L 289.464169 526.098966 
L 289.524915 525.988124 
L 290.001349 524.383937 
L 290.741012 521.283494 
L 291.19958 518.403672 
L 291.492587 515.074726 
L 291.69388 509.970466 
L 291.798695 501.179573 
L 291.849912 466.366967 
L 291.883262 452.049599 
L 291.959492 467.760394 
L 292.275129 526.057151 
L 292.339448 525.959197 
L 292.814691 524.440345 
L 293.754457 520.867408 
L 294.363101 517.695968 
L 294.75735 514.433255 
L 295.003905 510.45157 
L 295.128968 504.456322 
L 295.181376 487.701754 
L 295.233784 449.165717 
L 295.315969 466.1045 
L 295.629224 526.036422 
L 295.637562 526.033577 
L 295.729275 525.836888 
L 296.758372 522.617096 
L 299.651517 512.758415 
L 299.934995 510.997594 
L 300.09341 508.422474 
L 300.179168 502.594814 
L 300.219665 477.949604 
L 300.261353 442.8892 
L 300.342346 457.672702 
L 300.663939 526.180225 
L 300.715156 526.110492 
L 301.197545 524.795038 
L 302.776924 520.744378 
L 303.605919 519.202505 
L 304.29913 518.352489 
L 304.960182 517.880194 
L 305.673642 517.644758 
L 306.577675 517.59392 
L 308.101073 517.765627 
L 312.727246 518.352785 
L 316.441048 518.548039 
L 321.453133 518.574425 
L 328.775922 518.373854 
L 339.209825 517.855772 
L 349.330472 517.144891 
L 355.796871 516.487896 
L 359.383227 515.921308 
L 361.234173 515.426478 
L 362.156073 514.971194 
L 362.633698 514.500282 
L 362.912412 513.902639 
L 363.091074 512.935178 
L 363.205418 510.871802 
L 363.267355 504.489899 
L 363.289985 461.299568 
L 363.310234 427.789027 
L 363.40433 436.245202 
L 363.543686 477.83617 
L 363.716394 528.892543 
L 363.74498 528.86233 
L 364.089203 528.038789 
L 366.100945 523.37138 
L 367.003788 521.871226 
L 367.832783 520.907316 
L 368.683217 520.253322 
L 369.650378 519.793942 
L 370.892679 519.462653 
L 372.79246 519.209757 
L 376.952919 518.933142 
L 399.326255 517.587356 
L 408.059289 516.832025 
L 413.035641 516.198249 
L 415.73583 515.651536 
L 417.129399 515.164536 
L 417.840477 514.699481 
L 418.22877 514.185862 
L 418.465796 513.480523 
L 418.620637 512.219285 
L 418.714733 509.242165 
L 418.758803 498.853059 
L 418.792153 428.016271 
L 418.926746 445.060249 
L 419.056574 503.195804 
L 419.19474 528.75016 
L 419.259059 528.655183 
L 420.532328 525.493917 
L 421.706738 522.947341 
L 422.58695 521.543978 
L 423.412371 520.630714 
L 424.271143 520.007432 
L 425.263317 519.566881 
L 426.565173 519.245914 
L 428.625749 518.992924 
L 433.606866 518.669003 
L 451.142016 517.554373 
L 459.62373 516.799731 
L 464.489312 516.163156 
L 467.157342 515.610747 
L 468.552102 515.116419 
L 469.272708 514.643375 
L 469.666957 514.125498 
L 469.908747 513.417603 
L 470.065971 512.16905 
L 470.162448 509.208467 
L 470.20771 498.739572 
L 470.242251 428.169649 
L 470.375653 445.309444 
L 470.505481 503.468637 
L 470.643647 528.657128 
L 470.707965 528.56416 
L 471.907388 525.560586 
L 473.10681 522.916479 
L 473.990595 521.48154 
L 474.814826 520.551045 
L 475.670024 519.91603 
L 476.65386 519.46726 
L 477.936659 519.140039 
L 479.94721 518.881952 
L 484.681772 518.559174 
L 501.386736 517.452245 
L 509.288392 516.71171 
L 513.826425 516.082553 
L 516.318174 515.53343 
L 517.627176 515.038474 
L 518.309668 514.560317 
L 518.688433 514.028441 
L 518.921886 513.293211 
L 519.074344 511.970962 
L 519.166058 508.831436 
L 519.208937 497.087317 
L 519.242287 428.272312 
L 519.36616 443.32861 
L 519.500753 499.739894 
L 519.642492 528.594851 
L 519.674651 528.570698 
L 519.70681 528.505422 
L 520.822857 525.693753 
L 522.056821 522.93 
L 522.944179 521.462748 
L 523.76841 520.512769 
L 524.620035 519.865393 
L 525.594342 519.408458 
L 526.856892 519.075077 
L 528.813845 518.812817 
L 533.28875 518.49517 
L 549.712618 517.374992 
L 557.20335 516.644767 
L 561.505548 516.021415 
L 563.869852 515.474841 
L 565.115726 514.979319 
L 565.768441 514.497693 
L 566.135295 513.953729 
L 566.362792 513.190264 
L 566.510486 511.804628 
L 566.599818 508.35206 
L 566.639124 495.365948 
L 566.671283 428.342142 
L 566.786818 441.629873 
L 566.923793 494.802924 
L 567.072678 528.553687 
L 567.125086 528.487621 
L 567.136997 528.461171 
L 568.299496 525.524911 
L 569.506065 522.835687 
L 570.38985 521.383952 
L 571.212889 520.44304 
L 572.065706 519.800805 
L 573.043586 519.347018 
L 574.315665 519.014961 
L 576.300012 518.751707 
L 580.923803 518.422456 
L 596.410287 517.345563 
L 603.746178 516.618509 
L 607.965001 515.996315 
L 610.286425 515.449939 
L 611.513242 514.953724 
L 612.160001 514.469102 
L 612.523282 513.923087 
L 612.749588 513.154995 
L 612.897283 511.749545 
L 612.985423 508.298822 
L 613.024729 495.110396 
L 613.056888 428.39063 
L 613.171232 441.480918 
L 613.309398 495.06236 
L 613.458284 528.52479 
L 613.507118 528.466536 
L 613.522602 528.432468 
L 614.674381 525.516321 
L 615.883332 522.8134 
L 616.767117 521.356889 
L 617.590157 520.412687 
L 618.441782 519.768803 
L 619.418472 519.31335 
L 620.688168 518.97982 
L 622.665369 518.715133 
L 627.261765 518.383787 
L 642.412363 517.315506 
L 649.595796 516.592132 
L 653.72886 515.971809 
L 656.005023 515.425986 
L 657.2104 514.928845 
L 657.847631 514.441533 
L 658.207338 513.88828 
L 658.431262 513.106104 
L 658.576575 511.674461 
L 658.663524 508.099846 
L 658.701639 494.235544 
L 658.732607 428.424441 
L 658.844569 440.902307 
L 658.982735 492.652731 
L 659.136385 528.505394 
L 659.200703 528.408586 
L 660.450151 525.246325 
L 661.611459 522.688194 
L 662.488097 521.269254 
L 663.309946 520.346009 
L 664.165144 519.714748 
L 665.152554 519.266993 
L 666.446072 518.938226 
L 668.488782 518.674235 
L 673.447268 518.32225 
L 679.42294 517.932734 
L 679.42294 517.932734 
" clip-path="url(#p92f18f53f8)" style="fill: none; stroke: #000000; stroke-linecap: square"/>
   </g>
   <g id="patch_18">
    <path d="M 54.104687 534.84375 
L 54.104687 420.508022 
" style="fill: none; stroke: #000000; stroke-width: 0.8; stroke-linejoin: miter; stroke-linecap: square"/>
   </g>
   <g id="patch_19">
    <path d="M 709.2 534.84375 
L 709.2 420.508022 
" style="fill: none; stroke: #000000; stroke-width: 0.8; stroke-linejoin: miter; stroke-linecap: square"/>
   </g>
   <g id="patch_20">
    <path d="M 54.104688 534.84375 
L 709.2 534.84375 
" style="fill: none; stroke: #000000; stroke-width: 0.8; stroke-linejoin: miter; stroke-linecap: square"/>
   </g>
   <g id="patch_21">
    <path d="M 54.104688 420.508022 
L 709.2 420.508022 
" style="fill: none; stroke: #000000; stroke-width: 0.8; stroke-linejoin: miter; stroke-linecap: square"/>
   </g>
  </g>
  <g id="text_23">
   <!-- STN neuron, hyperpolarising rebound bursts -->
   <g transform="translate(227.11875 20.638125) scale(0.12 -0.12)">
    <defs>
     <path id="DejaVuSans-53" d="M 3425 4513 
L 3425 3897 
Q 3066 4069 2747 4153 
Q 2428 4238 2131 4238 
Q 1616 4238 1336 4038 
Q 1056 3838 1056 3469 
Q 1056 3159 1242 3001 
Q 1428 2844 1947 2747 
L 2328 2669 
Q 3034 2534 3370 2195 
Q 3706 1856 3706 1288 
Q 3706 609 3251 259 
Q 2797 -91 1919 -91 
Q 1588 -91 1214 -16 
Q 841 59 441 206 
L 441 856 
Q 825 641 1194 531 
Q 1563 422 1919 422 
Q 2459 422 2753 634 
Q 3047 847 3047 1241 
Q 3047 1584 2836 1778 
Q 2625 1972 2144 2069 
L 1759 2144 
Q 1053 2284 737 2584 
Q 422 2884 422 3419 
Q 422 4038 858 4394 
Q 1294 4750 2059 4750 
Q 2388 4750 2728 4690 
Q 3069 4631 3425 4513 
z
" transform="scale(0.015625)"/>
     <path id="DejaVuSans-4e" d="M 628 4666 
L 1478 4666 
L 3547 763 
L 3547 4666 
L 4159 4666 
L 4159 0 
L 3309 0 
L 1241 3903 
L 1241 0 
L 628 0 
L 628 4666 
z
" transform="scale(0.015625)"/>
     <path id="DejaVuSans-6e" d="M 3513 2113 
L 3513 0 
L 2938 0 
L 2938 2094 
Q 2938 2591 2744 2837 
Q 2550 3084 2163 3084 
Q 1697 3084 1428 2787 
Q 1159 2491 1159 1978 
L 1159 0 
L 581 0 
L 581 3500 
L 1159 3500 
L 1159 2956 
Q 1366 3272 1645 3428 
Q 1925 3584 2291 3584 
Q 2894 3584 3203 3211 
Q 3513 2838 3513 2113 
z
" transform="scale(0.015625)"/>
     <path id="DejaVuSans-75" d="M 544 1381 
L 544 3500 
L 1119 3500 
L 1119 1403 
Q 1119 906 1312 657 
Q 1506 409 1894 409 
Q 2359 409 2629 706 
Q 2900 1003 2900 1516 
L 2900 3500 
L 3475 3500 
L 3475 0 
L 2900 0 
L 2900 538 
Q 2691 219 2414 64 
Q 2138 -91 1772 -91 
Q 1169 -91 856 284 
Q 544 659 544 1381 
z
M 1991 3584 
L 1991 3584 
z
" transform="scale(0.015625)"/>
     <path id="DejaVuSans-72" d="M 2631 2963 
Q 2534 3019 2420 3045 
Q 2306 3072 2169 3072 
Q 1681 3072 1420 2755 
Q 1159 2438 1159 1844 
L 1159 0 
L 581 0 
L 581 3500 
L 1159 3500 
L 1159 2956 
Q 1341 3275 1631 3429 
Q 1922 3584 2338 3584 
Q 2397 3584 2469 3576 
Q 2541 3569 2628 3553 
L 2631 2963 
z
" transform="scale(0.015625)"/>
     <path id="DejaVuSans-6f" d="M 1959 3097 
Q 1497 3097 1228 2736 
Q 959 2375 959 1747 
Q 959 1119 1226 758 
Q 1494 397 1959 397 
Q 2419 397 2687 759 
Q 2956 1122 2956 1747 
Q 2956 2369 2687 2733 
Q 2419 3097 1959 3097 
z
M 1959 3584 
Q 2709 3584 3137 3096 
Q 3566 2609 3566 1747 
Q 3566 888 3137 398 
Q 2709 -91 1959 -91 
Q 1206 -91 779 398 
Q 353 888 353 1747 
Q 353 2609 779 3096 
Q 1206 3584 1959 3584 
z
" transform="scale(0.015625)"/>
     <path id="DejaVuSans-2c" d="M 750 794 
L 1409 794 
L 1409 256 
L 897 -744 
L 494 -744 
L 750 256 
L 750 794 
z
" transform="scale(0.015625)"/>
     <path id="DejaVuSans-68" d="M 3513 2113 
L 3513 0 
L 2938 0 
L 2938 2094 
Q 2938 2591 2744 2837 
Q 2550 3084 2163 3084 
Q 1697 3084 1428 2787 
Q 1159 2491 1159 1978 
L 1159 0 
L 581 0 
L 581 4863 
L 1159 4863 
L 1159 2956 
Q 1366 3272 1645 3428 
Q 1925 3584 2291 3584 
Q 2894 3584 3203 3211 
Q 3513 2838 3513 2113 
z
" transform="scale(0.015625)"/>
     <path id="DejaVuSans-79" d="M 2059 -325 
Q 1816 -950 1584 -1140 
Q 1353 -1331 966 -1331 
L 506 -1331 
L 506 -850 
L 844 -850 
Q 1081 -850 1212 -737 
Q 1344 -625 1503 -206 
L 1606 56 
L 191 3500 
L 800 3500 
L 1894 763 
L 2988 3500 
L 3597 3500 
L 2059 -325 
z
" transform="scale(0.015625)"/>
     <path id="DejaVuSans-70" d="M 1159 525 
L 1159 -1331 
L 581 -1331 
L 581 3500 
L 1159 3500 
L 1159 2969 
Q 1341 3281 1617 3432 
Q 1894 3584 2278 3584 
Q 2916 3584 3314 3078 
Q 3713 2572 3713 1747 
Q 3713 922 3314 415 
Q 2916 -91 2278 -91 
Q 1894 -91 1617 61 
Q 1341 213 1159 525 
z
M 3116 1747 
Q 3116 2381 2855 2742 
Q 2594 3103 2138 3103 
Q 1681 3103 1420 2742 
Q 1159 2381 1159 1747 
Q 1159 1113 1420 752 
Q 1681 391 2138 391 
Q 2594 391 2855 752 
Q 3116 1113 3116 1747 
z
" transform="scale(0.015625)"/>
     <path id="DejaVuSans-6c" d="M 603 4863 
L 1178 4863 
L 1178 0 
L 603 0 
L 603 4863 
z
" transform="scale(0.015625)"/>
     <path id="DejaVuSans-61" d="M 2194 1759 
Q 1497 1759 1228 1600 
Q 959 1441 959 1056 
Q 959 750 1161 570 
Q 1363 391 1709 391 
Q 2188 391 2477 730 
Q 2766 1069 2766 1631 
L 2766 1759 
L 2194 1759 
z
M 3341 1997 
L 3341 0 
L 2766 0 
L 2766 531 
Q 2569 213 2275 61 
Q 1981 -91 1556 -91 
Q 1019 -91 701 211 
Q 384 513 384 1019 
Q 384 1609 779 1909 
Q 1175 2209 1959 2209 
L 2766 2209 
L 2766 2266 
Q 2766 2663 2505 2880 
Q 2244 3097 1772 3097 
Q 1472 3097 1187 3025 
Q 903 2953 641 2809 
L 641 3341 
Q 956 3463 1253 3523 
Q 1550 3584 1831 3584 
Q 2591 3584 2966 3190 
Q 3341 2797 3341 1997 
z
" transform="scale(0.015625)"/>
     <path id="DejaVuSans-67" d="M 2906 1791 
Q 2906 2416 2648 2759 
Q 2391 3103 1925 3103 
Q 1463 3103 1205 2759 
Q 947 2416 947 1791 
Q 947 1169 1205 825 
Q 1463 481 1925 481 
Q 2391 481 2648 825 
Q 2906 1169 2906 1791 
z
M 3481 434 
Q 3481 -459 3084 -895 
Q 2688 -1331 1869 -1331 
Q 1566 -1331 1297 -1286 
Q 1028 -1241 775 -1147 
L 775 -588 
Q 1028 -725 1275 -790 
Q 1522 -856 1778 -856 
Q 2344 -856 2625 -561 
Q 2906 -266 2906 331 
L 2906 616 
Q 2728 306 2450 153 
Q 2172 0 1784 0 
Q 1141 0 747 490 
Q 353 981 353 1791 
Q 353 2603 747 3093 
Q 1141 3584 1784 3584 
Q 2172 3584 2450 3431 
Q 2728 3278 2906 2969 
L 2906 3500 
L 3481 3500 
L 3481 434 
z
" transform="scale(0.015625)"/>
     <path id="DejaVuSans-62" d="M 3116 1747 
Q 3116 2381 2855 2742 
Q 2594 3103 2138 3103 
Q 1681 3103 1420 2742 
Q 1159 2381 1159 1747 
Q 1159 1113 1420 752 
Q 1681 391 2138 391 
Q 2594 391 2855 752 
Q 3116 1113 3116 1747 
z
M 1159 2969 
Q 1341 3281 1617 3432 
Q 1894 3584 2278 3584 
Q 2916 3584 3314 3078 
Q 3713 2572 3713 1747 
Q 3713 922 3314 415 
Q 2916 -91 2278 -91 
Q 1894 -91 1617 61 
Q 1341 213 1159 525 
L 1159 0 
L 581 0 
L 581 4863 
L 1159 4863 
L 1159 2969 
z
" transform="scale(0.015625)"/>
     <path id="DejaVuSans-64" d="M 2906 2969 
L 2906 4863 
L 3481 4863 
L 3481 0 
L 2906 0 
L 2906 525 
Q 2725 213 2448 61 
Q 2172 -91 1784 -91 
Q 1150 -91 751 415 
Q 353 922 353 1747 
Q 353 2572 751 3078 
Q 1150 3584 1784 3584 
Q 2172 3584 2448 3432 
Q 2725 3281 2906 2969 
z
M 947 1747 
Q 947 1113 1208 752 
Q 1469 391 1925 391 
Q 2381 391 2643 752 
Q 2906 1113 2906 1747 
Q 2906 2381 2643 2742 
Q 2381 3103 1925 3103 
Q 1469 3103 1208 2742 
Q 947 2381 947 1747 
z
" transform="scale(0.015625)"/>
     <path id="DejaVuSans-74" d="M 1172 4494 
L 1172 3500 
L 2356 3500 
L 2356 3053 
L 1172 3053 
L 1172 1153 
Q 1172 725 1289 603 
Q 1406 481 1766 481 
L 2356 481 
L 2356 0 
L 1766 0 
Q 1100 0 847 248 
Q 594 497 594 1153 
L 594 3053 
L 172 3053 
L 172 3500 
L 594 3500 
L 594 4494 
L 1172 4494 
z
" transform="scale(0.015625)"/>
    </defs>
    <use xlink:href="#DejaVuSans-53"/>
    <use xlink:href="#DejaVuSans-54" transform="translate(63.476562 0)"/>
    <use xlink:href="#DejaVuSans-4e" transform="translate(124.560547 0)"/>
    <use xlink:href="#DejaVuSans-20" transform="translate(199.365234 0)"/>
    <use xlink:href="#DejaVuSans-6e" transform="translate(231.152344 0)"/>
    <use xlink:href="#DejaVuSans-65" transform="translate(294.53125 0)"/>
    <use xlink:href="#DejaVuSans-75" transform="translate(356.054688 0)"/>
    <use xlink:href="#DejaVuSans-72" transform="translate(419.433594 0)"/>
    <use xlink:href="#DejaVuSans-6f" transform="translate(458.296875 0)"/>
    <use xlink:href="#DejaVuSans-6e" transform="translate(519.478516 0)"/>
    <use xlink:href="#DejaVuSans-2c" transform="translate(582.857422 0)"/>
    <use xlink:href="#DejaVuSans-20" transform="translate(614.644531 0)"/>
    <use xlink:href="#DejaVuSans-68" transform="translate(646.431641 0)"/>
    <use xlink:href="#DejaVuSans-79" transform="translate(709.810547 0)"/>
    <use xlink:href="#DejaVuSans-70" transform="translate(768.990234 0)"/>
    <use xlink:href="#DejaVuSans-65" transform="translate(832.466797 0)"/>
    <use xlink:href="#DejaVuSans-72" transform="translate(893.990234 0)"/>
    <use xlink:href="#DejaVuSans-70" transform="translate(935.103516 0)"/>
    <use xlink:href="#DejaVuSans-6f" transform="translate(998.580078 0)"/>
    <use xlink:href="#DejaVuSans-6c" transform="translate(1059.761719 0)"/>
    <use xlink:href="#DejaVuSans-61" transform="translate(1087.544922 0)"/>
    <use xlink:href="#DejaVuSans-72" transform="translate(1148.824219 0)"/>
    <use xlink:href="#DejaVuSans-69" transform="translate(1189.9375 0)"/>
    <use xlink:href="#DejaVuSans-73" transform="translate(1217.720703 0)"/>
    <use xlink:href="#DejaVuSans-69" transform="translate(1269.820312 0)"/>
    <use xlink:href="#DejaVuSans-6e" transform="translate(1297.603516 0)"/>
    <use xlink:href="#DejaVuSans-67" transform="translate(1360.982422 0)"/>
    <use xlink:href="#DejaVuSans-20" transform="translate(1424.458984 0)"/>
    <use xlink:href="#DejaVuSans-72" transform="translate(1456.246094 0)"/>
    <use xlink:href="#DejaVuSans-65" transform="translate(1495.109375 0)"/>
    <use xlink:href="#DejaVuSans-62" transform="translate(1556.632812 0)"/>
    <use xlink:href="#DejaVuSans-6f" transform="translate(1620.109375 0)"/>
    <use xlink:href="#DejaVuSans-75" transform="translate(1681.291016 0)"/>
    <use xlink:href="#DejaVuSans-6e" transform="translate(1744.669922 0)"/>
    <use xlink:href="#DejaVuSans-64" transform="translate(1808.048828 0)"/>
    <use xlink:href="#DejaVuSans-20" transform="translate(1871.525391 0)"/>
    <use xlink:href="#DejaVuSans-62" transform="translate(1903.3125 0)"/>
    <use xlink:href="#DejaVuSans-75" transform="translate(1966.789062 0)"/>
    <use xlink:href="#DejaVuSans-72" transform="translate(2030.167969 0)"/>
    <use xlink:href="#DejaVuSans-73" transform="translate(2071.28125 0)"/>
    <use xlink:href="#DejaVuSans-74" transform="translate(2123.380859 0)"/>
    <use xlink:href="#DejaVuSans-73" transform="translate(2162.589844 0)"/>
   </g>
  </g>
 </g>
 <defs>
  <clipPath id="p84c5576cd5">
   <rect x="54.104687" y="33.21375" width="655.095313" height="114.335728"/>
  </clipPath>
  <clipPath id="p7027077a87">
   <rect x="54.104687" y="162.311841" width="655.095313" height="114.335728"/>
  </clipPath>
  <clipPath id="pc075ced795">
   <rect x="54.104687" y="291.409931" width="655.095313" height="114.335728"/>
  </clipPath>
  <clipPath id="p92f18f53f8">
   <rect x="54.104687" y="420.508022" width="655.095313" height="114.335728"/>
  </clipPath>
 </defs>
</svg>
