<?xml version="1.0" encoding="utf-8" standalone="no"?>
<!DOCTYPE svg PUBLIC "-//W3C//DTD SVG 1.1//EN"
  "http://www.w3.org/Graphics/SVG/1.1/DTD/svg11.dtd">
<svg xmlns:xlink="http://www.w3.org/1999/xlink" width="460.8pt" height="345.6pt" viewBox="0 0 460.8 345.6" xmlns="http://www.w3.org/2000/svg" version="1.1">
 <metadata>
  <rdf:RDF xmlns:dc="http://purl.org/dc/elements/1.1/" xmlns:cc="http://creativecommons.org/ns#" xmlns:rdf="http://www.w3.org/1999/02/22-rdf-syntax-ns#">
   <cc:Work>
    <dc:type rdf:resource="http://purl.org/dc/dcmitype/StillImage"/>
    <dc:date>1980-01-01T00:00:00+00:00</dc:date>
    <dc:format>image/svg+xml</dc:format>
    <dc:creator>
     <cc:Agent>
      <dc:title>Matplotlib v3.9.1, https://matplotlib.org/</dc:title>
     </cc:Agent>
    </dc:creator>
   </cc:Work>
  </rdf:RDF>
 </metadata>
 <defs>
  <style type="text/css">*{stroke-linejoin: round; stroke-linecap: butt}</style>
 </defs>
 <g id="figure_1">
  <g id="patch_1">
   <path d="M 0 345.6 
L 460.8 345.6 
L 460.8 0 
L 0 0 
z
" style="fill: #ffffff"/>
  </g>
  <g id="axes_1">
   <g id="patch_2">
    <path d="M 57.6 307.584 
L 414.72 307.584 
L 414.72 41.472 
L 57.6 41.472 
z
" style="fill: #ffffff"/>
   </g>
   <g id="matplotlib.axis_1">
    <g id="xtick_1">
     <g id="line2d_1">
      <defs>
       <path id="m189bb15226" d="M 0 0 
L 0 3.5 
" style="stroke: #000000; stroke-width: 0.8"/>
      </defs>
      <g>
       <use xlink:href="#m189bb15226" x="73.832727" y="307.584" style="stroke: #000000; stroke-width: 0.8"/>
      </g>
     </g>
     <g id="text_1">
      <!-- 8.0 -->
      <g transform="translate(65.881165 322.182437) scale(0.1 -0.1)">
       <defs>
        <path id="DejaVuSans-38" d="M 2034 2216 
Q 1584 2216 1326 1975 
Q 1069 1734 1069 1313 
Q 1069 891 1326 650 
Q 1584 409 2034 409 
Q 2484 409 2743 651 
Q 3003 894 3003 1313 
Q 3003 1734 2745 1975 
Q 2488 2216 2034 2216 
z
M 1403 2484 
Q 997 2584 770 2862 
Q 544 3141 544 3541 
Q 544 4100 942 4425 
Q 1341 4750 2034 4750 
Q 2731 4750 3128 4425 
Q 3525 4100 3525 3541 
Q 3525 3141 3298 2862 
Q 3072 2584 2669 2484 
Q 3125 2378 3379 2068 
Q 3634 1759 3634 1313 
Q 3634 634 3220 271 
Q 2806 -91 2034 -91 
Q 1263 -91 848 271 
Q 434 634 434 1313 
Q 434 1759 690 2068 
Q 947 2378 1403 2484 
z
M 1172 3481 
Q 1172 3119 1398 2916 
Q 1625 2713 2034 2713 
Q 2441 2713 2670 2916 
Q 2900 3119 2900 3481 
Q 2900 3844 2670 4047 
Q 2441 4250 2034 4250 
Q 1625 4250 1398 4047 
Q 1172 3844 1172 3481 
z
" transform="scale(0.015625)"/>
        <path id="DejaVuSans-2e" d="M 684 794 
L 1344 794 
L 1344 0 
L 684 0 
L 684 794 
z
" transform="scale(0.015625)"/>
        <path id="DejaVuSans-30" d="M 2034 4250 
Q 1547 4250 1301 3770 
Q 1056 3291 1056 2328 
Q 1056 1369 1301 889 
Q 1547 409 2034 409 
Q 2525 409 2770 889 
Q 3016 1369 3016 2328 
Q 3016 3291 2770 3770 
Q 2525 4250 2034 4250 
z
M 2034 4750 
Q 2819 4750 3233 4129 
Q 3647 3509 3647 2328 
Q 3647 1150 3233 529 
Q 2819 -91 2034 -91 
Q 1250 -91 836 529 
Q 422 1150 422 2328 
Q 422 3509 836 4129 
Q 1250 4750 2034 4750 
z
" transform="scale(0.015625)"/>
       </defs>
       <use xlink:href="#DejaVuSans-38"/>
       <use xlink:href="#DejaVuSans-2e" x="63.623047"/>
       <use xlink:href="#DejaVuSans-30" x="95.410156"/>
      </g>
     </g>
    </g>
    <g id="xtick_2">
     <g id="line2d_2">
      <g>
       <use xlink:href="#m189bb15226" x="114.414545" y="307.584" style="stroke: #000000; stroke-width: 0.8"/>
      </g>
     </g>
     <g id="text_2">
      <!-- 8.5 -->
      <g transform="translate(106.462983 322.182437) scale(0.1 -0.1)">
       <defs>
        <path id="DejaVuSans-35" d="M 691 4666 
L 3169 4666 
L 3169 4134 
L 1269 4134 
L 1269 2991 
Q 1406 3038 1543 3061 
Q 1681 3084 1819 3084 
Q 2600 3084 3056 2656 
Q 3513 2228 3513 1497 
Q 3513 744 3044 326 
Q 2575 -91 1722 -91 
Q 1428 -91 1123 -41 
Q 819 9 494 109 
L 494 744 
Q 775 591 1075 516 
Q 1375 441 1709 441 
Q 2250 441 2565 725 
Q 2881 1009 2881 1497 
Q 2881 1984 2565 2268 
Q 2250 2553 1709 2553 
Q 1456 2553 1204 2497 
Q 953 2441 691 2322 
L 691 4666 
z
" transform="scale(0.015625)"/>
       </defs>
       <use xlink:href="#DejaVuSans-38"/>
       <use xlink:href="#DejaVuSans-2e" x="63.623047"/>
       <use xlink:href="#DejaVuSans-35" x="95.410156"/>
      </g>
     </g>
    </g>
    <g id="xtick_3">
     <g id="line2d_3">
      <g>
       <use xlink:href="#m189bb15226" x="154.996364" y="307.584" style="stroke: #000000; stroke-width: 0.8"/>
      </g>
     </g>
     <g id="text_3">
      <!-- 9.0 -->
      <g transform="translate(147.044801 322.182437) scale(0.1 -0.1)">
       <defs>
        <path id="DejaVuSans-39" d="M 703 97 
L 703 672 
Q 941 559 1184 500 
Q 1428 441 1663 441 
Q 2288 441 2617 861 
Q 2947 1281 2994 2138 
Q 2813 1869 2534 1725 
Q 2256 1581 1919 1581 
Q 1219 1581 811 2004 
Q 403 2428 403 3163 
Q 403 3881 828 4315 
Q 1253 4750 1959 4750 
Q 2769 4750 3195 4129 
Q 3622 3509 3622 2328 
Q 3622 1225 3098 567 
Q 2575 -91 1691 -91 
Q 1453 -91 1209 -44 
Q 966 3 703 97 
z
M 1959 2075 
Q 2384 2075 2632 2365 
Q 2881 2656 2881 3163 
Q 2881 3666 2632 3958 
Q 2384 4250 1959 4250 
Q 1534 4250 1286 3958 
Q 1038 3666 1038 3163 
Q 1038 2656 1286 2365 
Q 1534 2075 1959 2075 
z
" transform="scale(0.015625)"/>
       </defs>
       <use xlink:href="#DejaVuSans-39"/>
       <use xlink:href="#DejaVuSans-2e" x="63.623047"/>
       <use xlink:href="#DejaVuSans-30" x="95.410156"/>
      </g>
     </g>
    </g>
    <g id="xtick_4">
     <g id="line2d_4">
      <g>
       <use xlink:href="#m189bb15226" x="195.578182" y="307.584" style="stroke: #000000; stroke-width: 0.8"/>
      </g>
     </g>
     <g id="text_4">
      <!-- 9.5 -->
      <g transform="translate(187.626619 322.182437) scale(0.1 -0.1)">
       <use xlink:href="#DejaVuSans-39"/>
       <use xlink:href="#DejaVuSans-2e" x="63.623047"/>
       <use xlink:href="#DejaVuSans-35" x="95.410156"/>
      </g>
     </g>
    </g>
    <g id="xtick_5">
     <g id="line2d_5">
      <g>
       <use xlink:href="#m189bb15226" x="236.16" y="307.584" style="stroke: #000000; stroke-width: 0.8"/>
      </g>
     </g>
     <g id="text_5">
      <!-- 10.0 -->
      <g transform="translate(225.027188 322.182437) scale(0.1 -0.1)">
       <defs>
        <path id="DejaVuSans-31" d="M 794 531 
L 1825 531 
L 1825 4091 
L 703 3866 
L 703 4441 
L 1819 4666 
L 2450 4666 
L 2450 531 
L 3481 531 
L 3481 0 
L 794 0 
L 794 531 
z
" transform="scale(0.015625)"/>
       </defs>
       <use xlink:href="#DejaVuSans-31"/>
       <use xlink:href="#DejaVuSans-30" x="63.623047"/>
       <use xlink:href="#DejaVuSans-2e" x="127.246094"/>
       <use xlink:href="#DejaVuSans-30" x="159.033203"/>
      </g>
     </g>
    </g>
    <g id="xtick_6">
     <g id="line2d_6">
      <g>
       <use xlink:href="#m189bb15226" x="276.741818" y="307.584" style="stroke: #000000; stroke-width: 0.8"/>
      </g>
     </g>
     <g id="text_6">
      <!-- 10.5 -->
      <g transform="translate(265.609006 322.182437) scale(0.1 -0.1)">
       <use xlink:href="#DejaVuSans-31"/>
       <use xlink:href="#DejaVuSans-30" x="63.623047"/>
       <use xlink:href="#DejaVuSans-2e" x="127.246094"/>
       <use xlink:href="#DejaVuSans-35" x="159.033203"/>
      </g>
     </g>
    </g>
    <g id="xtick_7">
     <g id="line2d_7">
      <g>
       <use xlink:href="#m189bb15226" x="317.323636" y="307.584" style="stroke: #000000; stroke-width: 0.8"/>
      </g>
     </g>
     <g id="text_7">
      <!-- 11.0 -->
      <g transform="translate(306.190824 322.182437) scale(0.1 -0.1)">
       <use xlink:href="#DejaVuSans-31"/>
       <use xlink:href="#DejaVuSans-31" x="63.623047"/>
       <use xlink:href="#DejaVuSans-2e" x="127.246094"/>
       <use xlink:href="#DejaVuSans-30" x="159.033203"/>
      </g>
     </g>
    </g>
    <g id="xtick_8">
     <g id="line2d_8">
      <g>
       <use xlink:href="#m189bb15226" x="357.905455" y="307.584" style="stroke: #000000; stroke-width: 0.8"/>
      </g>
     </g>
     <g id="text_8">
      <!-- 11.5 -->
      <g transform="translate(346.772642 322.182437) scale(0.1 -0.1)">
       <use xlink:href="#DejaVuSans-31"/>
       <use xlink:href="#DejaVuSans-31" x="63.623047"/>
       <use xlink:href="#DejaVuSans-2e" x="127.246094"/>
       <use xlink:href="#DejaVuSans-35" x="159.033203"/>
      </g>
     </g>
    </g>
    <g id="xtick_9">
     <g id="line2d_9">
      <g>
       <use xlink:href="#m189bb15226" x="398.487273" y="307.584" style="stroke: #000000; stroke-width: 0.8"/>
      </g>
     </g>
     <g id="text_9">
      <!-- 12.0 -->
      <g transform="translate(387.35446 322.182437) scale(0.1 -0.1)">
       <defs>
        <path id="DejaVuSans-32" d="M 1228 531 
L 3431 531 
L 3431 0 
L 469 0 
L 469 531 
Q 828 903 1448 1529 
Q 2069 2156 2228 2338 
Q 2531 2678 2651 2914 
Q 2772 3150 2772 3378 
Q 2772 3750 2511 3984 
Q 2250 4219 1831 4219 
Q 1534 4219 1204 4116 
Q 875 4013 500 3803 
L 500 4441 
Q 881 4594 1212 4672 
Q 1544 4750 1819 4750 
Q 2544 4750 2975 4387 
Q 3406 4025 3406 3419 
Q 3406 3131 3298 2873 
Q 3191 2616 2906 2266 
Q 2828 2175 2409 1742 
Q 1991 1309 1228 531 
z
" transform="scale(0.015625)"/>
       </defs>
       <use xlink:href="#DejaVuSans-31"/>
       <use xlink:href="#DejaVuSans-32" x="63.623047"/>
       <use xlink:href="#DejaVuSans-2e" x="127.246094"/>
       <use xlink:href="#DejaVuSans-30" x="159.033203"/>
      </g>
     </g>
    </g>
    <g id="text_10">
     <!-- Current (nA) -->
     <g transform="translate(205.30375 335.860562) scale(0.1 -0.1)">
      <defs>
       <path id="DejaVuSans-43" d="M 4122 4306 
L 4122 3641 
Q 3803 3938 3442 4084 
Q 3081 4231 2675 4231 
Q 1875 4231 1450 3742 
Q 1025 3253 1025 2328 
Q 1025 1406 1450 917 
Q 1875 428 2675 428 
Q 3081 428 3442 575 
Q 3803 722 4122 1019 
L 4122 359 
Q 3791 134 3420 21 
Q 3050 -91 2638 -91 
Q 1578 -91 968 557 
Q 359 1206 359 2328 
Q 359 3453 968 4101 
Q 1578 4750 2638 4750 
Q 3056 4750 3426 4639 
Q 3797 4528 4122 4306 
z
" transform="scale(0.015625)"/>
       <path id="DejaVuSans-75" d="M 544 1381 
L 544 3500 
L 1119 3500 
L 1119 1403 
Q 1119 906 1312 657 
Q 1506 409 1894 409 
Q 2359 409 2629 706 
Q 2900 1003 2900 1516 
L 2900 3500 
L 3475 3500 
L 3475 0 
L 2900 0 
L 2900 538 
Q 2691 219 2414 64 
Q 2138 -91 1772 -91 
Q 1169 -91 856 284 
Q 544 659 544 1381 
z
M 1991 3584 
L 1991 3584 
z
" transform="scale(0.015625)"/>
       <path id="DejaVuSans-72" d="M 2631 2963 
Q 2534 3019 2420 3045 
Q 2306 3072 2169 3072 
Q 1681 3072 1420 2755 
Q 1159 2438 1159 1844 
L 1159 0 
L 581 0 
L 581 3500 
L 1159 3500 
L 1159 2956 
Q 1341 3275 1631 3429 
Q 1922 3584 2338 3584 
Q 2397 3584 2469 3576 
Q 2541 3569 2628 3553 
L 2631 2963 
z
" transform="scale(0.015625)"/>
       <path id="DejaVuSans-65" d="M 3597 1894 
L 3597 1613 
L 953 1613 
Q 991 1019 1311 708 
Q 1631 397 2203 397 
Q 2534 397 2845 478 
Q 3156 559 3463 722 
L 3463 178 
Q 3153 47 2828 -22 
Q 2503 -91 2169 -91 
Q 1331 -91 842 396 
Q 353 884 353 1716 
Q 353 2575 817 3079 
Q 1281 3584 2069 3584 
Q 2775 3584 3186 3129 
Q 3597 2675 3597 1894 
z
M 3022 2063 
Q 3016 2534 2758 2815 
Q 2500 3097 2075 3097 
Q 1594 3097 1305 2825 
Q 1016 2553 972 2059 
L 3022 2063 
z
" transform="scale(0.015625)"/>
       <path id="DejaVuSans-6e" d="M 3513 2113 
L 3513 0 
L 2938 0 
L 2938 2094 
Q 2938 2591 2744 2837 
Q 2550 3084 2163 3084 
Q 1697 3084 1428 2787 
Q 1159 2491 1159 1978 
L 1159 0 
L 581 0 
L 581 3500 
L 1159 3500 
L 1159 2956 
Q 1366 3272 1645 3428 
Q 1925 3584 2291 3584 
Q 2894 3584 3203 3211 
Q 3513 2838 3513 2113 
z
" transform="scale(0.015625)"/>
       <path id="DejaVuSans-74" d="M 1172 4494 
L 1172 3500 
L 2356 3500 
L 2356 3053 
L 1172 3053 
L 1172 1153 
Q 1172 725 1289 603 
Q 1406 481 1766 481 
L 2356 481 
L 2356 0 
L 1766 0 
Q 1100 0 847 248 
Q 594 497 594 1153 
L 594 3053 
L 172 3053 
L 172 3500 
L 594 3500 
L 594 4494 
L 1172 4494 
z
" transform="scale(0.015625)"/>
       <path id="DejaVuSans-20" transform="scale(0.015625)"/>
       <path id="DejaVuSans-28" d="M 1984 4856 
Q 1566 4138 1362 3434 
Q 1159 2731 1159 2009 
Q 1159 1288 1364 580 
Q 1569 -128 1984 -844 
L 1484 -844 
Q 1016 -109 783 600 
Q 550 1309 550 2009 
Q 550 2706 781 3412 
Q 1013 4119 1484 4856 
L 1984 4856 
z
" transform="scale(0.015625)"/>
       <path id="DejaVuSans-41" d="M 2188 4044 
L 1331 1722 
L 3047 1722 
L 2188 4044 
z
M 1831 4666 
L 2547 4666 
L 4325 0 
L 3669 0 
L 3244 1197 
L 1141 1197 
L 716 0 
L 50 0 
L 1831 4666 
z
" transform="scale(0.015625)"/>
       <path id="DejaVuSans-29" d="M 513 4856 
L 1013 4856 
Q 1481 4119 1714 3412 
Q 1947 2706 1947 2009 
Q 1947 1309 1714 600 
Q 1481 -109 1013 -844 
L 513 -844 
Q 928 -128 1133 580 
Q 1338 1288 1338 2009 
Q 1338 2731 1133 3434 
Q 928 4138 513 4856 
z
" transform="scale(0.015625)"/>
      </defs>
      <use xlink:href="#DejaVuSans-43"/>
      <use xlink:href="#DejaVuSans-75" x="69.824219"/>
      <use xlink:href="#DejaVuSans-72" x="133.203125"/>
      <use xlink:href="#DejaVuSans-72" x="172.566406"/>
      <use xlink:href="#DejaVuSans-65" x="211.429688"/>
      <use xlink:href="#DejaVuSans-6e" x="272.953125"/>
      <use xlink:href="#DejaVuSans-74" x="336.332031"/>
      <use xlink:href="#DejaVuSans-20" x="375.541016"/>
      <use xlink:href="#DejaVuSans-28" x="407.328125"/>
      <use xlink:href="#DejaVuSans-6e" x="446.341797"/>
      <use xlink:href="#DejaVuSans-41" x="509.720703"/>
      <use xlink:href="#DejaVuSans-29" x="578.128906"/>
     </g>
    </g>
   </g>
   <g id="matplotlib.axis_2">
    <g id="ytick_1">
     <g id="line2d_10">
      <defs>
       <path id="m4d20ddbfc6" d="M 0 0 
L -3.5 0 
" style="stroke: #000000; stroke-width: 0.8"/>
      </defs>
      <g>
       <use xlink:href="#m4d20ddbfc6" x="57.6" y="295.488" style="stroke: #000000; stroke-width: 0.8"/>
      </g>
     </g>
     <g id="text_11">
      <!-- 0 -->
      <g transform="translate(44.2375 299.287219) scale(0.1 -0.1)">
       <use xlink:href="#DejaVuSans-30"/>
      </g>
     </g>
    </g>
    <g id="ytick_2">
     <g id="line2d_11">
      <g>
       <use xlink:href="#m4d20ddbfc6" x="57.6" y="252.141755" style="stroke: #000000; stroke-width: 0.8"/>
      </g>
     </g>
     <g id="text_12">
      <!-- 10 -->
      <g transform="translate(37.875 255.940974) scale(0.1 -0.1)">
       <use xlink:href="#DejaVuSans-31"/>
       <use xlink:href="#DejaVuSans-30" x="63.623047"/>
      </g>
     </g>
    </g>
    <g id="ytick_3">
     <g id="line2d_12">
      <g>
       <use xlink:href="#m4d20ddbfc6" x="57.6" y="208.79551" style="stroke: #000000; stroke-width: 0.8"/>
      </g>
     </g>
     <g id="text_13">
      <!-- 20 -->
      <g transform="translate(37.875 212.594729) scale(0.1 -0.1)">
       <use xlink:href="#DejaVuSans-32"/>
       <use xlink:href="#DejaVuSans-30" x="63.623047"/>
      </g>
     </g>
    </g>
    <g id="ytick_4">
     <g id="line2d_13">
      <g>
       <use xlink:href="#m4d20ddbfc6" x="57.6" y="165.449265" style="stroke: #000000; stroke-width: 0.8"/>
      </g>
     </g>
     <g id="text_14">
      <!-- 30 -->
      <g transform="translate(37.875 169.248484) scale(0.1 -0.1)">
       <defs>
        <path id="DejaVuSans-33" d="M 2597 2516 
Q 3050 2419 3304 2112 
Q 3559 1806 3559 1356 
Q 3559 666 3084 287 
Q 2609 -91 1734 -91 
Q 1441 -91 1130 -33 
Q 819 25 488 141 
L 488 750 
Q 750 597 1062 519 
Q 1375 441 1716 441 
Q 2309 441 2620 675 
Q 2931 909 2931 1356 
Q 2931 1769 2642 2001 
Q 2353 2234 1838 2234 
L 1294 2234 
L 1294 2753 
L 1863 2753 
Q 2328 2753 2575 2939 
Q 2822 3125 2822 3475 
Q 2822 3834 2567 4026 
Q 2313 4219 1838 4219 
Q 1578 4219 1281 4162 
Q 984 4106 628 3988 
L 628 4550 
Q 988 4650 1302 4700 
Q 1616 4750 1894 4750 
Q 2613 4750 3031 4423 
Q 3450 4097 3450 3541 
Q 3450 3153 3228 2886 
Q 3006 2619 2597 2516 
z
" transform="scale(0.015625)"/>
       </defs>
       <use xlink:href="#DejaVuSans-33"/>
       <use xlink:href="#DejaVuSans-30" x="63.623047"/>
      </g>
     </g>
    </g>
    <g id="ytick_5">
     <g id="line2d_14">
      <g>
       <use xlink:href="#m4d20ddbfc6" x="57.6" y="122.10302" style="stroke: #000000; stroke-width: 0.8"/>
      </g>
     </g>
     <g id="text_15">
      <!-- 40 -->
      <g transform="translate(37.875 125.902238) scale(0.1 -0.1)">
       <defs>
        <path id="DejaVuSans-34" d="M 2419 4116 
L 825 1625 
L 2419 1625 
L 2419 4116 
z
M 2253 4666 
L 3047 4666 
L 3047 1625 
L 3713 1625 
L 3713 1100 
L 3047 1100 
L 3047 0 
L 2419 0 
L 2419 1100 
L 313 1100 
L 313 1709 
L 2253 4666 
z
" transform="scale(0.015625)"/>
       </defs>
       <use xlink:href="#DejaVuSans-34"/>
       <use xlink:href="#DejaVuSans-30" x="63.623047"/>
      </g>
     </g>
    </g>
    <g id="ytick_6">
     <g id="line2d_15">
      <g>
       <use xlink:href="#m4d20ddbfc6" x="57.6" y="78.756775" style="stroke: #000000; stroke-width: 0.8"/>
      </g>
     </g>
     <g id="text_16">
      <!-- 50 -->
      <g transform="translate(37.875 82.555993) scale(0.1 -0.1)">
       <use xlink:href="#DejaVuSans-35"/>
       <use xlink:href="#DejaVuSans-30" x="63.623047"/>
      </g>
     </g>
    </g>
    <g id="text_17">
     <!-- Firing frequency (Hz) -->
     <g transform="translate(31.795312 226.758469) rotate(-90) scale(0.1 -0.1)">
      <defs>
       <path id="DejaVuSans-46" d="M 628 4666 
L 3309 4666 
L 3309 4134 
L 1259 4134 
L 1259 2759 
L 3109 2759 
L 3109 2228 
L 1259 2228 
L 1259 0 
L 628 0 
L 628 4666 
z
" transform="scale(0.015625)"/>
       <path id="DejaVuSans-69" d="M 603 3500 
L 1178 3500 
L 1178 0 
L 603 0 
L 603 3500 
z
M 603 4863 
L 1178 4863 
L 1178 4134 
L 603 4134 
L 603 4863 
z
" transform="scale(0.015625)"/>
       <path id="DejaVuSans-67" d="M 2906 1791 
Q 2906 2416 2648 2759 
Q 2391 3103 1925 3103 
Q 1463 3103 1205 2759 
Q 947 2416 947 1791 
Q 947 1169 1205 825 
Q 1463 481 1925 481 
Q 2391 481 2648 825 
Q 2906 1169 2906 1791 
z
M 3481 434 
Q 3481 -459 3084 -895 
Q 2688 -1331 1869 -1331 
Q 1566 -1331 1297 -1286 
Q 1028 -1241 775 -1147 
L 775 -588 
Q 1028 -725 1275 -790 
Q 1522 -856 1778 -856 
Q 2344 -856 2625 -561 
Q 2906 -266 2906 331 
L 2906 616 
Q 2728 306 2450 153 
Q 2172 0 1784 0 
Q 1141 0 747 490 
Q 353 981 353 1791 
Q 353 2603 747 3093 
Q 1141 3584 1784 3584 
Q 2172 3584 2450 3431 
Q 2728 3278 2906 2969 
L 2906 3500 
L 3481 3500 
L 3481 434 
z
" transform="scale(0.015625)"/>
       <path id="DejaVuSans-66" d="M 2375 4863 
L 2375 4384 
L 1825 4384 
Q 1516 4384 1395 4259 
Q 1275 4134 1275 3809 
L 1275 3500 
L 2222 3500 
L 2222 3053 
L 1275 3053 
L 1275 0 
L 697 0 
L 697 3053 
L 147 3053 
L 147 3500 
L 697 3500 
L 697 3744 
Q 697 4328 969 4595 
Q 1241 4863 1831 4863 
L 2375 4863 
z
" transform="scale(0.015625)"/>
       <path id="DejaVuSans-71" d="M 947 1747 
Q 947 1113 1208 752 
Q 1469 391 1925 391 
Q 2381 391 2643 752 
Q 2906 1113 2906 1747 
Q 2906 2381 2643 2742 
Q 2381 3103 1925 3103 
Q 1469 3103 1208 2742 
Q 947 2381 947 1747 
z
M 2906 525 
Q 2725 213 2448 61 
Q 2172 -91 1784 -91 
Q 1150 -91 751 415 
Q 353 922 353 1747 
Q 353 2572 751 3078 
Q 1150 3584 1784 3584 
Q 2172 3584 2448 3432 
Q 2725 3281 2906 2969 
L 2906 3500 
L 3481 3500 
L 3481 -1331 
L 2906 -1331 
L 2906 525 
z
" transform="scale(0.015625)"/>
       <path id="DejaVuSans-63" d="M 3122 3366 
L 3122 2828 
Q 2878 2963 2633 3030 
Q 2388 3097 2138 3097 
Q 1578 3097 1268 2742 
Q 959 2388 959 1747 
Q 959 1106 1268 751 
Q 1578 397 2138 397 
Q 2388 397 2633 464 
Q 2878 531 3122 666 
L 3122 134 
Q 2881 22 2623 -34 
Q 2366 -91 2075 -91 
Q 1284 -91 818 406 
Q 353 903 353 1747 
Q 353 2603 823 3093 
Q 1294 3584 2113 3584 
Q 2378 3584 2631 3529 
Q 2884 3475 3122 3366 
z
" transform="scale(0.015625)"/>
       <path id="DejaVuSans-79" d="M 2059 -325 
Q 1816 -950 1584 -1140 
Q 1353 -1331 966 -1331 
L 506 -1331 
L 506 -850 
L 844 -850 
Q 1081 -850 1212 -737 
Q 1344 -625 1503 -206 
L 1606 56 
L 191 3500 
L 800 3500 
L 1894 763 
L 2988 3500 
L 3597 3500 
L 2059 -325 
z
" transform="scale(0.015625)"/>
       <path id="DejaVuSans-48" d="M 628 4666 
L 1259 4666 
L 1259 2753 
L 3553 2753 
L 3553 4666 
L 4184 4666 
L 4184 0 
L 3553 0 
L 3553 2222 
L 1259 2222 
L 1259 0 
L 628 0 
L 628 4666 
z
" transform="scale(0.015625)"/>
       <path id="DejaVuSans-7a" d="M 353 3500 
L 3084 3500 
L 3084 2975 
L 922 459 
L 3084 459 
L 3084 0 
L 275 0 
L 275 525 
L 2438 3041 
L 353 3041 
L 353 3500 
z
" transform="scale(0.015625)"/>
      </defs>
      <use xlink:href="#DejaVuSans-46"/>
      <use xlink:href="#DejaVuSans-69" x="50.269531"/>
      <use xlink:href="#DejaVuSans-72" x="78.052734"/>
      <use xlink:href="#DejaVuSans-69" x="119.166016"/>
      <use xlink:href="#DejaVuSans-6e" x="146.949219"/>
      <use xlink:href="#DejaVuSans-67" x="210.328125"/>
      <use xlink:href="#DejaVuSans-20" x="273.804688"/>
      <use xlink:href="#DejaVuSans-66" x="305.591797"/>
      <use xlink:href="#DejaVuSans-72" x="340.796875"/>
      <use xlink:href="#DejaVuSans-65" x="379.660156"/>
      <use xlink:href="#DejaVuSans-71" x="441.183594"/>
      <use xlink:href="#DejaVuSans-75" x="504.660156"/>
      <use xlink:href="#DejaVuSans-65" x="568.039062"/>
      <use xlink:href="#DejaVuSans-6e" x="629.5625"/>
      <use xlink:href="#DejaVuSans-63" x="692.941406"/>
      <use xlink:href="#DejaVuSans-79" x="747.921875"/>
      <use xlink:href="#DejaVuSans-20" x="807.101562"/>
      <use xlink:href="#DejaVuSans-28" x="838.888672"/>
      <use xlink:href="#DejaVuSans-48" x="877.902344"/>
      <use xlink:href="#DejaVuSans-7a" x="953.097656"/>
      <use xlink:href="#DejaVuSans-29" x="1005.587891"/>
     </g>
    </g>
   </g>
   <g id="line2d_16">
    <path d="M 73.832727 295.488 
L 235.834695 295.488 
L 236.485305 240.075342 
L 237.135915 231.029103 
L 237.786526 225.73904 
L 238.437136 221.756548 
L 239.738357 215.639307 
L 241.039577 210.827164 
L 242.340798 206.758119 
L 244.292629 201.525405 
L 246.24446 196.982876 
L 248.846901 191.639603 
L 251.449342 186.866008 
L 254.051784 182.504628 
L 257.304835 177.486865 
L 261.208497 171.946333 
L 265.112159 166.805227 
L 269.666431 161.196309 
L 274.871314 155.186796 
L 280.076196 149.51472 
L 285.931689 143.455764 
L 292.437792 137.046743 
L 299.594505 130.315207 
L 307.401829 123.281403 
L 315.859763 115.959927 
L 324.968308 108.361055 
L 335.378073 99.97598 
L 346.438448 91.356228 
L 358.800044 82.01425 
L 371.81225 72.457178 
L 386.125677 62.217203 
L 398.487273 53.568 
L 398.487273 53.568 
" clip-path="url(#p89d5693c4b)" style="fill: none; stroke: #000000; stroke-width: 0.8; stroke-linecap: square"/>
   </g>
   <g id="line2d_17">
    <path d="M 73.832727 245.639818 
L 75.133948 245.856549 
L 75.784558 248.197247 
L 76.435169 245.553126 
L 77.085779 245.509779 
L 77.736389 245.986588 
L 78.386999 245.249702 
L 79.03761 242.215465 
L 79.68822 243.992661 
L 80.33883 244.382777 
L 80.989441 244.1227 
L 82.290661 242.475542 
L 82.941272 242.822312 
L 83.591882 242.518889 
L 84.242492 242.822312 
L 84.893103 240.568307 
L 85.543713 242.04208 
L 86.194323 239.96146 
L 86.844934 241.00177 
L 87.495544 240.611654 
L 88.146154 241.305194 
L 88.796764 239.61469 
L 89.447375 238.617726 
L 90.097985 240.048153 
L 90.748595 237.924187 
L 91.399206 239.744729 
L 92.049816 239.484651 
L 92.700426 240.221538 
L 93.351037 238.357649 
L 94.001647 237.317339 
L 94.652257 235.713528 
L 95.302868 237.404032 
L 95.953478 236.320375 
L 96.604088 234.586526 
L 97.254698 235.280066 
L 97.905309 234.153063 
L 98.555919 233.416177 
L 99.206529 234.976642 
L 99.85714 234.239756 
L 100.50775 233.1561 
L 101.15836 233.719601 
L 101.808971 232.722637 
L 103.110191 234.153063 
L 103.760802 233.026061 
L 104.411412 232.159136 
L 105.062022 231.725673 
L 105.712633 230.72871 
L 106.363243 230.642017 
L 107.013853 229.081553 
L 107.664463 229.34163 
L 108.315074 229.34163 
L 108.965684 229.905131 
L 109.616294 229.731746 
L 110.266905 227.044279 
L 110.917515 229.775092 
L 111.568125 228.604744 
L 112.218736 226.134008 
L 112.869346 227.174318 
L 113.519956 226.957587 
L 114.170567 227.911204 
L 114.821177 226.047315 
L 115.471787 224.876967 
L 116.122398 227.174318 
L 116.773008 225.960623 
L 117.423618 225.700545 
L 118.074228 226.307393 
L 118.724839 223.706618 
L 119.375449 226.437432 
L 120.026059 225.830584 
L 120.67667 225.960623 
L 121.32728 222.709655 
L 121.97789 223.446541 
L 122.628501 222.146153 
L 123.279111 222.146153 
L 123.929721 222.622962 
L 124.580332 222.53627 
L 125.230942 221.192536 
L 125.881552 222.276192 
L 126.532163 219.935495 
L 127.182773 219.198609 
L 127.833383 219.978841 
L 129.134604 219.848802 
L 129.785214 219.025224 
L 130.435824 217.724836 
L 132.387655 217.898221 
L 133.038266 218.895185 
L 133.688876 216.424449 
L 134.339486 215.080715 
L 134.990097 215.210754 
L 135.640707 214.517214 
L 136.291317 214.473868 
L 136.941927 214.733945 
L 137.592538 214.603907 
L 138.243148 212.696672 
L 138.893758 213.043442 
L 139.544369 215.210754 
L 140.194979 214.517214 
L 140.845589 213.130134 
L 141.4962 211.396285 
L 142.14681 212.956749 
L 142.79742 212.783364 
L 143.448031 210.919476 
L 144.098641 210.789437 
L 144.749251 210.832783 
L 145.399862 210.399321 
L 146.050472 211.439631 
L 146.701082 209.402357 
L 148.002303 208.015277 
L 148.652913 209.185626 
L 149.303523 208.10197 
L 149.954134 209.662435 
L 150.604744 207.7552 
L 151.255354 207.711854 
L 151.905965 208.318701 
L 152.556575 205.024387 
L 153.207185 204.63427 
L 153.857796 204.63427 
L 154.508406 207.278391 
L 155.159016 206.541505 
L 155.809627 204.330847 
L 156.460237 204.200808 
L 157.110847 206.064696 
L 158.412068 202.857074 
L 159.062678 204.63427 
L 159.713288 201.123224 
L 160.363899 199.649452 
L 161.014509 198.999258 
L 161.665119 200.516377 
L 162.31573 201.253263 
L 162.96634 200.993186 
L 163.61695 200.863147 
L 164.267561 200.906493 
L 164.918171 199.085951 
L 165.568781 199.56276 
L 166.219392 200.819801 
L 166.870002 198.695835 
L 167.520612 199.822837 
L 168.171222 198.045641 
L 168.821833 197.352101 
L 169.472443 197.742217 
L 170.123053 195.74829 
L 170.773664 197.395447 
L 171.424274 195.141443 
L 172.074884 196.745254 
L 172.725495 197.265409 
L 173.376105 196.571869 
L 174.026715 193.147515 
L 174.677326 194.794673 
L 175.327936 194.491249 
L 175.978546 192.540668 
L 176.629156 192.540668 
L 177.279767 193.711017 
L 177.930377 190.763472 
L 178.580987 193.3209 
L 179.231598 192.714053 
L 179.882208 194.274518 
L 180.532818 189.809854 
L 181.183429 191.673743 
L 181.834039 190.633433 
L 182.484649 191.023549 
L 183.13526 190.720126 
L 183.78587 189.463085 
L 184.43648 189.072968 
L 185.087091 190.373356 
L 185.737701 189.679816 
L 186.388311 186.949002 
L 187.038921 186.602232 
L 187.689532 189.896547 
L 188.340142 188.422775 
L 188.990752 186.385501 
L 189.641363 188.076005 
L 190.291973 187.122387 
L 190.942583 186.602232 
L 191.593194 186.51554 
L 192.243804 185.301845 
L 193.545025 183.437956 
L 194.195635 183.351264 
L 194.846245 182.614378 
L 195.496856 184.304881 
L 196.147466 181.704107 
L 196.798076 184.001458 
L 197.448686 181.704107 
L 198.099297 183.351264 
L 198.749907 180.490412 
L 199.400517 182.744417 
L 200.051128 182.050877 
L 200.701738 179.753526 
L 201.352348 181.31399 
L 202.002959 180.96722 
L 202.653569 178.409792 
L 203.304179 178.886601 
L 203.95479 180.317027 
L 204.6054 178.843254 
L 205.25601 178.409792 
L 205.906621 176.762635 
L 206.557231 176.545904 
L 207.207841 177.196097 
L 207.858451 178.149715 
L 208.509062 175.852364 
L 209.159672 175.939056 
L 209.810282 174.942092 
L 210.460893 176.199134 
L 211.111503 175.375555 
L 211.762113 175.54894 
L 213.713944 174.638669 
L 214.364555 174.768707 
L 215.015165 171.73447 
L 215.665775 173.46832 
L 216.316385 174.291899 
L 216.966996 174.205206 
L 217.617606 174.725361 
L 218.268216 173.728398 
L 218.918827 170.043967 
L 219.569437 171.73447 
L 220.220047 170.737507 
L 220.870658 169.047003 
L 221.521268 170.910892 
L 222.171878 168.093386 
L 222.822489 167.659923 
L 223.473099 169.740543 
L 224.123709 168.050039 
L 224.77432 168.916964 
L 225.42493 167.920001 
L 226.07554 167.573231 
L 226.72615 167.833308 
L 228.027371 165.665996 
L 228.677981 166.099458 
L 229.328592 165.102495 
L 229.979202 165.839381 
L 230.629812 164.669032 
L 231.280423 165.102495 
L 231.931033 163.065221 
L 232.581643 162.935183 
L 233.882864 164.495647 
L 234.533474 163.368645 
L 235.184085 162.84849 
L 235.834695 162.545066 
L 236.485305 162.545066 
L 237.135915 162.111604 
L 237.786526 160.724524 
L 238.437136 162.198296 
L 239.087746 160.334408 
L 239.738357 161.244679 
L 241.039577 159.987638 
L 241.690188 160.204369 
L 242.340798 158.990674 
L 242.991408 157.430209 
L 243.642019 157.516902 
L 244.292629 157.776979 
L 244.943239 156.519938 
L 245.59385 158.080403 
L 246.89507 156.086476 
L 247.54568 156.563285 
L 248.196291 155.739706 
L 248.846901 156.086476 
L 249.497511 155.436282 
L 250.148122 155.826398 
L 250.798732 153.832471 
L 251.449342 153.182277 
L 252.099953 153.919164 
L 252.750563 154.092549 
L 253.401173 152.748815 
L 254.702394 154.005856 
L 255.353004 152.705469 
L 256.003615 152.57543 
L 256.654225 152.098621 
L 257.304835 150.364771 
L 257.955445 151.578466 
L 258.606056 150.408118 
L 259.256666 150.928273 
L 259.907276 148.890999 
L 260.557887 150.234733 
L 261.208497 150.49481 
L 261.859107 149.064384 
L 262.509718 148.197459 
L 263.810938 149.931309 
L 264.461549 149.757924 
L 265.112159 148.110767 
L 266.413379 146.246878 
L 267.06399 146.420263 
L 267.7146 146.463609 
L 268.36521 145.683377 
L 269.015821 145.640031 
L 269.666431 145.466646 
L 270.317041 144.72976 
L 270.967652 143.429372 
L 271.618262 144.513028 
L 272.268872 143.299334 
L 272.919483 142.822525 
L 273.570093 143.472719 
L 274.220703 142.475755 
L 274.871314 142.432409 
L 275.521924 141.522137 
L 276.172534 141.305406 
L 277.473755 141.392099 
L 278.124365 141.738869 
L 278.774975 139.744941 
L 279.425586 139.311479 
L 280.076196 139.441518 
L 280.726806 141.26206 
L 281.377417 140.91529 
L 282.028027 138.401208 
L 282.678637 138.097784 
L 283.329248 136.884089 
L 283.979858 139.051402 
L 284.630468 137.577629 
L 285.281079 138.531247 
L 285.931689 136.147203 
L 286.582299 136.840743 
L 287.232909 136.840743 
L 287.88352 135.323624 
L 288.53413 134.239968 
L 289.18474 135.280278 
L 289.835351 134.976854 
L 290.485961 134.153276 
L 291.136571 135.366971 
L 291.787182 135.150239 
L 292.437792 132.809542 
L 293.088402 136.103857 
L 293.739013 134.10993 
L 294.389623 135.020201 
L 295.040233 133.373043 
L 295.690844 133.76316 
L 296.341454 131.942617 
L 296.992064 130.468845 
L 297.642674 131.552501 
L 298.293285 130.382152 
L 298.943895 129.94869 
L 299.594505 129.818651 
L 300.245116 131.725886 
L 300.895726 131.032346 
L 301.546336 129.992036 
L 302.196947 128.171494 
L 302.847557 129.775305 
L 303.498167 128.171494 
L 304.148778 127.738032 
L 304.799388 127.477954 
L 305.449998 127.651339 
L 306.100608 128.431571 
L 306.751219 126.220913 
L 307.401829 126.090874 
L 308.052439 125.007218 
L 308.70305 125.700758 
L 309.35366 125.700758 
L 310.00427 125.527373 
L 310.654881 124.183639 
L 311.305491 125.180603 
L 311.956101 125.310642 
L 312.606712 124.270332 
L 313.257322 124.833833 
L 313.907932 124.877179 
L 314.558543 123.663485 
L 315.209153 123.533446 
L 316.510373 121.192749 
L 317.160984 121.279441 
L 317.811594 121.539518 
L 318.462204 122.79656 
L 319.112815 121.019364 
L 319.763425 120.412516 
L 320.414035 121.582865 
L 321.064646 120.152439 
L 321.715256 117.681703 
L 322.365866 119.805669 
L 323.016477 120.109092 
L 323.667087 117.378279 
L 324.317697 118.071819 
L 324.968308 117.94178 
L 325.618918 118.331896 
L 326.269528 116.641393 
L 326.920138 118.505281 
L 327.570749 118.548628 
L 328.221359 117.118201 
L 328.871969 116.034545 
L 329.52258 117.031509 
L 330.17319 116.728085 
L 330.8238 114.214003 
L 331.474411 114.907543 
L 332.125021 113.737194 
L 332.775631 115.297659 
L 333.426242 113.173693 
L 334.076852 114.690812 
L 334.727462 115.774468 
L 335.378073 113.000308 
L 336.028683 112.133383 
L 336.679293 112.133383 
L 337.329903 113.477117 
L 337.980514 112.003345 
L 338.631124 111.223112 
L 339.281734 111.916652 
L 340.582955 111.223112 
L 341.233565 109.359224 
L 341.884176 111.569882 
L 342.534786 109.966071 
L 343.185396 109.229185 
L 343.836007 108.102183 
L 344.486617 108.318914 
L 345.137227 109.012454 
L 345.787837 109.315877 
L 346.438448 107.451989 
L 347.089058 108.318914 
L 347.739668 107.148565 
L 348.390279 106.931834 
L 349.040889 107.798759 
L 349.691499 107.061873 
L 350.34211 108.01549 
L 350.99272 107.191911 
L 351.64333 106.62841 
L 352.293941 105.284677 
L 352.944551 106.498371 
L 354.245772 102.380478 
L 354.896382 104.634483 
L 355.546992 103.030672 
L 356.848213 103.680866 
L 358.149433 103.594173 
L 358.800044 101.903669 
L 359.450654 100.950052 
L 360.101264 102.120401 
L 360.751875 101.643592 
L 361.402485 101.600246 
L 362.053095 99.216202 
L 362.703706 101.080091 
L 363.354316 100.429897 
L 364.004926 100.950052 
L 364.655537 99.302895 
L 365.306147 98.739394 
L 365.956757 98.912779 
L 366.607367 97.612391 
L 367.257978 99.736357 
L 367.908588 97.482352 
L 368.559198 97.092236 
L 369.209809 99.042817 
L 370.511029 96.918851 
L 371.16164 96.832159 
L 371.81225 95.401733 
L 372.46286 97.04889 
L 373.113471 96.051926 
L 373.764081 95.401733 
L 374.414691 96.572081 
L 375.065302 94.708193 
L 375.715912 94.924924 
L 376.366522 94.014653 
L 377.017132 94.534808 
L 377.667743 93.624537 
L 378.318353 92.497534 
L 378.968963 92.410842 
L 379.619574 91.543917 
L 380.920794 91.717302 
L 381.571405 91.500571 
L 382.222015 91.500571 
L 382.872625 90.070145 
L 383.523236 92.540881 
L 384.173846 90.633646 
L 384.824456 90.720338 
L 385.475066 88.986488 
L 386.125677 89.54999 
L 386.776287 88.683065 
L 387.426897 90.503607 
L 388.077508 88.986488 
L 388.728118 88.813103 
L 389.378728 87.686101 
L 390.029339 88.683065 
L 390.679949 88.076217 
L 391.330559 86.949215 
L 391.98117 87.295985 
L 392.63178 87.165946 
L 393.28239 86.689137 
L 393.933001 86.905869 
L 395.234221 85.562135 
L 395.884831 87.46937 
L 396.535442 85.258711 
L 397.186052 84.955288 
L 397.836662 83.698247 
L 398.487273 83.958324 
L 398.487273 83.958324 
" clip-path="url(#p89d5693c4b)" style="fill: none; stroke: #ff0000; stroke-width: 1.5; stroke-linecap: square"/>
   </g>
   <g id="line2d_18">
    <path d="M 73.832727 292.323724 
L 74.483338 292.540455 
L 75.133948 291.976954 
L 75.784558 291.630184 
L 76.435169 292.280378 
L 77.085779 291.456799 
L 77.736389 291.370107 
L 78.386999 291.760223 
L 79.03761 291.846915 
L 79.68822 291.066683 
L 80.33883 291.413453 
L 80.989441 291.32676 
L 81.640051 290.286451 
L 82.290661 290.633221 
L 82.941272 290.286451 
L 83.591882 290.113066 
L 84.242492 290.329797 
L 84.893103 289.983027 
L 85.543713 290.156412 
L 86.194323 290.113066 
L 86.844934 289.246141 
L 88.146154 288.899371 
L 88.796764 289.072756 
L 89.447375 288.552601 
L 90.097985 289.289487 
L 90.748595 289.332833 
L 91.399206 287.598983 
L 92.049816 287.425598 
L 92.700426 287.468945 
L 93.351037 288.032446 
L 94.001647 286.94879 
L 94.652257 287.685676 
L 95.302868 286.905443 
L 95.953478 286.471981 
L 96.604088 286.862097 
L 97.254698 286.298596 
L 97.905309 286.298596 
L 98.555919 285.344979 
L 99.206529 285.388325 
L 99.85714 285.301632 
L 100.50775 285.648402 
L 101.15836 284.86817 
L 101.808971 284.824824 
L 102.459581 285.171594 
L 103.110191 284.651439 
L 103.760802 284.911516 
L 104.411412 284.087938 
L 105.712633 283.611129 
L 106.363243 282.527473 
L 107.013853 282.78755 
L 107.664463 282.484126 
L 108.315074 281.530509 
L 108.965684 281.833933 
L 109.616294 281.790587 
L 110.266905 280.923662 
L 110.917515 279.840006 
L 111.568125 280.403507 
L 112.869346 280.100083 
L 113.519956 281.0537 
L 114.170567 279.493236 
L 114.821177 277.629347 
L 115.471787 278.192848 
L 116.122398 277.542655 
L 116.773008 278.019463 
L 117.423618 278.192848 
L 118.724839 276.719076 
L 119.375449 276.67573 
L 120.026059 275.895497 
L 120.67667 276.068882 
L 121.32728 274.551764 
L 121.97789 273.598146 
L 122.628501 275.722112 
L 123.929721 272.731221 
L 124.580332 273.5548 
L 125.230942 272.51449 
L 125.881552 270.954025 
L 126.532163 271.647565 
L 127.182773 270.954025 
L 127.833383 269.870369 
L 128.483993 271.430834 
L 129.134604 270.130447 
L 129.785214 269.957062 
L 130.435824 268.743367 
L 131.086435 268.613328 
L 131.737045 268.353251 
L 132.387655 269.133483 
L 133.038266 266.879478 
L 133.688876 266.576055 
L 134.339486 266.446016 
L 134.990097 266.619401 
L 135.640707 265.969207 
L 136.291317 265.492398 
L 136.941927 264.538781 
L 137.592538 264.408742 
L 138.243148 264.061972 
L 138.893758 264.928897 
L 139.544369 264.625474 
L 140.194979 261.981353 
L 140.845589 261.417851 
L 141.4962 262.24143 
L 142.14681 262.631546 
L 142.79742 260.16081 
L 143.448031 261.89466 
L 144.098641 259.293885 
L 144.749251 257.299958 
L 145.399862 257.516689 
L 146.050472 257.126573 
L 146.701082 257.820113 
L 147.351692 257.733421 
L 148.002303 256.519726 
L 148.652913 257.169919 
L 149.303523 255.826186 
L 149.954134 255.826186 
L 150.604744 253.398796 
L 151.255354 255.696147 
L 151.905965 252.575217 
L 152.556575 254.04899 
L 153.207185 253.962297 
L 153.857796 251.058099 
L 154.508406 251.404869 
L 155.159016 250.971406 
L 155.809627 251.318176 
L 156.460237 248.674055 
L 157.110847 247.893823 
L 157.761457 249.367595 
L 158.412068 247.547053 
L 159.062678 246.723474 
L 159.713288 247.850477 
L 160.363899 243.992661 
L 161.014509 244.859586 
L 161.665119 243.905968 
L 162.31573 245.206356 
L 162.96634 244.46947 
L 163.61695 242.562235 
L 164.267561 243.819276 
L 164.918171 241.868695 
L 165.568781 240.741692 
L 166.219392 242.73562 
L 166.870002 240.134845 
L 167.520612 240.655 
L 168.171222 240.30823 
L 168.821833 239.397959 
L 169.472443 239.26792 
L 170.123053 237.013915 
L 170.773664 237.664109 
L 171.424274 237.750802 
L 172.074884 237.1873 
L 172.725495 237.143954 
L 173.376105 237.360685 
L 174.026715 234.413141 
L 174.677326 232.549252 
L 175.327936 233.026061 
L 175.978546 232.029097 
L 176.629156 234.283102 
L 177.279767 232.765983 
L 177.930377 230.555325 
L 178.580987 231.378904 
L 179.231598 230.72871 
L 179.882208 226.957587 
L 180.532818 229.384976 
L 181.183429 228.821475 
L 181.834039 227.651126 
L 182.484649 226.740855 
L 183.13526 226.264047 
L 183.78587 227.911204 
L 184.43648 224.573543 
L 185.087091 224.486851 
L 185.737701 223.706618 
L 186.388311 224.616889 
L 187.038921 225.050352 
L 187.689532 222.276192 
L 188.340142 224.096734 
L 188.990752 220.498996 
L 189.641363 222.839693 
L 190.291973 222.666308 
L 190.942583 220.195572 
L 191.593194 220.498996 
L 192.243804 218.114953 
L 192.894414 218.158299 
L 193.545025 218.461722 
L 194.195635 217.204681 
L 194.846245 217.551451 
L 195.496856 216.207718 
L 196.147466 216.121025 
L 196.798076 215.687563 
L 197.448686 213.043442 
L 198.099297 214.473868 
L 198.749907 213.043442 
L 199.400517 212.870057 
L 200.051128 210.52936 
L 200.701738 211.006168 
L 201.352348 213.000096 
L 202.002959 212.176517 
L 202.653569 209.705781 
L 203.304179 211.56967 
L 203.95479 210.355975 
L 204.6054 208.015277 
L 205.25601 208.188662 
L 205.906621 207.711854 
L 206.557231 209.098934 
L 207.207841 206.541505 
L 207.858451 207.278391 
L 208.509062 205.804619 
L 209.810282 204.677617 
L 210.460893 203.117152 
L 211.111503 204.851002 
L 211.762113 203.117152 
L 212.412724 202.250227 
L 213.063334 202.336919 
L 213.713944 200.429685 
L 214.364555 198.86922 
L 215.015165 200.993186 
L 215.665775 201.513341 
L 216.316385 199.649452 
L 216.966996 199.432721 
L 217.617606 197.742217 
L 218.268216 198.955912 
L 218.918827 198.782527 
L 219.569437 196.7886 
L 220.220047 196.571869 
L 220.870658 195.704944 
L 221.521268 195.184789 
L 222.171878 195.228135 
L 222.822489 193.364247 
L 223.473099 192.497322 
L 224.123709 193.797709 
L 224.77432 191.847128 
L 225.42493 192.453975 
L 226.07554 192.800745 
L 226.72615 191.847128 
L 227.376761 192.410629 
L 228.027371 191.153588 
L 228.677981 190.243317 
L 229.328592 189.072968 
L 229.979202 189.679816 
L 230.629812 189.159661 
L 231.280423 189.333046 
L 231.931033 188.24939 
L 232.581643 188.119351 
L 233.232254 187.512504 
L 233.882864 187.382465 
L 234.533474 186.038731 
L 235.184085 186.255462 
L 235.834695 185.085114 
L 236.485305 183.524649 
L 237.135915 183.871419 
L 238.437136 183.134533 
L 239.087746 182.527685 
L 240.388967 181.790799 
L 241.039577 179.796872 
L 241.690188 180.750489 
L 242.340798 180.403719 
L 242.991408 179.666833 
L 243.642019 179.363409 
L 244.292629 178.409792 
L 244.943239 177.97633 
L 245.59385 177.802945 
L 246.24446 178.279753 
L 246.89507 177.326136 
L 247.54568 175.028785 
L 248.196291 176.675942 
L 248.846901 174.248553 
L 249.497511 175.375555 
L 250.148122 174.16186 
L 250.798732 172.514703 
L 251.449342 174.378591 
L 252.099953 172.211279 
L 252.750563 174.50863 
L 253.401173 172.688088 
L 254.051784 171.951202 
L 254.702394 172.644741 
L 255.353004 171.474393 
L 256.003615 169.610504 
L 256.654225 169.957274 
L 257.304835 170.174005 
L 257.955445 168.223424 
L 258.606056 169.350427 
L 259.256666 167.053076 
L 259.907276 168.223424 
L 260.557887 168.440156 
L 261.208497 165.449265 
L 261.859107 166.142805 
L 262.509718 167.399846 
L 263.160328 166.142805 
L 263.810938 165.405919 
L 264.461549 164.495647 
L 265.112159 165.015802 
L 265.762769 163.932146 
L 266.413379 162.328335 
L 267.06399 163.108568 
L 267.7146 162.761798 
L 268.36521 162.198296 
L 269.015821 160.030984 
L 269.666431 160.897909 
L 270.317041 161.157986 
L 270.967652 161.027948 
L 271.618262 159.207405 
L 272.268872 159.944292 
L 272.919483 158.253788 
L 273.570093 158.427173 
L 274.220703 158.297134 
L 274.871314 157.950364 
L 275.521924 157.907018 
L 276.172534 157.516902 
L 276.823144 156.129822 
L 277.473755 156.433246 
L 278.124365 156.04313 
L 279.425586 155.69636 
L 280.076196 154.742742 
L 280.726806 155.609667 
L 281.377417 152.965546 
L 282.028027 153.095585 
L 282.678637 152.011929 
L 283.329248 152.315353 
L 283.979858 151.621813 
L 284.630468 152.488737 
L 285.281079 149.974655 
L 285.931689 149.80127 
L 286.582299 150.624849 
L 287.232909 149.757924 
L 287.88352 149.671232 
L 288.53413 150.061348 
L 289.18474 148.500883 
L 289.835351 147.980728 
L 290.485961 147.027111 
L 291.787182 147.547266 
L 292.437792 148.370844 
L 293.088402 145.466646 
L 293.739013 146.333571 
L 294.389623 145.986801 
L 295.040233 145.4233 
L 295.690844 143.819488 
L 296.341454 145.07653 
L 296.992064 145.293261 
L 297.642674 143.039256 
L 298.293285 142.952564 
L 298.943895 142.99591 
L 299.594505 142.519101 
L 300.245116 142.822525 
L 300.895726 141.998946 
L 301.546336 140.308443 
L 302.196947 140.698559 
L 302.847557 140.611866 
L 303.498167 139.571556 
L 304.148778 139.398171 
L 304.799388 139.614903 
L 305.449998 139.138094 
L 306.100608 138.878017 
L 306.751219 137.620975 
L 307.401829 138.444554 
L 308.052439 137.44759 
L 308.70305 137.404244 
L 309.35366 135.800433 
L 310.00427 136.450627 
L 310.654881 136.017164 
L 311.305491 134.933508 
L 311.956101 135.063547 
L 312.606712 135.453663 
L 313.257322 133.676467 
L 313.907932 135.150239 
L 314.558543 133.893198 
L 315.209153 132.982927 
L 316.510373 132.072656 
L 317.160984 132.072656 
L 317.811594 131.509155 
L 318.462204 131.509155 
L 319.112815 130.772269 
L 320.414035 130.468845 
L 321.064646 129.428535 
L 321.715256 129.341843 
L 322.365866 128.258186 
L 323.016477 128.648303 
L 323.667087 128.604956 
L 324.317697 127.86807 
L 324.968308 128.518264 
L 325.618918 126.611029 
L 326.269528 125.527373 
L 326.920138 126.741068 
L 327.570749 126.784414 
L 328.221359 125.700758 
L 328.871969 125.267296 
L 329.52258 125.050564 
L 330.17319 125.137257 
L 330.8238 124.096947 
L 331.474411 124.096947 
L 332.125021 123.750177 
L 333.426242 122.493136 
L 334.076852 122.276405 
L 334.727462 121.279441 
L 335.378073 122.579828 
L 336.028683 121.452826 
L 336.679293 120.932671 
L 337.329903 120.0224 
L 337.980514 120.976017 
L 338.631124 120.412516 
L 339.281734 120.325824 
L 339.932345 118.28855 
L 340.582955 119.155475 
L 341.884176 119.068783 
L 342.534786 117.811741 
L 343.185396 117.638356 
L 343.836007 116.5547 
L 344.486617 115.687775 
L 345.137227 115.817814 
L 345.787837 115.557737 
L 346.438448 115.601083 
L 347.089058 115.904507 
L 347.739668 114.387388 
L 348.390279 114.083964 
L 349.040889 114.517427 
L 349.691499 114.517427 
L 350.34211 113.303732 
L 350.99272 112.956962 
L 351.64333 113.043654 
L 352.293941 112.740231 
L 352.944551 110.832996 
L 353.595161 113.000308 
L 354.896382 110.746303 
L 355.546992 111.049727 
L 356.197602 110.44288 
L 356.848213 110.182802 
L 357.498823 108.925761 
L 358.149433 109.229185 
L 358.800044 109.0558 
L 359.450654 109.012454 
L 360.101264 108.70903 
L 360.751875 107.928798 
L 361.402485 108.058836 
L 362.053095 106.888488 
L 362.703706 106.931834 
L 363.354316 106.411679 
L 364.655537 106.021563 
L 365.306147 105.197984 
L 365.956757 105.284677 
L 366.607367 103.984289 
L 367.257978 104.807868 
L 367.908588 104.287713 
L 368.559198 104.20102 
L 369.209809 103.767558 
L 369.860419 103.507481 
L 370.511029 102.250439 
L 371.81225 101.340168 
L 372.46286 101.643592 
L 374.414691 100.16982 
L 375.065302 101.080091 
L 375.715912 99.693011 
L 376.366522 99.649665 
L 377.667743 98.262585 
L 378.318353 98.349277 
L 378.968963 97.915815 
L 379.619574 97.829122 
L 380.270184 96.528735 
L 380.920794 97.439006 
L 381.571405 96.181965 
L 382.222015 96.528735 
L 382.872625 96.528735 
L 383.523236 95.705156 
L 384.173846 96.70212 
L 384.824456 94.924924 
L 385.475066 95.228348 
L 386.776287 94.6215 
L 387.426897 93.624537 
L 388.077508 93.451152 
L 388.728118 92.454188 
L 389.378728 92.150764 
L 390.029339 92.88765 
L 391.330559 91.760648 
L 391.98117 91.847341 
L 392.63178 91.630609 
L 393.28239 90.5903 
L 393.933001 91.500571 
L 394.583611 90.113491 
L 395.234221 90.416915 
L 395.884831 89.376605 
L 396.535442 88.986488 
L 397.186052 89.506643 
L 397.836662 87.686101 
L 398.487273 87.902832 
L 398.487273 87.902832 
" clip-path="url(#p89d5693c4b)" style="fill: none; stroke: #ff0000; stroke-opacity: 0.8; stroke-width: 1.5; stroke-linecap: square"/>
   </g>
   <g id="line2d_19">
    <path d="M 73.832727 295.488 
L 162.96634 295.444654 
L 163.61695 295.314615 
L 164.267561 295.314615 
L 164.918171 295.184576 
L 165.568781 295.357961 
L 166.870002 295.271269 
L 167.520612 295.357961 
L 168.171222 295.14123 
L 169.472443 295.271269 
L 170.123053 295.14123 
L 170.773664 295.271269 
L 171.424274 295.227923 
L 172.074884 294.924499 
L 172.725495 294.79446 
L 173.376105 294.79446 
L 174.026715 294.491036 
L 174.677326 294.404344 
L 175.327936 294.187613 
L 175.978546 294.534383 
L 176.629156 294.10092 
L 177.279767 294.014228 
L 177.930377 293.537419 
L 178.580987 293.320688 
L 179.231598 293.537419 
L 179.882208 292.887225 
L 180.532818 293.017264 
L 181.183429 292.497109 
L 181.834039 291.803569 
L 182.484649 291.976954 
L 183.13526 291.413453 
L 183.78587 292.280378 
L 184.43648 291.196722 
L 185.087091 290.633221 
L 185.737701 289.549564 
L 186.388311 289.809642 
L 187.689532 289.116102 
L 188.340142 288.379216 
L 188.990752 287.468945 
L 189.641363 287.122175 
L 190.291973 286.428635 
L 190.942583 285.258286 
L 191.593194 285.344979 
L 192.243804 284.17463 
L 192.894414 284.261323 
L 193.545025 281.963972 
L 194.195635 282.050664 
L 194.846245 280.880315 
L 195.496856 279.189812 
L 196.147466 279.059773 
L 196.798076 278.669657 
L 197.448686 276.025536 
L 198.099297 276.935807 
L 198.749907 274.421725 
L 199.400517 273.034645 
L 200.051128 272.51449 
L 200.701738 271.040718 
L 201.352348 268.830059 
L 202.002959 268.960098 
L 202.653569 268.439943 
L 203.304179 265.882515 
L 203.95479 264.885551 
L 204.6054 264.798858 
L 205.25601 262.674892 
L 205.906621 261.677929 
L 206.557231 260.464234 
L 207.207841 258.210229 
L 207.858451 259.077154 
L 208.509062 257.126573 
L 209.159672 257.039881 
L 209.810282 253.70222 
L 210.460893 252.618564 
L 211.762113 251.361523 
L 212.412724 248.674055 
L 213.063334 248.84744 
L 213.713944 245.856549 
L 214.364555 244.252738 
L 215.015165 243.992661 
L 215.665775 242.995697 
L 216.316385 240.741692 
L 216.966996 240.30823 
L 217.617606 238.22761 
L 218.918827 236.797184 
L 219.569437 235.583489 
L 220.220047 232.635945 
L 220.870658 232.375867 
L 221.521268 229.991824 
L 222.171878 230.03517 
L 222.822489 229.298284 
L 224.123709 225.787238 
L 224.77432 224.660236 
L 225.42493 224.226773 
L 226.07554 224.140081 
L 226.72615 221.929422 
L 227.376761 221.84273 
L 228.027371 221.49596 
L 228.677981 218.981877 
L 229.328592 218.37503 
L 229.979202 216.251064 
L 230.629812 216.684526 
L 231.280423 214.21379 
L 231.931033 214.690599 
L 232.581643 214.56056 
L 233.232254 211.309592 
L 233.882864 212.176517 
L 234.533474 209.922512 
L 235.184085 210.572706 
L 235.834695 208.838856 
L 236.485305 208.232009 
L 237.135915 207.148353 
L 237.786526 206.454813 
L 238.437136 205.024387 
L 239.087746 203.897384 
L 239.738357 202.423612 
L 240.388967 202.727036 
L 241.039577 200.819801 
L 241.690188 200.429685 
L 242.340798 200.776455 
L 242.991408 198.52245 
L 243.642019 197.612179 
L 244.943239 197.352101 
L 246.24446 194.751326 
L 247.54568 193.971094 
L 248.196291 192.107205 
L 248.846901 192.28059 
L 249.497511 190.113278 
L 250.148122 190.199971 
L 250.798732 190.069932 
L 251.449342 189.116315 
L 252.099953 187.729235 
L 252.750563 187.425811 
L 254.051784 186.255462 
L 254.702394 185.041768 
L 255.353004 184.911729 
L 256.003615 183.698034 
L 256.654225 183.611341 
L 257.304835 182.310954 
L 257.955445 182.70107 
L 259.256666 180.533758 
L 260.557887 179.796872 
L 261.859107 178.149715 
L 262.509718 177.369482 
L 263.160328 177.109405 
L 263.810938 176.459211 
L 264.461549 176.069095 
L 265.112159 174.942092 
L 265.762769 174.595322 
L 266.413379 174.118514 
L 267.7146 172.08124 
L 268.36521 171.73447 
L 269.015821 171.647778 
L 270.317041 170.520775 
L 270.967652 169.220388 
L 271.618262 169.480466 
L 272.268872 168.136732 
L 272.919483 167.963347 
L 273.570093 167.096422 
L 274.871314 165.752688 
L 275.521924 165.709342 
L 276.172534 165.059149 
L 276.823144 164.58234 
L 277.473755 164.365609 
L 278.774975 162.935183 
L 279.425586 162.935183 
L 280.726806 161.591449 
L 283.979858 158.817289 
L 284.630468 157.820326 
L 285.281079 157.950364 
L 285.931689 157.343517 
L 286.582299 156.433246 
L 287.232909 155.956437 
L 287.88352 155.69636 
L 288.53413 155.132858 
L 289.18474 154.872781 
L 289.835351 153.96251 
L 291.136571 152.835507 
L 292.437792 152.22866 
L 293.739013 150.928273 
L 294.389623 150.234733 
L 295.040233 150.234733 
L 296.341454 149.064384 
L 297.642674 148.674268 
L 298.293285 147.417227 
L 298.943895 147.113803 
L 299.594505 146.463609 
L 300.245116 146.680341 
L 301.546336 145.726723 
L 302.196947 144.773106 
L 302.847557 144.426336 
L 303.498167 144.209605 
L 304.148778 143.34268 
L 304.799388 143.039256 
L 305.449998 142.432409 
L 306.100608 142.389062 
L 306.751219 141.565484 
L 307.401829 140.958636 
L 308.052439 141.26206 
L 309.35366 139.744941 
L 310.00427 139.614903 
L 310.654881 138.964709 
L 311.305491 138.791324 
L 311.956101 137.837707 
L 312.606712 137.360898 
L 313.257322 137.490937 
L 313.907932 137.10082 
L 314.558543 137.10082 
L 315.209153 136.190549 
L 316.510373 135.020201 
L 317.811594 134.4567 
L 318.462204 133.936545 
L 319.112815 133.76316 
L 319.763425 132.939581 
L 321.064646 132.636157 
L 322.365866 131.119039 
L 323.016477 131.119039 
L 323.667087 130.512191 
L 324.317697 130.122075 
L 324.968308 129.861998 
L 326.269528 128.951726 
L 326.920138 127.954763 
L 327.570749 128.21484 
L 328.221359 127.5213 
L 328.871969 127.261223 
L 329.52258 126.524337 
L 330.17319 126.611029 
L 330.8238 125.874143 
L 331.474411 125.744104 
L 332.775631 125.050564 
L 333.426242 124.226986 
L 334.076852 124.010254 
L 335.378073 123.013291 
L 337.329903 122.319751 
L 337.980514 121.972981 
L 338.631124 121.019364 
L 339.281734 120.845979 
L 340.582955 119.892361 
L 342.534786 118.98209 
L 343.185396 118.28855 
L 343.836007 118.158511 
L 344.486617 117.378279 
L 345.137227 117.378279 
L 346.438448 116.337969 
L 347.089058 116.20793 
L 348.390279 115.037582 
L 349.040889 115.080928 
L 350.34211 114.430734 
L 350.99272 113.693848 
L 351.64333 113.477117 
L 352.293941 113.000308 
L 352.944551 113.043654 
L 353.595161 112.306768 
L 354.245772 112.003345 
L 355.546992 110.963035 
L 356.848213 110.616265 
L 357.498823 109.879379 
L 358.149433 109.445916 
L 358.800044 109.359224 
L 359.450654 109.012454 
L 360.101264 108.405606 
L 361.402485 107.928798 
L 363.354316 106.715103 
L 364.004926 106.411679 
L 365.306147 105.371369 
L 365.956757 105.458062 
L 366.607367 104.807868 
L 367.257978 104.591137 
L 367.908588 104.027635 
L 368.559198 103.854251 
L 369.209809 103.420788 
L 369.860419 103.160711 
L 370.511029 102.640556 
L 371.16164 102.597209 
L 371.81225 102.163747 
L 372.46286 101.470207 
L 373.113471 101.080091 
L 373.764081 101.253476 
L 374.414691 100.906706 
L 375.065302 99.953088 
L 375.715912 100.16982 
L 376.366522 99.606318 
L 377.017132 99.259549 
L 377.667743 98.78274 
L 378.318353 98.652701 
L 378.968963 97.915815 
L 379.619574 97.655737 
L 380.270184 97.655737 
L 380.920794 96.962198 
L 381.571405 96.788813 
L 382.872625 95.878541 
L 384.173846 95.098309 
L 384.824456 95.401733 
L 385.475066 94.664847 
L 386.125677 94.664847 
L 386.776287 93.884614 
L 387.426897 93.754575 
L 388.077508 93.017689 
L 388.728118 93.017689 
L 389.378728 92.627573 
L 390.029339 92.584227 
L 390.679949 91.977379 
L 391.98117 91.110454 
L 392.63178 90.937069 
L 393.28239 90.416915 
L 393.933001 90.24353 
L 394.583611 90.200183 
L 395.234221 89.506643 
L 396.535442 88.85645 
L 397.186052 88.336295 
L 397.836662 88.249602 
L 398.487273 87.729447 
L 398.487273 87.729447 
" clip-path="url(#p89d5693c4b)" style="fill: none; stroke: #ff0000; stroke-opacity: 0.6; stroke-width: 1.5; stroke-linecap: square"/>
   </g>
   <g id="line2d_20">
    <path d="M 73.832727 295.488 
L 220.870658 295.401308 
L 222.171878 295.271269 
L 222.822489 295.097884 
L 223.473099 294.317651 
L 224.123709 294.144266 
L 224.77432 293.364034 
L 225.42493 292.280378 
L 226.07554 289.506218 
L 226.72615 287.252213 
L 227.376761 284.5214 
L 228.027371 279.926698 
L 228.677981 277.802732 
L 229.328592 269.827023 
L 231.931033 251.96837 
L 232.581643 247.156937 
L 233.232254 243.689237 
L 233.882864 239.311266 
L 236.485305 227.087625 
L 238.437136 220.412304 
L 239.087746 217.811529 
L 244.292629 204.894348 
L 244.943239 204.460885 
L 246.24446 201.600033 
L 246.89507 200.689762 
L 248.196291 198.305719 
L 250.148122 194.924711 
L 250.798732 194.187825 
L 251.449342 193.017477 
L 252.099953 192.237244 
L 252.750563 191.066896 
L 255.353004 187.599196 
L 256.003615 186.558886 
L 256.654225 185.952039 
L 261.859107 179.493448 
L 262.509718 178.843254 
L 263.160328 178.019676 
L 263.810938 177.499521 
L 265.762769 175.20217 
L 266.413379 174.768707 
L 267.7146 173.294935 
L 270.317041 170.780853 
L 270.967652 170.043967 
L 271.618262 169.480466 
L 272.268872 168.700233 
L 273.570093 167.659923 
L 274.220703 166.923037 
L 274.871314 166.489575 
L 278.124365 163.368645 
L 283.329248 158.903982 
L 283.979858 158.513866 
L 285.281079 157.256824 
L 285.931689 156.866708 
L 288.53413 154.699396 
L 290.485961 153.182277 
L 292.437792 151.53512 
L 293.088402 151.145004 
L 295.040233 149.497847 
L 296.341454 148.674268 
L 297.642674 147.677304 
L 304.799388 142.432409 
L 305.449998 142.172331 
L 306.751219 141.001983 
L 308.052439 140.265096 
L 311.956101 137.577629 
L 312.606712 136.970782 
L 313.257322 136.667358 
L 313.907932 136.147203 
L 314.558543 135.800433 
L 315.209153 135.236932 
L 315.859763 134.976854 
L 316.510373 134.413353 
L 317.811594 133.76316 
L 318.462204 133.112966 
L 319.112815 132.852888 
L 319.763425 132.289387 
L 320.414035 131.942617 
L 323.016477 130.078729 
L 323.667087 129.818651 
L 325.618918 128.56161 
L 326.920138 127.86807 
L 330.8238 125.223949 
L 332.125021 124.226986 
L 334.076852 123.099983 
L 335.378073 122.493136 
L 336.679293 121.799596 
L 338.631124 120.672594 
L 339.281734 120.195785 
L 339.932345 119.935707 
L 340.582955 119.372206 
L 341.233565 118.98209 
L 343.185396 117.508318 
L 343.836007 117.161548 
L 345.137227 116.337969 
L 346.438448 115.557737 
L 348.390279 114.820851 
L 349.040889 114.430734 
L 350.34211 113.910579 
L 354.896382 110.746303 
L 356.848213 109.272531 
L 357.498823 109.0558 
L 360.101264 107.538681 
L 361.402485 107.191911 
L 362.703706 106.758449 
L 364.655537 105.93487 
L 365.306147 105.544754 
L 365.956757 105.328023 
L 367.257978 104.374405 
L 367.908588 103.724212 
L 369.209809 102.857287 
L 369.860419 102.163747 
L 373.113471 99.909742 
L 375.715912 98.869432 
L 378.318353 98.262585 
L 381.571405 97.092236 
L 382.872625 96.268658 
L 384.824456 94.708193 
L 385.475066 94.231384 
L 387.426897 92.324149 
L 388.077508 91.977379 
L 389.378728 91.023762 
L 390.679949 90.330222 
L 391.330559 89.983452 
L 394.583611 89.20322 
L 398.487273 88.466333 
L 398.487273 88.466333 
" clip-path="url(#p89d5693c4b)" style="fill: none; stroke: #ff0000; stroke-opacity: 0.4; stroke-width: 1.5; stroke-linecap: square"/>
   </g>
   <g id="patch_3">
    <path d="M 57.6 307.584 
L 57.6 41.472 
" style="fill: none; stroke: #000000; stroke-width: 0.8; stroke-linejoin: miter; stroke-linecap: square"/>
   </g>
   <g id="patch_4">
    <path d="M 414.72 307.584 
L 414.72 41.472 
" style="fill: none; stroke: #000000; stroke-width: 0.8; stroke-linejoin: miter; stroke-linecap: square"/>
   </g>
   <g id="patch_5">
    <path d="M 57.6 307.584 
L 414.72 307.584 
" style="fill: none; stroke: #000000; stroke-width: 0.8; stroke-linejoin: miter; stroke-linecap: square"/>
   </g>
   <g id="patch_6">
    <path d="M 57.6 41.472 
L 414.72 41.472 
" style="fill: none; stroke: #000000; stroke-width: 0.8; stroke-linejoin: miter; stroke-linecap: square"/>
   </g>
   <g id="text_18">
    <!-- Firing rate vs. current at different noise amplitudes -->
    <g transform="translate(82.96875 35.472) scale(0.12 -0.12)">
     <defs>
      <path id="DejaVuSans-61" d="M 2194 1759 
Q 1497 1759 1228 1600 
Q 959 1441 959 1056 
Q 959 750 1161 570 
Q 1363 391 1709 391 
Q 2188 391 2477 730 
Q 2766 1069 2766 1631 
L 2766 1759 
L 2194 1759 
z
M 3341 1997 
L 3341 0 
L 2766 0 
L 2766 531 
Q 2569 213 2275 61 
Q 1981 -91 1556 -91 
Q 1019 -91 701 211 
Q 384 513 384 1019 
Q 384 1609 779 1909 
Q 1175 2209 1959 2209 
L 2766 2209 
L 2766 2266 
Q 2766 2663 2505 2880 
Q 2244 3097 1772 3097 
Q 1472 3097 1187 3025 
Q 903 2953 641 2809 
L 641 3341 
Q 956 3463 1253 3523 
Q 1550 3584 1831 3584 
Q 2591 3584 2966 3190 
Q 3341 2797 3341 1997 
z
" transform="scale(0.015625)"/>
      <path id="DejaVuSans-76" d="M 191 3500 
L 800 3500 
L 1894 563 
L 2988 3500 
L 3597 3500 
L 2284 0 
L 1503 0 
L 191 3500 
z
" transform="scale(0.015625)"/>
      <path id="DejaVuSans-73" d="M 2834 3397 
L 2834 2853 
Q 2591 2978 2328 3040 
Q 2066 3103 1784 3103 
Q 1356 3103 1142 2972 
Q 928 2841 928 2578 
Q 928 2378 1081 2264 
Q 1234 2150 1697 2047 
L 1894 2003 
Q 2506 1872 2764 1633 
Q 3022 1394 3022 966 
Q 3022 478 2636 193 
Q 2250 -91 1575 -91 
Q 1294 -91 989 -36 
Q 684 19 347 128 
L 347 722 
Q 666 556 975 473 
Q 1284 391 1588 391 
Q 1994 391 2212 530 
Q 2431 669 2431 922 
Q 2431 1156 2273 1281 
Q 2116 1406 1581 1522 
L 1381 1569 
Q 847 1681 609 1914 
Q 372 2147 372 2553 
Q 372 3047 722 3315 
Q 1072 3584 1716 3584 
Q 2034 3584 2315 3537 
Q 2597 3491 2834 3397 
z
" transform="scale(0.015625)"/>
      <path id="DejaVuSans-64" d="M 2906 2969 
L 2906 4863 
L 3481 4863 
L 3481 0 
L 2906 0 
L 2906 525 
Q 2725 213 2448 61 
Q 2172 -91 1784 -91 
Q 1150 -91 751 415 
Q 353 922 353 1747 
Q 353 2572 751 3078 
Q 1150 3584 1784 3584 
Q 2172 3584 2448 3432 
Q 2725 3281 2906 2969 
z
M 947 1747 
Q 947 1113 1208 752 
Q 1469 391 1925 391 
Q 2381 391 2643 752 
Q 2906 1113 2906 1747 
Q 2906 2381 2643 2742 
Q 2381 3103 1925 3103 
Q 1469 3103 1208 2742 
Q 947 2381 947 1747 
z
" transform="scale(0.015625)"/>
      <path id="DejaVuSans-6f" d="M 1959 3097 
Q 1497 3097 1228 2736 
Q 959 2375 959 1747 
Q 959 1119 1226 758 
Q 1494 397 1959 397 
Q 2419 397 2687 759 
Q 2956 1122 2956 1747 
Q 2956 2369 2687 2733 
Q 2419 3097 1959 3097 
z
M 1959 3584 
Q 2709 3584 3137 3096 
Q 3566 2609 3566 1747 
Q 3566 888 3137 398 
Q 2709 -91 1959 -91 
Q 1206 -91 779 398 
Q 353 888 353 1747 
Q 353 2609 779 3096 
Q 1206 3584 1959 3584 
z
" transform="scale(0.015625)"/>
      <path id="DejaVuSans-6d" d="M 3328 2828 
Q 3544 3216 3844 3400 
Q 4144 3584 4550 3584 
Q 5097 3584 5394 3201 
Q 5691 2819 5691 2113 
L 5691 0 
L 5113 0 
L 5113 2094 
Q 5113 2597 4934 2840 
Q 4756 3084 4391 3084 
Q 3944 3084 3684 2787 
Q 3425 2491 3425 1978 
L 3425 0 
L 2847 0 
L 2847 2094 
Q 2847 2600 2669 2842 
Q 2491 3084 2119 3084 
Q 1678 3084 1418 2786 
Q 1159 2488 1159 1978 
L 1159 0 
L 581 0 
L 581 3500 
L 1159 3500 
L 1159 2956 
Q 1356 3278 1631 3431 
Q 1906 3584 2284 3584 
Q 2666 3584 2933 3390 
Q 3200 3197 3328 2828 
z
" transform="scale(0.015625)"/>
      <path id="DejaVuSans-70" d="M 1159 525 
L 1159 -1331 
L 581 -1331 
L 581 3500 
L 1159 3500 
L 1159 2969 
Q 1341 3281 1617 3432 
Q 1894 3584 2278 3584 
Q 2916 3584 3314 3078 
Q 3713 2572 3713 1747 
Q 3713 922 3314 415 
Q 2916 -91 2278 -91 
Q 1894 -91 1617 61 
Q 1341 213 1159 525 
z
M 3116 1747 
Q 3116 2381 2855 2742 
Q 2594 3103 2138 3103 
Q 1681 3103 1420 2742 
Q 1159 2381 1159 1747 
Q 1159 1113 1420 752 
Q 1681 391 2138 391 
Q 2594 391 2855 752 
Q 3116 1113 3116 1747 
z
" transform="scale(0.015625)"/>
      <path id="DejaVuSans-6c" d="M 603 4863 
L 1178 4863 
L 1178 0 
L 603 0 
L 603 4863 
z
" transform="scale(0.015625)"/>
     </defs>
     <use xlink:href="#DejaVuSans-46"/>
     <use xlink:href="#DejaVuSans-69" x="50.269531"/>
     <use xlink:href="#DejaVuSans-72" x="78.052734"/>
     <use xlink:href="#DejaVuSans-69" x="119.166016"/>
     <use xlink:href="#DejaVuSans-6e" x="146.949219"/>
     <use xlink:href="#DejaVuSans-67" x="210.328125"/>
     <use xlink:href="#DejaVuSans-20" x="273.804688"/>
     <use xlink:href="#DejaVuSans-72" x="305.591797"/>
     <use xlink:href="#DejaVuSans-61" x="346.705078"/>
     <use xlink:href="#DejaVuSans-74" x="407.984375"/>
     <use xlink:href="#DejaVuSans-65" x="447.193359"/>
     <use xlink:href="#DejaVuSans-20" x="508.716797"/>
     <use xlink:href="#DejaVuSans-76" x="540.503906"/>
     <use xlink:href="#DejaVuSans-73" x="599.683594"/>
     <use xlink:href="#DejaVuSans-2e" x="651.783203"/>
     <use xlink:href="#DejaVuSans-20" x="683.570312"/>
     <use xlink:href="#DejaVuSans-63" x="715.357422"/>
     <use xlink:href="#DejaVuSans-75" x="770.337891"/>
     <use xlink:href="#DejaVuSans-72" x="833.716797"/>
     <use xlink:href="#DejaVuSans-72" x="873.080078"/>
     <use xlink:href="#DejaVuSans-65" x="911.943359"/>
     <use xlink:href="#DejaVuSans-6e" x="973.466797"/>
     <use xlink:href="#DejaVuSans-74" x="1036.845703"/>
     <use xlink:href="#DejaVuSans-20" x="1076.054688"/>
     <use xlink:href="#DejaVuSans-61" x="1107.841797"/>
     <use xlink:href="#DejaVuSans-74" x="1169.121094"/>
     <use xlink:href="#DejaVuSans-20" x="1208.330078"/>
     <use xlink:href="#DejaVuSans-64" x="1240.117188"/>
     <use xlink:href="#DejaVuSans-69" x="1303.59375"/>
     <use xlink:href="#DejaVuSans-66" x="1331.376953"/>
     <use xlink:href="#DejaVuSans-66" x="1366.582031"/>
     <use xlink:href="#DejaVuSans-65" x="1401.787109"/>
     <use xlink:href="#DejaVuSans-72" x="1463.310547"/>
     <use xlink:href="#DejaVuSans-65" x="1502.173828"/>
     <use xlink:href="#DejaVuSans-6e" x="1563.697266"/>
     <use xlink:href="#DejaVuSans-74" x="1627.076172"/>
     <use xlink:href="#DejaVuSans-20" x="1666.285156"/>
     <use xlink:href="#DejaVuSans-6e" x="1698.072266"/>
     <use xlink:href="#DejaVuSans-6f" x="1761.451172"/>
     <use xlink:href="#DejaVuSans-69" x="1822.632812"/>
     <use xlink:href="#DejaVuSans-73" x="1850.416016"/>
     <use xlink:href="#DejaVuSans-65" x="1902.515625"/>
     <use xlink:href="#DejaVuSans-20" x="1964.039062"/>
     <use xlink:href="#DejaVuSans-61" x="1995.826172"/>
     <use xlink:href="#DejaVuSans-6d" x="2057.105469"/>
     <use xlink:href="#DejaVuSans-70" x="2154.517578"/>
     <use xlink:href="#DejaVuSans-6c" x="2217.994141"/>
     <use xlink:href="#DejaVuSans-69" x="2245.777344"/>
     <use xlink:href="#DejaVuSans-74" x="2273.560547"/>
     <use xlink:href="#DejaVuSans-75" x="2312.769531"/>
     <use xlink:href="#DejaVuSans-64" x="2376.148438"/>
     <use xlink:href="#DejaVuSans-65" x="2439.625"/>
     <use xlink:href="#DejaVuSans-73" x="2501.148438"/>
    </g>
   </g>
   <g id="legend_1">
    <g id="patch_7">
     <path d="M 64.6 122.8845 
L 167.5 122.8845 
Q 169.5 122.8845 169.5 120.8845 
L 169.5 48.472 
Q 169.5 46.472 167.5 46.472 
L 64.6 46.472 
Q 62.6 46.472 62.6 48.472 
L 62.6 120.8845 
Q 62.6 122.8845 64.6 122.8845 
z
" style="fill: #ffffff; opacity: 0.8; stroke: #cccccc; stroke-linejoin: miter"/>
    </g>
    <g id="line2d_21">
     <path d="M 66.6 54.572 
L 76.6 54.572 
L 86.6 54.572 
" style="fill: none; stroke: #000000; stroke-width: 0.8; stroke-linecap: square"/>
    </g>
    <g id="text_19">
     <!-- $\sigma = 0$, analytic -->
     <g transform="translate(94.6 58.072) scale(0.1 -0.1)">
      <defs>
       <path id="DejaVuSans-Oblique-3c3" d="M 2219 3044 
Q 1744 3044 1422 2700 
Q 1081 2341 969 1747 
Q 844 1119 1044 756 
Q 1241 397 1706 397 
Q 2166 397 2503 759 
Q 2844 1122 2966 1747 
Q 3075 2319 2881 2700 
Q 2700 3044 2219 3044 
z
M 2309 3503 
L 4219 3500 
L 4106 2925 
L 3463 2925 
Q 3706 2438 3575 1747 
Q 3406 888 2884 400 
Q 2359 -91 1609 -91 
Q 856 -91 525 400 
Q 194 888 363 1747 
Q 528 2609 1050 3097 
Q 1484 3503 2309 3503 
z
" transform="scale(0.015625)"/>
       <path id="DejaVuSans-3d" d="M 678 2906 
L 4684 2906 
L 4684 2381 
L 678 2381 
L 678 2906 
z
M 678 1631 
L 4684 1631 
L 4684 1100 
L 678 1100 
L 678 1631 
z
" transform="scale(0.015625)"/>
       <path id="DejaVuSans-2c" d="M 750 794 
L 1409 794 
L 1409 256 
L 897 -744 
L 494 -744 
L 750 256 
L 750 794 
z
" transform="scale(0.015625)"/>
      </defs>
      <use xlink:href="#DejaVuSans-Oblique-3c3" transform="translate(0 0.015625)"/>
      <use xlink:href="#DejaVuSans-3d" transform="translate(82.861328 0.015625)"/>
      <use xlink:href="#DejaVuSans-30" transform="translate(186.132812 0.015625)"/>
      <use xlink:href="#DejaVuSans-2c" transform="translate(249.755859 0.015625)"/>
      <use xlink:href="#DejaVuSans-20" transform="translate(281.542969 0.015625)"/>
      <use xlink:href="#DejaVuSans-61" transform="translate(313.330078 0.015625)"/>
      <use xlink:href="#DejaVuSans-6e" transform="translate(374.609375 0.015625)"/>
      <use xlink:href="#DejaVuSans-61" transform="translate(437.988281 0.015625)"/>
      <use xlink:href="#DejaVuSans-6c" transform="translate(499.267578 0.015625)"/>
      <use xlink:href="#DejaVuSans-79" transform="translate(527.050781 0.015625)"/>
      <use xlink:href="#DejaVuSans-74" transform="translate(586.230469 0.015625)"/>
      <use xlink:href="#DejaVuSans-69" transform="translate(625.439453 0.015625)"/>
      <use xlink:href="#DejaVuSans-63" transform="translate(653.222656 0.015625)"/>
     </g>
    </g>
    <g id="line2d_22">
     <path d="M 66.6 69.270438 
L 76.6 69.270438 
L 86.6 69.270438 
" style="fill: none; stroke: #ff0000; stroke-width: 1.5; stroke-linecap: square"/>
    </g>
    <g id="text_20">
     <!-- $\sigma = 6$ -->
     <g transform="translate(94.6 72.770438) scale(0.1 -0.1)">
      <defs>
       <path id="DejaVuSans-36" d="M 2113 2584 
Q 1688 2584 1439 2293 
Q 1191 2003 1191 1497 
Q 1191 994 1439 701 
Q 1688 409 2113 409 
Q 2538 409 2786 701 
Q 3034 994 3034 1497 
Q 3034 2003 2786 2293 
Q 2538 2584 2113 2584 
z
M 3366 4563 
L 3366 3988 
Q 3128 4100 2886 4159 
Q 2644 4219 2406 4219 
Q 1781 4219 1451 3797 
Q 1122 3375 1075 2522 
Q 1259 2794 1537 2939 
Q 1816 3084 2150 3084 
Q 2853 3084 3261 2657 
Q 3669 2231 3669 1497 
Q 3669 778 3244 343 
Q 2819 -91 2113 -91 
Q 1303 -91 875 529 
Q 447 1150 447 2328 
Q 447 3434 972 4092 
Q 1497 4750 2381 4750 
Q 2619 4750 2861 4703 
Q 3103 4656 3366 4563 
z
" transform="scale(0.015625)"/>
      </defs>
      <use xlink:href="#DejaVuSans-Oblique-3c3" transform="translate(0 0.78125)"/>
      <use xlink:href="#DejaVuSans-3d" transform="translate(82.861328 0.78125)"/>
      <use xlink:href="#DejaVuSans-36" transform="translate(186.132812 0.78125)"/>
     </g>
    </g>
    <g id="line2d_23">
     <path d="M 66.6 83.948563 
L 76.6 83.948563 
L 86.6 83.948563 
" style="fill: none; stroke: #ff0000; stroke-opacity: 0.8; stroke-width: 1.5; stroke-linecap: square"/>
    </g>
    <g id="text_21">
     <!-- $\sigma = 3$ -->
     <g transform="translate(94.6 87.448563) scale(0.1 -0.1)">
      <use xlink:href="#DejaVuSans-Oblique-3c3" transform="translate(0 0.78125)"/>
      <use xlink:href="#DejaVuSans-3d" transform="translate(82.861328 0.78125)"/>
      <use xlink:href="#DejaVuSans-33" transform="translate(186.132812 0.78125)"/>
     </g>
    </g>
    <g id="line2d_24">
     <path d="M 66.6 98.626688 
L 76.6 98.626688 
L 86.6 98.626688 
" style="fill: none; stroke: #ff0000; stroke-opacity: 0.6; stroke-width: 1.5; stroke-linecap: square"/>
    </g>
    <g id="text_22">
     <!-- $\sigma = 1$ -->
     <g transform="translate(94.6 102.126688) scale(0.1 -0.1)">
      <use xlink:href="#DejaVuSans-Oblique-3c3" transform="translate(0 0.09375)"/>
      <use xlink:href="#DejaVuSans-3d" transform="translate(82.861328 0.09375)"/>
      <use xlink:href="#DejaVuSans-31" transform="translate(186.132812 0.09375)"/>
     </g>
    </g>
    <g id="line2d_25">
     <path d="M 66.6 113.304812 
L 76.6 113.304812 
L 86.6 113.304812 
" style="fill: none; stroke: #ff0000; stroke-opacity: 0.4; stroke-width: 1.5; stroke-linecap: square"/>
    </g>
    <g id="text_23">
     <!-- $\sigma = 0.2$ -->
     <g transform="translate(94.6 116.804812) scale(0.1 -0.1)">
      <use xlink:href="#DejaVuSans-Oblique-3c3" transform="translate(0 0.78125)"/>
      <use xlink:href="#DejaVuSans-3d" transform="translate(82.861328 0.78125)"/>
      <use xlink:href="#DejaVuSans-30" transform="translate(186.132812 0.78125)"/>
      <use xlink:href="#DejaVuSans-2e" transform="translate(249.755859 0.78125)"/>
      <use xlink:href="#DejaVuSans-32" transform="translate(276.042969 0.78125)"/>
     </g>
    </g>
   </g>
  </g>
 </g>
 <defs>
  <clipPath id="p89d5693c4b">
   <rect x="57.6" y="41.472" width="357.12" height="266.112"/>
  </clipPath>
 </defs>
</svg>
